<?xml version="1.0" encoding="utf-8" standalone="no"?>
<!DOCTYPE svg PUBLIC "-//W3C//DTD SVG 1.1//EN"
  "http://www.w3.org/Graphics/SVG/1.1/DTD/svg11.dtd">
<!-- Created with matplotlib (https://matplotlib.org/) -->
<svg height="504pt" version="1.1" viewBox="0 0 576 504" width="576pt" xmlns="http://www.w3.org/2000/svg" xmlns:xlink="http://www.w3.org/1999/xlink">
 <defs>
  <style type="text/css">
*{stroke-linecap:butt;stroke-linejoin:round;}
  </style>
 </defs>
 <g id="figure_1">
  <g id="patch_1">
   <path d="M 0 504 
L 576 504 
L 576 0 
L 0 0 
z
" style="fill:#ffffff;"/>
  </g>
  <g id="axes_1">
   <g id="patch_2">
    <path d="M 72 441 
L 518.4 441 
L 518.4 60.48 
L 72 60.48 
z
" style="fill:#ffffff;"/>
   </g>
   <g id="PathCollection_1">
    <defs>
     <path d="M 0 2.236068 
C 0.593012 2.236068 1.161816 2.000462 1.581139 1.581139 
C 2.000462 1.161816 2.236068 0.593012 2.236068 0 
C 2.236068 -0.593012 2.000462 -1.161816 1.581139 -1.581139 
C 1.161816 -2.000462 0.593012 -2.236068 0 -2.236068 
C -0.593012 -2.236068 -1.161816 -2.000462 -1.581139 -1.581139 
C -2.000462 -1.161816 -2.236068 -0.593012 -2.236068 0 
C -2.236068 0.593012 -2.000462 1.161816 -1.581139 1.581139 
C -1.161816 2.000462 -0.593012 2.236068 0 2.236068 
z
" id="m240b167265" style="stroke:#00008b;stroke-opacity:0.6;"/>
    </defs>
    <g clip-path="url(#p617a000441)">
     <use style="fill:#00008b;fill-opacity:0.6;stroke:#00008b;stroke-opacity:0.6;" x="304.954486" xlink:href="#m240b167265" y="186.331905"/>
    </g>
   </g>
   <g id="patch_3">
    <path clip-path="url(#p617a000441)" d="M 92.290909 440.32993 
L 128.002074 436.680818 
L 140.30372 433.417725 
L 148.51794 430.205988 
L 149.64693 429.685108 
L 149.808779 429.608723 
L 158.986288 424.508004 
L 163.395028 421.457283 
L 167.158749 418.503142 
L 168.420432 417.436095 
L 170.809994 415.304573 
L 173.024652 413.195306 
L 176.363401 409.761397 
L 176.546036 409.564483 
L 178.411165 407.498218 
L 181.491148 403.860441 
L 181.822415 403.452064 
L 181.99144 403.242395 
L 182.302037 402.854818 
L 182.687976 402.369068 
L 183.241319 401.664549 
L 184.613959 399.875504 
L 187.122133 396.451791 
L 188.334782 394.723698 
L 189.624555 392.832911 
L 190.768128 391.110545 
L 191.554741 389.900586 
L 193.058365 387.530154 
L 193.866846 386.224187 
L 196.017915 382.641866 
L 196.990563 380.970475 
L 198.795826 377.782925 
L 202.466576 370.958906 
L 202.584176 370.732706 
L 204.040663 367.892365 
L 204.511069 366.959697 
L 204.971379 366.039833 
L 205.581822 364.808975 
L 206.764949 362.387916 
L 207.114024 361.664693 
L 207.580788 360.691331 
L 207.962879 359.889186 
L 208.249299 359.284735 
L 208.503759 358.745471 
L 208.557174 358.632002 
L 208.898754 357.904178 
L 209.520533 356.569549 
L 209.637688 356.316672 
L 209.930292 355.683151 
L 210.648187 354.117121 
L 211.421325 352.412109 
L 211.651178 351.90154 
L 211.921755 351.298368 
L 212.127606 350.837936 
L 212.952246 348.980102 
L 213.439874 347.871552 
L 214.270553 345.966234 
L 214.5721 345.269359 
L 215.078486 344.092897 
L 215.153633 343.917653 
L 215.381226 343.385869 
L 216.272762 341.287869 
L 216.851143 339.914264 
L 217.174883 339.141153 
L 217.294467 338.854812 
L 218.112362 336.885382 
L 218.348107 336.314192 
L 218.658275 335.560299 
L 219.265911 334.075604 
L 219.285966 334.026427 
L 219.764453 332.849862 
L 220.353547 331.392773 
L 220.386547 331.310873 
L 221.544681 328.418324 
L 221.600788 328.277301 
L 221.850155 327.649535 
L 222.178516 326.820477 
L 222.320029 326.462331 
L 222.980579 324.783931 
L 223.368268 323.7938 
L 223.42067 323.659687 
L 224.070947 321.98988 
L 224.318614 321.351248 
L 224.490862 320.906234 
L 224.506086 320.866867 
L 224.73626 320.271032 
L 224.746841 320.243612 
L 225.012346 319.554721 
L 225.331374 318.724813 
L 225.433279 318.459233 
L 225.815327 317.461471 
L 226.00627 316.961579 
L 226.122682 316.656417 
L 226.182264 316.500113 
L 226.200573 316.452066 
L 227.398074 313.293901 
L 227.692347 312.513198 
L 227.978402 311.752595 
L 228.299184 310.897696 
L 229.313713 308.180643 
L 229.682579 307.187915 
L 229.815017 306.83087 
L 230.804372 304.153684 
L 231.109669 303.324108 
L 231.135086 303.254973 
L 231.272296 302.881565 
L 231.365981 302.626428 
L 231.578622 302.046795 
L 231.83495 301.347095 
L 232.873576 298.501405 
L 232.924047 298.362703 
L 232.958961 298.266733 
L 233.077188 297.941622 
L 233.460089 296.887308 
L 233.840681 295.837303 
L 233.872216 295.750213 
L 233.887737 295.707344 
L 234.025388 295.327006 
L 234.836733 293.08016 
L 235.640229 290.847013 
L 235.745411 290.554126 
L 236.294285 289.023756 
L 236.509071 288.424015 
L 236.746837 287.759558 
L 236.895394 287.344117 
L 237.087195 286.807424 
L 237.271506 286.291364 
L 237.439611 285.820404 
L 237.5105 285.621728 
L 238.535455 282.744363 
L 238.88394 281.764182 
L 239.092027 281.17849 
L 239.114392 281.115522 
L 239.15514 281.000787 
L 239.251085 280.730595 
L 239.526476 279.954732 
L 240.218709 278.002504 
L 240.578394 276.987115 
L 240.814856 276.319251 
L 241.23682 275.12687 
L 241.859421 273.366359 
L 242.198593 272.406814 
L 242.209803 272.375093 
L 243.00394 270.127468 
L 243.066615 269.950042 
L 244.134842 266.9257 
L 244.744452 265.199981 
L 244.907352 264.738916 
L 244.930873 264.672348 
L 244.962256 264.583531 
L 245.10968 264.166327 
L 245.595077 262.793024 
L 245.72527 262.424785 
L 245.738232 262.388125 
L 246.148998 261.226691 
L 246.47939 260.292963 
L 246.530235 260.149308 
L 247.456156 257.535445 
L 247.597316 257.137359 
L 247.780705 256.620363 
L 248.024334 255.933875 
L 248.323199 255.092292 
L 248.349202 255.019099 
L 248.55299 254.445653 
L 248.623457 254.247436 
L 249.353684 252.195733 
L 249.489139 251.815649 
L 249.8464 250.813997 
L 250.245874 249.695464 
L 250.266939 249.636527 
L 250.474274 249.056678 
L 250.581519 248.756926 
L 250.702797 248.418105 
L 250.750038 248.28617 
L 250.882472 247.916437 
L 251.208246 247.007797 
L 251.218891 246.978127 
L 251.286299 246.790281 
L 251.348533 246.6169 
L 251.920945 245.024461 
L 252.019823 244.74981 
L 252.098829 244.530451 
L 252.118535 244.475752 
L 252.259205 244.08543 
L 252.483714 243.463044 
L 252.502387 243.411309 
L 252.655048 242.988544 
L 252.889545 242.339806 
L 252.988169 242.067204 
L 253.120544 241.701539 
L 253.69586 240.115464 
L 254.007148 239.259487 
L 254.279994 238.510543 
L 254.541085 237.795063 
L 254.597964 237.63935 
L 254.679455 237.416364 
L 255.205399 235.980078 
L 255.408073 235.42797 
L 255.445998 235.324746 
L 255.505845 235.161906 
L 255.514043 235.139605 
L 255.649454 234.771443 
L 255.811076 234.332481 
L 255.815287 234.32105 
L 255.893424 234.109025 
L 255.944127 233.971505 
L 256.21766 233.23051 
L 256.269551 233.090108 
L 256.304679 232.995096 
L 256.37892 232.794374 
L 256.719695 231.874511 
L 256.752297 231.786635 
L 256.812928 231.623273 
L 256.91971 231.335753 
L 257.130071 230.770062 
L 257.665583 229.334429 
L 258.047491 228.314588 
L 258.134821 228.081863 
L 258.313792 227.605493 
L 258.330044 227.562274 
L 259.215751 225.216665 
L 259.338414 224.893376 
L 259.725655 223.875329 
L 260.151677 222.759921 
L 260.402596 222.105271 
L 260.448705 221.985159 
L 260.903969 220.802427 
L 260.949612 220.684175 
L 260.967325 220.6383 
L 261.009115 220.530104 
L 261.035834 220.460951 
L 261.364549 219.611902 
L 261.468365 219.344406 
L 261.812129 218.460937 
L 262.216021 217.427485 
L 262.452306 216.825218 
L 262.758647 216.046978 
L 262.83826 215.845214 
L 262.849437 215.816904 
L 263.294416 214.69308 
L 263.664224 213.764017 
L 263.726331 213.608431 
L 263.741829 213.569626 
L 263.842466 213.317843 
L 264.093287 212.691797 
L 264.106247 212.659508 
L 264.232706 212.344734 
L 264.44036 211.829043 
L 264.494382 211.695127 
L 264.622801 211.377197 
L 264.824746 210.878402 
L 265.233297 209.873709 
L 265.288745 209.737815 
L 265.602954 208.969832 
L 265.622226 208.922843 
L 265.964836 208.089805 
L 266.277122 207.334297 
L 266.357425 207.140613 
L 266.578696 206.608193 
L 266.817466 206.035767 
L 266.897138 205.845252 
L 266.90932 205.816142 
L 266.968428 205.674988 
L 267.216603 205.083807 
L 267.301641 204.881793 
L 267.577652 204.228075 
L 267.788045 203.73181 
L 267.845867 203.595733 
L 267.850952 203.583774 
L 267.996435 203.242027 
L 268.046352 203.124966 
L 268.643095 201.73345 
L 268.649616 201.718324 
L 269.004664 200.897516 
L 269.225802 200.388972 
L 269.227405 200.385293 
L 269.430631 199.919792 
L 269.453913 199.866576 
L 269.571197 199.598854 
L 269.817327 199.038951 
L 270.382424 197.763478 
L 271.178449 195.99095 
L 271.347353 195.618551 
L 271.560412 195.150671 
L 271.600303 195.063304 
L 271.870683 194.473083 
L 271.944406 194.312744 
L 272.019531 194.149619 
L 272.133674 193.902279 
L 272.497986 193.116972 
L 272.579991 192.941077 
L 272.632615 192.82837 
L 272.810395 192.448604 
L 272.817501 192.433455 
L 272.842036 192.381174 
L 272.990268 192.06592 
L 273.13612 191.75677 
L 273.501881 190.986082 
L 273.657132 190.660949 
L 273.98365 189.981055 
L 274.238788 189.45351 
L 274.47461 188.968829 
L 274.553686 188.806938 
L 274.839618 188.224223 
L 275.06722 187.763388 
L 275.19672 187.50238 
L 275.296513 187.30184 
L 275.847423 186.204142 
L 276.257528 185.397421 
L 276.296947 185.320352 
L 276.445991 185.029707 
L 276.595344 184.739659 
L 276.710221 184.517383 
L 276.901193 184.149457 
L 277.041598 183.880219 
L 277.224446 183.531212 
L 277.236046 183.509131 
L 277.254815 183.473423 
L 277.289567 183.407356 
L 277.359705 183.27422 
L 277.447919 183.107156 
L 277.75352 182.531726 
L 277.932478 182.197171 
L 278.168078 181.75946 
L 278.307403 181.502081 
L 278.626641 180.916484 
L 279.186956 179.902717 
L 279.480977 179.37798 
L 279.910829 178.619867 
L 280.026955 178.416917 
L 280.095253 178.297923 
L 280.228276 178.066952 
L 280.320719 177.907055 
L 280.524936 177.55562 
L 280.870138 176.967209 
L 281.37957 176.111919 
L 281.440097 176.011341 
L 281.471765 175.958805 
L 281.732656 175.52833 
L 281.744695 175.508565 
L 281.825894 175.375491 
L 282.028296 175.045536 
L 282.088319 174.94817 
L 282.122707 174.892488 
L 282.179422 174.800812 
L 282.294543 174.615334 
L 282.332297 174.554684 
L 282.522959 174.249744 
L 282.561255 174.188764 
L 282.681491 173.997906 
L 282.694916 173.97665 
L 282.743062 173.900517 
L 282.841546 173.745234 
L 282.938409 173.593096 
L 283.104277 173.333939 
L 283.166666 173.236907 
L 283.180591 173.215283 
L 283.314527 173.007917 
L 283.464493 172.777073 
L 283.465792 172.77508 
L 283.617208 172.543456 
L 283.647908 172.496672 
L 283.679987 172.447848 
L 283.89334 172.124794 
L 284.190657 171.679435 
L 284.289105 171.53321 
L 284.662679 170.984007 
L 284.752532 170.853252 
L 284.865354 170.68981 
L 285.05321 170.419499 
L 285.261535 170.122414 
L 285.277168 170.100235 
L 285.723154 169.474209 
L 285.794212 169.37567 
L 285.806984 169.357993 
L 286.145721 168.893107 
L 286.171922 168.857465 
L 286.450065 168.481894 
L 287.050663 167.688482 
L 287.081362 167.648576 
L 287.186565 167.512299 
L 287.408831 167.226831 
L 287.469082 167.150021 
L 287.742056 166.805097 
L 287.830722 166.694146 
L 287.912346 166.592478 
L 288.429336 165.959068 
L 288.724483 165.605651 
L 288.933152 165.359394 
L 288.970087 165.316118 
L 289.291437 164.943573 
L 289.362662 164.861967 
L 289.428058 164.78735 
L 289.429318 164.785916 
L 289.59899 164.593717 
L 289.609848 164.581486 
L 289.72893 164.447878 
L 289.887633 164.271352 
L 289.937762 164.215958 
L 290.306073 163.81435 
L 290.430132 163.681215 
L 290.791512 163.29956 
L 290.84014 163.248907 
L 290.872719 163.215064 
L 290.94361 163.141681 
L 291.04351 163.038873 
L 291.32667 162.751308 
L 291.385844 162.691932 
L 291.518468 162.559757 
L 291.622716 162.456741 
L 291.719616 162.361679 
L 291.748353 162.333616 
L 291.890684 162.195489 
L 292.298654 161.807594 
L 292.536989 161.586506 
L 292.819762 161.329491 
L 293.22564 160.970665 
L 293.251894 160.947864 
L 293.281311 160.922375 
L 293.322718 160.886605 
L 293.918157 160.385973 
L 293.933427 160.373473 
L 293.944611 160.364329 
L 294.277304 160.096485 
L 294.342424 160.045004 
L 294.363633 160.028304 
L 294.389982 160.007603 
L 294.407415 159.993934 
L 294.429502 159.976649 
L 294.590792 159.851503 
L 294.649746 159.806236 
L 294.753657 159.727069 
L 294.901247 159.615985 
L 294.953275 159.577208 
L 295.084672 159.480161 
L 295.090531 159.475863 
L 295.167468 159.419662 
L 295.228576 159.375334 
L 295.410771 159.244801 
L 295.52029 159.167514 
L 295.539608 159.153973 
L 295.653364 159.074795 
L 295.765978 158.997355 
L 295.786841 158.983111 
L 295.909764 158.899841 
L 296.038564 158.81379 
L 296.213616 158.698808 
L 296.272858 158.66041 
L 296.723256 158.377006 
L 296.874787 158.285051 
L 297.067148 158.170783 
L 297.261623 158.058064 
L 297.303658 158.034072 
L 297.473318 157.938576 
L 297.485379 157.93187 
L 297.719216 157.803991 
L 297.79327 157.764346 
L 297.870575 157.7234 
L 298.090501 157.60936 
L 298.131763 157.588369 
L 298.55992 157.378099 
L 298.834751 157.250393 
L 299.033913 157.161404 
L 299.070291 157.145473 
L 299.123803 157.122219 
L 299.197109 157.090715 
L 299.362199 157.02125 
L 299.631599 156.912315 
L 299.666925 156.898437 
L 299.789862 156.850878 
L 300.030958 156.760927 
L 300.268831 156.676493 
L 300.351392 156.648191 
L 300.500061 156.598528 
L 300.606547 156.563987 
L 300.622498 156.558887 
L 300.776582 156.510618 
L 300.798697 156.503837 
L 301.023898 156.43691 
L 301.235191 156.37762 
L 301.334908 156.350817 
L 301.755683 156.24605 
L 302.020149 156.1871 
L 302.159373 156.158208 
L 302.941505 156.023367 
L 303.059836 156.007031 
L 303.070888 156.00556 
L 303.087542 156.003361 
L 303.198794 155.989212 
L 303.271778 155.980444 
L 303.286746 155.978696 
L 303.341161 155.972485 
L 303.466707 155.959018 
L 303.868269 155.924028 
L 304.079355 155.910575 
L 304.821996 155.890305 
L 305.040291 155.892363 
L 305.290375 155.899196 
L 305.46182 155.906642 
L 305.553636 155.911553 
L 305.662763 155.918228 
L 305.978752 155.942687 
L 306.512504 156.001323 
L 306.819748 156.044938 
L 306.944627 156.064725 
L 307.035942 156.079947 
L 307.177673 156.104832 
L 307.318868 156.131146 
L 307.410848 156.149105 
L 307.665505 156.202192 
L 307.783587 156.228484 
L 307.830689 156.239268 
L 307.945434 156.266246 
L 308.027775 156.286223 
L 308.205407 156.331077 
L 308.476205 156.404074 
L 308.699323 156.468406 
L 308.825576 156.506485 
L 308.947834 156.544512 
L 309.106162 156.595444 
L 309.213823 156.631164 
L 309.388604 156.691024 
L 309.426852 156.704432 
L 309.5702 156.75567 
L 309.923434 156.88857 
L 310.3731 157.0714 
L 310.56509 157.154113 
L 310.602072 157.170365 
L 310.792258 157.25557 
L 310.894721 157.302605 
L 311.188501 157.441842 
L 311.19625 157.445603 
L 311.363709 157.527971 
L 311.462095 157.577348 
L 311.694485 157.696859 
L 311.80535 157.755301 
L 311.97159 157.844659 
L 311.977621 157.84794 
L 312.010581 157.865917 
L 312.152166 157.944067 
L 312.192965 157.966865 
L 312.221413 157.982835 
L 312.288564 158.020772 
L 312.355564 158.058959 
L 312.54728 158.170081 
L 312.703854 158.262867 
L 312.773321 158.30462 
L 312.979048 158.430376 
L 313.363778 158.673999 
L 314.027522 159.120103 
L 314.277863 159.296815 
L 314.627539 159.551375 
L 314.655883 159.572403 
L 314.678996 159.589594 
L 314.750867 159.643301 
L 314.977676 159.815274 
L 315.12359 159.927904 
L 315.209191 159.994704 
L 315.212701 159.997454 
L 315.263926 160.037698 
L 315.421564 160.162746 
L 315.439142 160.176802 
L 315.549379 160.265468 
L 315.65909 160.35459 
L 315.773835 160.448741 
L 315.866319 160.525323 
L 315.954921 160.599274 
L 316.01184 160.647082 
L 316.160504 160.773059 
L 316.187865 160.796419 
L 316.431928 161.007195 
L 316.837185 161.366692 
L 316.862661 161.389686 
L 316.904947 161.427958 
L 316.990772 161.50603 
L 317.071631 161.58007 
L 317.082898 161.590425 
L 317.170338 161.671091 
L 317.400407 161.885957 
L 317.525395 162.004276 
L 317.586381 162.062414 
L 317.735977 162.206149 
L 317.820237 162.287811 
L 317.94368 162.408363 
L 317.980457 162.444489 
L 318.217567 162.679708 
L 318.266371 162.728619 
L 318.715442 163.186593 
L 318.837295 163.313322 
L 319.095243 163.585042 
L 319.125813 163.617555 
L 319.204117 163.701134 
L 319.53186 164.055622 
L 319.555549 164.081536 
L 319.844128 164.40036 
L 319.989884 164.563599 
L 320.273922 164.885946 
L 320.661057 165.334292 
L 320.914703 165.633645 
L 321.212386 165.990606 
L 321.267075 166.056846 
L 321.35414 166.16272 
L 321.407654 166.228052 
L 321.852032 166.778099 
L 321.870266 166.800955 
L 322.242538 167.272516 
L 322.410821 167.48875 
L 322.799061 167.994872 
L 322.883341 168.106075 
L 323.116127 168.415684 
L 323.235477 168.57582 
L 323.419458 168.824525 
L 323.449996 168.866024 
L 323.453327 168.870553 
L 323.607493 169.081025 
L 323.814055 169.365487 
L 323.818719 169.371942 
L 323.924672 169.518975 
L 323.973019 169.586311 
L 324.177485 169.872781 
L 324.590524 170.459801 
L 324.606601 170.482874 
L 325.342443 171.55682 
L 325.371839 171.600447 
L 325.590655 171.926928 
L 325.869122 172.346823 
L 325.917921 172.420913 
L 326.166721 172.801005 
L 326.327416 173.048577 
L 326.378126 173.127039 
L 326.513658 173.337538 
L 326.656298 173.560321 
L 326.730577 173.676836 
L 326.988022 174.083337 
L 327.017512 174.130163 
L 327.582203 175.037215 
L 327.681445 175.198653 
L 327.75774 175.323174 
L 327.80674 175.403335 
L 327.971967 175.674714 
L 328.100932 175.887691 
L 328.101284 175.888273 
L 328.160649 175.986652 
L 328.473508 176.508638 
L 328.551975 176.640481 
L 328.676335 176.850196 
L 328.818497 177.091065 
L 329.080138 177.537532 
L 329.083373 177.543077 
L 329.195695 177.736016 
L 329.611243 178.456306 
L 330.581631 180.177684 
L 330.877541 180.713423 
L 331.048501 181.025224 
L 331.084782 181.091607 
L 331.222466 181.344209 
L 331.367489 181.611435 
L 331.451274 181.766361 
L 331.500665 181.857875 
L 331.545752 181.941534 
L 331.803019 182.421071 
L 331.87376 182.553579 
L 332.280452 183.320758 
L 332.370279 183.491437 
L 332.891512 184.490554 
L 333.166681 185.023962 
L 333.235024 185.157076 
L 333.261533 185.208776 
L 333.332429 185.347228 
L 333.540832 185.755776 
L 333.813645 186.294086 
L 334.488464 187.64247 
L 334.560249 187.787306 
L 334.573362 187.81379 
L 335.059999 188.802974 
L 335.195341 189.080236 
L 336.354221 191.49205 
L 336.365442 191.515728 
L 336.751401 192.333919 
L 336.975641 192.812602 
L 337.371525 193.663582 
L 337.37618 193.673633 
L 337.530507 194.007424 
L 337.539199 194.026256 
L 337.549121 194.04776 
L 337.830497 194.659477 
L 338.33096 195.756614 
L 338.96091 197.153952 
L 339.056928 197.368512 
L 339.153417 197.584539 
L 339.294085 197.900224 
L 339.465494 198.286082 
L 339.596433 198.581713 
L 339.613331 198.61992 
L 340.219374 199.99842 
L 340.366043 200.334412 
L 340.399041 200.410132 
L 340.511433 200.668382 
L 340.615673 200.908379 
L 340.761171 201.244132 
L 340.8676 201.490295 
L 340.880308 201.519718 
L 340.88098 201.521273 
L 341.058106 201.932099 
L 341.238772 202.352476 
L 341.331791 202.56944 
L 341.355015 202.623666 
L 341.366129 202.649623 
L 341.822684 203.720285 
L 341.850409 203.785575 
L 341.852818 203.79125 
L 341.85752 203.802324 
L 342.119418 204.420661 
L 342.431025 205.159909 
L 342.436518 205.172975 
L 342.658055 205.70091 
L 342.664216 205.715619 
L 342.978798 206.468631 
L 343.119835 206.807467 
L 343.276567 207.184894 
L 343.465104 207.640142 
L 343.470439 207.653043 
L 343.730524 208.283292 
L 343.772126 208.384336 
L 344.295869 209.661861 
L 344.487807 210.132532 
L 344.554627 210.296698 
L 344.607923 210.427752 
L 344.684815 210.617007 
L 344.845821 211.013968 
L 344.908148 211.16788 
L 345.233682 211.973968 
L 345.261256 212.042416 
L 345.272643 212.070691 
L 345.767757 213.304341 
L 345.8397 213.484287 
L 346.413489 214.925617 
L 346.467113 215.060869 
L 346.495966 215.13368 
L 346.651358 215.526285 
L 346.779048 215.84948 
L 346.822326 215.959138 
L 347.231368 216.998492 
L 347.317382 217.217717 
L 347.463114 217.589664 
L 347.495406 217.67217 
L 347.5386 217.782581 
L 347.756963 218.34162 
L 347.791442 218.430025 
L 348.270953 219.663155 
L 348.343299 219.849794 
L 348.366046 219.908507 
L 348.387744 219.964528 
L 348.468589 220.173375 
L 348.600104 220.513523 
L 348.656063 220.658407 
L 348.684743 220.732697 
L 349.485233 222.815537 
L 349.570338 223.038014 
L 350.000038 224.164296 
L 350.034137 224.253885 
L 350.30747 224.973093 
L 350.698127 226.004344 
L 351.000743 226.805825 
L 351.04074 226.911927 
L 351.100056 227.069347 
L 351.302468 227.607186 
L 351.456418 228.016914 
L 351.469767 228.052467 
L 351.572323 228.32576 
L 351.591751 228.377559 
L 352.318904 230.322611 
L 352.39099 230.516085 
L 352.488355 230.77759 
L 352.965053 232.060899 
L 352.985099 232.114974 
L 353.801791 234.324997 
L 353.866945 234.501891 
L 353.874863 234.523392 
L 353.914378 234.630722 
L 354.07053 235.055152 
L 354.097045 235.127267 
L 354.203448 235.416801 
L 354.291013 235.655237 
L 354.569568 236.414689 
L 354.857198 237.200383 
L 355.166306 238.0464 
L 355.586484 239.199074 
L 355.639903 239.345832 
L 355.959363 240.224467 
L 356.318235 241.213449 
L 356.384654 241.39671 
L 356.487432 241.680422 
L 357.216321 243.696966 
L 357.365714 244.111213 
L 357.665439 244.943227 
L 357.978393 245.813229 
L 358.013754 245.911609 
L 358.106297 246.169157 
L 358.136354 246.252828 
L 358.328021 246.786647 
L 358.768202 248.014272 
L 358.815206 248.145494 
L 358.955491 248.537279 
L 358.977979 248.600105 
L 359.421862 249.841287 
L 359.592432 250.318782 
L 359.751901 250.76546 
L 359.911671 251.213233 
L 360.021928 251.52238 
L 360.023145 251.525793 
L 360.509822 252.891702 
L 361.174943 254.761644 
L 361.181505 254.780112 
L 361.182153 254.781935 
L 361.24115 254.947969 
L 361.358319 255.277791 
L 361.362144 255.288561 
L 362.090487 257.340896 
L 362.23542 257.749685 
L 362.265124 257.833483 
L 363.217463 260.522483 
L 363.818272 262.22093 
L 363.820416 262.226993 
L 363.867252 262.359448 
L 363.874312 262.379416 
L 364.1246 263.087364 
L 364.387991 263.832557 
L 364.459898 264.036027 
L 364.861579 265.172827 
L 364.985332 265.523119 
L 365.170702 266.047857 
L 365.83091 267.916988 
L 366.051494 268.541517 
L 366.084208 268.63414 
L 366.570611 270.011195 
L 366.941432 271.060872 
L 367.122818 271.574245 
L 367.810162 273.518984 
L 368.094348 274.322679 
L 368.22356 274.688013 
L 368.697813 276.028389 
L 368.730406 276.120473 
L 368.730557 276.1209 
L 368.896784 276.590468 
L 369.329043 277.810951 
L 369.533177 278.386998 
L 369.915914 279.466438 
L 370.005597 279.71925 
L 370.211902 280.30063 
L 370.898206 282.232668 
L 370.970012 282.434622 
L 371.429364 283.725621 
L 372.05622 285.484641 
L 372.074937 285.537109 
L 372.45572 286.603882 
L 372.716513 287.33372 
L 372.818201 287.618118 
L 372.826636 287.641705 
L 372.895709 287.834821 
L 373.53906 289.631198 
L 373.555451 289.676909 
L 373.644741 289.925864 
L 374.150373 291.333977 
L 374.513621 292.343752 
L 375.046583 293.82241 
L 375.294241 294.5083 
L 375.455592 294.954731 
L 375.713645 295.668004 
L 375.806324 295.923957 
L 376.014652 296.498866 
L 376.381712 297.510338 
L 376.763369 298.559984 
L 376.78456 298.618202 
L 377.19739 299.75102 
L 377.221973 299.818396 
L 378.003337 301.954961 
L 378.605546 303.5949 
L 378.996701 304.65682 
L 379.776787 306.76662 
L 379.963151 307.269033 
L 380.063434 307.539118 
L 380.144142 307.756348 
L 380.377288 308.38319 
L 381.062421 310.219272 
L 381.137966 310.421168 
L 381.384958 311.080474 
L 381.720994 311.975513 
L 381.788115 312.154017 
L 381.998525 312.712998 
L 382.34382 313.628346 
L 382.483058 313.996752 
L 382.508828 314.064892 
L 382.618109 314.35369 
L 382.81091 314.862592 
L 383.223337 315.948529 
L 384.027182 318.054403 
L 384.064302 318.1513 
L 384.773573 319.996762 
L 384.90589 320.339759 
L 385.379167 321.563258 
L 385.575511 322.069285 
L 386.182357 323.627438 
L 386.611506 324.72392 
L 386.738307 325.047029 
L 386.841746 325.310312 
L 387.255092 326.359732 
L 387.271604 326.401564 
L 387.737758 327.579677 
L 388.297348 328.986563 
L 389.477598 331.926939 
L 389.542961 332.088692 
L 389.61833 332.275066 
L 389.742531 332.581855 
L 390.578712 334.636344 
L 390.609666 334.712028 
L 391.201613 336.154235 
L 391.27888 336.341761 
L 391.317929 336.43647 
L 392.723409 339.81635 
L 392.870542 340.166883 
L 393.787965 342.338253 
L 393.975235 342.778431 
L 394.855 344.832276 
L 395.211879 345.658767 
L 395.300225 345.86277 
L 396.241496 348.021445 
L 396.452683 348.502022 
L 396.513429 348.640001 
L 396.88512 349.481756 
L 397.503426 350.872446 
L 397.518355 350.905875 
L 397.575633 351.034069 
L 397.787055 351.506361 
L 397.80816 351.553428 
L 398.135214 352.281024 
L 398.439245 352.954355 
L 399.883943 356.11347 
L 400.458374 357.350854 
L 400.526488 357.496866 
L 401.548009 359.668469 
L 401.672709 359.931218 
L 402.260694 361.163224 
L 402.552026 361.769417 
L 402.762324 362.20525 
L 403.007939 362.712417 
L 403.197382 363.102224 
L 403.662517 364.054238 
L 404.644239 366.039821 
L 405.14 367.030234 
L 405.385517 367.517653 
L 406.121001 368.965625 
L 407.18533 371.0286 
L 408.601534 373.713979 
L 408.634203 373.775121 
L 409.112451 374.666019 
L 409.911392 376.136927 
L 410.098662 376.478557 
L 410.26454 376.780163 
L 410.757752 377.671397 
L 410.761466 377.678076 
L 412.234383 380.290075 
L 412.257111 380.329799 
L 413.454358 382.397554 
L 414.97285 384.950054 
L 415.014761 385.019394 
L 416.273345 387.074047 
L 416.583362 387.571952 
L 417.042034 388.302676 
L 417.839453 389.556262 
L 418.569601 390.685446 
L 419.793614 392.538612 
L 421.303991 394.757135 
L 422.333723 396.226848 
L 422.809136 396.893772 
L 423.481526 397.824562 
L 423.801254 398.262062 
L 424.692678 399.464586 
L 427.007027 402.469354 
L 427.80277 403.463899 
L 428.762059 404.636988 
L 429.331387 405.319956 
L 432.552733 409.002014 
L 433.520495 410.048912 
L 434.525831 411.108149 
L 436.428046 413.034914 
L 438.329235 414.861889 
L 438.444237 414.969302 
L 440.592725 416.912486 
L 441.80665 417.958174 
L 441.899428 418.036574 
L 445.971438 421.271995 
L 452.234043 425.516052 
L 461.071262 430.194034 
L 464.623688 431.703823 
L 465.981345 432.231253 
L 467.27014 432.70801 
L 477.791464 435.833199 
L 480.976261 436.548614 
L 498.109091 439.094397 
z
" style="fill:#00008b;opacity:0.4;stroke:#00008b;stroke-linejoin:miter;"/>
   </g>
   <g id="line2d_1">
    <path clip-path="url(#p617a000441)" d="M 92.290909 440.32993 
L 128.002074 436.680818 
L 140.30372 433.417725 
L 149.808779 429.608723 
L 158.986288 424.508004 
L 163.395028 421.457283 
L 168.420432 417.436095 
L 173.024652 413.195306 
L 178.411165 407.498218 
L 183.241319 401.664549 
L 187.122133 396.451791 
L 190.768128 391.110545 
L 193.866846 386.224187 
L 196.990563 380.970475 
L 198.795826 377.782925 
L 204.511069 366.959697 
L 208.557174 358.632002 
L 212.127606 350.837936 
L 216.272762 341.287869 
L 220.386547 331.310873 
L 225.815327 317.461471 
L 231.365981 302.626428 
L 237.5105 285.621728 
L 257.665583 229.334429 
L 262.758647 216.046978 
L 266.968428 205.674988 
L 270.382424 197.763478 
L 273.98365 189.981055 
L 277.236046 183.509131 
L 280.095253 178.297923 
L 282.841546 173.745234 
L 285.277168 170.100235 
L 287.912346 166.592478 
L 290.430132 163.681215 
L 292.536989 161.586506 
L 294.649746 159.806236 
L 296.272858 158.66041 
L 298.131763 157.588369 
L 300.030958 156.760927 
L 301.755683 156.24605 
L 303.466707 155.959018 
L 305.290375 155.899196 
L 307.035942 156.079947 
L 308.825576 156.506485 
L 310.602072 157.170365 
L 312.355564 158.058959 
L 314.277863 159.296815 
L 316.187865 160.796419 
L 318.266371 162.728619 
L 320.273922 164.885946 
L 322.410821 167.48875 
L 324.606601 170.482874 
L 327.017512 174.130163 
L 329.611243 178.456306 
L 332.891512 184.490554 
L 335.195341 189.080236 
L 339.056928 197.368512 
L 342.664216 205.715619 
L 346.779048 215.84948 
L 351.302468 227.607186 
L 356.487432 241.680422 
L 364.861579 265.172827 
L 376.78456 298.618202 
L 382.81091 314.862592 
L 387.737758 327.579677 
L 392.723409 339.81635 
L 396.88512 349.481756 
L 400.526488 357.496866 
L 404.644239 366.039821 
L 408.634203 373.775121 
L 412.257111 380.329799 
L 416.273345 387.074047 
L 419.793614 392.538612 
L 423.801254 398.262062 
L 427.007027 402.469354 
L 429.331387 405.319956 
L 434.525831 411.108149 
L 438.444237 414.969302 
L 441.899428 418.036574 
L 445.971438 421.271995 
L 452.234043 425.516052 
L 461.071262 430.194034 
L 467.27014 432.70801 
L 477.791464 435.833199 
L 480.976261 436.548614 
L 498.109091 439.094397 
L 498.109091 439.094397 
" style="fill:none;stroke:#00008b;stroke-linecap:square;stroke-width:1.5;"/>
   </g>
   <g id="matplotlib.axis_1">
    <g id="xtick_1">
     <g id="line2d_2">
      <defs>
       <path d="M 0 0 
L 0 3.5 
" id="m8de2493339" style="stroke:#000000;stroke-width:0.8;"/>
      </defs>
      <g>
       <use style="stroke:#000000;stroke-width:0.8;" x="95.031582" xlink:href="#m8de2493339" y="441"/>
      </g>
     </g>
     <g id="text_1">
      <!-- −2 -->
      <defs>
       <path d="M 10.59375 35.5 
L 73.1875 35.5 
L 73.1875 27.203125 
L 10.59375 27.203125 
z
" id="DejaVuSans-8722"/>
       <path d="M 19.1875 8.296875 
L 53.609375 8.296875 
L 53.609375 0 
L 7.328125 0 
L 7.328125 8.296875 
Q 12.9375 14.109375 22.625 23.890625 
Q 32.328125 33.6875 34.8125 36.53125 
Q 39.546875 41.84375 41.421875 45.53125 
Q 43.3125 49.21875 43.3125 52.78125 
Q 43.3125 58.59375 39.234375 62.25 
Q 35.15625 65.921875 28.609375 65.921875 
Q 23.96875 65.921875 18.8125 64.3125 
Q 13.671875 62.703125 7.8125 59.421875 
L 7.8125 69.390625 
Q 13.765625 71.78125 18.9375 73 
Q 24.125 74.21875 28.421875 74.21875 
Q 39.75 74.21875 46.484375 68.546875 
Q 53.21875 62.890625 53.21875 53.421875 
Q 53.21875 48.921875 51.53125 44.890625 
Q 49.859375 40.875 45.40625 35.40625 
Q 44.1875 33.984375 37.640625 27.21875 
Q 31.109375 20.453125 19.1875 8.296875 
z
" id="DejaVuSans-50"/>
      </defs>
      <g transform="translate(87.660489 455.598437)scale(0.1 -0.1)">
       <use xlink:href="#DejaVuSans-8722"/>
       <use x="83.789062" xlink:href="#DejaVuSans-50"/>
      </g>
     </g>
    </g>
    <g id="xtick_2">
     <g id="line2d_3">
      <g>
       <use style="stroke:#000000;stroke-width:0.8;" x="152.387567" xlink:href="#m8de2493339" y="441"/>
      </g>
     </g>
     <g id="text_2">
      <!-- −1 -->
      <defs>
       <path d="M 12.40625 8.296875 
L 28.515625 8.296875 
L 28.515625 63.921875 
L 10.984375 60.40625 
L 10.984375 69.390625 
L 28.421875 72.90625 
L 38.28125 72.90625 
L 38.28125 8.296875 
L 54.390625 8.296875 
L 54.390625 0 
L 12.40625 0 
z
" id="DejaVuSans-49"/>
      </defs>
      <g transform="translate(145.016473 455.598437)scale(0.1 -0.1)">
       <use xlink:href="#DejaVuSans-8722"/>
       <use x="83.789062" xlink:href="#DejaVuSans-49"/>
      </g>
     </g>
    </g>
    <g id="xtick_3">
     <g id="line2d_4">
      <g>
       <use style="stroke:#000000;stroke-width:0.8;" x="209.743552" xlink:href="#m8de2493339" y="441"/>
      </g>
     </g>
     <g id="text_3">
      <!-- 0 -->
      <defs>
       <path d="M 31.78125 66.40625 
Q 24.171875 66.40625 20.328125 58.90625 
Q 16.5 51.421875 16.5 36.375 
Q 16.5 21.390625 20.328125 13.890625 
Q 24.171875 6.390625 31.78125 6.390625 
Q 39.453125 6.390625 43.28125 13.890625 
Q 47.125 21.390625 47.125 36.375 
Q 47.125 51.421875 43.28125 58.90625 
Q 39.453125 66.40625 31.78125 66.40625 
z
M 31.78125 74.21875 
Q 44.046875 74.21875 50.515625 64.515625 
Q 56.984375 54.828125 56.984375 36.375 
Q 56.984375 17.96875 50.515625 8.265625 
Q 44.046875 -1.421875 31.78125 -1.421875 
Q 19.53125 -1.421875 13.0625 8.265625 
Q 6.59375 17.96875 6.59375 36.375 
Q 6.59375 54.828125 13.0625 64.515625 
Q 19.53125 74.21875 31.78125 74.21875 
z
" id="DejaVuSans-48"/>
      </defs>
      <g transform="translate(206.562302 455.598437)scale(0.1 -0.1)">
       <use xlink:href="#DejaVuSans-48"/>
      </g>
     </g>
    </g>
    <g id="xtick_4">
     <g id="line2d_5">
      <g>
       <use style="stroke:#000000;stroke-width:0.8;" x="267.099536" xlink:href="#m8de2493339" y="441"/>
      </g>
     </g>
     <g id="text_4">
      <!-- 1 -->
      <g transform="translate(263.918286 455.598437)scale(0.1 -0.1)">
       <use xlink:href="#DejaVuSans-49"/>
      </g>
     </g>
    </g>
    <g id="xtick_5">
     <g id="line2d_6">
      <g>
       <use style="stroke:#000000;stroke-width:0.8;" x="324.455521" xlink:href="#m8de2493339" y="441"/>
      </g>
     </g>
     <g id="text_5">
      <!-- 2 -->
      <g transform="translate(321.274271 455.598437)scale(0.1 -0.1)">
       <use xlink:href="#DejaVuSans-50"/>
      </g>
     </g>
    </g>
    <g id="xtick_6">
     <g id="line2d_7">
      <g>
       <use style="stroke:#000000;stroke-width:0.8;" x="381.811505" xlink:href="#m8de2493339" y="441"/>
      </g>
     </g>
     <g id="text_6">
      <!-- 3 -->
      <defs>
       <path d="M 40.578125 39.3125 
Q 47.65625 37.796875 51.625 33 
Q 55.609375 28.21875 55.609375 21.1875 
Q 55.609375 10.40625 48.1875 4.484375 
Q 40.765625 -1.421875 27.09375 -1.421875 
Q 22.515625 -1.421875 17.65625 -0.515625 
Q 12.796875 0.390625 7.625 2.203125 
L 7.625 11.71875 
Q 11.71875 9.328125 16.59375 8.109375 
Q 21.484375 6.890625 26.8125 6.890625 
Q 36.078125 6.890625 40.9375 10.546875 
Q 45.796875 14.203125 45.796875 21.1875 
Q 45.796875 27.640625 41.28125 31.265625 
Q 36.765625 34.90625 28.71875 34.90625 
L 20.21875 34.90625 
L 20.21875 43.015625 
L 29.109375 43.015625 
Q 36.375 43.015625 40.234375 45.921875 
Q 44.09375 48.828125 44.09375 54.296875 
Q 44.09375 59.90625 40.109375 62.90625 
Q 36.140625 65.921875 28.71875 65.921875 
Q 24.65625 65.921875 20.015625 65.03125 
Q 15.375 64.15625 9.8125 62.3125 
L 9.8125 71.09375 
Q 15.4375 72.65625 20.34375 73.4375 
Q 25.25 74.21875 29.59375 74.21875 
Q 40.828125 74.21875 47.359375 69.109375 
Q 53.90625 64.015625 53.90625 55.328125 
Q 53.90625 49.265625 50.4375 45.09375 
Q 46.96875 40.921875 40.578125 39.3125 
z
" id="DejaVuSans-51"/>
      </defs>
      <g transform="translate(378.630255 455.598437)scale(0.1 -0.1)">
       <use xlink:href="#DejaVuSans-51"/>
      </g>
     </g>
    </g>
    <g id="xtick_7">
     <g id="line2d_8">
      <g>
       <use style="stroke:#000000;stroke-width:0.8;" x="439.16749" xlink:href="#m8de2493339" y="441"/>
      </g>
     </g>
     <g id="text_7">
      <!-- 4 -->
      <defs>
       <path d="M 37.796875 64.3125 
L 12.890625 25.390625 
L 37.796875 25.390625 
z
M 35.203125 72.90625 
L 47.609375 72.90625 
L 47.609375 25.390625 
L 58.015625 25.390625 
L 58.015625 17.1875 
L 47.609375 17.1875 
L 47.609375 0 
L 37.796875 0 
L 37.796875 17.1875 
L 4.890625 17.1875 
L 4.890625 26.703125 
z
" id="DejaVuSans-52"/>
      </defs>
      <g transform="translate(435.98624 455.598437)scale(0.1 -0.1)">
       <use xlink:href="#DejaVuSans-52"/>
      </g>
     </g>
    </g>
    <g id="xtick_8">
     <g id="line2d_9">
      <g>
       <use style="stroke:#000000;stroke-width:0.8;" x="496.523475" xlink:href="#m8de2493339" y="441"/>
      </g>
     </g>
     <g id="text_8">
      <!-- 5 -->
      <defs>
       <path d="M 10.796875 72.90625 
L 49.515625 72.90625 
L 49.515625 64.59375 
L 19.828125 64.59375 
L 19.828125 46.734375 
Q 21.96875 47.46875 24.109375 47.828125 
Q 26.265625 48.1875 28.421875 48.1875 
Q 40.625 48.1875 47.75 41.5 
Q 54.890625 34.8125 54.890625 23.390625 
Q 54.890625 11.625 47.5625 5.09375 
Q 40.234375 -1.421875 26.90625 -1.421875 
Q 22.3125 -1.421875 17.546875 -0.640625 
Q 12.796875 0.140625 7.71875 1.703125 
L 7.71875 11.625 
Q 12.109375 9.234375 16.796875 8.0625 
Q 21.484375 6.890625 26.703125 6.890625 
Q 35.15625 6.890625 40.078125 11.328125 
Q 45.015625 15.765625 45.015625 23.390625 
Q 45.015625 31 40.078125 35.4375 
Q 35.15625 39.890625 26.703125 39.890625 
Q 22.75 39.890625 18.8125 39.015625 
Q 14.890625 38.140625 10.796875 36.28125 
z
" id="DejaVuSans-53"/>
      </defs>
      <g transform="translate(493.342225 455.598437)scale(0.1 -0.1)">
       <use xlink:href="#DejaVuSans-53"/>
      </g>
     </g>
    </g>
    <g id="text_9">
     <!-- Log of pieces of trash per meter -->
     <defs>
      <path d="M 9.8125 72.90625 
L 19.671875 72.90625 
L 19.671875 8.296875 
L 55.171875 8.296875 
L 55.171875 0 
L 9.8125 0 
z
" id="DejaVuSans-76"/>
      <path d="M 30.609375 48.390625 
Q 23.390625 48.390625 19.1875 42.75 
Q 14.984375 37.109375 14.984375 27.296875 
Q 14.984375 17.484375 19.15625 11.84375 
Q 23.34375 6.203125 30.609375 6.203125 
Q 37.796875 6.203125 41.984375 11.859375 
Q 46.1875 17.53125 46.1875 27.296875 
Q 46.1875 37.015625 41.984375 42.703125 
Q 37.796875 48.390625 30.609375 48.390625 
z
M 30.609375 56 
Q 42.328125 56 49.015625 48.375 
Q 55.71875 40.765625 55.71875 27.296875 
Q 55.71875 13.875 49.015625 6.21875 
Q 42.328125 -1.421875 30.609375 -1.421875 
Q 18.84375 -1.421875 12.171875 6.21875 
Q 5.515625 13.875 5.515625 27.296875 
Q 5.515625 40.765625 12.171875 48.375 
Q 18.84375 56 30.609375 56 
z
" id="DejaVuSans-111"/>
      <path d="M 45.40625 27.984375 
Q 45.40625 37.75 41.375 43.109375 
Q 37.359375 48.484375 30.078125 48.484375 
Q 22.859375 48.484375 18.828125 43.109375 
Q 14.796875 37.75 14.796875 27.984375 
Q 14.796875 18.265625 18.828125 12.890625 
Q 22.859375 7.515625 30.078125 7.515625 
Q 37.359375 7.515625 41.375 12.890625 
Q 45.40625 18.265625 45.40625 27.984375 
z
M 54.390625 6.78125 
Q 54.390625 -7.171875 48.1875 -13.984375 
Q 42 -20.796875 29.203125 -20.796875 
Q 24.46875 -20.796875 20.265625 -20.09375 
Q 16.0625 -19.390625 12.109375 -17.921875 
L 12.109375 -9.1875 
Q 16.0625 -11.328125 19.921875 -12.34375 
Q 23.78125 -13.375 27.78125 -13.375 
Q 36.625 -13.375 41.015625 -8.765625 
Q 45.40625 -4.15625 45.40625 5.171875 
L 45.40625 9.625 
Q 42.625 4.78125 38.28125 2.390625 
Q 33.9375 0 27.875 0 
Q 17.828125 0 11.671875 7.65625 
Q 5.515625 15.328125 5.515625 27.984375 
Q 5.515625 40.671875 11.671875 48.328125 
Q 17.828125 56 27.875 56 
Q 33.9375 56 38.28125 53.609375 
Q 42.625 51.21875 45.40625 46.390625 
L 45.40625 54.6875 
L 54.390625 54.6875 
z
" id="DejaVuSans-103"/>
      <path id="DejaVuSans-32"/>
      <path d="M 37.109375 75.984375 
L 37.109375 68.5 
L 28.515625 68.5 
Q 23.6875 68.5 21.796875 66.546875 
Q 19.921875 64.59375 19.921875 59.515625 
L 19.921875 54.6875 
L 34.71875 54.6875 
L 34.71875 47.703125 
L 19.921875 47.703125 
L 19.921875 0 
L 10.890625 0 
L 10.890625 47.703125 
L 2.296875 47.703125 
L 2.296875 54.6875 
L 10.890625 54.6875 
L 10.890625 58.5 
Q 10.890625 67.625 15.140625 71.796875 
Q 19.390625 75.984375 28.609375 75.984375 
z
" id="DejaVuSans-102"/>
      <path d="M 18.109375 8.203125 
L 18.109375 -20.796875 
L 9.078125 -20.796875 
L 9.078125 54.6875 
L 18.109375 54.6875 
L 18.109375 46.390625 
Q 20.953125 51.265625 25.265625 53.625 
Q 29.59375 56 35.59375 56 
Q 45.5625 56 51.78125 48.09375 
Q 58.015625 40.1875 58.015625 27.296875 
Q 58.015625 14.40625 51.78125 6.484375 
Q 45.5625 -1.421875 35.59375 -1.421875 
Q 29.59375 -1.421875 25.265625 0.953125 
Q 20.953125 3.328125 18.109375 8.203125 
z
M 48.6875 27.296875 
Q 48.6875 37.203125 44.609375 42.84375 
Q 40.53125 48.484375 33.40625 48.484375 
Q 26.265625 48.484375 22.1875 42.84375 
Q 18.109375 37.203125 18.109375 27.296875 
Q 18.109375 17.390625 22.1875 11.75 
Q 26.265625 6.109375 33.40625 6.109375 
Q 40.53125 6.109375 44.609375 11.75 
Q 48.6875 17.390625 48.6875 27.296875 
z
" id="DejaVuSans-112"/>
      <path d="M 9.421875 54.6875 
L 18.40625 54.6875 
L 18.40625 0 
L 9.421875 0 
z
M 9.421875 75.984375 
L 18.40625 75.984375 
L 18.40625 64.59375 
L 9.421875 64.59375 
z
" id="DejaVuSans-105"/>
      <path d="M 56.203125 29.59375 
L 56.203125 25.203125 
L 14.890625 25.203125 
Q 15.484375 15.921875 20.484375 11.0625 
Q 25.484375 6.203125 34.421875 6.203125 
Q 39.59375 6.203125 44.453125 7.46875 
Q 49.3125 8.734375 54.109375 11.28125 
L 54.109375 2.78125 
Q 49.265625 0.734375 44.1875 -0.34375 
Q 39.109375 -1.421875 33.890625 -1.421875 
Q 20.796875 -1.421875 13.15625 6.1875 
Q 5.515625 13.8125 5.515625 26.8125 
Q 5.515625 40.234375 12.765625 48.109375 
Q 20.015625 56 32.328125 56 
Q 43.359375 56 49.78125 48.890625 
Q 56.203125 41.796875 56.203125 29.59375 
z
M 47.21875 32.234375 
Q 47.125 39.59375 43.09375 43.984375 
Q 39.0625 48.390625 32.421875 48.390625 
Q 24.90625 48.390625 20.390625 44.140625 
Q 15.875 39.890625 15.1875 32.171875 
z
" id="DejaVuSans-101"/>
      <path d="M 48.78125 52.59375 
L 48.78125 44.1875 
Q 44.96875 46.296875 41.140625 47.34375 
Q 37.3125 48.390625 33.40625 48.390625 
Q 24.65625 48.390625 19.8125 42.84375 
Q 14.984375 37.3125 14.984375 27.296875 
Q 14.984375 17.28125 19.8125 11.734375 
Q 24.65625 6.203125 33.40625 6.203125 
Q 37.3125 6.203125 41.140625 7.25 
Q 44.96875 8.296875 48.78125 10.40625 
L 48.78125 2.09375 
Q 45.015625 0.34375 40.984375 -0.53125 
Q 36.96875 -1.421875 32.421875 -1.421875 
Q 20.0625 -1.421875 12.78125 6.34375 
Q 5.515625 14.109375 5.515625 27.296875 
Q 5.515625 40.671875 12.859375 48.328125 
Q 20.21875 56 33.015625 56 
Q 37.15625 56 41.109375 55.140625 
Q 45.0625 54.296875 48.78125 52.59375 
z
" id="DejaVuSans-99"/>
      <path d="M 44.28125 53.078125 
L 44.28125 44.578125 
Q 40.484375 46.53125 36.375 47.5 
Q 32.28125 48.484375 27.875 48.484375 
Q 21.1875 48.484375 17.84375 46.4375 
Q 14.5 44.390625 14.5 40.28125 
Q 14.5 37.15625 16.890625 35.375 
Q 19.28125 33.59375 26.515625 31.984375 
L 29.59375 31.296875 
Q 39.15625 29.25 43.1875 25.515625 
Q 47.21875 21.78125 47.21875 15.09375 
Q 47.21875 7.46875 41.1875 3.015625 
Q 35.15625 -1.421875 24.609375 -1.421875 
Q 20.21875 -1.421875 15.453125 -0.5625 
Q 10.6875 0.296875 5.421875 2 
L 5.421875 11.28125 
Q 10.40625 8.6875 15.234375 7.390625 
Q 20.0625 6.109375 24.8125 6.109375 
Q 31.15625 6.109375 34.5625 8.28125 
Q 37.984375 10.453125 37.984375 14.40625 
Q 37.984375 18.0625 35.515625 20.015625 
Q 33.0625 21.96875 24.703125 23.78125 
L 21.578125 24.515625 
Q 13.234375 26.265625 9.515625 29.90625 
Q 5.8125 33.546875 5.8125 39.890625 
Q 5.8125 47.609375 11.28125 51.796875 
Q 16.75 56 26.8125 56 
Q 31.78125 56 36.171875 55.265625 
Q 40.578125 54.546875 44.28125 53.078125 
z
" id="DejaVuSans-115"/>
      <path d="M 18.3125 70.21875 
L 18.3125 54.6875 
L 36.8125 54.6875 
L 36.8125 47.703125 
L 18.3125 47.703125 
L 18.3125 18.015625 
Q 18.3125 11.328125 20.140625 9.421875 
Q 21.96875 7.515625 27.59375 7.515625 
L 36.8125 7.515625 
L 36.8125 0 
L 27.59375 0 
Q 17.1875 0 13.234375 3.875 
Q 9.28125 7.765625 9.28125 18.015625 
L 9.28125 47.703125 
L 2.6875 47.703125 
L 2.6875 54.6875 
L 9.28125 54.6875 
L 9.28125 70.21875 
z
" id="DejaVuSans-116"/>
      <path d="M 41.109375 46.296875 
Q 39.59375 47.171875 37.8125 47.578125 
Q 36.03125 48 33.890625 48 
Q 26.265625 48 22.1875 43.046875 
Q 18.109375 38.09375 18.109375 28.8125 
L 18.109375 0 
L 9.078125 0 
L 9.078125 54.6875 
L 18.109375 54.6875 
L 18.109375 46.1875 
Q 20.953125 51.171875 25.484375 53.578125 
Q 30.03125 56 36.53125 56 
Q 37.453125 56 38.578125 55.875 
Q 39.703125 55.765625 41.0625 55.515625 
z
" id="DejaVuSans-114"/>
      <path d="M 34.28125 27.484375 
Q 23.390625 27.484375 19.1875 25 
Q 14.984375 22.515625 14.984375 16.5 
Q 14.984375 11.71875 18.140625 8.90625 
Q 21.296875 6.109375 26.703125 6.109375 
Q 34.1875 6.109375 38.703125 11.40625 
Q 43.21875 16.703125 43.21875 25.484375 
L 43.21875 27.484375 
z
M 52.203125 31.203125 
L 52.203125 0 
L 43.21875 0 
L 43.21875 8.296875 
Q 40.140625 3.328125 35.546875 0.953125 
Q 30.953125 -1.421875 24.3125 -1.421875 
Q 15.921875 -1.421875 10.953125 3.296875 
Q 6 8.015625 6 15.921875 
Q 6 25.140625 12.171875 29.828125 
Q 18.359375 34.515625 30.609375 34.515625 
L 43.21875 34.515625 
L 43.21875 35.40625 
Q 43.21875 41.609375 39.140625 45 
Q 35.0625 48.390625 27.6875 48.390625 
Q 23 48.390625 18.546875 47.265625 
Q 14.109375 46.140625 10.015625 43.890625 
L 10.015625 52.203125 
Q 14.9375 54.109375 19.578125 55.046875 
Q 24.21875 56 28.609375 56 
Q 40.484375 56 46.34375 49.84375 
Q 52.203125 43.703125 52.203125 31.203125 
z
" id="DejaVuSans-97"/>
      <path d="M 54.890625 33.015625 
L 54.890625 0 
L 45.90625 0 
L 45.90625 32.71875 
Q 45.90625 40.484375 42.875 44.328125 
Q 39.84375 48.1875 33.796875 48.1875 
Q 26.515625 48.1875 22.3125 43.546875 
Q 18.109375 38.921875 18.109375 30.90625 
L 18.109375 0 
L 9.078125 0 
L 9.078125 75.984375 
L 18.109375 75.984375 
L 18.109375 46.1875 
Q 21.34375 51.125 25.703125 53.5625 
Q 30.078125 56 35.796875 56 
Q 45.21875 56 50.046875 50.171875 
Q 54.890625 44.34375 54.890625 33.015625 
z
" id="DejaVuSans-104"/>
      <path d="M 52 44.1875 
Q 55.375 50.25 60.0625 53.125 
Q 64.75 56 71.09375 56 
Q 79.640625 56 84.28125 50.015625 
Q 88.921875 44.046875 88.921875 33.015625 
L 88.921875 0 
L 79.890625 0 
L 79.890625 32.71875 
Q 79.890625 40.578125 77.09375 44.375 
Q 74.3125 48.1875 68.609375 48.1875 
Q 61.625 48.1875 57.5625 43.546875 
Q 53.515625 38.921875 53.515625 30.90625 
L 53.515625 0 
L 44.484375 0 
L 44.484375 32.71875 
Q 44.484375 40.625 41.703125 44.40625 
Q 38.921875 48.1875 33.109375 48.1875 
Q 26.21875 48.1875 22.15625 43.53125 
Q 18.109375 38.875 18.109375 30.90625 
L 18.109375 0 
L 9.078125 0 
L 9.078125 54.6875 
L 18.109375 54.6875 
L 18.109375 46.1875 
Q 21.1875 51.21875 25.484375 53.609375 
Q 29.78125 56 35.6875 56 
Q 41.65625 56 45.828125 52.96875 
Q 50 49.953125 52 44.1875 
z
" id="DejaVuSans-109"/>
     </defs>
     <g transform="translate(182.554687 478.315938)scale(0.14 -0.14)">
      <use xlink:href="#DejaVuSans-76"/>
      <use x="55.697266" xlink:href="#DejaVuSans-111"/>
      <use x="116.878906" xlink:href="#DejaVuSans-103"/>
      <use x="180.355469" xlink:href="#DejaVuSans-32"/>
      <use x="212.142578" xlink:href="#DejaVuSans-111"/>
      <use x="273.324219" xlink:href="#DejaVuSans-102"/>
      <use x="308.529297" xlink:href="#DejaVuSans-32"/>
      <use x="340.316406" xlink:href="#DejaVuSans-112"/>
      <use x="403.792969" xlink:href="#DejaVuSans-105"/>
      <use x="431.576172" xlink:href="#DejaVuSans-101"/>
      <use x="493.099609" xlink:href="#DejaVuSans-99"/>
      <use x="548.080078" xlink:href="#DejaVuSans-101"/>
      <use x="609.603516" xlink:href="#DejaVuSans-115"/>
      <use x="661.703125" xlink:href="#DejaVuSans-32"/>
      <use x="693.490234" xlink:href="#DejaVuSans-111"/>
      <use x="754.671875" xlink:href="#DejaVuSans-102"/>
      <use x="789.876953" xlink:href="#DejaVuSans-32"/>
      <use x="821.664062" xlink:href="#DejaVuSans-116"/>
      <use x="860.873047" xlink:href="#DejaVuSans-114"/>
      <use x="901.986328" xlink:href="#DejaVuSans-97"/>
      <use x="963.265625" xlink:href="#DejaVuSans-115"/>
      <use x="1015.365234" xlink:href="#DejaVuSans-104"/>
      <use x="1078.744141" xlink:href="#DejaVuSans-32"/>
      <use x="1110.53125" xlink:href="#DejaVuSans-112"/>
      <use x="1174.007812" xlink:href="#DejaVuSans-101"/>
      <use x="1235.53125" xlink:href="#DejaVuSans-114"/>
      <use x="1276.644531" xlink:href="#DejaVuSans-32"/>
      <use x="1308.431641" xlink:href="#DejaVuSans-109"/>
      <use x="1405.84375" xlink:href="#DejaVuSans-101"/>
      <use x="1467.367188" xlink:href="#DejaVuSans-116"/>
      <use x="1506.576172" xlink:href="#DejaVuSans-101"/>
      <use x="1568.099609" xlink:href="#DejaVuSans-114"/>
     </g>
    </g>
   </g>
   <g id="matplotlib.axis_2">
    <g id="ytick_1">
     <g id="line2d_10">
      <defs>
       <path d="M 0 0 
L -3.5 0 
" id="m12f59d5898" style="stroke:#000000;stroke-width:0.8;"/>
      </defs>
      <g>
       <use style="stroke:#000000;stroke-width:0.8;" x="72" xlink:href="#m12f59d5898" y="441"/>
      </g>
     </g>
     <g id="text_10">
      <!-- 0.0 -->
      <defs>
       <path d="M 10.6875 12.40625 
L 21 12.40625 
L 21 0 
L 10.6875 0 
z
" id="DejaVuSans-46"/>
      </defs>
      <g transform="translate(49.096875 444.799219)scale(0.1 -0.1)">
       <use xlink:href="#DejaVuSans-48"/>
       <use x="63.623047" xlink:href="#DejaVuSans-46"/>
       <use x="95.410156" xlink:href="#DejaVuSans-48"/>
      </g>
     </g>
    </g>
    <g id="ytick_2">
     <g id="line2d_11">
      <g>
       <use style="stroke:#000000;stroke-width:0.8;" x="72" xlink:href="#m12f59d5898" y="364.896"/>
      </g>
     </g>
     <g id="text_11">
      <!-- 0.1 -->
      <g transform="translate(49.096875 368.695219)scale(0.1 -0.1)">
       <use xlink:href="#DejaVuSans-48"/>
       <use x="63.623047" xlink:href="#DejaVuSans-46"/>
       <use x="95.410156" xlink:href="#DejaVuSans-49"/>
      </g>
     </g>
    </g>
    <g id="ytick_3">
     <g id="line2d_12">
      <g>
       <use style="stroke:#000000;stroke-width:0.8;" x="72" xlink:href="#m12f59d5898" y="288.792"/>
      </g>
     </g>
     <g id="text_12">
      <!-- 0.2 -->
      <g transform="translate(49.096875 292.591219)scale(0.1 -0.1)">
       <use xlink:href="#DejaVuSans-48"/>
       <use x="63.623047" xlink:href="#DejaVuSans-46"/>
       <use x="95.410156" xlink:href="#DejaVuSans-50"/>
      </g>
     </g>
    </g>
    <g id="ytick_4">
     <g id="line2d_13">
      <g>
       <use style="stroke:#000000;stroke-width:0.8;" x="72" xlink:href="#m12f59d5898" y="212.688"/>
      </g>
     </g>
     <g id="text_13">
      <!-- 0.3 -->
      <g transform="translate(49.096875 216.487219)scale(0.1 -0.1)">
       <use xlink:href="#DejaVuSans-48"/>
       <use x="63.623047" xlink:href="#DejaVuSans-46"/>
       <use x="95.410156" xlink:href="#DejaVuSans-51"/>
      </g>
     </g>
    </g>
    <g id="ytick_5">
     <g id="line2d_14">
      <g>
       <use style="stroke:#000000;stroke-width:0.8;" x="72" xlink:href="#m12f59d5898" y="136.584"/>
      </g>
     </g>
     <g id="text_14">
      <!-- 0.4 -->
      <g transform="translate(49.096875 140.383219)scale(0.1 -0.1)">
       <use xlink:href="#DejaVuSans-48"/>
       <use x="63.623047" xlink:href="#DejaVuSans-46"/>
       <use x="95.410156" xlink:href="#DejaVuSans-52"/>
      </g>
     </g>
    </g>
    <g id="ytick_6">
     <g id="line2d_15">
      <g>
       <use style="stroke:#000000;stroke-width:0.8;" x="72" xlink:href="#m12f59d5898" y="60.48"/>
      </g>
     </g>
     <g id="text_15">
      <!-- 0.5 -->
      <g transform="translate(49.096875 64.279219)scale(0.1 -0.1)">
       <use xlink:href="#DejaVuSans-48"/>
       <use x="63.623047" xlink:href="#DejaVuSans-46"/>
       <use x="95.410156" xlink:href="#DejaVuSans-53"/>
      </g>
     </g>
    </g>
    <g id="text_16">
     <!-- Probability density -->
     <defs>
      <path d="M 19.671875 64.796875 
L 19.671875 37.40625 
L 32.078125 37.40625 
Q 38.96875 37.40625 42.71875 40.96875 
Q 46.484375 44.53125 46.484375 51.125 
Q 46.484375 57.671875 42.71875 61.234375 
Q 38.96875 64.796875 32.078125 64.796875 
z
M 9.8125 72.90625 
L 32.078125 72.90625 
Q 44.34375 72.90625 50.609375 67.359375 
Q 56.890625 61.8125 56.890625 51.125 
Q 56.890625 40.328125 50.609375 34.8125 
Q 44.34375 29.296875 32.078125 29.296875 
L 19.671875 29.296875 
L 19.671875 0 
L 9.8125 0 
z
" id="DejaVuSans-80"/>
      <path d="M 48.6875 27.296875 
Q 48.6875 37.203125 44.609375 42.84375 
Q 40.53125 48.484375 33.40625 48.484375 
Q 26.265625 48.484375 22.1875 42.84375 
Q 18.109375 37.203125 18.109375 27.296875 
Q 18.109375 17.390625 22.1875 11.75 
Q 26.265625 6.109375 33.40625 6.109375 
Q 40.53125 6.109375 44.609375 11.75 
Q 48.6875 17.390625 48.6875 27.296875 
z
M 18.109375 46.390625 
Q 20.953125 51.265625 25.265625 53.625 
Q 29.59375 56 35.59375 56 
Q 45.5625 56 51.78125 48.09375 
Q 58.015625 40.1875 58.015625 27.296875 
Q 58.015625 14.40625 51.78125 6.484375 
Q 45.5625 -1.421875 35.59375 -1.421875 
Q 29.59375 -1.421875 25.265625 0.953125 
Q 20.953125 3.328125 18.109375 8.203125 
L 18.109375 0 
L 9.078125 0 
L 9.078125 75.984375 
L 18.109375 75.984375 
z
" id="DejaVuSans-98"/>
      <path d="M 9.421875 75.984375 
L 18.40625 75.984375 
L 18.40625 0 
L 9.421875 0 
z
" id="DejaVuSans-108"/>
      <path d="M 32.171875 -5.078125 
Q 28.375 -14.84375 24.75 -17.8125 
Q 21.140625 -20.796875 15.09375 -20.796875 
L 7.90625 -20.796875 
L 7.90625 -13.28125 
L 13.1875 -13.28125 
Q 16.890625 -13.28125 18.9375 -11.515625 
Q 21 -9.765625 23.484375 -3.21875 
L 25.09375 0.875 
L 2.984375 54.6875 
L 12.5 54.6875 
L 29.59375 11.921875 
L 46.6875 54.6875 
L 56.203125 54.6875 
z
" id="DejaVuSans-121"/>
      <path d="M 45.40625 46.390625 
L 45.40625 75.984375 
L 54.390625 75.984375 
L 54.390625 0 
L 45.40625 0 
L 45.40625 8.203125 
Q 42.578125 3.328125 38.25 0.953125 
Q 33.9375 -1.421875 27.875 -1.421875 
Q 17.96875 -1.421875 11.734375 6.484375 
Q 5.515625 14.40625 5.515625 27.296875 
Q 5.515625 40.1875 11.734375 48.09375 
Q 17.96875 56 27.875 56 
Q 33.9375 56 38.25 53.625 
Q 42.578125 51.265625 45.40625 46.390625 
z
M 14.796875 27.296875 
Q 14.796875 17.390625 18.875 11.75 
Q 22.953125 6.109375 30.078125 6.109375 
Q 37.203125 6.109375 41.296875 11.75 
Q 45.40625 17.390625 45.40625 27.296875 
Q 45.40625 37.203125 41.296875 42.84375 
Q 37.203125 48.484375 30.078125 48.484375 
Q 22.953125 48.484375 18.875 42.84375 
Q 14.796875 37.203125 14.796875 27.296875 
z
" id="DejaVuSans-100"/>
      <path d="M 54.890625 33.015625 
L 54.890625 0 
L 45.90625 0 
L 45.90625 32.71875 
Q 45.90625 40.484375 42.875 44.328125 
Q 39.84375 48.1875 33.796875 48.1875 
Q 26.515625 48.1875 22.3125 43.546875 
Q 18.109375 38.921875 18.109375 30.90625 
L 18.109375 0 
L 9.078125 0 
L 9.078125 54.6875 
L 18.109375 54.6875 
L 18.109375 46.1875 
Q 21.34375 51.125 25.703125 53.5625 
Q 30.078125 56 35.796875 56 
Q 45.21875 56 50.046875 50.171875 
Q 54.890625 44.34375 54.890625 33.015625 
z
" id="DejaVuSans-110"/>
     </defs>
     <g transform="translate(36.185312 315.907813)rotate(-90)scale(0.14 -0.14)">
      <use xlink:href="#DejaVuSans-80"/>
      <use x="60.287109" xlink:href="#DejaVuSans-114"/>
      <use x="101.369141" xlink:href="#DejaVuSans-111"/>
      <use x="162.550781" xlink:href="#DejaVuSans-98"/>
      <use x="226.027344" xlink:href="#DejaVuSans-97"/>
      <use x="287.306641" xlink:href="#DejaVuSans-98"/>
      <use x="350.783203" xlink:href="#DejaVuSans-105"/>
      <use x="378.566406" xlink:href="#DejaVuSans-108"/>
      <use x="406.349609" xlink:href="#DejaVuSans-105"/>
      <use x="434.132812" xlink:href="#DejaVuSans-116"/>
      <use x="473.341797" xlink:href="#DejaVuSans-121"/>
      <use x="532.521484" xlink:href="#DejaVuSans-32"/>
      <use x="564.308594" xlink:href="#DejaVuSans-100"/>
      <use x="627.785156" xlink:href="#DejaVuSans-101"/>
      <use x="689.308594" xlink:href="#DejaVuSans-110"/>
      <use x="752.6875" xlink:href="#DejaVuSans-115"/>
      <use x="804.787109" xlink:href="#DejaVuSans-105"/>
      <use x="832.570312" xlink:href="#DejaVuSans-116"/>
      <use x="871.779297" xlink:href="#DejaVuSans-121"/>
     </g>
    </g>
   </g>
   <g id="LineCollection_1">
    <path clip-path="url(#p617a000441)" d="M 365.866542 441 
L 365.866542 155.890305 
" style="fill:none;stroke:#00008b;stroke-dasharray:5.55,2.4;stroke-dashoffset:0;stroke-opacity:0.6;stroke-width:1.5;"/>
   </g>
   <g id="LineCollection_2">
    <path clip-path="url(#p617a000441)" d="M 243.75565 441 
L 243.75565 155.890305 
" style="fill:none;stroke:#00008b;stroke-dasharray:5.55,2.4;stroke-dashoffset:0;stroke-opacity:0.6;stroke-width:1.5;"/>
   </g>
   <g id="patch_4">
    <path d="M 72 441 
L 72 60.48 
" style="fill:none;stroke:#000000;stroke-linecap:square;stroke-linejoin:miter;stroke-width:0.8;"/>
   </g>
   <g id="patch_5">
    <path d="M 518.4 441 
L 518.4 60.48 
" style="fill:none;stroke:#000000;stroke-linecap:square;stroke-linejoin:miter;stroke-width:0.8;"/>
   </g>
   <g id="patch_6">
    <path d="M 72 441 
L 518.4 441 
" style="fill:none;stroke:#000000;stroke-linecap:square;stroke-linejoin:miter;stroke-width:0.8;"/>
   </g>
   <g id="patch_7">
    <path d="M 72 60.48 
L 518.4 60.48 
" style="fill:none;stroke:#000000;stroke-linecap:square;stroke-linejoin:miter;stroke-width:0.8;"/>
   </g>
   <g id="patch_8">
    <path d="M 301.838077 186.331905 
Q 274.354961 186.331905 246.871844 186.331905 
" style="fill:none;opacity:0.6;stroke:#00008b;stroke-linecap:round;"/>
    <path d="M 297.838077 184.331905 
L 301.838077 186.331905 
L 297.838077 188.331905 
L 297.838077 184.331905 
z
" style="fill:#00008b;opacity:0.6;stroke:#00008b;stroke-linecap:round;"/>
    <path d="M 250.871844 188.331905 
L 246.871844 186.331905 
L 250.871844 184.331905 
L 250.871844 188.331905 
z
" style="fill:#00008b;opacity:0.6;stroke:#00008b;stroke-linecap:round;"/>
   </g>
   <g id="patch_9">
    <path d="M 308.068966 186.331905 
Q 335.407272 186.331905 362.745578 186.331905 
" style="fill:none;opacity:0.6;stroke:#00008b;stroke-linecap:round;"/>
    <path d="M 312.068966 188.331905 
L 308.068966 186.331905 
L 312.068966 184.331905 
L 312.068966 188.331905 
z
" style="fill:#00008b;opacity:0.6;stroke:#00008b;stroke-linecap:round;"/>
    <path d="M 358.745578 184.331905 
L 362.745578 186.331905 
L 358.745578 188.331905 
L 358.745578 184.331905 
z
" style="fill:#00008b;opacity:0.6;stroke:#00008b;stroke-linecap:round;"/>
   </g>
   <g id="text_17">
    <!-- $\sigma$: Combined 1.06 -->
    <defs>
     <path d="M 34.671875 47.5625 
Q 27.25 47.5625 22.21875 42.1875 
Q 16.890625 36.578125 15.140625 27.296875 
Q 13.1875 17.484375 16.3125 11.8125 
Q 19.390625 6.203125 26.65625 6.203125 
Q 33.84375 6.203125 39.109375 11.859375 
Q 44.4375 17.53125 46.34375 27.296875 
Q 48.046875 36.234375 45.015625 42.1875 
Q 42.1875 47.5625 34.671875 47.5625 
z
M 36.078125 54.734375 
L 65.921875 54.6875 
L 64.15625 45.703125 
L 54.109375 45.703125 
Q 57.90625 38.09375 55.859375 27.296875 
Q 53.21875 13.875 45.0625 6.25 
Q 36.859375 -1.421875 25.140625 -1.421875 
Q 13.375 -1.421875 8.203125 6.25 
Q 3.03125 13.875 5.671875 27.296875 
Q 8.25 40.765625 16.40625 48.390625 
Q 23.1875 54.734375 36.078125 54.734375 
z
" id="DejaVuSans-Oblique-963"/>
     <path d="M 11.71875 12.40625 
L 22.015625 12.40625 
L 22.015625 0 
L 11.71875 0 
z
M 11.71875 51.703125 
L 22.015625 51.703125 
L 22.015625 39.3125 
L 11.71875 39.3125 
z
" id="DejaVuSans-58"/>
     <path d="M 64.40625 67.28125 
L 64.40625 56.890625 
Q 59.421875 61.53125 53.78125 63.8125 
Q 48.140625 66.109375 41.796875 66.109375 
Q 29.296875 66.109375 22.65625 58.46875 
Q 16.015625 50.828125 16.015625 36.375 
Q 16.015625 21.96875 22.65625 14.328125 
Q 29.296875 6.6875 41.796875 6.6875 
Q 48.140625 6.6875 53.78125 8.984375 
Q 59.421875 11.28125 64.40625 15.921875 
L 64.40625 5.609375 
Q 59.234375 2.09375 53.4375 0.328125 
Q 47.65625 -1.421875 41.21875 -1.421875 
Q 24.65625 -1.421875 15.125 8.703125 
Q 5.609375 18.84375 5.609375 36.375 
Q 5.609375 53.953125 15.125 64.078125 
Q 24.65625 74.21875 41.21875 74.21875 
Q 47.75 74.21875 53.53125 72.484375 
Q 59.328125 70.75 64.40625 67.28125 
z
" id="DejaVuSans-67"/>
     <path d="M 33.015625 40.375 
Q 26.375 40.375 22.484375 35.828125 
Q 18.609375 31.296875 18.609375 23.390625 
Q 18.609375 15.53125 22.484375 10.953125 
Q 26.375 6.390625 33.015625 6.390625 
Q 39.65625 6.390625 43.53125 10.953125 
Q 47.40625 15.53125 47.40625 23.390625 
Q 47.40625 31.296875 43.53125 35.828125 
Q 39.65625 40.375 33.015625 40.375 
z
M 52.59375 71.296875 
L 52.59375 62.3125 
Q 48.875 64.0625 45.09375 64.984375 
Q 41.3125 65.921875 37.59375 65.921875 
Q 27.828125 65.921875 22.671875 59.328125 
Q 17.53125 52.734375 16.796875 39.40625 
Q 19.671875 43.65625 24.015625 45.921875 
Q 28.375 48.1875 33.59375 48.1875 
Q 44.578125 48.1875 50.953125 41.515625 
Q 57.328125 34.859375 57.328125 23.390625 
Q 57.328125 12.15625 50.6875 5.359375 
Q 44.046875 -1.421875 33.015625 -1.421875 
Q 20.359375 -1.421875 13.671875 8.265625 
Q 6.984375 17.96875 6.984375 36.375 
Q 6.984375 53.65625 15.1875 63.9375 
Q 23.390625 74.21875 37.203125 74.21875 
Q 40.921875 74.21875 44.703125 73.484375 
Q 48.484375 72.75 52.59375 71.296875 
z
" id="DejaVuSans-54"/>
    </defs>
    <g style="fill:#00008b;" transform="translate(129.355985 189.09128)scale(0.1 -0.1)">
     <use transform="translate(0 0.015625)" xlink:href="#DejaVuSans-Oblique-963"/>
     <use transform="translate(63.378906 0.015625)" xlink:href="#DejaVuSans-58"/>
     <use transform="translate(97.070312 0.015625)" xlink:href="#DejaVuSans-32"/>
     <use transform="translate(128.857422 0.015625)" xlink:href="#DejaVuSans-67"/>
     <use transform="translate(198.681641 0.015625)" xlink:href="#DejaVuSans-111"/>
     <use transform="translate(259.863281 0.015625)" xlink:href="#DejaVuSans-109"/>
     <use transform="translate(357.275391 0.015625)" xlink:href="#DejaVuSans-98"/>
     <use transform="translate(420.751953 0.015625)" xlink:href="#DejaVuSans-105"/>
     <use transform="translate(448.535156 0.015625)" xlink:href="#DejaVuSans-110"/>
     <use transform="translate(511.914062 0.015625)" xlink:href="#DejaVuSans-101"/>
     <use transform="translate(573.4375 0.015625)" xlink:href="#DejaVuSans-100"/>
     <use transform="translate(636.914062 0.015625)" xlink:href="#DejaVuSans-32"/>
     <use transform="translate(668.701172 0.015625)" xlink:href="#DejaVuSans-49"/>
     <use transform="translate(732.324219 0.015625)" xlink:href="#DejaVuSans-46"/>
     <use transform="translate(764.111328 0.015625)" xlink:href="#DejaVuSans-48"/>
     <use transform="translate(827.734375 0.015625)" xlink:href="#DejaVuSans-54"/>
    </g>
   </g>
   <g id="text_18">
    <!-- $\mu$: Combined 1.66 -->
    <defs>
     <path d="M -1.3125 -20.796875 
L 13.375 54.6875 
L 22.40625 54.6875 
L 15.765625 20.65625 
Q 15.578125 19.625 15.421875 18.359375 
Q 15.28125 17.09375 15.28125 15.828125 
Q 15.28125 11.28125 18.140625 8.828125 
Q 21 6.390625 26.3125 6.390625 
Q 33.546875 6.390625 37.984375 10.484375 
Q 42.4375 14.59375 44 22.796875 
L 50.203125 54.6875 
L 59.1875 54.6875 
L 51.03125 12.640625 
Q 50.828125 11.71875 50.75 11.03125 
Q 50.6875 10.359375 50.6875 9.8125 
Q 50.6875 8.296875 51.296875 7.59375 
Q 51.90625 6.890625 53.21875 6.890625 
Q 53.71875 6.890625 54.5625 7.125 
Q 55.421875 7.375 56.984375 8.015625 
L 55.609375 0.78125 
Q 53.46875 -0.296875 51.515625 -0.859375 
Q 49.5625 -1.421875 47.703125 -1.421875 
Q 44.484375 -1.421875 42.65625 0.625 
Q 40.828125 2.6875 40.828125 6.296875 
Q 38.09375 2.390625 34.296875 0.484375 
Q 30.515625 -1.421875 25.390625 -1.421875 
Q 20.84375 -1.421875 17.453125 0.671875 
Q 14.0625 2.78125 12.984375 6.203125 
L 7.71875 -20.796875 
z
" id="DejaVuSans-Oblique-956"/>
    </defs>
    <g style="fill:#00008b;" transform="translate(129.355985 219.523505)scale(0.1 -0.1)">
     <use transform="translate(0 0.015625)" xlink:href="#DejaVuSans-Oblique-956"/>
     <use transform="translate(63.623047 0.015625)" xlink:href="#DejaVuSans-58"/>
     <use transform="translate(97.314453 0.015625)" xlink:href="#DejaVuSans-32"/>
     <use transform="translate(129.101562 0.015625)" xlink:href="#DejaVuSans-67"/>
     <use transform="translate(198.925781 0.015625)" xlink:href="#DejaVuSans-111"/>
     <use transform="translate(260.107422 0.015625)" xlink:href="#DejaVuSans-109"/>
     <use transform="translate(357.519531 0.015625)" xlink:href="#DejaVuSans-98"/>
     <use transform="translate(420.996094 0.015625)" xlink:href="#DejaVuSans-105"/>
     <use transform="translate(448.779297 0.015625)" xlink:href="#DejaVuSans-110"/>
     <use transform="translate(512.158203 0.015625)" xlink:href="#DejaVuSans-101"/>
     <use transform="translate(573.681641 0.015625)" xlink:href="#DejaVuSans-100"/>
     <use transform="translate(637.158203 0.015625)" xlink:href="#DejaVuSans-32"/>
     <use transform="translate(668.945312 0.015625)" xlink:href="#DejaVuSans-49"/>
     <use transform="translate(732.568359 0.015625)" xlink:href="#DejaVuSans-46"/>
     <use transform="translate(764.355469 0.015625)" xlink:href="#DejaVuSans-54"/>
     <use transform="translate(827.978516 0.015625)" xlink:href="#DejaVuSans-54"/>
    </g>
   </g>
   <g id="text_19">
    <!-- $\sigma$ -->
    <g style="fill:#00008b;opacity:0.5;" transform="translate(286.167781 175.526105)scale(0.16 -0.16)">
     <use transform="translate(0 0.265625)" xlink:href="#DejaVuSans-Oblique-963"/>
    </g>
   </g>
   <g id="text_20">
    <!-- $\sigma$ -->
    <g style="fill:#00008b;opacity:0.5;" transform="translate(313.214411 175.526105)scale(0.16 -0.16)">
     <use transform="translate(0 0.265625)" xlink:href="#DejaVuSans-Oblique-963"/>
    </g>
   </g>
   <g id="text_21">
    <!-- Lake Geneva: log(pcs/m); Combined samples: n=139 -->
    <defs>
     <path d="M 9.078125 75.984375 
L 18.109375 75.984375 
L 18.109375 31.109375 
L 44.921875 54.6875 
L 56.390625 54.6875 
L 27.390625 29.109375 
L 57.625 0 
L 45.90625 0 
L 18.109375 26.703125 
L 18.109375 0 
L 9.078125 0 
z
" id="DejaVuSans-107"/>
     <path d="M 59.515625 10.40625 
L 59.515625 29.984375 
L 43.40625 29.984375 
L 43.40625 38.09375 
L 69.28125 38.09375 
L 69.28125 6.78125 
Q 63.578125 2.734375 56.6875 0.65625 
Q 49.8125 -1.421875 42 -1.421875 
Q 24.90625 -1.421875 15.25 8.5625 
Q 5.609375 18.5625 5.609375 36.375 
Q 5.609375 54.25 15.25 64.234375 
Q 24.90625 74.21875 42 74.21875 
Q 49.125 74.21875 55.546875 72.453125 
Q 61.96875 70.703125 67.390625 67.28125 
L 67.390625 56.78125 
Q 61.921875 61.421875 55.765625 63.765625 
Q 49.609375 66.109375 42.828125 66.109375 
Q 29.4375 66.109375 22.71875 58.640625 
Q 16.015625 51.171875 16.015625 36.375 
Q 16.015625 21.625 22.71875 14.15625 
Q 29.4375 6.6875 42.828125 6.6875 
Q 48.046875 6.6875 52.140625 7.59375 
Q 56.25 8.5 59.515625 10.40625 
z
" id="DejaVuSans-71"/>
     <path d="M 2.984375 54.6875 
L 12.5 54.6875 
L 29.59375 8.796875 
L 46.6875 54.6875 
L 56.203125 54.6875 
L 35.6875 0 
L 23.484375 0 
z
" id="DejaVuSans-118"/>
     <path d="M 31 75.875 
Q 24.46875 64.65625 21.28125 53.65625 
Q 18.109375 42.671875 18.109375 31.390625 
Q 18.109375 20.125 21.3125 9.0625 
Q 24.515625 -2 31 -13.1875 
L 23.1875 -13.1875 
Q 15.875 -1.703125 12.234375 9.375 
Q 8.59375 20.453125 8.59375 31.390625 
Q 8.59375 42.28125 12.203125 53.3125 
Q 15.828125 64.359375 23.1875 75.875 
z
" id="DejaVuSans-40"/>
     <path d="M 25.390625 72.90625 
L 33.6875 72.90625 
L 8.296875 -9.28125 
L 0 -9.28125 
z
" id="DejaVuSans-47"/>
     <path d="M 8.015625 75.875 
L 15.828125 75.875 
Q 23.140625 64.359375 26.78125 53.3125 
Q 30.421875 42.28125 30.421875 31.390625 
Q 30.421875 20.453125 26.78125 9.375 
Q 23.140625 -1.703125 15.828125 -13.1875 
L 8.015625 -13.1875 
Q 14.5 -2 17.703125 9.0625 
Q 20.90625 20.125 20.90625 31.390625 
Q 20.90625 42.671875 17.703125 53.65625 
Q 14.5 64.65625 8.015625 75.875 
z
" id="DejaVuSans-41"/>
     <path d="M 11.71875 51.703125 
L 22.015625 51.703125 
L 22.015625 39.3125 
L 11.71875 39.3125 
z
M 11.71875 12.40625 
L 22.015625 12.40625 
L 22.015625 4 
L 14.015625 -11.625 
L 7.71875 -11.625 
L 11.71875 4 
z
" id="DejaVuSans-59"/>
     <path d="M 10.59375 45.40625 
L 73.1875 45.40625 
L 73.1875 37.203125 
L 10.59375 37.203125 
z
M 10.59375 25.484375 
L 73.1875 25.484375 
L 73.1875 17.1875 
L 10.59375 17.1875 
z
" id="DejaVuSans-61"/>
     <path d="M 10.984375 1.515625 
L 10.984375 10.5 
Q 14.703125 8.734375 18.5 7.8125 
Q 22.3125 6.890625 25.984375 6.890625 
Q 35.75 6.890625 40.890625 13.453125 
Q 46.046875 20.015625 46.78125 33.40625 
Q 43.953125 29.203125 39.59375 26.953125 
Q 35.25 24.703125 29.984375 24.703125 
Q 19.046875 24.703125 12.671875 31.3125 
Q 6.296875 37.9375 6.296875 49.421875 
Q 6.296875 60.640625 12.9375 67.421875 
Q 19.578125 74.21875 30.609375 74.21875 
Q 43.265625 74.21875 49.921875 64.515625 
Q 56.59375 54.828125 56.59375 36.375 
Q 56.59375 19.140625 48.40625 8.859375 
Q 40.234375 -1.421875 26.421875 -1.421875 
Q 22.703125 -1.421875 18.890625 -0.6875 
Q 15.09375 0.046875 10.984375 1.515625 
z
M 30.609375 32.421875 
Q 37.25 32.421875 41.125 36.953125 
Q 45.015625 41.5 45.015625 49.421875 
Q 45.015625 57.28125 41.125 61.84375 
Q 37.25 66.40625 30.609375 66.40625 
Q 23.96875 66.40625 20.09375 61.84375 
Q 16.21875 57.28125 16.21875 49.421875 
Q 16.21875 41.5 20.09375 36.953125 
Q 23.96875 32.421875 30.609375 32.421875 
z
" id="DejaVuSans-57"/>
    </defs>
    <g transform="translate(107.971875 45.48)scale(0.14 -0.14)">
     <use xlink:href="#DejaVuSans-76"/>
     <use x="55.712891" xlink:href="#DejaVuSans-97"/>
     <use x="116.992188" xlink:href="#DejaVuSans-107"/>
     <use x="174.855469" xlink:href="#DejaVuSans-101"/>
     <use x="236.378906" xlink:href="#DejaVuSans-32"/>
     <use x="268.166016" xlink:href="#DejaVuSans-71"/>
     <use x="345.65625" xlink:href="#DejaVuSans-101"/>
     <use x="407.179688" xlink:href="#DejaVuSans-110"/>
     <use x="470.558594" xlink:href="#DejaVuSans-101"/>
     <use x="532.082031" xlink:href="#DejaVuSans-118"/>
     <use x="591.261719" xlink:href="#DejaVuSans-97"/>
     <use x="652.541016" xlink:href="#DejaVuSans-58"/>
     <use x="686.232422" xlink:href="#DejaVuSans-32"/>
     <use x="718.019531" xlink:href="#DejaVuSans-108"/>
     <use x="745.802734" xlink:href="#DejaVuSans-111"/>
     <use x="806.984375" xlink:href="#DejaVuSans-103"/>
     <use x="870.460938" xlink:href="#DejaVuSans-40"/>
     <use x="909.474609" xlink:href="#DejaVuSans-112"/>
     <use x="972.951172" xlink:href="#DejaVuSans-99"/>
     <use x="1027.931641" xlink:href="#DejaVuSans-115"/>
     <use x="1080.03125" xlink:href="#DejaVuSans-47"/>
     <use x="1113.722656" xlink:href="#DejaVuSans-109"/>
     <use x="1211.134766" xlink:href="#DejaVuSans-41"/>
     <use x="1250.148438" xlink:href="#DejaVuSans-59"/>
     <use x="1283.839844" xlink:href="#DejaVuSans-32"/>
     <use x="1315.626953" xlink:href="#DejaVuSans-67"/>
     <use x="1385.451172" xlink:href="#DejaVuSans-111"/>
     <use x="1446.632812" xlink:href="#DejaVuSans-109"/>
     <use x="1544.044922" xlink:href="#DejaVuSans-98"/>
     <use x="1607.521484" xlink:href="#DejaVuSans-105"/>
     <use x="1635.304688" xlink:href="#DejaVuSans-110"/>
     <use x="1698.683594" xlink:href="#DejaVuSans-101"/>
     <use x="1760.207031" xlink:href="#DejaVuSans-100"/>
     <use x="1823.683594" xlink:href="#DejaVuSans-32"/>
     <use x="1855.470703" xlink:href="#DejaVuSans-115"/>
     <use x="1907.570312" xlink:href="#DejaVuSans-97"/>
     <use x="1968.849609" xlink:href="#DejaVuSans-109"/>
     <use x="2066.261719" xlink:href="#DejaVuSans-112"/>
     <use x="2129.738281" xlink:href="#DejaVuSans-108"/>
     <use x="2157.521484" xlink:href="#DejaVuSans-101"/>
     <use x="2219.044922" xlink:href="#DejaVuSans-115"/>
     <use x="2271.144531" xlink:href="#DejaVuSans-58"/>
     <use x="2304.835938" xlink:href="#DejaVuSans-32"/>
     <use x="2336.623047" xlink:href="#DejaVuSans-110"/>
     <use x="2400.001953" xlink:href="#DejaVuSans-61"/>
     <use x="2483.791016" xlink:href="#DejaVuSans-49"/>
     <use x="2547.414062" xlink:href="#DejaVuSans-51"/>
     <use x="2611.037109" xlink:href="#DejaVuSans-57"/>
    </g>
   </g>
   <g id="legend_1">
    <g id="patch_10">
     <path d="M 392.669062 92.229375 
L 508.6 92.229375 
Q 511.4 92.229375 511.4 89.429375 
L 511.4 70.28 
Q 511.4 67.48 508.6 67.48 
L 392.669062 67.48 
Q 389.869062 67.48 389.869062 70.28 
L 389.869062 89.429375 
Q 389.869062 92.229375 392.669062 92.229375 
z
" style="fill:#ffffff;opacity:0.8;stroke:#cccccc;stroke-linejoin:miter;"/>
    </g>
    <g id="line2d_16">
     <path d="M 395.469063 78.817812 
L 423.469063 78.817812 
" style="fill:none;stroke:#00008b;stroke-linecap:square;stroke-width:1.5;"/>
    </g>
    <g id="line2d_17"/>
    <g id="text_22">
     <!-- Combined -->
     <g transform="translate(434.669062 83.717812)scale(0.14 -0.14)">
      <use xlink:href="#DejaVuSans-67"/>
      <use x="69.824219" xlink:href="#DejaVuSans-111"/>
      <use x="131.005859" xlink:href="#DejaVuSans-109"/>
      <use x="228.417969" xlink:href="#DejaVuSans-98"/>
      <use x="291.894531" xlink:href="#DejaVuSans-105"/>
      <use x="319.677734" xlink:href="#DejaVuSans-110"/>
      <use x="383.056641" xlink:href="#DejaVuSans-101"/>
      <use x="444.580078" xlink:href="#DejaVuSans-100"/>
     </g>
    </g>
   </g>
  </g>
  <g id="text_23">
   <!-- Combined probability density SLR &amp; MCBP 2015-2018 -->
   <defs>
    <path d="M 53.515625 70.515625 
L 53.515625 60.890625 
Q 47.90625 63.578125 42.921875 64.890625 
Q 37.9375 66.21875 33.296875 66.21875 
Q 25.25 66.21875 20.875 63.09375 
Q 16.5 59.96875 16.5 54.203125 
Q 16.5 49.359375 19.40625 46.890625 
Q 22.3125 44.4375 30.421875 42.921875 
L 36.375 41.703125 
Q 47.40625 39.59375 52.65625 34.296875 
Q 57.90625 29 57.90625 20.125 
Q 57.90625 9.515625 50.796875 4.046875 
Q 43.703125 -1.421875 29.984375 -1.421875 
Q 24.8125 -1.421875 18.96875 -0.25 
Q 13.140625 0.921875 6.890625 3.21875 
L 6.890625 13.375 
Q 12.890625 10.015625 18.65625 8.296875 
Q 24.421875 6.59375 29.984375 6.59375 
Q 38.421875 6.59375 43.015625 9.90625 
Q 47.609375 13.234375 47.609375 19.390625 
Q 47.609375 24.75 44.3125 27.78125 
Q 41.015625 30.8125 33.5 32.328125 
L 27.484375 33.5 
Q 16.453125 35.6875 11.515625 40.375 
Q 6.59375 45.0625 6.59375 53.421875 
Q 6.59375 63.09375 13.40625 68.65625 
Q 20.21875 74.21875 32.171875 74.21875 
Q 37.3125 74.21875 42.625 73.28125 
Q 47.953125 72.359375 53.515625 70.515625 
z
" id="DejaVuSans-83"/>
    <path d="M 44.390625 34.1875 
Q 47.5625 33.109375 50.5625 29.59375 
Q 53.5625 26.078125 56.59375 19.921875 
L 66.609375 0 
L 56 0 
L 46.6875 18.703125 
Q 43.0625 26.03125 39.671875 28.421875 
Q 36.28125 30.8125 30.421875 30.8125 
L 19.671875 30.8125 
L 19.671875 0 
L 9.8125 0 
L 9.8125 72.90625 
L 32.078125 72.90625 
Q 44.578125 72.90625 50.734375 67.671875 
Q 56.890625 62.453125 56.890625 51.90625 
Q 56.890625 45.015625 53.6875 40.46875 
Q 50.484375 35.9375 44.390625 34.1875 
z
M 19.671875 64.796875 
L 19.671875 38.921875 
L 32.078125 38.921875 
Q 39.203125 38.921875 42.84375 42.21875 
Q 46.484375 45.515625 46.484375 51.90625 
Q 46.484375 58.296875 42.84375 61.546875 
Q 39.203125 64.796875 32.078125 64.796875 
z
" id="DejaVuSans-82"/>
    <path d="M 24.3125 39.203125 
Q 19.875 35.25 17.796875 31.3125 
Q 15.71875 27.390625 15.71875 23.09375 
Q 15.71875 15.96875 20.890625 11.234375 
Q 26.078125 6.5 33.890625 6.5 
Q 38.53125 6.5 42.578125 8.03125 
Q 46.625 9.578125 50.203125 12.703125 
z
M 31.203125 44.671875 
L 56 19.28125 
Q 58.890625 23.640625 60.5 28.59375 
Q 62.109375 33.546875 62.40625 39.109375 
L 71.484375 39.109375 
Q 70.90625 32.671875 68.359375 26.359375 
Q 65.828125 20.0625 61.28125 13.921875 
L 74.90625 0 
L 62.59375 0 
L 55.609375 7.171875 
Q 50.53125 2.828125 44.96875 0.703125 
Q 39.40625 -1.421875 33.015625 -1.421875 
Q 21.234375 -1.421875 13.765625 5.296875 
Q 6.296875 12.015625 6.296875 22.515625 
Q 6.296875 28.765625 9.5625 34.25 
Q 12.84375 39.75 19.390625 44.578125 
Q 17.046875 47.65625 15.8125 50.703125 
Q 14.59375 53.765625 14.59375 56.6875 
Q 14.59375 64.59375 20.015625 69.40625 
Q 25.4375 74.21875 34.421875 74.21875 
Q 38.484375 74.21875 42.5 73.34375 
Q 46.53125 72.46875 50.6875 70.703125 
L 50.6875 61.8125 
Q 46.4375 64.109375 42.578125 65.296875 
Q 38.71875 66.5 35.40625 66.5 
Q 30.28125 66.5 27.078125 63.78125 
Q 23.875 61.078125 23.875 56.78125 
Q 23.875 54.296875 25.3125 51.78125 
Q 26.765625 49.265625 31.203125 44.671875 
z
" id="DejaVuSans-38"/>
    <path d="M 9.8125 72.90625 
L 24.515625 72.90625 
L 43.109375 23.296875 
L 61.8125 72.90625 
L 76.515625 72.90625 
L 76.515625 0 
L 66.890625 0 
L 66.890625 64.015625 
L 48.09375 14.015625 
L 38.1875 14.015625 
L 19.390625 64.015625 
L 19.390625 0 
L 9.8125 0 
z
" id="DejaVuSans-77"/>
    <path d="M 19.671875 34.8125 
L 19.671875 8.109375 
L 35.5 8.109375 
Q 43.453125 8.109375 47.28125 11.40625 
Q 51.125 14.703125 51.125 21.484375 
Q 51.125 28.328125 47.28125 31.5625 
Q 43.453125 34.8125 35.5 34.8125 
z
M 19.671875 64.796875 
L 19.671875 42.828125 
L 34.28125 42.828125 
Q 41.5 42.828125 45.03125 45.53125 
Q 48.578125 48.25 48.578125 53.8125 
Q 48.578125 59.328125 45.03125 62.0625 
Q 41.5 64.796875 34.28125 64.796875 
z
M 9.8125 72.90625 
L 35.015625 72.90625 
Q 46.296875 72.90625 52.390625 68.21875 
Q 58.5 63.53125 58.5 54.890625 
Q 58.5 48.1875 55.375 44.234375 
Q 52.25 40.28125 46.1875 39.3125 
Q 53.46875 37.75 57.5 32.78125 
Q 61.53125 27.828125 61.53125 20.40625 
Q 61.53125 10.640625 54.890625 5.3125 
Q 48.25 0 35.984375 0 
L 9.8125 0 
z
" id="DejaVuSans-66"/>
    <path d="M 4.890625 31.390625 
L 31.203125 31.390625 
L 31.203125 23.390625 
L 4.890625 23.390625 
z
" id="DejaVuSans-45"/>
    <path d="M 31.78125 34.625 
Q 24.75 34.625 20.71875 30.859375 
Q 16.703125 27.09375 16.703125 20.515625 
Q 16.703125 13.921875 20.71875 10.15625 
Q 24.75 6.390625 31.78125 6.390625 
Q 38.8125 6.390625 42.859375 10.171875 
Q 46.921875 13.96875 46.921875 20.515625 
Q 46.921875 27.09375 42.890625 30.859375 
Q 38.875 34.625 31.78125 34.625 
z
M 21.921875 38.8125 
Q 15.578125 40.375 12.03125 44.71875 
Q 8.5 49.078125 8.5 55.328125 
Q 8.5 64.0625 14.71875 69.140625 
Q 20.953125 74.21875 31.78125 74.21875 
Q 42.671875 74.21875 48.875 69.140625 
Q 55.078125 64.0625 55.078125 55.328125 
Q 55.078125 49.078125 51.53125 44.71875 
Q 48 40.375 41.703125 38.8125 
Q 48.828125 37.15625 52.796875 32.3125 
Q 56.78125 27.484375 56.78125 20.515625 
Q 56.78125 9.90625 50.3125 4.234375 
Q 43.84375 -1.421875 31.78125 -1.421875 
Q 19.734375 -1.421875 13.25 4.234375 
Q 6.78125 9.90625 6.78125 20.515625 
Q 6.78125 27.484375 10.78125 32.3125 
Q 14.796875 37.15625 21.921875 38.8125 
z
M 18.3125 54.390625 
Q 18.3125 48.734375 21.84375 45.5625 
Q 25.390625 42.390625 31.78125 42.390625 
Q 38.140625 42.390625 41.71875 45.5625 
Q 45.3125 48.734375 45.3125 54.390625 
Q 45.3125 60.0625 41.71875 63.234375 
Q 38.140625 66.40625 31.78125 66.40625 
Q 25.390625 66.40625 21.84375 63.234375 
Q 18.3125 60.0625 18.3125 54.390625 
z
" id="DejaVuSans-56"/>
   </defs>
   <g transform="translate(72.16625 22.2375)scale(0.16 -0.16)">
    <use xlink:href="#DejaVuSans-67"/>
    <use x="69.824219" xlink:href="#DejaVuSans-111"/>
    <use x="131.005859" xlink:href="#DejaVuSans-109"/>
    <use x="228.417969" xlink:href="#DejaVuSans-98"/>
    <use x="291.894531" xlink:href="#DejaVuSans-105"/>
    <use x="319.677734" xlink:href="#DejaVuSans-110"/>
    <use x="383.056641" xlink:href="#DejaVuSans-101"/>
    <use x="444.580078" xlink:href="#DejaVuSans-100"/>
    <use x="508.056641" xlink:href="#DejaVuSans-32"/>
    <use x="539.84375" xlink:href="#DejaVuSans-112"/>
    <use x="603.320312" xlink:href="#DejaVuSans-114"/>
    <use x="644.402344" xlink:href="#DejaVuSans-111"/>
    <use x="705.583984" xlink:href="#DejaVuSans-98"/>
    <use x="769.060547" xlink:href="#DejaVuSans-97"/>
    <use x="830.339844" xlink:href="#DejaVuSans-98"/>
    <use x="893.816406" xlink:href="#DejaVuSans-105"/>
    <use x="921.599609" xlink:href="#DejaVuSans-108"/>
    <use x="949.382812" xlink:href="#DejaVuSans-105"/>
    <use x="977.166016" xlink:href="#DejaVuSans-116"/>
    <use x="1016.375" xlink:href="#DejaVuSans-121"/>
    <use x="1075.554688" xlink:href="#DejaVuSans-32"/>
    <use x="1107.341797" xlink:href="#DejaVuSans-100"/>
    <use x="1170.818359" xlink:href="#DejaVuSans-101"/>
    <use x="1232.341797" xlink:href="#DejaVuSans-110"/>
    <use x="1295.720703" xlink:href="#DejaVuSans-115"/>
    <use x="1347.820312" xlink:href="#DejaVuSans-105"/>
    <use x="1375.603516" xlink:href="#DejaVuSans-116"/>
    <use x="1414.8125" xlink:href="#DejaVuSans-121"/>
    <use x="1473.992188" xlink:href="#DejaVuSans-32"/>
    <use x="1505.779297" xlink:href="#DejaVuSans-83"/>
    <use x="1569.255859" xlink:href="#DejaVuSans-76"/>
    <use x="1624.96875" xlink:href="#DejaVuSans-82"/>
    <use x="1694.451172" xlink:href="#DejaVuSans-32"/>
    <use x="1726.238281" xlink:href="#DejaVuSans-38"/>
    <use x="1804.216797" xlink:href="#DejaVuSans-32"/>
    <use x="1836.003906" xlink:href="#DejaVuSans-77"/>
    <use x="1922.283203" xlink:href="#DejaVuSans-67"/>
    <use x="1992.107422" xlink:href="#DejaVuSans-66"/>
    <use x="2060.710938" xlink:href="#DejaVuSans-80"/>
    <use x="2121.013672" xlink:href="#DejaVuSans-32"/>
    <use x="2152.800781" xlink:href="#DejaVuSans-50"/>
    <use x="2216.423828" xlink:href="#DejaVuSans-48"/>
    <use x="2280.046875" xlink:href="#DejaVuSans-49"/>
    <use x="2343.669922" xlink:href="#DejaVuSans-53"/>
    <use x="2407.292969" xlink:href="#DejaVuSans-45"/>
    <use x="2443.376953" xlink:href="#DejaVuSans-50"/>
    <use x="2507" xlink:href="#DejaVuSans-48"/>
    <use x="2570.623047" xlink:href="#DejaVuSans-49"/>
    <use x="2634.246094" xlink:href="#DejaVuSans-56"/>
   </g>
  </g>
 </g>
 <defs>
  <clipPath id="p617a000441">
   <rect height="380.52" width="446.4" x="72" y="60.48"/>
  </clipPath>
 </defs>
</svg>
