<?xml version="1.0" encoding="utf-8" standalone="no"?>
<!DOCTYPE svg PUBLIC "-//W3C//DTD SVG 1.1//EN"
  "http://www.w3.org/Graphics/SVG/1.1/DTD/svg11.dtd">
<!-- Created with matplotlib (https://matplotlib.org/) -->
<svg height="504pt" version="1.1" viewBox="0 0 576 504" width="576pt" xmlns="http://www.w3.org/2000/svg" xmlns:xlink="http://www.w3.org/1999/xlink">
 <defs>
  <style type="text/css">
*{stroke-linecap:butt;stroke-linejoin:round;}
  </style>
 </defs>
 <g id="figure_1">
  <g id="patch_1">
   <path d="M 0 504 
L 576 504 
L 576 0 
L 0 0 
z
" style="fill:#ffffff;"/>
  </g>
  <g id="axes_1">
   <g id="patch_2">
    <path d="M 72 441 
L 518.4 441 
L 518.4 60.48 
L 72 60.48 
z
" style="fill:#ffffff;"/>
   </g>
   <g id="PathCollection_1">
    <defs>
     <path d="M 0 2.236068 
C 0.593012 2.236068 1.161816 2.000462 1.581139 1.581139 
C 2.000462 1.161816 2.236068 0.593012 2.236068 0 
C 2.236068 -0.593012 2.000462 -1.161816 1.581139 -1.581139 
C 1.161816 -2.000462 0.593012 -2.236068 0 -2.236068 
C -0.593012 -2.236068 -1.161816 -2.000462 -1.581139 -1.581139 
C -2.000462 -1.161816 -2.236068 -0.593012 -2.236068 0 
C -2.236068 0.593012 -2.000462 1.161816 -1.581139 1.581139 
C -1.161816 2.000462 -0.593012 2.236068 0 2.236068 
z
" id="m8b8bc3fed7" style="stroke:#00008b;stroke-opacity:0.6;"/>
    </defs>
    <g clip-path="url(#pee86169b22)">
     <use style="fill:#00008b;fill-opacity:0.6;stroke:#00008b;stroke-opacity:0.6;" x="304.025663" xlink:href="#m8b8bc3fed7" y="185.592884"/>
    </g>
   </g>
   <g id="patch_3">
    <path clip-path="url(#pee86169b22)" d="M 92.290909 440.070579 
L 97.097089 439.798198 
L 109.916642 438.682446 
L 124.161843 436.423168 
L 125.890996 436.046561 
L 128.612336 435.398782 
L 132.962666 434.209483 
L 144.303697 430.034509 
L 148.178909 428.180401 
L 151.987051 426.10899 
L 156.525606 423.284638 
L 164.696163 417.1011 
L 165.584236 416.335927 
L 166.123708 415.861672 
L 167.516603 414.60364 
L 169.750092 412.483179 
L 169.790369 412.44375 
L 171.300049 410.934856 
L 172.187197 410.019655 
L 173.136854 409.016198 
L 174.074454 408.001055 
L 175.979577 405.862347 
L 176.0596 405.770254 
L 176.881926 404.81323 
L 177.945847 403.545957 
L 178.675434 402.657769 
L 178.834395 402.462169 
L 179.173376 402.042559 
L 181.726231 398.772007 
L 182.726593 397.436539 
L 182.859065 397.25739 
L 183.080898 396.956186 
L 184.914212 394.408596 
L 185.453312 393.639527 
L 185.470574 393.614751 
L 187.142434 391.170644 
L 187.651064 390.40952 
L 188.25783 389.490772 
L 190.011522 386.769175 
L 190.245612 386.398412 
L 190.983528 385.218105 
L 192.209878 383.217609 
L 194.294689 379.704761 
L 195.262128 378.026627 
L 197.532066 373.969489 
L 198.144462 372.846206 
L 198.146914 372.841684 
L 198.747496 371.728186 
L 198.856318 371.525173 
L 199.070565 371.124362 
L 199.557019 370.208782 
L 200.029748 369.311693 
L 200.676604 368.072463 
L 201.321551 366.823453 
L 202.377635 364.749361 
L 202.970853 363.568653 
L 204.303197 360.876004 
L 205.862897 357.652689 
L 206.126175 357.10108 
L 206.743026 355.800252 
L 206.784908 355.711502 
L 206.864388 355.542933 
L 206.915439 355.434557 
L 206.969464 355.319779 
L 207.142103 354.952398 
L 208.208358 352.663107 
L 211.09819 346.285979 
L 211.587205 345.182402 
L 211.83882 344.611866 
L 212.27986 343.607399 
L 212.970817 342.022548 
L 213.090106 341.747558 
L 214.869188 337.599127 
L 215.499949 336.107422 
L 216.916975 332.717434 
L 217.257746 331.894335 
L 217.33649 331.703707 
L 217.510707 331.28139 
L 217.569397 331.138945 
L 218.127066 329.781061 
L 218.610659 328.597194 
L 219.180068 327.19579 
L 219.500478 326.403714 
L 219.529692 326.331372 
L 219.880728 325.460484 
L 220.169332 324.742274 
L 220.433636 324.082801 
L 220.637832 323.572179 
L 220.872047 322.985292 
L 221.120697 322.360841 
L 221.476511 321.464796 
L 222.167201 319.717259 
L 222.513092 318.838126 
L 222.632051 318.535166 
L 222.717755 318.316711 
L 222.775162 318.170293 
L 222.868893 317.931075 
L 223.056682 317.451241 
L 224.241183 314.407485 
L 224.860427 312.804797 
L 224.904326 312.690888 
L 225.37638 311.463639 
L 225.840927 310.25171 
L 226.458226 308.635002 
L 226.762888 307.834515 
L 227.065643 307.037385 
L 227.184076 306.725119 
L 227.325531 306.351831 
L 227.357992 306.266121 
L 227.68127 305.411534 
L 227.735714 305.267437 
L 228.040891 304.458786 
L 228.098954 304.304758 
L 228.151824 304.164456 
L 228.625109 302.906443 
L 228.717914 302.659337 
L 229.358795 300.949209 
L 229.913189 299.464791 
L 230.067015 299.05211 
L 230.117677 298.916118 
L 230.29308 298.445002 
L 230.395372 298.170054 
L 230.450179 298.022677 
L 230.713836 297.313117 
L 231.025939 296.471939 
L 231.064524 296.367853 
L 231.881932 294.158259 
L 232.130165 293.485568 
L 232.48438 292.524379 
L 232.565839 292.303124 
L 233.691303 289.238542 
L 234.120326 288.0668 
L 234.34398 287.455236 
L 235.431816 284.474103 
L 236.250701 282.223545 
L 236.314242 282.048705 
L 236.762891 280.813404 
L 237.425831 278.985732 
L 237.700726 278.227122 
L 237.792154 277.974726 
L 238.190594 276.874305 
L 238.206185 276.831228 
L 239.616978 272.929493 
L 240.11363 271.554477 
L 240.149929 271.45396 
L 240.430325 270.677417 
L 240.735698 269.831566 
L 240.877635 269.438379 
L 240.914218 269.337034 
L 241.318063 268.21822 
L 241.390579 268.017314 
L 241.487631 267.748428 
L 241.523083 267.650208 
L 241.56384 267.537289 
L 241.805132 266.868786 
L 242.125263 265.981897 
L 242.28087 265.55083 
L 242.957687 263.676272 
L 243.194574 263.020372 
L 243.19838 263.009835 
L 243.22041 262.948844 
L 243.461767 262.280722 
L 243.65011 261.759462 
L 243.706522 261.603356 
L 243.800375 261.343663 
L 243.86988 261.151363 
L 244.143684 260.393982 
L 244.278953 260.019908 
L 244.350412 259.822325 
L 244.371961 259.762747 
L 244.434351 259.590263 
L 244.440592 259.573011 
L 244.453732 259.536684 
L 244.617879 259.082973 
L 244.69049 258.882311 
L 244.850064 258.441409 
L 244.915627 258.260295 
L 244.97102 258.107291 
L 245.093507 257.769015 
L 245.104664 257.738207 
L 245.773649 255.892146 
L 245.889294 255.573291 
L 245.917706 255.494967 
L 245.917896 255.494444 
L 246.077981 255.053231 
L 246.080681 255.04579 
L 246.202375 254.710504 
L 246.825252 252.996022 
L 246.844005 252.944451 
L 247.562486 250.9707 
L 249.490713 245.697933 
L 249.537267 245.571133 
L 249.691364 245.151595 
L 250.15025 243.903997 
L 250.261434 243.602118 
L 250.748684 242.281105 
L 250.789842 242.169668 
L 251.295778 240.801772 
L 251.359368 240.630108 
L 251.480992 240.301941 
L 251.513562 240.214101 
L 251.941966 239.060184 
L 251.994187 238.919719 
L 252.181683 238.415751 
L 252.291604 238.120559 
L 252.543015 237.446136 
L 252.645729 237.170904 
L 252.928601 236.413844 
L 252.946616 236.365675 
L 253.420423 235.100876 
L 253.468083 234.973874 
L 253.699633 234.357434 
L 253.915672 233.783182 
L 254.570359 232.048409 
L 254.621976 231.911992 
L 255.113596 230.615413 
L 255.427828 229.78929 
L 255.55927 229.444348 
L 255.870429 228.629262 
L 255.871185 228.627284 
L 255.961862 228.390155 
L 256.155282 227.884951 
L 256.180477 227.819203 
L 257.029413 225.612415 
L 257.050312 225.5583 
L 257.329458 224.836519 
L 257.332926 224.827564 
L 257.369228 224.733839 
L 257.61958 224.088366 
L 257.86172 223.465545 
L 257.938282 223.268921 
L 258.44262 221.977449 
L 258.721827 221.265322 
L 258.773256 221.134377 
L 259.052418 220.424822 
L 259.173008 220.118968 
L 259.244371 219.938157 
L 259.373871 219.610399 
L 259.385143 219.581891 
L 259.536748 219.198824 
L 259.64147 218.934593 
L 260.137189 217.688016 
L 260.336152 217.189672 
L 260.429915 216.955223 
L 260.784557 216.070802 
L 261.036728 215.444212 
L 261.157494 215.144814 
L 261.28379 214.832186 
L 261.354114 214.658318 
L 261.430077 214.470683 
L 261.496827 214.30595 
L 261.560086 214.14996 
L 261.795239 213.571198 
L 262.556592 211.709402 
L 262.914628 210.840385 
L 263.082458 210.434498 
L 263.33636 209.822249 
L 263.368548 209.744789 
L 263.477771 209.482204 
L 263.756585 208.813759 
L 263.925777 208.409438 
L 264.114267 207.96018 
L 264.148535 207.878637 
L 264.507691 207.026508 
L 264.842595 206.23608 
L 264.932078 206.025574 
L 265.023079 205.811793 
L 265.194076 205.410913 
L 265.218839 205.352947 
L 265.223759 205.341432 
L 265.287245 205.192941 
L 265.408403 204.909972 
L 265.815691 203.962755 
L 265.997573 203.54178 
L 266.089745 203.328924 
L 266.218324 203.032537 
L 266.313769 202.812936 
L 266.358655 202.709785 
L 266.377612 202.666243 
L 266.385965 202.647064 
L 266.429051 202.548167 
L 266.513281 202.35504 
L 267.47194 200.176668 
L 267.861376 199.30228 
L 268.062448 198.853249 
L 268.101268 198.76675 
L 268.185592 198.579071 
L 268.389021 198.127516 
L 268.393261 198.118122 
L 268.521176 197.835097 
L 268.899757 197.001483 
L 269.314161 196.095988 
L 269.319721 196.08389 
L 269.443452 195.814993 
L 269.817945 195.005195 
L 270.027852 194.553985 
L 270.178431 194.231506 
L 270.608064 193.316967 
L 270.68016 193.164315 
L 270.916897 192.664709 
L 270.972305 192.548145 
L 271.035546 192.415275 
L 271.130572 192.215966 
L 271.264141 191.93652 
L 271.627348 191.1808 
L 271.636548 191.161737 
L 271.970508 190.472438 
L 272.627274 189.132236 
L 273.326847 187.727481 
L 273.336812 187.707643 
L 273.428008 187.526322 
L 273.804244 186.782601 
L 273.965048 186.466876 
L 274.19698 186.01377 
L 274.600528 185.231846 
L 274.703836 185.033 
L 274.739535 184.964412 
L 275.073602 184.325741 
L 275.183575 184.116749 
L 275.214252 184.05856 
L 275.246058 183.998282 
L 275.392132 183.722119 
L 275.830562 182.899899 
L 275.86396 182.837676 
L 275.880991 182.80597 
L 276.118568 182.365259 
L 276.474232 181.711072 
L 276.51678 181.633262 
L 276.531116 181.607067 
L 276.580291 181.517295 
L 276.839772 181.045747 
L 277.112797 180.553493 
L 277.181866 180.429602 
L 277.184881 180.4242 
L 278.273651 178.50588 
L 278.32605 178.415206 
L 278.369906 178.339433 
L 278.483083 178.144387 
L 278.609154 177.927962 
L 278.806598 177.5908 
L 278.826573 177.556813 
L 279.295051 176.766148 
L 279.31627 176.73063 
L 279.348632 176.676511 
L 279.574598 176.300286 
L 280.142412 175.367817 
L 280.353333 175.026182 
L 280.418977 174.920384 
L 280.635803 174.57271 
L 281.12111 173.804516 
L 281.130679 173.789507 
L 281.13684 173.779847 
L 281.179565 173.712922 
L 281.204325 173.674186 
L 281.341873 173.45966 
L 281.554323 173.130518 
L 281.732479 172.856577 
L 281.793562 172.763088 
L 282.14969 172.22248 
L 282.254717 172.064503 
L 282.298055 171.999509 
L 282.30996 171.981675 
L 282.364592 171.899945 
L 282.486221 171.718634 
L 282.512049 171.680248 
L 282.685242 171.423889 
L 283.118815 170.790124 
L 283.594252 170.108401 
L 283.635842 170.049427 
L 283.771909 169.857235 
L 283.828648 169.777431 
L 283.916874 169.653737 
L 284.247754 169.194147 
L 284.470552 168.88853 
L 284.475066 168.88237 
L 284.530769 168.806462 
L 284.545314 168.786673 
L 284.729253 168.537566 
L 285.138 167.991631 
L 285.162889 167.958728 
L 285.519929 167.491071 
L 285.582576 167.409851 
L 285.607005 167.378246 
L 286.207094 166.613893 
L 286.7918 165.891414 
L 286.953547 165.695462 
L 286.956313 165.692126 
L 287.222461 165.373449 
L 287.49852 165.047789 
L 287.745313 164.760878 
L 287.991841 164.478271 
L 288.053156 164.408605 
L 288.135133 164.31585 
L 288.579876 163.82038 
L 288.671004 163.720477 
L 289.058619 163.301716 
L 289.222765 163.127403 
L 289.365217 162.97759 
L 289.385143 162.956743 
L 289.482212 162.855567 
L 289.775899 162.553309 
L 289.888742 162.438718 
L 290.250785 162.076869 
L 290.340709 161.988367 
L 290.611791 161.724895 
L 290.648369 161.689726 
L 290.742895 161.599263 
L 290.748549 161.593871 
L 291.124536 161.240219 
L 291.321489 161.05882 
L 291.330873 161.050244 
L 291.379079 161.00628 
L 291.531412 160.868401 
L 291.952918 160.495198 
L 292.195199 160.28622 
L 292.204286 160.278461 
L 292.474271 160.050536 
L 292.508461 160.022032 
L 292.548277 159.988939 
L 292.795504 159.785924 
L 292.830683 159.75738 
L 292.861841 159.732171 
L 292.880815 159.716853 
L 293.207062 159.457384 
L 293.430414 159.284026 
L 293.487309 159.240423 
L 293.508548 159.224203 
L 293.513657 159.220306 
L 293.739041 159.050215 
L 294.055962 158.817062 
L 294.40687 158.567131 
L 294.452611 158.535191 
L 294.54909 158.468304 
L 294.624605 158.416408 
L 294.852637 158.26214 
L 294.878994 158.244545 
L 294.884995 158.240546 
L 294.899166 158.231113 
L 294.937018 158.205984 
L 295.000629 158.163985 
L 295.022188 158.149815 
L 295.55177 157.812075 
L 295.753307 157.688769 
L 295.829304 157.643021 
L 295.96375 157.563095 
L 296.091191 157.48852 
L 296.101914 157.482297 
L 296.138771 157.460973 
L 296.492967 157.260986 
L 296.693991 157.151466 
L 296.793381 157.098383 
L 296.858417 157.064031 
L 296.863267 157.061481 
L 296.937128 157.02286 
L 296.960778 157.010576 
L 297.113435 156.932249 
L 298.059444 156.484139 
L 298.643446 156.239642 
L 298.765365 156.191703 
L 299.190807 156.032826 
L 299.24473 156.013624 
L 299.383834 155.965058 
L 299.451536 155.941928 
L 299.716106 155.85472 
L 300.010489 155.763647 
L 300.122272 155.730711 
L 300.157688 155.720465 
L 300.276273 155.68682 
L 300.508706 155.623836 
L 300.705476 155.573583 
L 300.796009 155.551406 
L 300.796935 155.551182 
L 301.046584 155.493134 
L 301.146773 155.471112 
L 301.377332 155.423209 
L 301.51323 155.396786 
L 301.53865 155.391993 
L 301.575136 155.385195 
L 301.930142 155.324116 
L 302.187503 155.285578 
L 302.301841 155.270005 
L 302.555574 155.238851 
L 303.312637 155.173805 
L 303.422153 155.167858 
L 303.582246 155.160739 
L 303.96668 155.151284 
L 304.274035 155.151485 
L 304.551433 155.157587 
L 304.680857 155.162355 
L 304.681471 155.16238 
L 304.724686 155.164247 
L 304.888691 155.172569 
L 304.962943 155.176983 
L 305.062081 155.183503 
L 305.161942 155.190796 
L 305.223263 155.195635 
L 305.233524 155.196471 
L 305.314426 155.203335 
L 305.670889 155.239266 
L 306.01253 155.282399 
L 306.071977 155.290773 
L 306.229939 155.314277 
L 306.261734 155.319228 
L 306.798986 155.414018 
L 306.821104 155.41837 
L 306.900773 155.434344 
L 306.94001 155.442381 
L 307.065204 155.468774 
L 307.817674 155.651415 
L 308.459538 155.839705 
L 308.742056 155.932047 
L 308.786857 155.947221 
L 309.028808 156.031681 
L 309.297681 156.130506 
L 309.427203 156.179976 
L 309.570649 156.236178 
L 309.575133 156.237959 
L 309.655688 156.270197 
L 309.788088 156.324201 
L 309.950129 156.392016 
L 310.161554 156.483341 
L 310.365707 156.574578 
L 310.386663 156.584113 
L 310.436083 156.606725 
L 310.51155 156.641592 
L 310.530355 156.650344 
L 310.789543 156.77356 
L 311.267556 157.01344 
L 311.277791 157.018755 
L 311.324282 157.042993 
L 311.40207 157.083893 
L 311.477447 157.123938 
L 311.554919 157.16552 
L 311.643133 157.213389 
L 311.979 157.400731 
L 312.245501 157.555102 
L 312.473883 157.691416 
L 312.52972 157.725307 
L 312.694971 157.826905 
L 312.875481 157.940099 
L 312.875862 157.94034 
L 313.075075 158.067949 
L 313.341103 158.242734 
L 313.88256 158.613912 
L 313.919133 158.639728 
L 314.132023 158.791869 
L 314.235973 158.867313 
L 314.297514 158.912335 
L 314.624297 159.155848 
L 314.938524 159.397049 
L 314.967974 159.420007 
L 315.006031 159.449766 
L 315.054295 159.487652 
L 315.100472 159.52405 
L 315.107955 159.529963 
L 315.226181 159.623893 
L 315.482443 159.830829 
L 315.555545 159.890697 
L 315.576696 159.908088 
L 315.584977 159.914905 
L 315.738484 160.042141 
L 315.77168 160.069871 
L 315.897244 160.175448 
L 316.508677 160.705115 
L 316.57694 160.765847 
L 316.58195 160.770318 
L 316.665378 160.845005 
L 316.710329 160.885445 
L 316.755321 160.926061 
L 316.84335 161.00593 
L 316.994712 161.1445 
L 317.046803 161.192553 
L 317.062559 161.207123 
L 317.110171 161.251257 
L 317.233235 161.366049 
L 317.257038 161.388371 
L 317.294451 161.423535 
L 317.53111 161.648177 
L 317.618713 161.7323 
L 317.663682 161.775685 
L 317.670335 161.782116 
L 317.682351 161.793737 
L 317.772123 161.880871 
L 317.913769 162.019467 
L 318.033546 162.137727 
L 318.13206 162.23572 
L 318.262049 162.366028 
L 318.97392 163.099822 
L 319.014233 163.142395 
L 319.202146 163.342274 
L 319.710973 163.895326 
L 319.898266 164.103228 
L 320.020873 164.240585 
L 320.025453 164.245736 
L 320.215957 164.461187 
L 320.447302 164.726044 
L 320.877795 165.228255 
L 321.022205 165.39944 
L 321.090266 165.480591 
L 321.320296 165.757099 
L 321.343535 165.785225 
L 321.584448 166.078862 
L 321.676953 166.192611 
L 321.810934 166.358342 
L 321.953913 166.53648 
L 322.253299 166.913746 
L 322.340192 167.02432 
L 322.393281 167.092115 
L 322.442179 167.154719 
L 322.468369 167.188312 
L 322.587605 167.341806 
L 322.81505 167.637114 
L 322.83098 167.657921 
L 322.899205 167.747213 
L 323.021294 167.907738 
L 323.042133 167.935233 
L 323.405456 168.418999 
L 323.472441 168.509099 
L 323.698277 168.814945 
L 323.765522 168.906632 
L 323.84811 169.019627 
L 323.850423 169.022797 
L 324.140595 169.423222 
L 324.428894 169.826252 
L 324.535407 169.976457 
L 324.848305 170.421759 
L 324.960205 170.582473 
L 325.483904 171.344819 
L 325.550864 171.4435 
L 325.910383 171.977975 
L 326.110482 172.278832 
L 326.12675 172.303398 
L 326.175901 172.377716 
L 326.486132 172.850137 
L 326.536291 172.927059 
L 326.571588 172.981281 
L 326.596006 173.018832 
L 326.692553 173.167661 
L 326.714636 173.20178 
L 327.25847 174.051146 
L 327.374576 174.234744 
L 327.654425 174.680513 
L 327.810624 174.93131 
L 328.211347 175.581207 
L 328.546442 176.131788 
L 328.662575 176.324104 
L 328.752785 176.474026 
L 329.149504 177.138838 
L 329.358201 177.492148 
L 329.392071 177.549719 
L 329.407549 177.57605 
L 329.715516 178.102749 
L 329.749801 178.161711 
L 329.756493 178.173228 
L 329.938166 178.486838 
L 330.430518 179.345954 
L 330.923444 180.219426 
L 330.935514 180.240982 
L 331.094038 180.524807 
L 331.199495 180.714375 
L 331.224206 180.758881 
L 331.275341 180.851084 
L 331.375216 181.03158 
L 331.427344 181.126 
L 331.605789 181.450321 
L 331.70861 181.637969 
L 332.156449 182.461841 
L 332.297011 182.722614 
L 332.591764 183.272816 
L 332.765994 183.600176 
L 332.852937 183.764122 
L 332.962928 183.972092 
L 333.174257 184.373424 
L 333.360393 184.728814 
L 333.576232 185.143134 
L 333.630128 185.246962 
L 333.69916 185.380162 
L 333.726476 185.432938 
L 333.732163 185.44393 
L 333.773258 185.523409 
L 333.825798 185.625148 
L 333.867583 185.706158 
L 334.081976 186.123203 
L 334.825584 187.58747 
L 334.85025 187.63651 
L 334.894629 187.724817 
L 335.141917 188.218643 
L 336.006143 189.967713 
L 336.057308 190.072384 
L 336.201212 190.36744 
L 336.245803 190.459067 
L 336.29707 190.564528 
L 336.321448 190.614718 
L 336.409107 190.795426 
L 336.928747 191.874021 
L 337.230046 192.505131 
L 337.543886 193.16692 
L 337.647374 193.386121 
L 337.676185 193.447233 
L 337.713948 193.52739 
L 337.987991 194.110997 
L 338.26873 194.712333 
L 338.273301 194.722152 
L 338.289856 194.757725 
L 338.65578 195.547084 
L 338.690657 195.622626 
L 338.767649 195.789573 
L 338.969319 196.228085 
L 339.073928 196.456239 
L 339.11206 196.539522 
L 339.280283 196.907678 
L 339.294442 196.93872 
L 339.416558 197.206802 
L 339.418204 197.210419 
L 339.665943 197.756239 
L 339.931119 198.343336 
L 340.085847 198.687258 
L 340.427459 199.450079 
L 340.670768 199.996304 
L 340.700577 200.063391 
L 340.955073 200.637604 
L 341.47223 201.812428 
L 341.55549 202.002557 
L 341.56061 202.014258 
L 341.647248 202.212407 
L 341.901118 202.794713 
L 342.076584 203.198641 
L 342.27733 203.662213 
L 342.487244 204.148596 
L 343.08928 205.552721 
L 343.138908 205.669068 
L 343.393277 206.266821 
L 343.41584 206.319958 
L 343.578191 206.702837 
L 343.758001 207.127997 
L 343.914772 207.499625 
L 344.348064 208.531273 
L 344.429508 208.72592 
L 345.072923 210.271678 
L 345.245451 210.688552 
L 345.558486 211.447462 
L 345.700663 211.793218 
L 345.715886 211.830278 
L 345.806594 212.051257 
L 346.280411 213.209878 
L 346.751376 214.368591 
L 346.879726 214.685568 
L 347.920615 217.274632 
L 348.267288 218.144028 
L 348.316373 218.267402 
L 348.324628 218.288158 
L 348.842334 219.593682 
L 349.271407 220.681323 
L 349.344969 220.868295 
L 349.946523 222.402646 
L 350.082084 222.74972 
L 350.155161 222.937013 
L 350.183477 223.009624 
L 350.185069 223.013707 
L 350.371722 223.492849 
L 350.453867 223.703996 
L 350.621782 224.136134 
L 350.795092 224.582888 
L 350.920238 224.905942 
L 350.932588 224.937846 
L 351.096306 225.361096 
L 351.233561 225.71643 
L 351.250481 225.760264 
L 351.57419 226.600199 
L 352.390571 228.729175 
L 352.464327 228.922252 
L 352.750871 229.673479 
L 352.806517 229.819569 
L 352.861804 229.964782 
L 353.039289 230.43139 
L 353.101086 230.594007 
L 353.238093 230.954823 
L 353.550634 231.779362 
L 353.628569 231.985273 
L 353.63172 231.993603 
L 354.051465 233.104707 
L 354.190757 233.474184 
L 354.396321 234.020121 
L 354.488512 234.26522 
L 354.626448 234.632232 
L 354.89993 235.360924 
L 354.987332 235.594091 
L 355.099366 235.893169 
L 355.292194 236.408445 
L 355.337588 236.52984 
L 355.514903 237.004368 
L 355.577763 237.172719 
L 355.727118 237.572992 
L 355.795668 237.75683 
L 356.169541 238.760843 
L 356.289239 239.082756 
L 356.671892 240.113357 
L 356.805875 240.474743 
L 357.0823 241.221167 
L 357.212585 241.573357 
L 357.221017 241.596161 
L 357.588541 242.591002 
L 357.753038 243.036878 
L 358.065536 243.884908 
L 358.411223 244.824472 
L 358.641234 245.450459 
L 358.825291 245.951837 
L 358.874552 246.086092 
L 358.898151 246.150421 
L 359.249395 247.108607 
L 359.360334 247.411535 
L 359.414952 247.560721 
L 359.614229 248.105314 
L 359.953411 249.033197 
L 360.033356 249.252068 
L 360.4998 250.530317 
L 360.507549 250.55157 
L 360.662551 250.976798 
L 360.731063 251.164822 
L 361.244447 252.575019 
L 361.406265 253.019959 
L 361.612187 253.58646 
L 361.831707 254.190719 
L 361.84926 254.23905 
L 362.028253 254.73203 
L 362.394339 255.740968 
L 362.459718 255.921246 
L 362.687398 256.549252 
L 363.099707 257.68728 
L 363.58831 259.037028 
L 364.390475 261.255226 
L 364.567471 261.744981 
L 364.848034 262.5215 
L 365.354768 263.924505 
L 365.592338 264.58245 
L 365.682102 264.831073 
L 365.838305 265.263744 
L 366.217749 266.314884 
L 366.42456 266.887841 
L 366.53196 267.185392 
L 367.090448 268.732686 
L 367.109981 268.786802 
L 367.175273 268.967687 
L 367.314559 269.353554 
L 367.683743 270.376218 
L 367.890033 270.947575 
L 367.893927 270.95836 
L 369.350174 274.988961 
L 369.455265 275.279583 
L 369.673629 275.883311 
L 369.868554 276.422068 
L 369.901577 276.513325 
L 369.924112 276.575599 
L 370.106044 277.078249 
L 370.315027 277.655448 
L 370.670713 278.637324 
L 371.26757 280.283378 
L 371.464331 280.825549 
L 371.661461 281.368481 
L 371.666465 281.382262 
L 372.086499 282.538216 
L 372.38793 283.366985 
L 372.485562 283.635271 
L 372.868938 284.688034 
L 372.904964 284.786902 
L 373.407071 286.163696 
L 373.64159 286.805992 
L 373.99014 287.759654 
L 374.244435 288.454687 
L 374.271088 288.527496 
L 374.511458 289.183815 
L 374.563923 289.326987 
L 374.595112 289.412087 
L 374.706677 289.716411 
L 375.968107 293.147785 
L 376.000821 293.236531 
L 376.149932 293.640867 
L 376.432515 294.406384 
L 376.971378 295.863363 
L 377.326438 296.821295 
L 378.14716 299.028922 
L 378.220696 299.226256 
L 378.919838 301.098408 
L 379.27608 302.049489 
L 380.135963 304.336868 
L 380.340576 304.879376 
L 380.545346 305.421596 
L 380.946824 306.482605 
L 380.967325 306.536709 
L 381.321308 307.469747 
L 381.34965 307.544354 
L 381.934579 309.08091 
L 382.346252 310.158574 
L 382.500682 310.562018 
L 383.058551 312.015638 
L 383.740061 313.783185 
L 383.745044 313.796073 
L 383.842932 314.049184 
L 384.381732 315.438871 
L 384.503917 315.753182 
L 384.780943 316.46466 
L 384.832599 316.597148 
L 385.177653 317.480701 
L 385.391545 318.02712 
L 385.642391 318.666688 
L 385.833018 319.151801 
L 385.977482 319.518908 
L 387.313992 322.893027 
L 387.583828 323.569289 
L 387.596127 323.600075 
L 387.639576 323.708795 
L 388.507414 325.871018 
L 388.898684 326.839968 
L 389.09455 327.323617 
L 390.056452 329.685081 
L 390.712095 331.281362 
L 391.379341 332.894576 
L 391.567408 333.347182 
L 391.766269 333.824755 
L 392.312907 335.13215 
L 392.466354 335.497719 
L 392.986866 336.733078 
L 393.09149 336.980506 
L 393.167946 337.16113 
L 393.225568 337.297154 
L 393.398714 337.705344 
L 394.446121 340.157025 
L 394.713975 340.779106 
L 395.125019 341.72982 
L 395.851951 343.399445 
L 397.492613 347.111823 
L 397.677246 347.524681 
L 397.758699 347.706499 
L 398.669905 349.727058 
L 398.706895 349.808561 
L 398.804972 350.024459 
L 398.84458 350.111567 
L 399.0756 350.618699 
L 399.243289 350.985805 
L 399.676614 351.930511 
L 400.027247 352.690774 
L 400.259327 353.191929 
L 400.518442 353.74952 
L 400.593535 353.910729 
L 401.449339 355.735735 
L 401.950093 356.79311 
L 402.752078 358.470317 
L 403.54131 360.101208 
L 403.644662 360.313326 
L 404.874204 362.810938 
L 405.039441 363.142932 
L 405.878482 364.815312 
L 405.904519 364.86685 
L 406.588499 366.212931 
L 407.219918 367.442236 
L 408.148942 369.227591 
L 408.199582 369.324108 
L 409.498484 371.771353 
L 410.359752 373.363876 
L 410.402464 373.442225 
L 410.40445 373.445867 
L 410.979088 374.494151 
L 411.278992 375.036984 
L 412.543784 377.294063 
L 412.7607 377.675925 
L 413.676901 379.271914 
L 415.294995 382.023841 
L 416.555873 384.109286 
L 417.103548 384.999075 
L 418.36978 387.019193 
L 419.272488 388.42785 
L 419.586916 388.912371 
L 420.140909 389.758361 
L 421.193617 391.338976 
L 421.430165 391.689304 
L 422.671727 393.499067 
L 422.756093 393.620282 
L 425.44033 397.36102 
L 426.686134 399.021611 
L 430.19945 403.452332 
L 431.518776 405.02191 
L 432.403 406.045658 
L 433.469096 407.250277 
L 433.66822 407.471709 
L 434.688756 408.589124 
L 434.768295 408.674995 
L 435.169602 409.105574 
L 436.520003 410.521998 
L 436.964897 410.977791 
L 438.849638 412.850094 
L 442.806399 416.481998 
L 443.380403 416.976411 
L 444.02623 417.52314 
L 445.01047 418.337162 
L 450.617008 422.551322 
L 451.172774 422.931657 
L 453.982853 424.757584 
L 454.778036 425.245703 
L 457.905307 427.049062 
L 498.109091 438.659697 
z
" style="fill:#00008b;opacity:0.4;stroke:#00008b;stroke-linejoin:miter;"/>
   </g>
   <g id="line2d_1">
    <path clip-path="url(#pee86169b22)" d="M 92.290909 440.070579 
L 97.097089 439.798198 
L 109.916642 438.682446 
L 125.890996 436.046561 
L 128.612336 435.398782 
L 132.962666 434.209483 
L 144.303697 430.034509 
L 148.178909 428.180401 
L 151.987051 426.10899 
L 156.525606 423.284638 
L 165.584236 416.335927 
L 167.516603 414.60364 
L 172.187197 410.019655 
L 176.0596 405.770254 
L 179.173376 402.042559 
L 183.080898 396.956186 
L 187.142434 391.170644 
L 190.245612 386.398412 
L 192.209878 383.217609 
L 195.262128 378.026627 
L 200.029748 369.311693 
L 202.970853 363.568653 
L 207.142103 354.952398 
L 211.83882 344.611866 
L 215.499949 336.107422 
L 220.872047 322.985292 
L 225.840927 310.25171 
L 232.130165 293.485568 
L 240.914218 269.337034 
L 252.543015 237.446136 
L 257.938282 223.268921 
L 262.556592 211.709402 
L 266.513281 202.35504 
L 270.608064 193.316967 
L 273.965048 186.466876 
L 277.112797 180.553493 
L 279.574598 176.300286 
L 282.512049 171.680248 
L 285.138 167.991631 
L 287.49852 165.047789 
L 289.888742 162.438718 
L 292.204286 160.278461 
L 294.055962 158.817062 
L 296.138771 157.460973 
L 298.059444 156.484139 
L 300.157688 155.720465 
L 301.930142 155.324116 
L 303.582246 155.160739 
L 305.314426 155.203335 
L 307.065204 155.468774 
L 309.028808 156.031681 
L 310.789543 156.77356 
L 312.875862 157.94034 
L 314.624297 159.155848 
L 316.755321 160.926061 
L 318.262049 162.366028 
L 320.447302 164.726044 
L 322.899205 167.747213 
L 324.960205 170.582473 
L 327.654425 174.680513 
L 330.430518 179.345954 
L 333.576232 185.143134 
L 336.409107 190.795426 
L 339.931119 198.343336 
L 343.578191 206.702837 
L 346.879726 214.685568 
L 351.57419 226.600199 
L 357.588541 242.591002 
L 365.838305 265.263744 
L 377.326438 296.821295 
L 383.842932 314.049184 
L 389.09455 327.323617 
L 393.398714 337.705344 
L 397.758699 347.706499 
L 401.950093 356.79311 
L 405.904519 364.86685 
L 409.498484 371.771353 
L 413.676901 379.271914 
L 417.103548 384.999075 
L 421.193617 391.338976 
L 422.756093 393.620282 
L 426.686134 399.021611 
L 431.518776 405.02191 
L 435.169602 409.105574 
L 438.849638 412.850094 
L 444.02623 417.52314 
L 445.01047 418.337162 
L 451.172774 422.931657 
L 454.778036 425.245703 
L 457.905307 427.049062 
L 498.109091 438.659697 
L 498.109091 438.659697 
" style="fill:none;stroke:#00008b;stroke-linecap:square;stroke-width:1.5;"/>
   </g>
   <g id="matplotlib.axis_1">
    <g id="xtick_1">
     <g id="line2d_2">
      <defs>
       <path d="M 0 0 
L 0 3.5 
" id="m26e5615987" style="stroke:#000000;stroke-width:0.8;"/>
      </defs>
      <g>
       <use style="stroke:#000000;stroke-width:0.8;" x="88.3866" xlink:href="#m26e5615987" y="441"/>
      </g>
     </g>
     <g id="text_1">
      <!-- −2 -->
      <defs>
       <path d="M 10.59375 35.5 
L 73.1875 35.5 
L 73.1875 27.203125 
L 10.59375 27.203125 
z
" id="DejaVuSans-8722"/>
       <path d="M 19.1875 8.296875 
L 53.609375 8.296875 
L 53.609375 0 
L 7.328125 0 
L 7.328125 8.296875 
Q 12.9375 14.109375 22.625 23.890625 
Q 32.328125 33.6875 34.8125 36.53125 
Q 39.546875 41.84375 41.421875 45.53125 
Q 43.3125 49.21875 43.3125 52.78125 
Q 43.3125 58.59375 39.234375 62.25 
Q 35.15625 65.921875 28.609375 65.921875 
Q 23.96875 65.921875 18.8125 64.3125 
Q 13.671875 62.703125 7.8125 59.421875 
L 7.8125 69.390625 
Q 13.765625 71.78125 18.9375 73 
Q 24.125 74.21875 28.421875 74.21875 
Q 39.75 74.21875 46.484375 68.546875 
Q 53.21875 62.890625 53.21875 53.421875 
Q 53.21875 48.921875 51.53125 44.890625 
Q 49.859375 40.875 45.40625 35.40625 
Q 44.1875 33.984375 37.640625 27.21875 
Q 31.109375 20.453125 19.1875 8.296875 
z
" id="DejaVuSans-50"/>
      </defs>
      <g transform="translate(81.015507 455.598437)scale(0.1 -0.1)">
       <use xlink:href="#DejaVuSans-8722"/>
       <use x="83.789062" xlink:href="#DejaVuSans-50"/>
      </g>
     </g>
    </g>
    <g id="xtick_2">
     <g id="line2d_3">
      <g>
       <use style="stroke:#000000;stroke-width:0.8;" x="147.304377" xlink:href="#m26e5615987" y="441"/>
      </g>
     </g>
     <g id="text_2">
      <!-- −1 -->
      <defs>
       <path d="M 12.40625 8.296875 
L 28.515625 8.296875 
L 28.515625 63.921875 
L 10.984375 60.40625 
L 10.984375 69.390625 
L 28.421875 72.90625 
L 38.28125 72.90625 
L 38.28125 8.296875 
L 54.390625 8.296875 
L 54.390625 0 
L 12.40625 0 
z
" id="DejaVuSans-49"/>
      </defs>
      <g transform="translate(139.933283 455.598437)scale(0.1 -0.1)">
       <use xlink:href="#DejaVuSans-8722"/>
       <use x="83.789062" xlink:href="#DejaVuSans-49"/>
      </g>
     </g>
    </g>
    <g id="xtick_3">
     <g id="line2d_4">
      <g>
       <use style="stroke:#000000;stroke-width:0.8;" x="206.222154" xlink:href="#m26e5615987" y="441"/>
      </g>
     </g>
     <g id="text_3">
      <!-- 0 -->
      <defs>
       <path d="M 31.78125 66.40625 
Q 24.171875 66.40625 20.328125 58.90625 
Q 16.5 51.421875 16.5 36.375 
Q 16.5 21.390625 20.328125 13.890625 
Q 24.171875 6.390625 31.78125 6.390625 
Q 39.453125 6.390625 43.28125 13.890625 
Q 47.125 21.390625 47.125 36.375 
Q 47.125 51.421875 43.28125 58.90625 
Q 39.453125 66.40625 31.78125 66.40625 
z
M 31.78125 74.21875 
Q 44.046875 74.21875 50.515625 64.515625 
Q 56.984375 54.828125 56.984375 36.375 
Q 56.984375 17.96875 50.515625 8.265625 
Q 44.046875 -1.421875 31.78125 -1.421875 
Q 19.53125 -1.421875 13.0625 8.265625 
Q 6.59375 17.96875 6.59375 36.375 
Q 6.59375 54.828125 13.0625 64.515625 
Q 19.53125 74.21875 31.78125 74.21875 
z
" id="DejaVuSans-48"/>
      </defs>
      <g transform="translate(203.040904 455.598437)scale(0.1 -0.1)">
       <use xlink:href="#DejaVuSans-48"/>
      </g>
     </g>
    </g>
    <g id="xtick_4">
     <g id="line2d_5">
      <g>
       <use style="stroke:#000000;stroke-width:0.8;" x="265.13993" xlink:href="#m26e5615987" y="441"/>
      </g>
     </g>
     <g id="text_4">
      <!-- 1 -->
      <g transform="translate(261.95868 455.598437)scale(0.1 -0.1)">
       <use xlink:href="#DejaVuSans-49"/>
      </g>
     </g>
    </g>
    <g id="xtick_5">
     <g id="line2d_6">
      <g>
       <use style="stroke:#000000;stroke-width:0.8;" x="324.057707" xlink:href="#m26e5615987" y="441"/>
      </g>
     </g>
     <g id="text_5">
      <!-- 2 -->
      <g transform="translate(320.876457 455.598437)scale(0.1 -0.1)">
       <use xlink:href="#DejaVuSans-50"/>
      </g>
     </g>
    </g>
    <g id="xtick_6">
     <g id="line2d_7">
      <g>
       <use style="stroke:#000000;stroke-width:0.8;" x="382.975484" xlink:href="#m26e5615987" y="441"/>
      </g>
     </g>
     <g id="text_6">
      <!-- 3 -->
      <defs>
       <path d="M 40.578125 39.3125 
Q 47.65625 37.796875 51.625 33 
Q 55.609375 28.21875 55.609375 21.1875 
Q 55.609375 10.40625 48.1875 4.484375 
Q 40.765625 -1.421875 27.09375 -1.421875 
Q 22.515625 -1.421875 17.65625 -0.515625 
Q 12.796875 0.390625 7.625 2.203125 
L 7.625 11.71875 
Q 11.71875 9.328125 16.59375 8.109375 
Q 21.484375 6.890625 26.8125 6.890625 
Q 36.078125 6.890625 40.9375 10.546875 
Q 45.796875 14.203125 45.796875 21.1875 
Q 45.796875 27.640625 41.28125 31.265625 
Q 36.765625 34.90625 28.71875 34.90625 
L 20.21875 34.90625 
L 20.21875 43.015625 
L 29.109375 43.015625 
Q 36.375 43.015625 40.234375 45.921875 
Q 44.09375 48.828125 44.09375 54.296875 
Q 44.09375 59.90625 40.109375 62.90625 
Q 36.140625 65.921875 28.71875 65.921875 
Q 24.65625 65.921875 20.015625 65.03125 
Q 15.375 64.15625 9.8125 62.3125 
L 9.8125 71.09375 
Q 15.4375 72.65625 20.34375 73.4375 
Q 25.25 74.21875 29.59375 74.21875 
Q 40.828125 74.21875 47.359375 69.109375 
Q 53.90625 64.015625 53.90625 55.328125 
Q 53.90625 49.265625 50.4375 45.09375 
Q 46.96875 40.921875 40.578125 39.3125 
z
" id="DejaVuSans-51"/>
      </defs>
      <g transform="translate(379.794234 455.598437)scale(0.1 -0.1)">
       <use xlink:href="#DejaVuSans-51"/>
      </g>
     </g>
    </g>
    <g id="xtick_7">
     <g id="line2d_8">
      <g>
       <use style="stroke:#000000;stroke-width:0.8;" x="441.89326" xlink:href="#m26e5615987" y="441"/>
      </g>
     </g>
     <g id="text_7">
      <!-- 4 -->
      <defs>
       <path d="M 37.796875 64.3125 
L 12.890625 25.390625 
L 37.796875 25.390625 
z
M 35.203125 72.90625 
L 47.609375 72.90625 
L 47.609375 25.390625 
L 58.015625 25.390625 
L 58.015625 17.1875 
L 47.609375 17.1875 
L 47.609375 0 
L 37.796875 0 
L 37.796875 17.1875 
L 4.890625 17.1875 
L 4.890625 26.703125 
z
" id="DejaVuSans-52"/>
      </defs>
      <g transform="translate(438.71201 455.598437)scale(0.1 -0.1)">
       <use xlink:href="#DejaVuSans-52"/>
      </g>
     </g>
    </g>
    <g id="xtick_8">
     <g id="line2d_9">
      <g>
       <use style="stroke:#000000;stroke-width:0.8;" x="500.811037" xlink:href="#m26e5615987" y="441"/>
      </g>
     </g>
     <g id="text_8">
      <!-- 5 -->
      <defs>
       <path d="M 10.796875 72.90625 
L 49.515625 72.90625 
L 49.515625 64.59375 
L 19.828125 64.59375 
L 19.828125 46.734375 
Q 21.96875 47.46875 24.109375 47.828125 
Q 26.265625 48.1875 28.421875 48.1875 
Q 40.625 48.1875 47.75 41.5 
Q 54.890625 34.8125 54.890625 23.390625 
Q 54.890625 11.625 47.5625 5.09375 
Q 40.234375 -1.421875 26.90625 -1.421875 
Q 22.3125 -1.421875 17.546875 -0.640625 
Q 12.796875 0.140625 7.71875 1.703125 
L 7.71875 11.625 
Q 12.109375 9.234375 16.796875 8.0625 
Q 21.484375 6.890625 26.703125 6.890625 
Q 35.15625 6.890625 40.078125 11.328125 
Q 45.015625 15.765625 45.015625 23.390625 
Q 45.015625 31 40.078125 35.4375 
Q 35.15625 39.890625 26.703125 39.890625 
Q 22.75 39.890625 18.8125 39.015625 
Q 14.890625 38.140625 10.796875 36.28125 
z
" id="DejaVuSans-53"/>
      </defs>
      <g transform="translate(497.629787 455.598437)scale(0.1 -0.1)">
       <use xlink:href="#DejaVuSans-53"/>
      </g>
     </g>
    </g>
    <g id="text_9">
     <!-- Log of pieces of trash per meter -->
     <defs>
      <path d="M 9.8125 72.90625 
L 19.671875 72.90625 
L 19.671875 8.296875 
L 55.171875 8.296875 
L 55.171875 0 
L 9.8125 0 
z
" id="DejaVuSans-76"/>
      <path d="M 30.609375 48.390625 
Q 23.390625 48.390625 19.1875 42.75 
Q 14.984375 37.109375 14.984375 27.296875 
Q 14.984375 17.484375 19.15625 11.84375 
Q 23.34375 6.203125 30.609375 6.203125 
Q 37.796875 6.203125 41.984375 11.859375 
Q 46.1875 17.53125 46.1875 27.296875 
Q 46.1875 37.015625 41.984375 42.703125 
Q 37.796875 48.390625 30.609375 48.390625 
z
M 30.609375 56 
Q 42.328125 56 49.015625 48.375 
Q 55.71875 40.765625 55.71875 27.296875 
Q 55.71875 13.875 49.015625 6.21875 
Q 42.328125 -1.421875 30.609375 -1.421875 
Q 18.84375 -1.421875 12.171875 6.21875 
Q 5.515625 13.875 5.515625 27.296875 
Q 5.515625 40.765625 12.171875 48.375 
Q 18.84375 56 30.609375 56 
z
" id="DejaVuSans-111"/>
      <path d="M 45.40625 27.984375 
Q 45.40625 37.75 41.375 43.109375 
Q 37.359375 48.484375 30.078125 48.484375 
Q 22.859375 48.484375 18.828125 43.109375 
Q 14.796875 37.75 14.796875 27.984375 
Q 14.796875 18.265625 18.828125 12.890625 
Q 22.859375 7.515625 30.078125 7.515625 
Q 37.359375 7.515625 41.375 12.890625 
Q 45.40625 18.265625 45.40625 27.984375 
z
M 54.390625 6.78125 
Q 54.390625 -7.171875 48.1875 -13.984375 
Q 42 -20.796875 29.203125 -20.796875 
Q 24.46875 -20.796875 20.265625 -20.09375 
Q 16.0625 -19.390625 12.109375 -17.921875 
L 12.109375 -9.1875 
Q 16.0625 -11.328125 19.921875 -12.34375 
Q 23.78125 -13.375 27.78125 -13.375 
Q 36.625 -13.375 41.015625 -8.765625 
Q 45.40625 -4.15625 45.40625 5.171875 
L 45.40625 9.625 
Q 42.625 4.78125 38.28125 2.390625 
Q 33.9375 0 27.875 0 
Q 17.828125 0 11.671875 7.65625 
Q 5.515625 15.328125 5.515625 27.984375 
Q 5.515625 40.671875 11.671875 48.328125 
Q 17.828125 56 27.875 56 
Q 33.9375 56 38.28125 53.609375 
Q 42.625 51.21875 45.40625 46.390625 
L 45.40625 54.6875 
L 54.390625 54.6875 
z
" id="DejaVuSans-103"/>
      <path id="DejaVuSans-32"/>
      <path d="M 37.109375 75.984375 
L 37.109375 68.5 
L 28.515625 68.5 
Q 23.6875 68.5 21.796875 66.546875 
Q 19.921875 64.59375 19.921875 59.515625 
L 19.921875 54.6875 
L 34.71875 54.6875 
L 34.71875 47.703125 
L 19.921875 47.703125 
L 19.921875 0 
L 10.890625 0 
L 10.890625 47.703125 
L 2.296875 47.703125 
L 2.296875 54.6875 
L 10.890625 54.6875 
L 10.890625 58.5 
Q 10.890625 67.625 15.140625 71.796875 
Q 19.390625 75.984375 28.609375 75.984375 
z
" id="DejaVuSans-102"/>
      <path d="M 18.109375 8.203125 
L 18.109375 -20.796875 
L 9.078125 -20.796875 
L 9.078125 54.6875 
L 18.109375 54.6875 
L 18.109375 46.390625 
Q 20.953125 51.265625 25.265625 53.625 
Q 29.59375 56 35.59375 56 
Q 45.5625 56 51.78125 48.09375 
Q 58.015625 40.1875 58.015625 27.296875 
Q 58.015625 14.40625 51.78125 6.484375 
Q 45.5625 -1.421875 35.59375 -1.421875 
Q 29.59375 -1.421875 25.265625 0.953125 
Q 20.953125 3.328125 18.109375 8.203125 
z
M 48.6875 27.296875 
Q 48.6875 37.203125 44.609375 42.84375 
Q 40.53125 48.484375 33.40625 48.484375 
Q 26.265625 48.484375 22.1875 42.84375 
Q 18.109375 37.203125 18.109375 27.296875 
Q 18.109375 17.390625 22.1875 11.75 
Q 26.265625 6.109375 33.40625 6.109375 
Q 40.53125 6.109375 44.609375 11.75 
Q 48.6875 17.390625 48.6875 27.296875 
z
" id="DejaVuSans-112"/>
      <path d="M 9.421875 54.6875 
L 18.40625 54.6875 
L 18.40625 0 
L 9.421875 0 
z
M 9.421875 75.984375 
L 18.40625 75.984375 
L 18.40625 64.59375 
L 9.421875 64.59375 
z
" id="DejaVuSans-105"/>
      <path d="M 56.203125 29.59375 
L 56.203125 25.203125 
L 14.890625 25.203125 
Q 15.484375 15.921875 20.484375 11.0625 
Q 25.484375 6.203125 34.421875 6.203125 
Q 39.59375 6.203125 44.453125 7.46875 
Q 49.3125 8.734375 54.109375 11.28125 
L 54.109375 2.78125 
Q 49.265625 0.734375 44.1875 -0.34375 
Q 39.109375 -1.421875 33.890625 -1.421875 
Q 20.796875 -1.421875 13.15625 6.1875 
Q 5.515625 13.8125 5.515625 26.8125 
Q 5.515625 40.234375 12.765625 48.109375 
Q 20.015625 56 32.328125 56 
Q 43.359375 56 49.78125 48.890625 
Q 56.203125 41.796875 56.203125 29.59375 
z
M 47.21875 32.234375 
Q 47.125 39.59375 43.09375 43.984375 
Q 39.0625 48.390625 32.421875 48.390625 
Q 24.90625 48.390625 20.390625 44.140625 
Q 15.875 39.890625 15.1875 32.171875 
z
" id="DejaVuSans-101"/>
      <path d="M 48.78125 52.59375 
L 48.78125 44.1875 
Q 44.96875 46.296875 41.140625 47.34375 
Q 37.3125 48.390625 33.40625 48.390625 
Q 24.65625 48.390625 19.8125 42.84375 
Q 14.984375 37.3125 14.984375 27.296875 
Q 14.984375 17.28125 19.8125 11.734375 
Q 24.65625 6.203125 33.40625 6.203125 
Q 37.3125 6.203125 41.140625 7.25 
Q 44.96875 8.296875 48.78125 10.40625 
L 48.78125 2.09375 
Q 45.015625 0.34375 40.984375 -0.53125 
Q 36.96875 -1.421875 32.421875 -1.421875 
Q 20.0625 -1.421875 12.78125 6.34375 
Q 5.515625 14.109375 5.515625 27.296875 
Q 5.515625 40.671875 12.859375 48.328125 
Q 20.21875 56 33.015625 56 
Q 37.15625 56 41.109375 55.140625 
Q 45.0625 54.296875 48.78125 52.59375 
z
" id="DejaVuSans-99"/>
      <path d="M 44.28125 53.078125 
L 44.28125 44.578125 
Q 40.484375 46.53125 36.375 47.5 
Q 32.28125 48.484375 27.875 48.484375 
Q 21.1875 48.484375 17.84375 46.4375 
Q 14.5 44.390625 14.5 40.28125 
Q 14.5 37.15625 16.890625 35.375 
Q 19.28125 33.59375 26.515625 31.984375 
L 29.59375 31.296875 
Q 39.15625 29.25 43.1875 25.515625 
Q 47.21875 21.78125 47.21875 15.09375 
Q 47.21875 7.46875 41.1875 3.015625 
Q 35.15625 -1.421875 24.609375 -1.421875 
Q 20.21875 -1.421875 15.453125 -0.5625 
Q 10.6875 0.296875 5.421875 2 
L 5.421875 11.28125 
Q 10.40625 8.6875 15.234375 7.390625 
Q 20.0625 6.109375 24.8125 6.109375 
Q 31.15625 6.109375 34.5625 8.28125 
Q 37.984375 10.453125 37.984375 14.40625 
Q 37.984375 18.0625 35.515625 20.015625 
Q 33.0625 21.96875 24.703125 23.78125 
L 21.578125 24.515625 
Q 13.234375 26.265625 9.515625 29.90625 
Q 5.8125 33.546875 5.8125 39.890625 
Q 5.8125 47.609375 11.28125 51.796875 
Q 16.75 56 26.8125 56 
Q 31.78125 56 36.171875 55.265625 
Q 40.578125 54.546875 44.28125 53.078125 
z
" id="DejaVuSans-115"/>
      <path d="M 18.3125 70.21875 
L 18.3125 54.6875 
L 36.8125 54.6875 
L 36.8125 47.703125 
L 18.3125 47.703125 
L 18.3125 18.015625 
Q 18.3125 11.328125 20.140625 9.421875 
Q 21.96875 7.515625 27.59375 7.515625 
L 36.8125 7.515625 
L 36.8125 0 
L 27.59375 0 
Q 17.1875 0 13.234375 3.875 
Q 9.28125 7.765625 9.28125 18.015625 
L 9.28125 47.703125 
L 2.6875 47.703125 
L 2.6875 54.6875 
L 9.28125 54.6875 
L 9.28125 70.21875 
z
" id="DejaVuSans-116"/>
      <path d="M 41.109375 46.296875 
Q 39.59375 47.171875 37.8125 47.578125 
Q 36.03125 48 33.890625 48 
Q 26.265625 48 22.1875 43.046875 
Q 18.109375 38.09375 18.109375 28.8125 
L 18.109375 0 
L 9.078125 0 
L 9.078125 54.6875 
L 18.109375 54.6875 
L 18.109375 46.1875 
Q 20.953125 51.171875 25.484375 53.578125 
Q 30.03125 56 36.53125 56 
Q 37.453125 56 38.578125 55.875 
Q 39.703125 55.765625 41.0625 55.515625 
z
" id="DejaVuSans-114"/>
      <path d="M 34.28125 27.484375 
Q 23.390625 27.484375 19.1875 25 
Q 14.984375 22.515625 14.984375 16.5 
Q 14.984375 11.71875 18.140625 8.90625 
Q 21.296875 6.109375 26.703125 6.109375 
Q 34.1875 6.109375 38.703125 11.40625 
Q 43.21875 16.703125 43.21875 25.484375 
L 43.21875 27.484375 
z
M 52.203125 31.203125 
L 52.203125 0 
L 43.21875 0 
L 43.21875 8.296875 
Q 40.140625 3.328125 35.546875 0.953125 
Q 30.953125 -1.421875 24.3125 -1.421875 
Q 15.921875 -1.421875 10.953125 3.296875 
Q 6 8.015625 6 15.921875 
Q 6 25.140625 12.171875 29.828125 
Q 18.359375 34.515625 30.609375 34.515625 
L 43.21875 34.515625 
L 43.21875 35.40625 
Q 43.21875 41.609375 39.140625 45 
Q 35.0625 48.390625 27.6875 48.390625 
Q 23 48.390625 18.546875 47.265625 
Q 14.109375 46.140625 10.015625 43.890625 
L 10.015625 52.203125 
Q 14.9375 54.109375 19.578125 55.046875 
Q 24.21875 56 28.609375 56 
Q 40.484375 56 46.34375 49.84375 
Q 52.203125 43.703125 52.203125 31.203125 
z
" id="DejaVuSans-97"/>
      <path d="M 54.890625 33.015625 
L 54.890625 0 
L 45.90625 0 
L 45.90625 32.71875 
Q 45.90625 40.484375 42.875 44.328125 
Q 39.84375 48.1875 33.796875 48.1875 
Q 26.515625 48.1875 22.3125 43.546875 
Q 18.109375 38.921875 18.109375 30.90625 
L 18.109375 0 
L 9.078125 0 
L 9.078125 75.984375 
L 18.109375 75.984375 
L 18.109375 46.1875 
Q 21.34375 51.125 25.703125 53.5625 
Q 30.078125 56 35.796875 56 
Q 45.21875 56 50.046875 50.171875 
Q 54.890625 44.34375 54.890625 33.015625 
z
" id="DejaVuSans-104"/>
      <path d="M 52 44.1875 
Q 55.375 50.25 60.0625 53.125 
Q 64.75 56 71.09375 56 
Q 79.640625 56 84.28125 50.015625 
Q 88.921875 44.046875 88.921875 33.015625 
L 88.921875 0 
L 79.890625 0 
L 79.890625 32.71875 
Q 79.890625 40.578125 77.09375 44.375 
Q 74.3125 48.1875 68.609375 48.1875 
Q 61.625 48.1875 57.5625 43.546875 
Q 53.515625 38.921875 53.515625 30.90625 
L 53.515625 0 
L 44.484375 0 
L 44.484375 32.71875 
Q 44.484375 40.625 41.703125 44.40625 
Q 38.921875 48.1875 33.109375 48.1875 
Q 26.21875 48.1875 22.15625 43.53125 
Q 18.109375 38.875 18.109375 30.90625 
L 18.109375 0 
L 9.078125 0 
L 9.078125 54.6875 
L 18.109375 54.6875 
L 18.109375 46.1875 
Q 21.1875 51.21875 25.484375 53.609375 
Q 29.78125 56 35.6875 56 
Q 41.65625 56 45.828125 52.96875 
Q 50 49.953125 52 44.1875 
z
" id="DejaVuSans-109"/>
     </defs>
     <g transform="translate(182.554687 478.315938)scale(0.14 -0.14)">
      <use xlink:href="#DejaVuSans-76"/>
      <use x="55.697266" xlink:href="#DejaVuSans-111"/>
      <use x="116.878906" xlink:href="#DejaVuSans-103"/>
      <use x="180.355469" xlink:href="#DejaVuSans-32"/>
      <use x="212.142578" xlink:href="#DejaVuSans-111"/>
      <use x="273.324219" xlink:href="#DejaVuSans-102"/>
      <use x="308.529297" xlink:href="#DejaVuSans-32"/>
      <use x="340.316406" xlink:href="#DejaVuSans-112"/>
      <use x="403.792969" xlink:href="#DejaVuSans-105"/>
      <use x="431.576172" xlink:href="#DejaVuSans-101"/>
      <use x="493.099609" xlink:href="#DejaVuSans-99"/>
      <use x="548.080078" xlink:href="#DejaVuSans-101"/>
      <use x="609.603516" xlink:href="#DejaVuSans-115"/>
      <use x="661.703125" xlink:href="#DejaVuSans-32"/>
      <use x="693.490234" xlink:href="#DejaVuSans-111"/>
      <use x="754.671875" xlink:href="#DejaVuSans-102"/>
      <use x="789.876953" xlink:href="#DejaVuSans-32"/>
      <use x="821.664062" xlink:href="#DejaVuSans-116"/>
      <use x="860.873047" xlink:href="#DejaVuSans-114"/>
      <use x="901.986328" xlink:href="#DejaVuSans-97"/>
      <use x="963.265625" xlink:href="#DejaVuSans-115"/>
      <use x="1015.365234" xlink:href="#DejaVuSans-104"/>
      <use x="1078.744141" xlink:href="#DejaVuSans-32"/>
      <use x="1110.53125" xlink:href="#DejaVuSans-112"/>
      <use x="1174.007812" xlink:href="#DejaVuSans-101"/>
      <use x="1235.53125" xlink:href="#DejaVuSans-114"/>
      <use x="1276.644531" xlink:href="#DejaVuSans-32"/>
      <use x="1308.431641" xlink:href="#DejaVuSans-109"/>
      <use x="1405.84375" xlink:href="#DejaVuSans-101"/>
      <use x="1467.367188" xlink:href="#DejaVuSans-116"/>
      <use x="1506.576172" xlink:href="#DejaVuSans-101"/>
      <use x="1568.099609" xlink:href="#DejaVuSans-114"/>
     </g>
    </g>
   </g>
   <g id="matplotlib.axis_2">
    <g id="ytick_1">
     <g id="line2d_10">
      <defs>
       <path d="M 0 0 
L -3.5 0 
" id="mcab1cc6239" style="stroke:#000000;stroke-width:0.8;"/>
      </defs>
      <g>
       <use style="stroke:#000000;stroke-width:0.8;" x="72" xlink:href="#mcab1cc6239" y="441"/>
      </g>
     </g>
     <g id="text_10">
      <!-- 0.0 -->
      <defs>
       <path d="M 10.6875 12.40625 
L 21 12.40625 
L 21 0 
L 10.6875 0 
z
" id="DejaVuSans-46"/>
      </defs>
      <g transform="translate(49.096875 444.799219)scale(0.1 -0.1)">
       <use xlink:href="#DejaVuSans-48"/>
       <use x="63.623047" xlink:href="#DejaVuSans-46"/>
       <use x="95.410156" xlink:href="#DejaVuSans-48"/>
      </g>
     </g>
    </g>
    <g id="ytick_2">
     <g id="line2d_11">
      <g>
       <use style="stroke:#000000;stroke-width:0.8;" x="72" xlink:href="#mcab1cc6239" y="364.896"/>
      </g>
     </g>
     <g id="text_11">
      <!-- 0.1 -->
      <g transform="translate(49.096875 368.695219)scale(0.1 -0.1)">
       <use xlink:href="#DejaVuSans-48"/>
       <use x="63.623047" xlink:href="#DejaVuSans-46"/>
       <use x="95.410156" xlink:href="#DejaVuSans-49"/>
      </g>
     </g>
    </g>
    <g id="ytick_3">
     <g id="line2d_12">
      <g>
       <use style="stroke:#000000;stroke-width:0.8;" x="72" xlink:href="#mcab1cc6239" y="288.792"/>
      </g>
     </g>
     <g id="text_12">
      <!-- 0.2 -->
      <g transform="translate(49.096875 292.591219)scale(0.1 -0.1)">
       <use xlink:href="#DejaVuSans-48"/>
       <use x="63.623047" xlink:href="#DejaVuSans-46"/>
       <use x="95.410156" xlink:href="#DejaVuSans-50"/>
      </g>
     </g>
    </g>
    <g id="ytick_4">
     <g id="line2d_13">
      <g>
       <use style="stroke:#000000;stroke-width:0.8;" x="72" xlink:href="#mcab1cc6239" y="212.688"/>
      </g>
     </g>
     <g id="text_13">
      <!-- 0.3 -->
      <g transform="translate(49.096875 216.487219)scale(0.1 -0.1)">
       <use xlink:href="#DejaVuSans-48"/>
       <use x="63.623047" xlink:href="#DejaVuSans-46"/>
       <use x="95.410156" xlink:href="#DejaVuSans-51"/>
      </g>
     </g>
    </g>
    <g id="ytick_5">
     <g id="line2d_14">
      <g>
       <use style="stroke:#000000;stroke-width:0.8;" x="72" xlink:href="#mcab1cc6239" y="136.584"/>
      </g>
     </g>
     <g id="text_14">
      <!-- 0.4 -->
      <g transform="translate(49.096875 140.383219)scale(0.1 -0.1)">
       <use xlink:href="#DejaVuSans-48"/>
       <use x="63.623047" xlink:href="#DejaVuSans-46"/>
       <use x="95.410156" xlink:href="#DejaVuSans-52"/>
      </g>
     </g>
    </g>
    <g id="ytick_6">
     <g id="line2d_15">
      <g>
       <use style="stroke:#000000;stroke-width:0.8;" x="72" xlink:href="#mcab1cc6239" y="60.48"/>
      </g>
     </g>
     <g id="text_15">
      <!-- 0.5 -->
      <g transform="translate(49.096875 64.279219)scale(0.1 -0.1)">
       <use xlink:href="#DejaVuSans-48"/>
       <use x="63.623047" xlink:href="#DejaVuSans-46"/>
       <use x="95.410156" xlink:href="#DejaVuSans-53"/>
      </g>
     </g>
    </g>
    <g id="text_16">
     <!-- Probability density -->
     <defs>
      <path d="M 19.671875 64.796875 
L 19.671875 37.40625 
L 32.078125 37.40625 
Q 38.96875 37.40625 42.71875 40.96875 
Q 46.484375 44.53125 46.484375 51.125 
Q 46.484375 57.671875 42.71875 61.234375 
Q 38.96875 64.796875 32.078125 64.796875 
z
M 9.8125 72.90625 
L 32.078125 72.90625 
Q 44.34375 72.90625 50.609375 67.359375 
Q 56.890625 61.8125 56.890625 51.125 
Q 56.890625 40.328125 50.609375 34.8125 
Q 44.34375 29.296875 32.078125 29.296875 
L 19.671875 29.296875 
L 19.671875 0 
L 9.8125 0 
z
" id="DejaVuSans-80"/>
      <path d="M 48.6875 27.296875 
Q 48.6875 37.203125 44.609375 42.84375 
Q 40.53125 48.484375 33.40625 48.484375 
Q 26.265625 48.484375 22.1875 42.84375 
Q 18.109375 37.203125 18.109375 27.296875 
Q 18.109375 17.390625 22.1875 11.75 
Q 26.265625 6.109375 33.40625 6.109375 
Q 40.53125 6.109375 44.609375 11.75 
Q 48.6875 17.390625 48.6875 27.296875 
z
M 18.109375 46.390625 
Q 20.953125 51.265625 25.265625 53.625 
Q 29.59375 56 35.59375 56 
Q 45.5625 56 51.78125 48.09375 
Q 58.015625 40.1875 58.015625 27.296875 
Q 58.015625 14.40625 51.78125 6.484375 
Q 45.5625 -1.421875 35.59375 -1.421875 
Q 29.59375 -1.421875 25.265625 0.953125 
Q 20.953125 3.328125 18.109375 8.203125 
L 18.109375 0 
L 9.078125 0 
L 9.078125 75.984375 
L 18.109375 75.984375 
z
" id="DejaVuSans-98"/>
      <path d="M 9.421875 75.984375 
L 18.40625 75.984375 
L 18.40625 0 
L 9.421875 0 
z
" id="DejaVuSans-108"/>
      <path d="M 32.171875 -5.078125 
Q 28.375 -14.84375 24.75 -17.8125 
Q 21.140625 -20.796875 15.09375 -20.796875 
L 7.90625 -20.796875 
L 7.90625 -13.28125 
L 13.1875 -13.28125 
Q 16.890625 -13.28125 18.9375 -11.515625 
Q 21 -9.765625 23.484375 -3.21875 
L 25.09375 0.875 
L 2.984375 54.6875 
L 12.5 54.6875 
L 29.59375 11.921875 
L 46.6875 54.6875 
L 56.203125 54.6875 
z
" id="DejaVuSans-121"/>
      <path d="M 45.40625 46.390625 
L 45.40625 75.984375 
L 54.390625 75.984375 
L 54.390625 0 
L 45.40625 0 
L 45.40625 8.203125 
Q 42.578125 3.328125 38.25 0.953125 
Q 33.9375 -1.421875 27.875 -1.421875 
Q 17.96875 -1.421875 11.734375 6.484375 
Q 5.515625 14.40625 5.515625 27.296875 
Q 5.515625 40.1875 11.734375 48.09375 
Q 17.96875 56 27.875 56 
Q 33.9375 56 38.25 53.625 
Q 42.578125 51.265625 45.40625 46.390625 
z
M 14.796875 27.296875 
Q 14.796875 17.390625 18.875 11.75 
Q 22.953125 6.109375 30.078125 6.109375 
Q 37.203125 6.109375 41.296875 11.75 
Q 45.40625 17.390625 45.40625 27.296875 
Q 45.40625 37.203125 41.296875 42.84375 
Q 37.203125 48.484375 30.078125 48.484375 
Q 22.953125 48.484375 18.875 42.84375 
Q 14.796875 37.203125 14.796875 27.296875 
z
" id="DejaVuSans-100"/>
      <path d="M 54.890625 33.015625 
L 54.890625 0 
L 45.90625 0 
L 45.90625 32.71875 
Q 45.90625 40.484375 42.875 44.328125 
Q 39.84375 48.1875 33.796875 48.1875 
Q 26.515625 48.1875 22.3125 43.546875 
Q 18.109375 38.921875 18.109375 30.90625 
L 18.109375 0 
L 9.078125 0 
L 9.078125 54.6875 
L 18.109375 54.6875 
L 18.109375 46.1875 
Q 21.34375 51.125 25.703125 53.5625 
Q 30.078125 56 35.796875 56 
Q 45.21875 56 50.046875 50.171875 
Q 54.890625 44.34375 54.890625 33.015625 
z
" id="DejaVuSans-110"/>
     </defs>
     <g transform="translate(36.185312 315.907813)rotate(-90)scale(0.14 -0.14)">
      <use xlink:href="#DejaVuSans-80"/>
      <use x="60.287109" xlink:href="#DejaVuSans-114"/>
      <use x="101.369141" xlink:href="#DejaVuSans-111"/>
      <use x="162.550781" xlink:href="#DejaVuSans-98"/>
      <use x="226.027344" xlink:href="#DejaVuSans-97"/>
      <use x="287.306641" xlink:href="#DejaVuSans-98"/>
      <use x="350.783203" xlink:href="#DejaVuSans-105"/>
      <use x="378.566406" xlink:href="#DejaVuSans-108"/>
      <use x="406.349609" xlink:href="#DejaVuSans-105"/>
      <use x="434.132812" xlink:href="#DejaVuSans-116"/>
      <use x="473.341797" xlink:href="#DejaVuSans-121"/>
      <use x="532.521484" xlink:href="#DejaVuSans-32"/>
      <use x="564.308594" xlink:href="#DejaVuSans-100"/>
      <use x="627.785156" xlink:href="#DejaVuSans-101"/>
      <use x="689.308594" xlink:href="#DejaVuSans-110"/>
      <use x="752.6875" xlink:href="#DejaVuSans-115"/>
      <use x="804.787109" xlink:href="#DejaVuSans-105"/>
      <use x="832.570312" xlink:href="#DejaVuSans-116"/>
      <use x="871.779297" xlink:href="#DejaVuSans-121"/>
     </g>
    </g>
   </g>
   <g id="LineCollection_1">
    <path clip-path="url(#pee86169b22)" d="M 366.714177 441 
L 366.714177 155.151284 
" style="fill:none;stroke:#00008b;stroke-dasharray:5.55,2.4;stroke-dashoffset:0;stroke-opacity:0.6;stroke-width:1.5;"/>
   </g>
   <g id="LineCollection_2">
    <path clip-path="url(#pee86169b22)" d="M 241.513902 441 
L 241.513902 155.151284 
" style="fill:none;stroke:#00008b;stroke-dasharray:5.55,2.4;stroke-dashoffset:0;stroke-opacity:0.6;stroke-width:1.5;"/>
   </g>
   <g id="patch_4">
    <path d="M 72 441 
L 72 60.48 
" style="fill:none;stroke:#000000;stroke-linecap:square;stroke-linejoin:miter;stroke-width:0.8;"/>
   </g>
   <g id="patch_5">
    <path d="M 518.4 441 
L 518.4 60.48 
" style="fill:none;stroke:#000000;stroke-linecap:square;stroke-linejoin:miter;stroke-width:0.8;"/>
   </g>
   <g id="patch_6">
    <path d="M 72 441 
L 518.4 441 
" style="fill:none;stroke:#000000;stroke-linecap:square;stroke-linejoin:miter;stroke-width:0.8;"/>
   </g>
   <g id="patch_7">
    <path d="M 72 60.48 
L 518.4 60.48 
" style="fill:none;stroke:#000000;stroke-linecap:square;stroke-linejoin:miter;stroke-width:0.8;"/>
   </g>
   <g id="patch_8">
    <path d="M 300.904536 185.592884 
Q 272.767235 185.592884 244.629933 185.592884 
" style="fill:none;opacity:0.6;stroke:#00008b;stroke-linecap:round;"/>
    <path d="M 296.904536 183.592884 
L 300.904536 185.592884 
L 296.904536 187.592884 
L 296.904536 183.592884 
z
" style="fill:#00008b;opacity:0.6;stroke:#00008b;stroke-linecap:round;"/>
    <path d="M 248.629933 187.592884 
L 244.629933 185.592884 
L 248.629933 183.592884 
L 248.629933 187.592884 
z
" style="fill:#00008b;opacity:0.6;stroke:#00008b;stroke-linecap:round;"/>
   </g>
   <g id="patch_9">
    <path d="M 307.144801 185.592884 
Q 335.372227 185.592884 363.599652 185.592884 
" style="fill:none;opacity:0.6;stroke:#00008b;stroke-linecap:round;"/>
    <path d="M 311.144801 187.592884 
L 307.144801 185.592884 
L 311.144801 183.592884 
L 311.144801 187.592884 
z
" style="fill:#00008b;opacity:0.6;stroke:#00008b;stroke-linecap:round;"/>
    <path d="M 359.599652 183.592884 
L 363.599652 185.592884 
L 359.599652 187.592884 
L 359.599652 183.592884 
z
" style="fill:#00008b;opacity:0.6;stroke:#00008b;stroke-linecap:round;"/>
   </g>
   <g id="text_17">
    <!-- $\sigma$: Combined 1.06 -->
    <defs>
     <path d="M 34.671875 47.5625 
Q 27.25 47.5625 22.21875 42.1875 
Q 16.890625 36.578125 15.140625 27.296875 
Q 13.1875 17.484375 16.3125 11.8125 
Q 19.390625 6.203125 26.65625 6.203125 
Q 33.84375 6.203125 39.109375 11.859375 
Q 44.4375 17.53125 46.34375 27.296875 
Q 48.046875 36.234375 45.015625 42.1875 
Q 42.1875 47.5625 34.671875 47.5625 
z
M 36.078125 54.734375 
L 65.921875 54.6875 
L 64.15625 45.703125 
L 54.109375 45.703125 
Q 57.90625 38.09375 55.859375 27.296875 
Q 53.21875 13.875 45.0625 6.25 
Q 36.859375 -1.421875 25.140625 -1.421875 
Q 13.375 -1.421875 8.203125 6.25 
Q 3.03125 13.875 5.671875 27.296875 
Q 8.25 40.765625 16.40625 48.390625 
Q 23.1875 54.734375 36.078125 54.734375 
z
" id="DejaVuSans-Oblique-963"/>
     <path d="M 11.71875 12.40625 
L 22.015625 12.40625 
L 22.015625 0 
L 11.71875 0 
z
M 11.71875 51.703125 
L 22.015625 51.703125 
L 22.015625 39.3125 
L 11.71875 39.3125 
z
" id="DejaVuSans-58"/>
     <path d="M 64.40625 67.28125 
L 64.40625 56.890625 
Q 59.421875 61.53125 53.78125 63.8125 
Q 48.140625 66.109375 41.796875 66.109375 
Q 29.296875 66.109375 22.65625 58.46875 
Q 16.015625 50.828125 16.015625 36.375 
Q 16.015625 21.96875 22.65625 14.328125 
Q 29.296875 6.6875 41.796875 6.6875 
Q 48.140625 6.6875 53.78125 8.984375 
Q 59.421875 11.28125 64.40625 15.921875 
L 64.40625 5.609375 
Q 59.234375 2.09375 53.4375 0.328125 
Q 47.65625 -1.421875 41.21875 -1.421875 
Q 24.65625 -1.421875 15.125 8.703125 
Q 5.609375 18.84375 5.609375 36.375 
Q 5.609375 53.953125 15.125 64.078125 
Q 24.65625 74.21875 41.21875 74.21875 
Q 47.75 74.21875 53.53125 72.484375 
Q 59.328125 70.75 64.40625 67.28125 
z
" id="DejaVuSans-67"/>
     <path d="M 33.015625 40.375 
Q 26.375 40.375 22.484375 35.828125 
Q 18.609375 31.296875 18.609375 23.390625 
Q 18.609375 15.53125 22.484375 10.953125 
Q 26.375 6.390625 33.015625 6.390625 
Q 39.65625 6.390625 43.53125 10.953125 
Q 47.40625 15.53125 47.40625 23.390625 
Q 47.40625 31.296875 43.53125 35.828125 
Q 39.65625 40.375 33.015625 40.375 
z
M 52.59375 71.296875 
L 52.59375 62.3125 
Q 48.875 64.0625 45.09375 64.984375 
Q 41.3125 65.921875 37.59375 65.921875 
Q 27.828125 65.921875 22.671875 59.328125 
Q 17.53125 52.734375 16.796875 39.40625 
Q 19.671875 43.65625 24.015625 45.921875 
Q 28.375 48.1875 33.59375 48.1875 
Q 44.578125 48.1875 50.953125 41.515625 
Q 57.328125 34.859375 57.328125 23.390625 
Q 57.328125 12.15625 50.6875 5.359375 
Q 44.046875 -1.421875 33.015625 -1.421875 
Q 20.359375 -1.421875 13.671875 8.265625 
Q 6.984375 17.96875 6.984375 36.375 
Q 6.984375 53.65625 15.1875 63.9375 
Q 23.390625 74.21875 37.203125 74.21875 
Q 40.921875 74.21875 44.703125 73.484375 
Q 48.484375 72.75 52.59375 71.296875 
z
" id="DejaVuSans-54"/>
    </defs>
    <g style="fill:#00008b;" transform="translate(130.917777 188.352259)scale(0.1 -0.1)">
     <use transform="translate(0 0.015625)" xlink:href="#DejaVuSans-Oblique-963"/>
     <use transform="translate(63.378906 0.015625)" xlink:href="#DejaVuSans-58"/>
     <use transform="translate(97.070312 0.015625)" xlink:href="#DejaVuSans-32"/>
     <use transform="translate(128.857422 0.015625)" xlink:href="#DejaVuSans-67"/>
     <use transform="translate(198.681641 0.015625)" xlink:href="#DejaVuSans-111"/>
     <use transform="translate(259.863281 0.015625)" xlink:href="#DejaVuSans-109"/>
     <use transform="translate(357.275391 0.015625)" xlink:href="#DejaVuSans-98"/>
     <use transform="translate(420.751953 0.015625)" xlink:href="#DejaVuSans-105"/>
     <use transform="translate(448.535156 0.015625)" xlink:href="#DejaVuSans-110"/>
     <use transform="translate(511.914062 0.015625)" xlink:href="#DejaVuSans-101"/>
     <use transform="translate(573.4375 0.015625)" xlink:href="#DejaVuSans-100"/>
     <use transform="translate(636.914062 0.015625)" xlink:href="#DejaVuSans-32"/>
     <use transform="translate(668.701172 0.015625)" xlink:href="#DejaVuSans-49"/>
     <use transform="translate(732.324219 0.015625)" xlink:href="#DejaVuSans-46"/>
     <use transform="translate(764.111328 0.015625)" xlink:href="#DejaVuSans-48"/>
     <use transform="translate(827.734375 0.015625)" xlink:href="#DejaVuSans-54"/>
    </g>
   </g>
   <g id="text_18">
    <!-- $\mu$: Combined 1.66 -->
    <defs>
     <path d="M -1.3125 -20.796875 
L 13.375 54.6875 
L 22.40625 54.6875 
L 15.765625 20.65625 
Q 15.578125 19.625 15.421875 18.359375 
Q 15.28125 17.09375 15.28125 15.828125 
Q 15.28125 11.28125 18.140625 8.828125 
Q 21 6.390625 26.3125 6.390625 
Q 33.546875 6.390625 37.984375 10.484375 
Q 42.4375 14.59375 44 22.796875 
L 50.203125 54.6875 
L 59.1875 54.6875 
L 51.03125 12.640625 
Q 50.828125 11.71875 50.75 11.03125 
Q 50.6875 10.359375 50.6875 9.8125 
Q 50.6875 8.296875 51.296875 7.59375 
Q 51.90625 6.890625 53.21875 6.890625 
Q 53.71875 6.890625 54.5625 7.125 
Q 55.421875 7.375 56.984375 8.015625 
L 55.609375 0.78125 
Q 53.46875 -0.296875 51.515625 -0.859375 
Q 49.5625 -1.421875 47.703125 -1.421875 
Q 44.484375 -1.421875 42.65625 0.625 
Q 40.828125 2.6875 40.828125 6.296875 
Q 38.09375 2.390625 34.296875 0.484375 
Q 30.515625 -1.421875 25.390625 -1.421875 
Q 20.84375 -1.421875 17.453125 0.671875 
Q 14.0625 2.78125 12.984375 6.203125 
L 7.71875 -20.796875 
z
" id="DejaVuSans-Oblique-956"/>
    </defs>
    <g style="fill:#00008b;" transform="translate(130.917777 218.784484)scale(0.1 -0.1)">
     <use transform="translate(0 0.015625)" xlink:href="#DejaVuSans-Oblique-956"/>
     <use transform="translate(63.623047 0.015625)" xlink:href="#DejaVuSans-58"/>
     <use transform="translate(97.314453 0.015625)" xlink:href="#DejaVuSans-32"/>
     <use transform="translate(129.101562 0.015625)" xlink:href="#DejaVuSans-67"/>
     <use transform="translate(198.925781 0.015625)" xlink:href="#DejaVuSans-111"/>
     <use transform="translate(260.107422 0.015625)" xlink:href="#DejaVuSans-109"/>
     <use transform="translate(357.519531 0.015625)" xlink:href="#DejaVuSans-98"/>
     <use transform="translate(420.996094 0.015625)" xlink:href="#DejaVuSans-105"/>
     <use transform="translate(448.779297 0.015625)" xlink:href="#DejaVuSans-110"/>
     <use transform="translate(512.158203 0.015625)" xlink:href="#DejaVuSans-101"/>
     <use transform="translate(573.681641 0.015625)" xlink:href="#DejaVuSans-100"/>
     <use transform="translate(637.158203 0.015625)" xlink:href="#DejaVuSans-32"/>
     <use transform="translate(668.945312 0.015625)" xlink:href="#DejaVuSans-49"/>
     <use transform="translate(732.568359 0.015625)" xlink:href="#DejaVuSans-46"/>
     <use transform="translate(764.355469 0.015625)" xlink:href="#DejaVuSans-54"/>
     <use transform="translate(827.978516 0.015625)" xlink:href="#DejaVuSans-54"/>
    </g>
   </g>
   <g id="text_19">
    <!-- $\sigma$ -->
    <g style="fill:#00008b;opacity:0.5;" transform="translate(285.338529 174.787084)scale(0.16 -0.16)">
     <use transform="translate(0 0.265625)" xlink:href="#DejaVuSans-Oblique-963"/>
    </g>
   </g>
   <g id="text_20">
    <!-- $\sigma$ -->
    <g style="fill:#00008b;opacity:0.5;" transform="translate(312.649551 174.787084)scale(0.16 -0.16)">
     <use transform="translate(0 0.265625)" xlink:href="#DejaVuSans-Oblique-963"/>
    </g>
   </g>
   <g id="text_21">
    <!-- Lake Geneva: log(pcs/m); Combined samples: n=140 -->
    <defs>
     <path d="M 9.078125 75.984375 
L 18.109375 75.984375 
L 18.109375 31.109375 
L 44.921875 54.6875 
L 56.390625 54.6875 
L 27.390625 29.109375 
L 57.625 0 
L 45.90625 0 
L 18.109375 26.703125 
L 18.109375 0 
L 9.078125 0 
z
" id="DejaVuSans-107"/>
     <path d="M 59.515625 10.40625 
L 59.515625 29.984375 
L 43.40625 29.984375 
L 43.40625 38.09375 
L 69.28125 38.09375 
L 69.28125 6.78125 
Q 63.578125 2.734375 56.6875 0.65625 
Q 49.8125 -1.421875 42 -1.421875 
Q 24.90625 -1.421875 15.25 8.5625 
Q 5.609375 18.5625 5.609375 36.375 
Q 5.609375 54.25 15.25 64.234375 
Q 24.90625 74.21875 42 74.21875 
Q 49.125 74.21875 55.546875 72.453125 
Q 61.96875 70.703125 67.390625 67.28125 
L 67.390625 56.78125 
Q 61.921875 61.421875 55.765625 63.765625 
Q 49.609375 66.109375 42.828125 66.109375 
Q 29.4375 66.109375 22.71875 58.640625 
Q 16.015625 51.171875 16.015625 36.375 
Q 16.015625 21.625 22.71875 14.15625 
Q 29.4375 6.6875 42.828125 6.6875 
Q 48.046875 6.6875 52.140625 7.59375 
Q 56.25 8.5 59.515625 10.40625 
z
" id="DejaVuSans-71"/>
     <path d="M 2.984375 54.6875 
L 12.5 54.6875 
L 29.59375 8.796875 
L 46.6875 54.6875 
L 56.203125 54.6875 
L 35.6875 0 
L 23.484375 0 
z
" id="DejaVuSans-118"/>
     <path d="M 31 75.875 
Q 24.46875 64.65625 21.28125 53.65625 
Q 18.109375 42.671875 18.109375 31.390625 
Q 18.109375 20.125 21.3125 9.0625 
Q 24.515625 -2 31 -13.1875 
L 23.1875 -13.1875 
Q 15.875 -1.703125 12.234375 9.375 
Q 8.59375 20.453125 8.59375 31.390625 
Q 8.59375 42.28125 12.203125 53.3125 
Q 15.828125 64.359375 23.1875 75.875 
z
" id="DejaVuSans-40"/>
     <path d="M 25.390625 72.90625 
L 33.6875 72.90625 
L 8.296875 -9.28125 
L 0 -9.28125 
z
" id="DejaVuSans-47"/>
     <path d="M 8.015625 75.875 
L 15.828125 75.875 
Q 23.140625 64.359375 26.78125 53.3125 
Q 30.421875 42.28125 30.421875 31.390625 
Q 30.421875 20.453125 26.78125 9.375 
Q 23.140625 -1.703125 15.828125 -13.1875 
L 8.015625 -13.1875 
Q 14.5 -2 17.703125 9.0625 
Q 20.90625 20.125 20.90625 31.390625 
Q 20.90625 42.671875 17.703125 53.65625 
Q 14.5 64.65625 8.015625 75.875 
z
" id="DejaVuSans-41"/>
     <path d="M 11.71875 51.703125 
L 22.015625 51.703125 
L 22.015625 39.3125 
L 11.71875 39.3125 
z
M 11.71875 12.40625 
L 22.015625 12.40625 
L 22.015625 4 
L 14.015625 -11.625 
L 7.71875 -11.625 
L 11.71875 4 
z
" id="DejaVuSans-59"/>
     <path d="M 10.59375 45.40625 
L 73.1875 45.40625 
L 73.1875 37.203125 
L 10.59375 37.203125 
z
M 10.59375 25.484375 
L 73.1875 25.484375 
L 73.1875 17.1875 
L 10.59375 17.1875 
z
" id="DejaVuSans-61"/>
    </defs>
    <g transform="translate(107.971875 45.48)scale(0.14 -0.14)">
     <use xlink:href="#DejaVuSans-76"/>
     <use x="55.712891" xlink:href="#DejaVuSans-97"/>
     <use x="116.992188" xlink:href="#DejaVuSans-107"/>
     <use x="174.855469" xlink:href="#DejaVuSans-101"/>
     <use x="236.378906" xlink:href="#DejaVuSans-32"/>
     <use x="268.166016" xlink:href="#DejaVuSans-71"/>
     <use x="345.65625" xlink:href="#DejaVuSans-101"/>
     <use x="407.179688" xlink:href="#DejaVuSans-110"/>
     <use x="470.558594" xlink:href="#DejaVuSans-101"/>
     <use x="532.082031" xlink:href="#DejaVuSans-118"/>
     <use x="591.261719" xlink:href="#DejaVuSans-97"/>
     <use x="652.541016" xlink:href="#DejaVuSans-58"/>
     <use x="686.232422" xlink:href="#DejaVuSans-32"/>
     <use x="718.019531" xlink:href="#DejaVuSans-108"/>
     <use x="745.802734" xlink:href="#DejaVuSans-111"/>
     <use x="806.984375" xlink:href="#DejaVuSans-103"/>
     <use x="870.460938" xlink:href="#DejaVuSans-40"/>
     <use x="909.474609" xlink:href="#DejaVuSans-112"/>
     <use x="972.951172" xlink:href="#DejaVuSans-99"/>
     <use x="1027.931641" xlink:href="#DejaVuSans-115"/>
     <use x="1080.03125" xlink:href="#DejaVuSans-47"/>
     <use x="1113.722656" xlink:href="#DejaVuSans-109"/>
     <use x="1211.134766" xlink:href="#DejaVuSans-41"/>
     <use x="1250.148438" xlink:href="#DejaVuSans-59"/>
     <use x="1283.839844" xlink:href="#DejaVuSans-32"/>
     <use x="1315.626953" xlink:href="#DejaVuSans-67"/>
     <use x="1385.451172" xlink:href="#DejaVuSans-111"/>
     <use x="1446.632812" xlink:href="#DejaVuSans-109"/>
     <use x="1544.044922" xlink:href="#DejaVuSans-98"/>
     <use x="1607.521484" xlink:href="#DejaVuSans-105"/>
     <use x="1635.304688" xlink:href="#DejaVuSans-110"/>
     <use x="1698.683594" xlink:href="#DejaVuSans-101"/>
     <use x="1760.207031" xlink:href="#DejaVuSans-100"/>
     <use x="1823.683594" xlink:href="#DejaVuSans-32"/>
     <use x="1855.470703" xlink:href="#DejaVuSans-115"/>
     <use x="1907.570312" xlink:href="#DejaVuSans-97"/>
     <use x="1968.849609" xlink:href="#DejaVuSans-109"/>
     <use x="2066.261719" xlink:href="#DejaVuSans-112"/>
     <use x="2129.738281" xlink:href="#DejaVuSans-108"/>
     <use x="2157.521484" xlink:href="#DejaVuSans-101"/>
     <use x="2219.044922" xlink:href="#DejaVuSans-115"/>
     <use x="2271.144531" xlink:href="#DejaVuSans-58"/>
     <use x="2304.835938" xlink:href="#DejaVuSans-32"/>
     <use x="2336.623047" xlink:href="#DejaVuSans-110"/>
     <use x="2400.001953" xlink:href="#DejaVuSans-61"/>
     <use x="2483.791016" xlink:href="#DejaVuSans-49"/>
     <use x="2547.414062" xlink:href="#DejaVuSans-52"/>
     <use x="2611.037109" xlink:href="#DejaVuSans-48"/>
    </g>
   </g>
   <g id="legend_1">
    <g id="patch_10">
     <path d="M 392.669062 92.229375 
L 508.6 92.229375 
Q 511.4 92.229375 511.4 89.429375 
L 511.4 70.28 
Q 511.4 67.48 508.6 67.48 
L 392.669062 67.48 
Q 389.869062 67.48 389.869062 70.28 
L 389.869062 89.429375 
Q 389.869062 92.229375 392.669062 92.229375 
z
" style="fill:#ffffff;opacity:0.8;stroke:#cccccc;stroke-linejoin:miter;"/>
    </g>
    <g id="line2d_16">
     <path d="M 395.469063 78.817812 
L 423.469063 78.817812 
" style="fill:none;stroke:#00008b;stroke-linecap:square;stroke-width:1.5;"/>
    </g>
    <g id="line2d_17"/>
    <g id="text_22">
     <!-- Combined -->
     <g transform="translate(434.669062 83.717812)scale(0.14 -0.14)">
      <use xlink:href="#DejaVuSans-67"/>
      <use x="69.824219" xlink:href="#DejaVuSans-111"/>
      <use x="131.005859" xlink:href="#DejaVuSans-109"/>
      <use x="228.417969" xlink:href="#DejaVuSans-98"/>
      <use x="291.894531" xlink:href="#DejaVuSans-105"/>
      <use x="319.677734" xlink:href="#DejaVuSans-110"/>
      <use x="383.056641" xlink:href="#DejaVuSans-101"/>
      <use x="444.580078" xlink:href="#DejaVuSans-100"/>
     </g>
    </g>
   </g>
  </g>
  <g id="text_23">
   <!-- Combined probability density SLR &amp; MCBP 2015-2018 -->
   <defs>
    <path d="M 53.515625 70.515625 
L 53.515625 60.890625 
Q 47.90625 63.578125 42.921875 64.890625 
Q 37.9375 66.21875 33.296875 66.21875 
Q 25.25 66.21875 20.875 63.09375 
Q 16.5 59.96875 16.5 54.203125 
Q 16.5 49.359375 19.40625 46.890625 
Q 22.3125 44.4375 30.421875 42.921875 
L 36.375 41.703125 
Q 47.40625 39.59375 52.65625 34.296875 
Q 57.90625 29 57.90625 20.125 
Q 57.90625 9.515625 50.796875 4.046875 
Q 43.703125 -1.421875 29.984375 -1.421875 
Q 24.8125 -1.421875 18.96875 -0.25 
Q 13.140625 0.921875 6.890625 3.21875 
L 6.890625 13.375 
Q 12.890625 10.015625 18.65625 8.296875 
Q 24.421875 6.59375 29.984375 6.59375 
Q 38.421875 6.59375 43.015625 9.90625 
Q 47.609375 13.234375 47.609375 19.390625 
Q 47.609375 24.75 44.3125 27.78125 
Q 41.015625 30.8125 33.5 32.328125 
L 27.484375 33.5 
Q 16.453125 35.6875 11.515625 40.375 
Q 6.59375 45.0625 6.59375 53.421875 
Q 6.59375 63.09375 13.40625 68.65625 
Q 20.21875 74.21875 32.171875 74.21875 
Q 37.3125 74.21875 42.625 73.28125 
Q 47.953125 72.359375 53.515625 70.515625 
z
" id="DejaVuSans-83"/>
    <path d="M 44.390625 34.1875 
Q 47.5625 33.109375 50.5625 29.59375 
Q 53.5625 26.078125 56.59375 19.921875 
L 66.609375 0 
L 56 0 
L 46.6875 18.703125 
Q 43.0625 26.03125 39.671875 28.421875 
Q 36.28125 30.8125 30.421875 30.8125 
L 19.671875 30.8125 
L 19.671875 0 
L 9.8125 0 
L 9.8125 72.90625 
L 32.078125 72.90625 
Q 44.578125 72.90625 50.734375 67.671875 
Q 56.890625 62.453125 56.890625 51.90625 
Q 56.890625 45.015625 53.6875 40.46875 
Q 50.484375 35.9375 44.390625 34.1875 
z
M 19.671875 64.796875 
L 19.671875 38.921875 
L 32.078125 38.921875 
Q 39.203125 38.921875 42.84375 42.21875 
Q 46.484375 45.515625 46.484375 51.90625 
Q 46.484375 58.296875 42.84375 61.546875 
Q 39.203125 64.796875 32.078125 64.796875 
z
" id="DejaVuSans-82"/>
    <path d="M 24.3125 39.203125 
Q 19.875 35.25 17.796875 31.3125 
Q 15.71875 27.390625 15.71875 23.09375 
Q 15.71875 15.96875 20.890625 11.234375 
Q 26.078125 6.5 33.890625 6.5 
Q 38.53125 6.5 42.578125 8.03125 
Q 46.625 9.578125 50.203125 12.703125 
z
M 31.203125 44.671875 
L 56 19.28125 
Q 58.890625 23.640625 60.5 28.59375 
Q 62.109375 33.546875 62.40625 39.109375 
L 71.484375 39.109375 
Q 70.90625 32.671875 68.359375 26.359375 
Q 65.828125 20.0625 61.28125 13.921875 
L 74.90625 0 
L 62.59375 0 
L 55.609375 7.171875 
Q 50.53125 2.828125 44.96875 0.703125 
Q 39.40625 -1.421875 33.015625 -1.421875 
Q 21.234375 -1.421875 13.765625 5.296875 
Q 6.296875 12.015625 6.296875 22.515625 
Q 6.296875 28.765625 9.5625 34.25 
Q 12.84375 39.75 19.390625 44.578125 
Q 17.046875 47.65625 15.8125 50.703125 
Q 14.59375 53.765625 14.59375 56.6875 
Q 14.59375 64.59375 20.015625 69.40625 
Q 25.4375 74.21875 34.421875 74.21875 
Q 38.484375 74.21875 42.5 73.34375 
Q 46.53125 72.46875 50.6875 70.703125 
L 50.6875 61.8125 
Q 46.4375 64.109375 42.578125 65.296875 
Q 38.71875 66.5 35.40625 66.5 
Q 30.28125 66.5 27.078125 63.78125 
Q 23.875 61.078125 23.875 56.78125 
Q 23.875 54.296875 25.3125 51.78125 
Q 26.765625 49.265625 31.203125 44.671875 
z
" id="DejaVuSans-38"/>
    <path d="M 9.8125 72.90625 
L 24.515625 72.90625 
L 43.109375 23.296875 
L 61.8125 72.90625 
L 76.515625 72.90625 
L 76.515625 0 
L 66.890625 0 
L 66.890625 64.015625 
L 48.09375 14.015625 
L 38.1875 14.015625 
L 19.390625 64.015625 
L 19.390625 0 
L 9.8125 0 
z
" id="DejaVuSans-77"/>
    <path d="M 19.671875 34.8125 
L 19.671875 8.109375 
L 35.5 8.109375 
Q 43.453125 8.109375 47.28125 11.40625 
Q 51.125 14.703125 51.125 21.484375 
Q 51.125 28.328125 47.28125 31.5625 
Q 43.453125 34.8125 35.5 34.8125 
z
M 19.671875 64.796875 
L 19.671875 42.828125 
L 34.28125 42.828125 
Q 41.5 42.828125 45.03125 45.53125 
Q 48.578125 48.25 48.578125 53.8125 
Q 48.578125 59.328125 45.03125 62.0625 
Q 41.5 64.796875 34.28125 64.796875 
z
M 9.8125 72.90625 
L 35.015625 72.90625 
Q 46.296875 72.90625 52.390625 68.21875 
Q 58.5 63.53125 58.5 54.890625 
Q 58.5 48.1875 55.375 44.234375 
Q 52.25 40.28125 46.1875 39.3125 
Q 53.46875 37.75 57.5 32.78125 
Q 61.53125 27.828125 61.53125 20.40625 
Q 61.53125 10.640625 54.890625 5.3125 
Q 48.25 0 35.984375 0 
L 9.8125 0 
z
" id="DejaVuSans-66"/>
    <path d="M 4.890625 31.390625 
L 31.203125 31.390625 
L 31.203125 23.390625 
L 4.890625 23.390625 
z
" id="DejaVuSans-45"/>
    <path d="M 31.78125 34.625 
Q 24.75 34.625 20.71875 30.859375 
Q 16.703125 27.09375 16.703125 20.515625 
Q 16.703125 13.921875 20.71875 10.15625 
Q 24.75 6.390625 31.78125 6.390625 
Q 38.8125 6.390625 42.859375 10.171875 
Q 46.921875 13.96875 46.921875 20.515625 
Q 46.921875 27.09375 42.890625 30.859375 
Q 38.875 34.625 31.78125 34.625 
z
M 21.921875 38.8125 
Q 15.578125 40.375 12.03125 44.71875 
Q 8.5 49.078125 8.5 55.328125 
Q 8.5 64.0625 14.71875 69.140625 
Q 20.953125 74.21875 31.78125 74.21875 
Q 42.671875 74.21875 48.875 69.140625 
Q 55.078125 64.0625 55.078125 55.328125 
Q 55.078125 49.078125 51.53125 44.71875 
Q 48 40.375 41.703125 38.8125 
Q 48.828125 37.15625 52.796875 32.3125 
Q 56.78125 27.484375 56.78125 20.515625 
Q 56.78125 9.90625 50.3125 4.234375 
Q 43.84375 -1.421875 31.78125 -1.421875 
Q 19.734375 -1.421875 13.25 4.234375 
Q 6.78125 9.90625 6.78125 20.515625 
Q 6.78125 27.484375 10.78125 32.3125 
Q 14.796875 37.15625 21.921875 38.8125 
z
M 18.3125 54.390625 
Q 18.3125 48.734375 21.84375 45.5625 
Q 25.390625 42.390625 31.78125 42.390625 
Q 38.140625 42.390625 41.71875 45.5625 
Q 45.3125 48.734375 45.3125 54.390625 
Q 45.3125 60.0625 41.71875 63.234375 
Q 38.140625 66.40625 31.78125 66.40625 
Q 25.390625 66.40625 21.84375 63.234375 
Q 18.3125 60.0625 18.3125 54.390625 
z
" id="DejaVuSans-56"/>
   </defs>
   <g transform="translate(72.16625 22.2375)scale(0.16 -0.16)">
    <use xlink:href="#DejaVuSans-67"/>
    <use x="69.824219" xlink:href="#DejaVuSans-111"/>
    <use x="131.005859" xlink:href="#DejaVuSans-109"/>
    <use x="228.417969" xlink:href="#DejaVuSans-98"/>
    <use x="291.894531" xlink:href="#DejaVuSans-105"/>
    <use x="319.677734" xlink:href="#DejaVuSans-110"/>
    <use x="383.056641" xlink:href="#DejaVuSans-101"/>
    <use x="444.580078" xlink:href="#DejaVuSans-100"/>
    <use x="508.056641" xlink:href="#DejaVuSans-32"/>
    <use x="539.84375" xlink:href="#DejaVuSans-112"/>
    <use x="603.320312" xlink:href="#DejaVuSans-114"/>
    <use x="644.402344" xlink:href="#DejaVuSans-111"/>
    <use x="705.583984" xlink:href="#DejaVuSans-98"/>
    <use x="769.060547" xlink:href="#DejaVuSans-97"/>
    <use x="830.339844" xlink:href="#DejaVuSans-98"/>
    <use x="893.816406" xlink:href="#DejaVuSans-105"/>
    <use x="921.599609" xlink:href="#DejaVuSans-108"/>
    <use x="949.382812" xlink:href="#DejaVuSans-105"/>
    <use x="977.166016" xlink:href="#DejaVuSans-116"/>
    <use x="1016.375" xlink:href="#DejaVuSans-121"/>
    <use x="1075.554688" xlink:href="#DejaVuSans-32"/>
    <use x="1107.341797" xlink:href="#DejaVuSans-100"/>
    <use x="1170.818359" xlink:href="#DejaVuSans-101"/>
    <use x="1232.341797" xlink:href="#DejaVuSans-110"/>
    <use x="1295.720703" xlink:href="#DejaVuSans-115"/>
    <use x="1347.820312" xlink:href="#DejaVuSans-105"/>
    <use x="1375.603516" xlink:href="#DejaVuSans-116"/>
    <use x="1414.8125" xlink:href="#DejaVuSans-121"/>
    <use x="1473.992188" xlink:href="#DejaVuSans-32"/>
    <use x="1505.779297" xlink:href="#DejaVuSans-83"/>
    <use x="1569.255859" xlink:href="#DejaVuSans-76"/>
    <use x="1624.96875" xlink:href="#DejaVuSans-82"/>
    <use x="1694.451172" xlink:href="#DejaVuSans-32"/>
    <use x="1726.238281" xlink:href="#DejaVuSans-38"/>
    <use x="1804.216797" xlink:href="#DejaVuSans-32"/>
    <use x="1836.003906" xlink:href="#DejaVuSans-77"/>
    <use x="1922.283203" xlink:href="#DejaVuSans-67"/>
    <use x="1992.107422" xlink:href="#DejaVuSans-66"/>
    <use x="2060.710938" xlink:href="#DejaVuSans-80"/>
    <use x="2121.013672" xlink:href="#DejaVuSans-32"/>
    <use x="2152.800781" xlink:href="#DejaVuSans-50"/>
    <use x="2216.423828" xlink:href="#DejaVuSans-48"/>
    <use x="2280.046875" xlink:href="#DejaVuSans-49"/>
    <use x="2343.669922" xlink:href="#DejaVuSans-53"/>
    <use x="2407.292969" xlink:href="#DejaVuSans-45"/>
    <use x="2443.376953" xlink:href="#DejaVuSans-50"/>
    <use x="2507" xlink:href="#DejaVuSans-48"/>
    <use x="2570.623047" xlink:href="#DejaVuSans-49"/>
    <use x="2634.246094" xlink:href="#DejaVuSans-56"/>
   </g>
  </g>
 </g>
 <defs>
  <clipPath id="pee86169b22">
   <rect height="380.52" width="446.4" x="72" y="60.48"/>
  </clipPath>
 </defs>
</svg>
