<?xml version="1.0" encoding="utf-8" standalone="no"?>
<!DOCTYPE svg PUBLIC "-//W3C//DTD SVG 1.1//EN"
  "http://www.w3.org/Graphics/SVG/1.1/DTD/svg11.dtd">
<!-- Created with matplotlib (https://matplotlib.org/) -->
<svg height="648pt" version="1.1" viewBox="0 0 720 648" width="720pt" xmlns="http://www.w3.org/2000/svg" xmlns:xlink="http://www.w3.org/1999/xlink">
 <defs>
  <style type="text/css">
*{stroke-linecap:butt;stroke-linejoin:round;}
  </style>
 </defs>
 <g id="figure_1">
  <g id="patch_1">
   <path d="M 0 648 
L 720 648 
L 720 0 
L 0 0 
z
" style="fill:#ffffff;"/>
  </g>
  <g id="axes_1">
   <g id="patch_2">
    <path d="M 90 221.654118 
L 343.636364 221.654118 
L 343.636364 77.76 
L 90 77.76 
z
" style="fill:#ffffff;"/>
   </g>
   <g id="line2d_1">
    <path clip-path="url(#pe2b2c1a89c)" d="M 111.909815 149.707059 
L 103.529423 149.707059 
" style="fill:none;stroke:#008b8b;stroke-linecap:square;"/>
   </g>
   <g id="line2d_2">
    <path clip-path="url(#pe2b2c1a89c)" d="M 135.143359 149.707059 
L 168.662441 149.707059 
" style="fill:none;stroke:#008b8b;stroke-linecap:square;"/>
   </g>
   <g id="line2d_3">
    <path clip-path="url(#pe2b2c1a89c)" d="M 103.529423 178.485882 
L 103.529423 120.928235 
" style="fill:none;stroke:#008b8b;stroke-linecap:square;"/>
   </g>
   <g id="line2d_4">
    <path clip-path="url(#pe2b2c1a89c)" d="M 168.662441 178.485882 
L 168.662441 120.928235 
" style="fill:none;stroke:#008b8b;stroke-linecap:square;"/>
   </g>
   <g id="line2d_5">
    <defs>
     <path d="M 0 5 
C 1.326016 5 2.597899 4.473168 3.535534 3.535534 
C 4.473168 2.597899 5 1.326016 5 0 
C 5 -1.326016 4.473168 -2.597899 3.535534 -3.535534 
C 2.597899 -4.473168 1.326016 -5 0 -5 
C -1.326016 -5 -2.597899 -4.473168 -3.535534 -3.535534 
C -4.473168 -2.597899 -5 -1.326016 -5 0 
C -5 1.326016 -4.473168 2.597899 -3.535534 3.535534 
C -2.597899 4.473168 -1.326016 5 0 5 
z
" id="m6f22507ecf" style="stroke:#ffffff;stroke-opacity:0.4;"/>
    </defs>
    <g clip-path="url(#pe2b2c1a89c)">
     <use style="fill:#00008b;fill-opacity:0.4;stroke:#ffffff;stroke-opacity:0.4;" x="170.814996" xlink:href="#m6f22507ecf" y="149.707059"/>
     <use style="fill:#00008b;fill-opacity:0.4;stroke:#ffffff;stroke-opacity:0.4;" x="175.267959" xlink:href="#m6f22507ecf" y="149.707059"/>
     <use style="fill:#00008b;fill-opacity:0.4;stroke:#ffffff;stroke-opacity:0.4;" x="181.456267" xlink:href="#m6f22507ecf" y="149.707059"/>
     <use style="fill:#00008b;fill-opacity:0.4;stroke:#ffffff;stroke-opacity:0.4;" x="182.955337" xlink:href="#m6f22507ecf" y="149.707059"/>
     <use style="fill:#00008b;fill-opacity:0.4;stroke:#ffffff;stroke-opacity:0.4;" x="186.275126" xlink:href="#m6f22507ecf" y="149.707059"/>
     <use style="fill:#00008b;fill-opacity:0.4;stroke:#ffffff;stroke-opacity:0.4;" x="196.697841" xlink:href="#m6f22507ecf" y="149.707059"/>
     <use style="fill:#00008b;fill-opacity:0.4;stroke:#ffffff;stroke-opacity:0.4;" x="201.167175" xlink:href="#m6f22507ecf" y="149.707059"/>
     <use style="fill:#00008b;fill-opacity:0.4;stroke:#ffffff;stroke-opacity:0.4;" x="205.292714" xlink:href="#m6f22507ecf" y="149.707059"/>
     <use style="fill:#00008b;fill-opacity:0.4;stroke:#ffffff;stroke-opacity:0.4;" x="218.733236" xlink:href="#m6f22507ecf" y="149.707059"/>
     <use style="fill:#00008b;fill-opacity:0.4;stroke:#ffffff;stroke-opacity:0.4;" x="218.797407" xlink:href="#m6f22507ecf" y="149.707059"/>
     <use style="fill:#00008b;fill-opacity:0.4;stroke:#ffffff;stroke-opacity:0.4;" x="224.14618" xlink:href="#m6f22507ecf" y="149.707059"/>
     <use style="fill:#00008b;fill-opacity:0.4;stroke:#ffffff;stroke-opacity:0.4;" x="249.51763" xlink:href="#m6f22507ecf" y="149.707059"/>
    </g>
   </g>
   <g id="patch_3">
    <path clip-path="url(#pe2b2c1a89c)" d="M 111.909815 207.264706 
L 111.909815 92.149412 
L 135.143359 92.149412 
L 135.143359 207.264706 
L 111.909815 207.264706 
z
" style="fill:#00008b;opacity:0.4;stroke:#008b8b;stroke-linejoin:miter;stroke-width:2;"/>
   </g>
   <g id="line2d_6">
    <path clip-path="url(#pe2b2c1a89c)" d="M 118.802934 207.264706 
L 118.802934 92.149412 
" style="fill:none;stroke:#008b8b;stroke-linecap:square;"/>
   </g>
   <g id="matplotlib.axis_1"/>
   <g id="matplotlib.axis_2">
    <g id="ytick_1">
     <g id="line2d_7">
      <defs>
       <path d="M 0 0 
L -3.5 0 
" id="m59d81a7b93" style="stroke:#000000;stroke-width:0.8;"/>
      </defs>
      <g>
       <use style="stroke:#000000;stroke-width:0.8;" x="90" xlink:href="#m59d81a7b93" y="149.707059"/>
      </g>
     </g>
     <g id="text_1">
      <!-- 1 -->
      <defs>
       <path d="M 12.40625 8.296875 
L 28.515625 8.296875 
L 28.515625 63.921875 
L 10.984375 60.40625 
L 10.984375 69.390625 
L 28.421875 72.90625 
L 38.28125 72.90625 
L 38.28125 8.296875 
L 54.390625 8.296875 
L 54.390625 0 
L 12.40625 0 
z
" id="DejaVuSans-49"/>
      </defs>
      <g transform="translate(76.6375 153.506278)scale(0.1 -0.1)">
       <use xlink:href="#DejaVuSans-49"/>
      </g>
     </g>
    </g>
   </g>
   <g id="patch_4">
    <path d="M 90 221.654118 
L 90 77.76 
" style="fill:none;stroke:#000000;stroke-linecap:square;stroke-linejoin:miter;stroke-width:0.8;"/>
   </g>
   <g id="patch_5">
    <path d="M 343.636364 221.654118 
L 343.636364 77.76 
" style="fill:none;stroke:#000000;stroke-linecap:square;stroke-linejoin:miter;stroke-width:0.8;"/>
   </g>
   <g id="patch_6">
    <path d="M 90 221.654118 
L 343.636364 221.654118 
" style="fill:none;stroke:#000000;stroke-linecap:square;stroke-linejoin:miter;stroke-width:0.8;"/>
   </g>
   <g id="patch_7">
    <path d="M 90 77.76 
L 343.636364 77.76 
" style="fill:none;stroke:#000000;stroke-linecap:square;stroke-linejoin:miter;stroke-width:0.8;"/>
   </g>
   <g id="PathCollection_1">
    <defs>
     <path d="M 0 5.91608 
C 1.568963 5.91608 3.073876 5.292724 4.1833 4.1833 
C 5.292724 3.073876 5.91608 1.568963 5.91608 0 
C 5.91608 -1.568963 5.292724 -3.073876 4.1833 -4.1833 
C 3.073876 -5.292724 1.568963 -5.91608 0 -5.91608 
C -1.568963 -5.91608 -3.073876 -5.292724 -4.1833 -4.1833 
C -5.292724 -3.073876 -5.91608 -1.568963 -5.91608 0 
C -5.91608 1.568963 -5.292724 3.073876 -4.1833 4.1833 
C -3.073876 5.292724 -1.568963 5.91608 0 5.91608 
z
" id="m1f842d1015" style="stroke:#ffffff;"/>
    </defs>
    <g clip-path="url(#pe2b2c1a89c)">
     <use style="fill:#ff00ff;stroke:#ffffff;" x="185.495857" xlink:href="#m1f842d1015" y="149.707059"/>
     <use style="fill:#ff00ff;stroke:#ffffff;" x="145.375708" xlink:href="#m1f842d1015" y="149.707059"/>
     <use style="fill:#ff00ff;stroke:#ffffff;" x="129.207628" xlink:href="#m1f842d1015" y="149.707059"/>
     <use style="fill:#ff00ff;stroke:#ffffff;" x="121.136633" xlink:href="#m1f842d1015" y="149.707059"/>
     <use style="fill:#ff00ff;stroke:#ffffff;" x="328.361738" xlink:href="#m1f842d1015" y="149.707059"/>
     <use style="fill:#ff00ff;stroke:#ffffff;" x="127.050724" xlink:href="#m1f842d1015" y="149.707059"/>
    </g>
   </g>
   <g id="PathCollection_2">
    <defs>
     <path d="M 0 5.91608 
C 1.568963 5.91608 3.073876 5.292724 4.1833 4.1833 
C 5.292724 3.073876 5.91608 1.568963 5.91608 0 
C 5.91608 -1.568963 5.292724 -3.073876 4.1833 -4.1833 
C 3.073876 -5.292724 1.568963 -5.91608 0 -5.91608 
C -1.568963 -5.91608 -3.073876 -5.292724 -4.1833 -4.1833 
C -5.292724 -3.073876 -5.91608 -1.568963 -5.91608 0 
C -5.91608 1.568963 -5.292724 3.073876 -4.1833 4.1833 
C -3.073876 5.292724 -1.568963 5.91608 0 5.91608 
z
" id="m02f25d18d6" style="stroke:#ffffff;"/>
    </defs>
    <g clip-path="url(#pe2b2c1a89c)">
     <use style="fill:#4b0082;stroke:#ffffff;" x="117.309868" xlink:href="#m02f25d18d6" y="149.707059"/>
     <use style="fill:#4b0082;stroke:#ffffff;" x="107.393678" xlink:href="#m02f25d18d6" y="149.707059"/>
    </g>
   </g>
   <g id="PathCollection_3">
    <defs>
     <path d="M 0 5.91608 
C 1.568963 5.91608 3.073876 5.292724 4.1833 4.1833 
C 5.292724 3.073876 5.91608 1.568963 5.91608 0 
C 5.91608 -1.568963 5.292724 -3.073876 4.1833 -4.1833 
C 3.073876 -5.292724 1.568963 -5.91608 0 -5.91608 
C -1.568963 -5.91608 -3.073876 -5.292724 -4.1833 -4.1833 
C -5.292724 -3.073876 -5.91608 -1.568963 -5.91608 0 
C -5.91608 1.568963 -5.292724 3.073876 -4.1833 4.1833 
C -3.073876 5.292724 -1.568963 5.91608 0 5.91608 
z
" id="mb3ac44851c" style="stroke:#ffffff;"/>
    </defs>
    <g clip-path="url(#pe2b2c1a89c)">
     <use style="fill:#ffdab9;stroke:#ffffff;" x="129.898281" xlink:href="#mb3ac44851c" y="149.707059"/>
    </g>
   </g>
   <g id="text_2">
    <!-- Plot of pcs/m -->
    <defs>
     <path d="M 19.671875 64.796875 
L 19.671875 37.40625 
L 32.078125 37.40625 
Q 38.96875 37.40625 42.71875 40.96875 
Q 46.484375 44.53125 46.484375 51.125 
Q 46.484375 57.671875 42.71875 61.234375 
Q 38.96875 64.796875 32.078125 64.796875 
z
M 9.8125 72.90625 
L 32.078125 72.90625 
Q 44.34375 72.90625 50.609375 67.359375 
Q 56.890625 61.8125 56.890625 51.125 
Q 56.890625 40.328125 50.609375 34.8125 
Q 44.34375 29.296875 32.078125 29.296875 
L 19.671875 29.296875 
L 19.671875 0 
L 9.8125 0 
z
" id="DejaVuSans-80"/>
     <path d="M 9.421875 75.984375 
L 18.40625 75.984375 
L 18.40625 0 
L 9.421875 0 
z
" id="DejaVuSans-108"/>
     <path d="M 30.609375 48.390625 
Q 23.390625 48.390625 19.1875 42.75 
Q 14.984375 37.109375 14.984375 27.296875 
Q 14.984375 17.484375 19.15625 11.84375 
Q 23.34375 6.203125 30.609375 6.203125 
Q 37.796875 6.203125 41.984375 11.859375 
Q 46.1875 17.53125 46.1875 27.296875 
Q 46.1875 37.015625 41.984375 42.703125 
Q 37.796875 48.390625 30.609375 48.390625 
z
M 30.609375 56 
Q 42.328125 56 49.015625 48.375 
Q 55.71875 40.765625 55.71875 27.296875 
Q 55.71875 13.875 49.015625 6.21875 
Q 42.328125 -1.421875 30.609375 -1.421875 
Q 18.84375 -1.421875 12.171875 6.21875 
Q 5.515625 13.875 5.515625 27.296875 
Q 5.515625 40.765625 12.171875 48.375 
Q 18.84375 56 30.609375 56 
z
" id="DejaVuSans-111"/>
     <path d="M 18.3125 70.21875 
L 18.3125 54.6875 
L 36.8125 54.6875 
L 36.8125 47.703125 
L 18.3125 47.703125 
L 18.3125 18.015625 
Q 18.3125 11.328125 20.140625 9.421875 
Q 21.96875 7.515625 27.59375 7.515625 
L 36.8125 7.515625 
L 36.8125 0 
L 27.59375 0 
Q 17.1875 0 13.234375 3.875 
Q 9.28125 7.765625 9.28125 18.015625 
L 9.28125 47.703125 
L 2.6875 47.703125 
L 2.6875 54.6875 
L 9.28125 54.6875 
L 9.28125 70.21875 
z
" id="DejaVuSans-116"/>
     <path id="DejaVuSans-32"/>
     <path d="M 37.109375 75.984375 
L 37.109375 68.5 
L 28.515625 68.5 
Q 23.6875 68.5 21.796875 66.546875 
Q 19.921875 64.59375 19.921875 59.515625 
L 19.921875 54.6875 
L 34.71875 54.6875 
L 34.71875 47.703125 
L 19.921875 47.703125 
L 19.921875 0 
L 10.890625 0 
L 10.890625 47.703125 
L 2.296875 47.703125 
L 2.296875 54.6875 
L 10.890625 54.6875 
L 10.890625 58.5 
Q 10.890625 67.625 15.140625 71.796875 
Q 19.390625 75.984375 28.609375 75.984375 
z
" id="DejaVuSans-102"/>
     <path d="M 18.109375 8.203125 
L 18.109375 -20.796875 
L 9.078125 -20.796875 
L 9.078125 54.6875 
L 18.109375 54.6875 
L 18.109375 46.390625 
Q 20.953125 51.265625 25.265625 53.625 
Q 29.59375 56 35.59375 56 
Q 45.5625 56 51.78125 48.09375 
Q 58.015625 40.1875 58.015625 27.296875 
Q 58.015625 14.40625 51.78125 6.484375 
Q 45.5625 -1.421875 35.59375 -1.421875 
Q 29.59375 -1.421875 25.265625 0.953125 
Q 20.953125 3.328125 18.109375 8.203125 
z
M 48.6875 27.296875 
Q 48.6875 37.203125 44.609375 42.84375 
Q 40.53125 48.484375 33.40625 48.484375 
Q 26.265625 48.484375 22.1875 42.84375 
Q 18.109375 37.203125 18.109375 27.296875 
Q 18.109375 17.390625 22.1875 11.75 
Q 26.265625 6.109375 33.40625 6.109375 
Q 40.53125 6.109375 44.609375 11.75 
Q 48.6875 17.390625 48.6875 27.296875 
z
" id="DejaVuSans-112"/>
     <path d="M 48.78125 52.59375 
L 48.78125 44.1875 
Q 44.96875 46.296875 41.140625 47.34375 
Q 37.3125 48.390625 33.40625 48.390625 
Q 24.65625 48.390625 19.8125 42.84375 
Q 14.984375 37.3125 14.984375 27.296875 
Q 14.984375 17.28125 19.8125 11.734375 
Q 24.65625 6.203125 33.40625 6.203125 
Q 37.3125 6.203125 41.140625 7.25 
Q 44.96875 8.296875 48.78125 10.40625 
L 48.78125 2.09375 
Q 45.015625 0.34375 40.984375 -0.53125 
Q 36.96875 -1.421875 32.421875 -1.421875 
Q 20.0625 -1.421875 12.78125 6.34375 
Q 5.515625 14.109375 5.515625 27.296875 
Q 5.515625 40.671875 12.859375 48.328125 
Q 20.21875 56 33.015625 56 
Q 37.15625 56 41.109375 55.140625 
Q 45.0625 54.296875 48.78125 52.59375 
z
" id="DejaVuSans-99"/>
     <path d="M 44.28125 53.078125 
L 44.28125 44.578125 
Q 40.484375 46.53125 36.375 47.5 
Q 32.28125 48.484375 27.875 48.484375 
Q 21.1875 48.484375 17.84375 46.4375 
Q 14.5 44.390625 14.5 40.28125 
Q 14.5 37.15625 16.890625 35.375 
Q 19.28125 33.59375 26.515625 31.984375 
L 29.59375 31.296875 
Q 39.15625 29.25 43.1875 25.515625 
Q 47.21875 21.78125 47.21875 15.09375 
Q 47.21875 7.46875 41.1875 3.015625 
Q 35.15625 -1.421875 24.609375 -1.421875 
Q 20.21875 -1.421875 15.453125 -0.5625 
Q 10.6875 0.296875 5.421875 2 
L 5.421875 11.28125 
Q 10.40625 8.6875 15.234375 7.390625 
Q 20.0625 6.109375 24.8125 6.109375 
Q 31.15625 6.109375 34.5625 8.28125 
Q 37.984375 10.453125 37.984375 14.40625 
Q 37.984375 18.0625 35.515625 20.015625 
Q 33.0625 21.96875 24.703125 23.78125 
L 21.578125 24.515625 
Q 13.234375 26.265625 9.515625 29.90625 
Q 5.8125 33.546875 5.8125 39.890625 
Q 5.8125 47.609375 11.28125 51.796875 
Q 16.75 56 26.8125 56 
Q 31.78125 56 36.171875 55.265625 
Q 40.578125 54.546875 44.28125 53.078125 
z
" id="DejaVuSans-115"/>
     <path d="M 25.390625 72.90625 
L 33.6875 72.90625 
L 8.296875 -9.28125 
L 0 -9.28125 
z
" id="DejaVuSans-47"/>
     <path d="M 52 44.1875 
Q 55.375 50.25 60.0625 53.125 
Q 64.75 56 71.09375 56 
Q 79.640625 56 84.28125 50.015625 
Q 88.921875 44.046875 88.921875 33.015625 
L 88.921875 0 
L 79.890625 0 
L 79.890625 32.71875 
Q 79.890625 40.578125 77.09375 44.375 
Q 74.3125 48.1875 68.609375 48.1875 
Q 61.625 48.1875 57.5625 43.546875 
Q 53.515625 38.921875 53.515625 30.90625 
L 53.515625 0 
L 44.484375 0 
L 44.484375 32.71875 
Q 44.484375 40.625 41.703125 44.40625 
Q 38.921875 48.1875 33.109375 48.1875 
Q 26.21875 48.1875 22.15625 43.53125 
Q 18.109375 38.875 18.109375 30.90625 
L 18.109375 0 
L 9.078125 0 
L 9.078125 54.6875 
L 18.109375 54.6875 
L 18.109375 46.1875 
Q 21.1875 51.21875 25.484375 53.609375 
Q 29.78125 56 35.6875 56 
Q 41.65625 56 45.828125 52.96875 
Q 50 49.953125 52 44.1875 
z
" id="DejaVuSans-109"/>
    </defs>
    <g transform="translate(171.312713 71.76)scale(0.14 -0.14)">
     <use xlink:href="#DejaVuSans-80"/>
     <use x="60.302734" xlink:href="#DejaVuSans-108"/>
     <use x="88.085938" xlink:href="#DejaVuSans-111"/>
     <use x="149.267578" xlink:href="#DejaVuSans-116"/>
     <use x="188.476562" xlink:href="#DejaVuSans-32"/>
     <use x="220.263672" xlink:href="#DejaVuSans-111"/>
     <use x="281.445312" xlink:href="#DejaVuSans-102"/>
     <use x="316.650391" xlink:href="#DejaVuSans-32"/>
     <use x="348.4375" xlink:href="#DejaVuSans-112"/>
     <use x="411.914062" xlink:href="#DejaVuSans-99"/>
     <use x="466.894531" xlink:href="#DejaVuSans-115"/>
     <use x="518.994141" xlink:href="#DejaVuSans-47"/>
     <use x="552.685547" xlink:href="#DejaVuSans-109"/>
    </g>
   </g>
  </g>
  <g id="axes_2">
   <g id="patch_8">
    <path d="M 90 567 
L 343.636364 567 
L 343.636364 250.432941 
L 90 250.432941 
z
" style="fill:#ffffff;"/>
   </g>
   <g id="PolyCollection_1">
    <defs>
     <path d="M 103.529423 -88.270617 
L 103.529423 -286.242006 
L 103.907597 -288.788766 
L 104.113874 -290.174996 
L 104.870223 -295.23697 
L 105.176151 -297.27372 
L 105.272954 -297.916761 
L 105.454674 -299.121911 
L 105.557813 -299.804732 
L 105.726721 -300.921053 
L 106.052748 -303.068697 
L 106.107885 -303.430939 
L 106.107885 -303.430939 
L 106.176644 -303.882273 
L 106.778566 -307.81314 
L 106.932992 -308.815454 
L 107.736683 -313.987004 
L 108.013704 -315.750815 
L 108.140759 -316.556347 
L 108.646894 -319.742806 
L 108.818384 -320.813968 
L 109.269671 -323.611194 
L 109.368954 -324.222241 
L 110.08407 -328.574607 
L 110.13288 -328.868432 
L 110.29829 -329.860978 
L 110.611034 -331.723828 
L 110.743188 -332.505463 
L 111.004639 -334.041888 
L 111.117467 -334.700774 
L 111.125344 -334.746677 
L 111.180481 -335.067649 
L 111.290755 -335.707752 
L 111.317125 -335.860454 
L 111.569151 -337.312664 
L 111.627703 -337.648154 
L 112.191927 -340.843434 
L 112.587671 -343.042598 
L 112.669178 -343.491098 
L 112.736418 -343.859936 
L 112.926483 -344.896796 
L 113.09589 -345.813742 
L 113.130727 -346.001456 
L 113.204794 -346.399572 
L 113.724914 -349.15736 
L 113.827053 -349.690978 
L 113.964443 -350.404571 
L 114.039724 -350.793515 
L 114.387612 -352.571732 
L 114.805896 -354.667176 
L 114.874655 -355.007093 
L 114.874655 -355.007093 
L 114.874655 -355.007093 
L 114.996415 -355.605841 
L 115.095202 -356.088603 
L 115.497431 -358.025988 
L 115.509928 -358.085448 
L 115.832772 -359.605882 
L 116.375273 -362.091946 
L 116.583899 -363.024519 
L 116.694173 -363.512095 
L 116.859584 -364.236452 
L 116.961981 -364.68062 
L 117.119287 -365.356595 
L 117.203328 -365.714556 
L 117.413664 -366.600661 
L 117.46157 -366.800511 
L 117.602094 -367.382496 
L 117.940629 -368.758354 
L 118.631842 -371.450386 
L 118.802934 -372.091993 
L 118.89965 -372.450277 
L 118.994557 -372.798756 
L 119.675505 -375.207613 
L 119.745082 -375.444605 
L 119.904769 -375.982039 
L 119.942943 -376.109177 
L 120.301703 -377.278512 
L 120.335921 -377.387625 
L 120.905695 -379.14188 
L 121.368558 -380.479008 
L 121.554098 -380.992572 
L 121.773097 -381.582086 
L 122.024857 -382.237366 
L 122.12618 -382.494283 
L 122.284663 -382.888264 
L 123.029789 -384.610844 
L 123.167545 -384.905665 
L 123.223959 -385.024257 
L 123.276142 -385.132843 
L 123.401895 -385.390121 
L 123.593519 -385.770184 
L 124.488455 -387.352125 
L 125.589596 -388.856682 
L 125.728751 -389.011758 
L 127.665516 -390.344384 
L 127.749525 -390.367148 
L 128.187157 -390.438455 
L 128.854099 -390.394481 
L 130.135328 -389.793445 
L 130.320868 -389.650253 
L 131.312348 -388.645731 
L 131.402172 -388.534891 
L 132.624658 -386.701916 
L 134.324428 -383.165636 
L 135.96229 -378.706934 
L 136.247238 -377.829324 
L 137.473439 -373.719933 
L 137.495086 -373.642629 
L 138.885863 -368.341945 
L 138.963527 -368.026984 
L 139.383904 -366.288382 
L 139.922569 -363.978651 
L 141.248021 -357.919346 
L 143.231367 -347.929064 
L 143.679756 -345.52985 
L 145.474856 -335.461052 
L 145.534397 -335.115234 
L 146.389187 -330.073843 
L 148.160984 -319.211395 
L 149.21117 -312.548438 
L 153.281456 -285.64971 
L 154.422528 -277.930398 
L 156.709066 -262.420216 
L 157.517955 -256.952674 
L 158.575675 -249.842448 
L 168.423033 -188.79126 
L 168.662441 -187.473684 
L 170.814996 -176.065824 
L 175.267959 -155.098476 
L 181.456267 -131.987191 
L 182.955337 -127.405666 
L 186.275126 -118.562369 
L 196.697841 -100.556705 
L 201.167175 -96.242049 
L 205.292714 -93.489174 
L 218.733236 -89.387038 
L 218.797407 -89.37819 
L 224.14618 -88.830006 
L 249.51763 -88.283452 
L 249.51763 -88.270617 
L 249.51763 -88.270617 
L 224.14618 -88.270617 
L 218.797407 -88.270617 
L 218.733236 -88.270617 
L 205.292714 -88.270617 
L 201.167175 -88.270617 
L 196.697841 -88.270617 
L 186.275126 -88.270617 
L 182.955337 -88.270617 
L 181.456267 -88.270617 
L 175.267959 -88.270617 
L 170.814996 -88.270617 
L 168.662441 -88.270617 
L 168.423033 -88.270617 
L 158.575675 -88.270617 
L 157.517955 -88.270617 
L 156.709066 -88.270617 
L 154.422528 -88.270617 
L 153.281456 -88.270617 
L 149.21117 -88.270617 
L 148.160984 -88.270617 
L 146.389187 -88.270617 
L 145.534397 -88.270617 
L 145.474856 -88.270617 
L 143.679756 -88.270617 
L 143.231367 -88.270617 
L 141.248021 -88.270617 
L 139.922569 -88.270617 
L 139.383904 -88.270617 
L 138.963527 -88.270617 
L 138.885863 -88.270617 
L 137.495086 -88.270617 
L 137.473439 -88.270617 
L 136.247238 -88.270617 
L 135.96229 -88.270617 
L 134.324428 -88.270617 
L 132.624658 -88.270617 
L 131.402172 -88.270617 
L 131.312348 -88.270617 
L 130.320868 -88.270617 
L 130.135328 -88.270617 
L 128.854099 -88.270617 
L 128.187157 -88.270617 
L 127.749525 -88.270617 
L 127.665516 -88.270617 
L 125.728751 -88.270617 
L 125.589596 -88.270617 
L 124.488455 -88.270617 
L 123.593519 -88.270617 
L 123.401895 -88.270617 
L 123.276142 -88.270617 
L 123.223959 -88.270617 
L 123.167545 -88.270617 
L 123.029789 -88.270617 
L 122.284663 -88.270617 
L 122.12618 -88.270617 
L 122.024857 -88.270617 
L 121.773097 -88.270617 
L 121.554098 -88.270617 
L 121.368558 -88.270617 
L 120.905695 -88.270617 
L 120.335921 -88.270617 
L 120.301703 -88.270617 
L 119.942943 -88.270617 
L 119.904769 -88.270617 
L 119.745082 -88.270617 
L 119.675505 -88.270617 
L 118.994557 -88.270617 
L 118.89965 -88.270617 
L 118.802934 -88.270617 
L 118.631842 -88.270617 
L 117.940629 -88.270617 
L 117.602094 -88.270617 
L 117.46157 -88.270617 
L 117.413664 -88.270617 
L 117.203328 -88.270617 
L 117.119287 -88.270617 
L 116.961981 -88.270617 
L 116.859584 -88.270617 
L 116.694173 -88.270617 
L 116.583899 -88.270617 
L 116.375273 -88.270617 
L 115.832772 -88.270617 
L 115.509928 -88.270617 
L 115.497431 -88.270617 
L 115.095202 -88.270617 
L 114.996415 -88.270617 
L 114.874655 -88.270617 
L 114.874655 -88.270617 
L 114.874655 -88.270617 
L 114.805896 -88.270617 
L 114.387612 -88.270617 
L 114.039724 -88.270617 
L 113.964443 -88.270617 
L 113.827053 -88.270617 
L 113.724914 -88.270617 
L 113.204794 -88.270617 
L 113.130727 -88.270617 
L 113.09589 -88.270617 
L 112.926483 -88.270617 
L 112.736418 -88.270617 
L 112.669178 -88.270617 
L 112.587671 -88.270617 
L 112.191927 -88.270617 
L 111.627703 -88.270617 
L 111.569151 -88.270617 
L 111.317125 -88.270617 
L 111.290755 -88.270617 
L 111.180481 -88.270617 
L 111.125344 -88.270617 
L 111.117467 -88.270617 
L 111.004639 -88.270617 
L 110.743188 -88.270617 
L 110.611034 -88.270617 
L 110.29829 -88.270617 
L 110.13288 -88.270617 
L 110.08407 -88.270617 
L 109.368954 -88.270617 
L 109.269671 -88.270617 
L 108.818384 -88.270617 
L 108.646894 -88.270617 
L 108.140759 -88.270617 
L 108.013704 -88.270617 
L 107.736683 -88.270617 
L 106.932992 -88.270617 
L 106.778566 -88.270617 
L 106.176644 -88.270617 
L 106.107885 -88.270617 
L 106.107885 -88.270617 
L 106.052748 -88.270617 
L 105.726721 -88.270617 
L 105.557813 -88.270617 
L 105.454674 -88.270617 
L 105.272954 -88.270617 
L 105.176151 -88.270617 
L 104.870223 -88.270617 
L 104.113874 -88.270617 
L 103.907597 -88.270617 
L 103.529423 -88.270617 
z
" id="me044a880d4" style="stroke:#00008b;stroke-opacity:0.2;"/>
    </defs>
    <g clip-path="url(#pcdf2eb6a2d)">
     <use style="fill:#00008b;fill-opacity:0.2;stroke:#00008b;stroke-opacity:0.2;" x="0" xlink:href="#me044a880d4" y="648"/>
    </g>
   </g>
   <g id="matplotlib.axis_3">
    <g id="xtick_1">
     <g id="line2d_8">
      <defs>
       <path d="M 0 0 
L 0 3.5 
" id="m55d7de6c3d" style="stroke:#000000;stroke-width:0.8;"/>
      </defs>
      <g>
       <use style="stroke:#000000;stroke-width:0.8;" x="103.185628" xlink:href="#m55d7de6c3d" y="567"/>
      </g>
     </g>
     <g id="text_3">
      <!-- 0 -->
      <defs>
       <path d="M 31.78125 66.40625 
Q 24.171875 66.40625 20.328125 58.90625 
Q 16.5 51.421875 16.5 36.375 
Q 16.5 21.390625 20.328125 13.890625 
Q 24.171875 6.390625 31.78125 6.390625 
Q 39.453125 6.390625 43.28125 13.890625 
Q 47.125 21.390625 47.125 36.375 
Q 47.125 51.421875 43.28125 58.90625 
Q 39.453125 66.40625 31.78125 66.40625 
z
M 31.78125 74.21875 
Q 44.046875 74.21875 50.515625 64.515625 
Q 56.984375 54.828125 56.984375 36.375 
Q 56.984375 17.96875 50.515625 8.265625 
Q 44.046875 -1.421875 31.78125 -1.421875 
Q 19.53125 -1.421875 13.0625 8.265625 
Q 6.59375 17.96875 6.59375 36.375 
Q 6.59375 54.828125 13.0625 64.515625 
Q 19.53125 74.21875 31.78125 74.21875 
z
" id="DejaVuSans-48"/>
      </defs>
      <g transform="translate(100.004378 581.598438)scale(0.1 -0.1)">
       <use xlink:href="#DejaVuSans-48"/>
      </g>
     </g>
    </g>
    <g id="xtick_2">
     <g id="line2d_9">
      <g>
       <use style="stroke:#000000;stroke-width:0.8;" x="161.630761" xlink:href="#m55d7de6c3d" y="567"/>
      </g>
     </g>
     <g id="text_4">
      <!-- 20 -->
      <defs>
       <path d="M 19.1875 8.296875 
L 53.609375 8.296875 
L 53.609375 0 
L 7.328125 0 
L 7.328125 8.296875 
Q 12.9375 14.109375 22.625 23.890625 
Q 32.328125 33.6875 34.8125 36.53125 
Q 39.546875 41.84375 41.421875 45.53125 
Q 43.3125 49.21875 43.3125 52.78125 
Q 43.3125 58.59375 39.234375 62.25 
Q 35.15625 65.921875 28.609375 65.921875 
Q 23.96875 65.921875 18.8125 64.3125 
Q 13.671875 62.703125 7.8125 59.421875 
L 7.8125 69.390625 
Q 13.765625 71.78125 18.9375 73 
Q 24.125 74.21875 28.421875 74.21875 
Q 39.75 74.21875 46.484375 68.546875 
Q 53.21875 62.890625 53.21875 53.421875 
Q 53.21875 48.921875 51.53125 44.890625 
Q 49.859375 40.875 45.40625 35.40625 
Q 44.1875 33.984375 37.640625 27.21875 
Q 31.109375 20.453125 19.1875 8.296875 
z
" id="DejaVuSans-50"/>
      </defs>
      <g transform="translate(155.268261 581.598438)scale(0.1 -0.1)">
       <use xlink:href="#DejaVuSans-50"/>
       <use x="63.623047" xlink:href="#DejaVuSans-48"/>
      </g>
     </g>
    </g>
    <g id="xtick_3">
     <g id="line2d_10">
      <g>
       <use style="stroke:#000000;stroke-width:0.8;" x="220.075894" xlink:href="#m55d7de6c3d" y="567"/>
      </g>
     </g>
     <g id="text_5">
      <!-- 40 -->
      <defs>
       <path d="M 37.796875 64.3125 
L 12.890625 25.390625 
L 37.796875 25.390625 
z
M 35.203125 72.90625 
L 47.609375 72.90625 
L 47.609375 25.390625 
L 58.015625 25.390625 
L 58.015625 17.1875 
L 47.609375 17.1875 
L 47.609375 0 
L 37.796875 0 
L 37.796875 17.1875 
L 4.890625 17.1875 
L 4.890625 26.703125 
z
" id="DejaVuSans-52"/>
      </defs>
      <g transform="translate(213.713394 581.598438)scale(0.1 -0.1)">
       <use xlink:href="#DejaVuSans-52"/>
       <use x="63.623047" xlink:href="#DejaVuSans-48"/>
      </g>
     </g>
    </g>
    <g id="xtick_4">
     <g id="line2d_11">
      <g>
       <use style="stroke:#000000;stroke-width:0.8;" x="278.521027" xlink:href="#m55d7de6c3d" y="567"/>
      </g>
     </g>
     <g id="text_6">
      <!-- 60 -->
      <defs>
       <path d="M 33.015625 40.375 
Q 26.375 40.375 22.484375 35.828125 
Q 18.609375 31.296875 18.609375 23.390625 
Q 18.609375 15.53125 22.484375 10.953125 
Q 26.375 6.390625 33.015625 6.390625 
Q 39.65625 6.390625 43.53125 10.953125 
Q 47.40625 15.53125 47.40625 23.390625 
Q 47.40625 31.296875 43.53125 35.828125 
Q 39.65625 40.375 33.015625 40.375 
z
M 52.59375 71.296875 
L 52.59375 62.3125 
Q 48.875 64.0625 45.09375 64.984375 
Q 41.3125 65.921875 37.59375 65.921875 
Q 27.828125 65.921875 22.671875 59.328125 
Q 17.53125 52.734375 16.796875 39.40625 
Q 19.671875 43.65625 24.015625 45.921875 
Q 28.375 48.1875 33.59375 48.1875 
Q 44.578125 48.1875 50.953125 41.515625 
Q 57.328125 34.859375 57.328125 23.390625 
Q 57.328125 12.15625 50.6875 5.359375 
Q 44.046875 -1.421875 33.015625 -1.421875 
Q 20.359375 -1.421875 13.671875 8.265625 
Q 6.984375 17.96875 6.984375 36.375 
Q 6.984375 53.65625 15.1875 63.9375 
Q 23.390625 74.21875 37.203125 74.21875 
Q 40.921875 74.21875 44.703125 73.484375 
Q 48.484375 72.75 52.59375 71.296875 
z
" id="DejaVuSans-54"/>
      </defs>
      <g transform="translate(272.158527 581.598438)scale(0.1 -0.1)">
       <use xlink:href="#DejaVuSans-54"/>
       <use x="63.623047" xlink:href="#DejaVuSans-48"/>
      </g>
     </g>
    </g>
    <g id="xtick_5">
     <g id="line2d_12">
      <g>
       <use style="stroke:#000000;stroke-width:0.8;" x="336.966161" xlink:href="#m55d7de6c3d" y="567"/>
      </g>
     </g>
     <g id="text_7">
      <!-- 80 -->
      <defs>
       <path d="M 31.78125 34.625 
Q 24.75 34.625 20.71875 30.859375 
Q 16.703125 27.09375 16.703125 20.515625 
Q 16.703125 13.921875 20.71875 10.15625 
Q 24.75 6.390625 31.78125 6.390625 
Q 38.8125 6.390625 42.859375 10.171875 
Q 46.921875 13.96875 46.921875 20.515625 
Q 46.921875 27.09375 42.890625 30.859375 
Q 38.875 34.625 31.78125 34.625 
z
M 21.921875 38.8125 
Q 15.578125 40.375 12.03125 44.71875 
Q 8.5 49.078125 8.5 55.328125 
Q 8.5 64.0625 14.71875 69.140625 
Q 20.953125 74.21875 31.78125 74.21875 
Q 42.671875 74.21875 48.875 69.140625 
Q 55.078125 64.0625 55.078125 55.328125 
Q 55.078125 49.078125 51.53125 44.71875 
Q 48 40.375 41.703125 38.8125 
Q 48.828125 37.15625 52.796875 32.3125 
Q 56.78125 27.484375 56.78125 20.515625 
Q 56.78125 9.90625 50.3125 4.234375 
Q 43.84375 -1.421875 31.78125 -1.421875 
Q 19.734375 -1.421875 13.25 4.234375 
Q 6.78125 9.90625 6.78125 20.515625 
Q 6.78125 27.484375 10.78125 32.3125 
Q 14.796875 37.15625 21.921875 38.8125 
z
M 18.3125 54.390625 
Q 18.3125 48.734375 21.84375 45.5625 
Q 25.390625 42.390625 31.78125 42.390625 
Q 38.140625 42.390625 41.71875 45.5625 
Q 45.3125 48.734375 45.3125 54.390625 
Q 45.3125 60.0625 41.71875 63.234375 
Q 38.140625 66.40625 31.78125 66.40625 
Q 25.390625 66.40625 21.84375 63.234375 
Q 18.3125 60.0625 18.3125 54.390625 
z
" id="DejaVuSans-56"/>
      </defs>
      <g transform="translate(330.603661 581.598438)scale(0.1 -0.1)">
       <use xlink:href="#DejaVuSans-56"/>
       <use x="63.623047" xlink:href="#DejaVuSans-48"/>
      </g>
     </g>
    </g>
    <g id="text_8">
     <!-- Pieces of trash per meter) -->
     <defs>
      <path d="M 9.421875 54.6875 
L 18.40625 54.6875 
L 18.40625 0 
L 9.421875 0 
z
M 9.421875 75.984375 
L 18.40625 75.984375 
L 18.40625 64.59375 
L 9.421875 64.59375 
z
" id="DejaVuSans-105"/>
      <path d="M 56.203125 29.59375 
L 56.203125 25.203125 
L 14.890625 25.203125 
Q 15.484375 15.921875 20.484375 11.0625 
Q 25.484375 6.203125 34.421875 6.203125 
Q 39.59375 6.203125 44.453125 7.46875 
Q 49.3125 8.734375 54.109375 11.28125 
L 54.109375 2.78125 
Q 49.265625 0.734375 44.1875 -0.34375 
Q 39.109375 -1.421875 33.890625 -1.421875 
Q 20.796875 -1.421875 13.15625 6.1875 
Q 5.515625 13.8125 5.515625 26.8125 
Q 5.515625 40.234375 12.765625 48.109375 
Q 20.015625 56 32.328125 56 
Q 43.359375 56 49.78125 48.890625 
Q 56.203125 41.796875 56.203125 29.59375 
z
M 47.21875 32.234375 
Q 47.125 39.59375 43.09375 43.984375 
Q 39.0625 48.390625 32.421875 48.390625 
Q 24.90625 48.390625 20.390625 44.140625 
Q 15.875 39.890625 15.1875 32.171875 
z
" id="DejaVuSans-101"/>
      <path d="M 41.109375 46.296875 
Q 39.59375 47.171875 37.8125 47.578125 
Q 36.03125 48 33.890625 48 
Q 26.265625 48 22.1875 43.046875 
Q 18.109375 38.09375 18.109375 28.8125 
L 18.109375 0 
L 9.078125 0 
L 9.078125 54.6875 
L 18.109375 54.6875 
L 18.109375 46.1875 
Q 20.953125 51.171875 25.484375 53.578125 
Q 30.03125 56 36.53125 56 
Q 37.453125 56 38.578125 55.875 
Q 39.703125 55.765625 41.0625 55.515625 
z
" id="DejaVuSans-114"/>
      <path d="M 34.28125 27.484375 
Q 23.390625 27.484375 19.1875 25 
Q 14.984375 22.515625 14.984375 16.5 
Q 14.984375 11.71875 18.140625 8.90625 
Q 21.296875 6.109375 26.703125 6.109375 
Q 34.1875 6.109375 38.703125 11.40625 
Q 43.21875 16.703125 43.21875 25.484375 
L 43.21875 27.484375 
z
M 52.203125 31.203125 
L 52.203125 0 
L 43.21875 0 
L 43.21875 8.296875 
Q 40.140625 3.328125 35.546875 0.953125 
Q 30.953125 -1.421875 24.3125 -1.421875 
Q 15.921875 -1.421875 10.953125 3.296875 
Q 6 8.015625 6 15.921875 
Q 6 25.140625 12.171875 29.828125 
Q 18.359375 34.515625 30.609375 34.515625 
L 43.21875 34.515625 
L 43.21875 35.40625 
Q 43.21875 41.609375 39.140625 45 
Q 35.0625 48.390625 27.6875 48.390625 
Q 23 48.390625 18.546875 47.265625 
Q 14.109375 46.140625 10.015625 43.890625 
L 10.015625 52.203125 
Q 14.9375 54.109375 19.578125 55.046875 
Q 24.21875 56 28.609375 56 
Q 40.484375 56 46.34375 49.84375 
Q 52.203125 43.703125 52.203125 31.203125 
z
" id="DejaVuSans-97"/>
      <path d="M 54.890625 33.015625 
L 54.890625 0 
L 45.90625 0 
L 45.90625 32.71875 
Q 45.90625 40.484375 42.875 44.328125 
Q 39.84375 48.1875 33.796875 48.1875 
Q 26.515625 48.1875 22.3125 43.546875 
Q 18.109375 38.921875 18.109375 30.90625 
L 18.109375 0 
L 9.078125 0 
L 9.078125 75.984375 
L 18.109375 75.984375 
L 18.109375 46.1875 
Q 21.34375 51.125 25.703125 53.5625 
Q 30.078125 56 35.796875 56 
Q 45.21875 56 50.046875 50.171875 
Q 54.890625 44.34375 54.890625 33.015625 
z
" id="DejaVuSans-104"/>
      <path d="M 8.015625 75.875 
L 15.828125 75.875 
Q 23.140625 64.359375 26.78125 53.3125 
Q 30.421875 42.28125 30.421875 31.390625 
Q 30.421875 20.453125 26.78125 9.375 
Q 23.140625 -1.703125 15.828125 -13.1875 
L 8.015625 -13.1875 
Q 14.5 -2 17.703125 9.0625 
Q 20.90625 20.125 20.90625 31.390625 
Q 20.90625 42.671875 17.703125 53.65625 
Q 14.5 64.65625 8.015625 75.875 
z
" id="DejaVuSans-41"/>
     </defs>
     <g transform="translate(125.490057 604.315938)scale(0.14 -0.14)">
      <use xlink:href="#DejaVuSans-80"/>
      <use x="60.271484" xlink:href="#DejaVuSans-105"/>
      <use x="88.054688" xlink:href="#DejaVuSans-101"/>
      <use x="149.578125" xlink:href="#DejaVuSans-99"/>
      <use x="204.558594" xlink:href="#DejaVuSans-101"/>
      <use x="266.082031" xlink:href="#DejaVuSans-115"/>
      <use x="318.181641" xlink:href="#DejaVuSans-32"/>
      <use x="349.96875" xlink:href="#DejaVuSans-111"/>
      <use x="411.150391" xlink:href="#DejaVuSans-102"/>
      <use x="446.355469" xlink:href="#DejaVuSans-32"/>
      <use x="478.142578" xlink:href="#DejaVuSans-116"/>
      <use x="517.351562" xlink:href="#DejaVuSans-114"/>
      <use x="558.464844" xlink:href="#DejaVuSans-97"/>
      <use x="619.744141" xlink:href="#DejaVuSans-115"/>
      <use x="671.84375" xlink:href="#DejaVuSans-104"/>
      <use x="735.222656" xlink:href="#DejaVuSans-32"/>
      <use x="767.009766" xlink:href="#DejaVuSans-112"/>
      <use x="830.486328" xlink:href="#DejaVuSans-101"/>
      <use x="892.009766" xlink:href="#DejaVuSans-114"/>
      <use x="933.123047" xlink:href="#DejaVuSans-32"/>
      <use x="964.910156" xlink:href="#DejaVuSans-109"/>
      <use x="1062.322266" xlink:href="#DejaVuSans-101"/>
      <use x="1123.845703" xlink:href="#DejaVuSans-116"/>
      <use x="1163.054688" xlink:href="#DejaVuSans-101"/>
      <use x="1224.578125" xlink:href="#DejaVuSans-114"/>
      <use x="1265.691406" xlink:href="#DejaVuSans-41"/>
     </g>
    </g>
   </g>
   <g id="matplotlib.axis_4">
    <g id="ytick_2">
     <g id="line2d_13">
      <g>
       <use style="stroke:#000000;stroke-width:0.8;" x="90" xlink:href="#m59d81a7b93" y="559.729383"/>
      </g>
     </g>
     <g id="text_9">
      <!-- 0.00 -->
      <defs>
       <path d="M 10.6875 12.40625 
L 21 12.40625 
L 21 0 
L 10.6875 0 
z
" id="DejaVuSans-46"/>
      </defs>
      <g transform="translate(60.734375 563.528602)scale(0.1 -0.1)">
       <use xlink:href="#DejaVuSans-48"/>
       <use x="63.623047" xlink:href="#DejaVuSans-46"/>
       <use x="95.410156" xlink:href="#DejaVuSans-48"/>
       <use x="159.033203" xlink:href="#DejaVuSans-48"/>
      </g>
     </g>
    </g>
    <g id="ytick_3">
     <g id="line2d_14">
      <g>
       <use style="stroke:#000000;stroke-width:0.8;" x="90" xlink:href="#m59d81a7b93" y="489.742219"/>
      </g>
     </g>
     <g id="text_10">
      <!-- 0.01 -->
      <g transform="translate(60.734375 493.541438)scale(0.1 -0.1)">
       <use xlink:href="#DejaVuSans-48"/>
       <use x="63.623047" xlink:href="#DejaVuSans-46"/>
       <use x="95.410156" xlink:href="#DejaVuSans-48"/>
       <use x="159.033203" xlink:href="#DejaVuSans-49"/>
      </g>
     </g>
    </g>
    <g id="ytick_4">
     <g id="line2d_15">
      <g>
       <use style="stroke:#000000;stroke-width:0.8;" x="90" xlink:href="#m59d81a7b93" y="419.755055"/>
      </g>
     </g>
     <g id="text_11">
      <!-- 0.02 -->
      <g transform="translate(60.734375 423.554274)scale(0.1 -0.1)">
       <use xlink:href="#DejaVuSans-48"/>
       <use x="63.623047" xlink:href="#DejaVuSans-46"/>
       <use x="95.410156" xlink:href="#DejaVuSans-48"/>
       <use x="159.033203" xlink:href="#DejaVuSans-50"/>
      </g>
     </g>
    </g>
    <g id="ytick_5">
     <g id="line2d_16">
      <g>
       <use style="stroke:#000000;stroke-width:0.8;" x="90" xlink:href="#m59d81a7b93" y="349.767892"/>
      </g>
     </g>
     <g id="text_12">
      <!-- 0.03 -->
      <defs>
       <path d="M 40.578125 39.3125 
Q 47.65625 37.796875 51.625 33 
Q 55.609375 28.21875 55.609375 21.1875 
Q 55.609375 10.40625 48.1875 4.484375 
Q 40.765625 -1.421875 27.09375 -1.421875 
Q 22.515625 -1.421875 17.65625 -0.515625 
Q 12.796875 0.390625 7.625 2.203125 
L 7.625 11.71875 
Q 11.71875 9.328125 16.59375 8.109375 
Q 21.484375 6.890625 26.8125 6.890625 
Q 36.078125 6.890625 40.9375 10.546875 
Q 45.796875 14.203125 45.796875 21.1875 
Q 45.796875 27.640625 41.28125 31.265625 
Q 36.765625 34.90625 28.71875 34.90625 
L 20.21875 34.90625 
L 20.21875 43.015625 
L 29.109375 43.015625 
Q 36.375 43.015625 40.234375 45.921875 
Q 44.09375 48.828125 44.09375 54.296875 
Q 44.09375 59.90625 40.109375 62.90625 
Q 36.140625 65.921875 28.71875 65.921875 
Q 24.65625 65.921875 20.015625 65.03125 
Q 15.375 64.15625 9.8125 62.3125 
L 9.8125 71.09375 
Q 15.4375 72.65625 20.34375 73.4375 
Q 25.25 74.21875 29.59375 74.21875 
Q 40.828125 74.21875 47.359375 69.109375 
Q 53.90625 64.015625 53.90625 55.328125 
Q 53.90625 49.265625 50.4375 45.09375 
Q 46.96875 40.921875 40.578125 39.3125 
z
" id="DejaVuSans-51"/>
      </defs>
      <g transform="translate(60.734375 353.567111)scale(0.1 -0.1)">
       <use xlink:href="#DejaVuSans-48"/>
       <use x="63.623047" xlink:href="#DejaVuSans-46"/>
       <use x="95.410156" xlink:href="#DejaVuSans-48"/>
       <use x="159.033203" xlink:href="#DejaVuSans-51"/>
      </g>
     </g>
    </g>
    <g id="ytick_6">
     <g id="line2d_17">
      <g>
       <use style="stroke:#000000;stroke-width:0.8;" x="90" xlink:href="#m59d81a7b93" y="279.780728"/>
      </g>
     </g>
     <g id="text_13">
      <!-- 0.04 -->
      <g transform="translate(60.734375 283.579947)scale(0.1 -0.1)">
       <use xlink:href="#DejaVuSans-48"/>
       <use x="63.623047" xlink:href="#DejaVuSans-46"/>
       <use x="95.410156" xlink:href="#DejaVuSans-48"/>
       <use x="159.033203" xlink:href="#DejaVuSans-52"/>
      </g>
     </g>
    </g>
    <g id="text_14">
     <!-- Probability of event -->
     <defs>
      <path d="M 48.6875 27.296875 
Q 48.6875 37.203125 44.609375 42.84375 
Q 40.53125 48.484375 33.40625 48.484375 
Q 26.265625 48.484375 22.1875 42.84375 
Q 18.109375 37.203125 18.109375 27.296875 
Q 18.109375 17.390625 22.1875 11.75 
Q 26.265625 6.109375 33.40625 6.109375 
Q 40.53125 6.109375 44.609375 11.75 
Q 48.6875 17.390625 48.6875 27.296875 
z
M 18.109375 46.390625 
Q 20.953125 51.265625 25.265625 53.625 
Q 29.59375 56 35.59375 56 
Q 45.5625 56 51.78125 48.09375 
Q 58.015625 40.1875 58.015625 27.296875 
Q 58.015625 14.40625 51.78125 6.484375 
Q 45.5625 -1.421875 35.59375 -1.421875 
Q 29.59375 -1.421875 25.265625 0.953125 
Q 20.953125 3.328125 18.109375 8.203125 
L 18.109375 0 
L 9.078125 0 
L 9.078125 75.984375 
L 18.109375 75.984375 
z
" id="DejaVuSans-98"/>
      <path d="M 32.171875 -5.078125 
Q 28.375 -14.84375 24.75 -17.8125 
Q 21.140625 -20.796875 15.09375 -20.796875 
L 7.90625 -20.796875 
L 7.90625 -13.28125 
L 13.1875 -13.28125 
Q 16.890625 -13.28125 18.9375 -11.515625 
Q 21 -9.765625 23.484375 -3.21875 
L 25.09375 0.875 
L 2.984375 54.6875 
L 12.5 54.6875 
L 29.59375 11.921875 
L 46.6875 54.6875 
L 56.203125 54.6875 
z
" id="DejaVuSans-121"/>
      <path d="M 2.984375 54.6875 
L 12.5 54.6875 
L 29.59375 8.796875 
L 46.6875 54.6875 
L 56.203125 54.6875 
L 35.6875 0 
L 23.484375 0 
z
" id="DejaVuSans-118"/>
      <path d="M 54.890625 33.015625 
L 54.890625 0 
L 45.90625 0 
L 45.90625 32.71875 
Q 45.90625 40.484375 42.875 44.328125 
Q 39.84375 48.1875 33.796875 48.1875 
Q 26.515625 48.1875 22.3125 43.546875 
Q 18.109375 38.921875 18.109375 30.90625 
L 18.109375 0 
L 9.078125 0 
L 9.078125 54.6875 
L 18.109375 54.6875 
L 18.109375 46.1875 
Q 21.34375 51.125 25.703125 53.5625 
Q 30.078125 56 35.796875 56 
Q 45.21875 56 50.046875 50.171875 
Q 54.890625 44.34375 54.890625 33.015625 
z
" id="DejaVuSans-110"/>
     </defs>
     <g transform="translate(47.822812 477.128346)rotate(-90)scale(0.14 -0.14)">
      <use xlink:href="#DejaVuSans-80"/>
      <use x="60.287109" xlink:href="#DejaVuSans-114"/>
      <use x="101.369141" xlink:href="#DejaVuSans-111"/>
      <use x="162.550781" xlink:href="#DejaVuSans-98"/>
      <use x="226.027344" xlink:href="#DejaVuSans-97"/>
      <use x="287.306641" xlink:href="#DejaVuSans-98"/>
      <use x="350.783203" xlink:href="#DejaVuSans-105"/>
      <use x="378.566406" xlink:href="#DejaVuSans-108"/>
      <use x="406.349609" xlink:href="#DejaVuSans-105"/>
      <use x="434.132812" xlink:href="#DejaVuSans-116"/>
      <use x="473.341797" xlink:href="#DejaVuSans-121"/>
      <use x="532.521484" xlink:href="#DejaVuSans-32"/>
      <use x="564.308594" xlink:href="#DejaVuSans-111"/>
      <use x="625.490234" xlink:href="#DejaVuSans-102"/>
      <use x="660.695312" xlink:href="#DejaVuSans-32"/>
      <use x="692.482422" xlink:href="#DejaVuSans-101"/>
      <use x="754.005859" xlink:href="#DejaVuSans-118"/>
      <use x="813.185547" xlink:href="#DejaVuSans-101"/>
      <use x="874.708984" xlink:href="#DejaVuSans-110"/>
      <use x="938.087891" xlink:href="#DejaVuSans-116"/>
     </g>
    </g>
   </g>
   <g id="line2d_18">
    <path clip-path="url(#pcdf2eb6a2d)" d="M 103.529423 361.757994 
L 108.140759 331.443653 
L 111.317125 312.139546 
L 113.827053 298.309022 
L 115.832772 288.394118 
L 117.940629 279.241646 
L 119.904769 272.017961 
L 121.368558 267.520992 
L 122.284663 265.111736 
L 123.593519 262.229816 
L 124.488455 260.647875 
L 125.728751 258.988242 
L 127.749525 257.632852 
L 128.187157 257.561545 
L 128.854099 257.605519 
L 130.320868 258.349747 
L 131.402172 259.465109 
L 132.624658 261.298084 
L 134.324428 264.834364 
L 136.247238 270.170676 
L 137.495086 274.357371 
L 139.922569 284.021349 
L 141.248021 290.080654 
L 143.679756 302.47015 
L 146.389187 317.926157 
L 149.21117 335.451562 
L 157.517955 391.047326 
L 158.575675 398.157552 
L 168.662441 460.526316 
L 170.814996 471.934176 
L 175.267959 492.901524 
L 181.456267 516.012809 
L 182.955337 520.594334 
L 186.275126 529.437631 
L 196.697841 547.443295 
L 201.167175 551.757951 
L 205.292714 554.510826 
L 218.797407 558.62181 
L 224.14618 559.169994 
L 249.51763 559.716548 
L 249.51763 559.716548 
" style="fill:none;stroke:#00008b;stroke-linecap:square;stroke-opacity:0.8;stroke-width:1.5;"/>
   </g>
   <g id="patch_9">
    <path d="M 90 567 
L 90 250.432941 
" style="fill:none;stroke:#000000;stroke-linecap:square;stroke-linejoin:miter;stroke-width:0.8;"/>
   </g>
   <g id="patch_10">
    <path d="M 343.636364 567 
L 343.636364 250.432941 
" style="fill:none;stroke:#000000;stroke-linecap:square;stroke-linejoin:miter;stroke-width:0.8;"/>
   </g>
   <g id="patch_11">
    <path d="M 90 567 
L 343.636364 567 
" style="fill:none;stroke:#000000;stroke-linecap:square;stroke-linejoin:miter;stroke-width:0.8;"/>
   </g>
   <g id="patch_12">
    <path d="M 90 250.432941 
L 343.636364 250.432941 
" style="fill:none;stroke:#000000;stroke-linecap:square;stroke-linejoin:miter;stroke-width:0.8;"/>
   </g>
   <g id="PathCollection_4">
    <g clip-path="url(#pcdf2eb6a2d)">
     <use style="fill:#ff00ff;stroke:#ffffff;" x="185.495857" xlink:href="#m1f842d1015" y="527.51675"/>
     <use style="fill:#ff00ff;stroke:#ffffff;" x="145.375708" xlink:href="#m1f842d1015" y="311.964679"/>
     <use style="fill:#ff00ff;stroke:#ffffff;" x="129.207628" xlink:href="#m1f842d1015" y="257.703558"/>
     <use style="fill:#ff00ff;stroke:#ffffff;" x="121.136633" xlink:href="#m1f842d1015" y="268.181039"/>
     <use style="fill:#ff00ff;stroke:#ffffff;" x="328.361738" xlink:href="#m1f842d1015" y="559.729383"/>
     <use style="fill:#ff00ff;stroke:#ffffff;" x="127.050724" xlink:href="#m1f842d1015" y="257.911096"/>
    </g>
   </g>
   <g id="PathCollection_5">
    <g clip-path="url(#pcdf2eb6a2d)">
     <use style="fill:#4b0082;stroke:#ffffff;" x="117.309868" xlink:href="#m02f25d18d6" y="281.834856"/>
     <use style="fill:#4b0082;stroke:#ffffff;" x="107.393678" xlink:href="#m02f25d18d6" y="336.210602"/>
    </g>
   </g>
   <g id="PathCollection_6">
    <g clip-path="url(#pcdf2eb6a2d)">
     <use style="fill:#ffdab9;stroke:#ffffff;" x="129.898281" xlink:href="#mb3ac44851c" y="258.044238"/>
    </g>
   </g>
   <g id="legend_1">
    <g id="patch_13">
     <path d="M 177.016051 317.145441 
L 336.636364 317.145441 
Q 338.636364 317.145441 338.636364 315.145441 
L 338.636364 257.432941 
Q 338.636364 255.432941 336.636364 255.432941 
L 177.016051 255.432941 
Q 175.016051 255.432941 175.016051 257.432941 
L 175.016051 315.145441 
Q 175.016051 317.145441 177.016051 317.145441 
z
" style="fill:#ffffff;opacity:0.8;stroke:#cccccc;stroke-linejoin:miter;"/>
    </g>
    <g id="line2d_19">
     <path d="M 179.016051 263.531379 
L 199.016051 263.531379 
" style="fill:none;stroke:#00008b;stroke-linecap:square;stroke-opacity:0.8;stroke-width:1.5;"/>
    </g>
    <g id="line2d_20"/>
    <g id="text_15">
     <!-- Combined PDF MCBP-SLR -->
     <defs>
      <path d="M 64.40625 67.28125 
L 64.40625 56.890625 
Q 59.421875 61.53125 53.78125 63.8125 
Q 48.140625 66.109375 41.796875 66.109375 
Q 29.296875 66.109375 22.65625 58.46875 
Q 16.015625 50.828125 16.015625 36.375 
Q 16.015625 21.96875 22.65625 14.328125 
Q 29.296875 6.6875 41.796875 6.6875 
Q 48.140625 6.6875 53.78125 8.984375 
Q 59.421875 11.28125 64.40625 15.921875 
L 64.40625 5.609375 
Q 59.234375 2.09375 53.4375 0.328125 
Q 47.65625 -1.421875 41.21875 -1.421875 
Q 24.65625 -1.421875 15.125 8.703125 
Q 5.609375 18.84375 5.609375 36.375 
Q 5.609375 53.953125 15.125 64.078125 
Q 24.65625 74.21875 41.21875 74.21875 
Q 47.75 74.21875 53.53125 72.484375 
Q 59.328125 70.75 64.40625 67.28125 
z
" id="DejaVuSans-67"/>
      <path d="M 45.40625 46.390625 
L 45.40625 75.984375 
L 54.390625 75.984375 
L 54.390625 0 
L 45.40625 0 
L 45.40625 8.203125 
Q 42.578125 3.328125 38.25 0.953125 
Q 33.9375 -1.421875 27.875 -1.421875 
Q 17.96875 -1.421875 11.734375 6.484375 
Q 5.515625 14.40625 5.515625 27.296875 
Q 5.515625 40.1875 11.734375 48.09375 
Q 17.96875 56 27.875 56 
Q 33.9375 56 38.25 53.625 
Q 42.578125 51.265625 45.40625 46.390625 
z
M 14.796875 27.296875 
Q 14.796875 17.390625 18.875 11.75 
Q 22.953125 6.109375 30.078125 6.109375 
Q 37.203125 6.109375 41.296875 11.75 
Q 45.40625 17.390625 45.40625 27.296875 
Q 45.40625 37.203125 41.296875 42.84375 
Q 37.203125 48.484375 30.078125 48.484375 
Q 22.953125 48.484375 18.875 42.84375 
Q 14.796875 37.203125 14.796875 27.296875 
z
" id="DejaVuSans-100"/>
      <path d="M 19.671875 64.796875 
L 19.671875 8.109375 
L 31.59375 8.109375 
Q 46.6875 8.109375 53.6875 14.9375 
Q 60.6875 21.78125 60.6875 36.53125 
Q 60.6875 51.171875 53.6875 57.984375 
Q 46.6875 64.796875 31.59375 64.796875 
z
M 9.8125 72.90625 
L 30.078125 72.90625 
Q 51.265625 72.90625 61.171875 64.09375 
Q 71.09375 55.28125 71.09375 36.53125 
Q 71.09375 17.671875 61.125 8.828125 
Q 51.171875 0 30.078125 0 
L 9.8125 0 
z
" id="DejaVuSans-68"/>
      <path d="M 9.8125 72.90625 
L 51.703125 72.90625 
L 51.703125 64.59375 
L 19.671875 64.59375 
L 19.671875 43.109375 
L 48.578125 43.109375 
L 48.578125 34.8125 
L 19.671875 34.8125 
L 19.671875 0 
L 9.8125 0 
z
" id="DejaVuSans-70"/>
      <path d="M 9.8125 72.90625 
L 24.515625 72.90625 
L 43.109375 23.296875 
L 61.8125 72.90625 
L 76.515625 72.90625 
L 76.515625 0 
L 66.890625 0 
L 66.890625 64.015625 
L 48.09375 14.015625 
L 38.1875 14.015625 
L 19.390625 64.015625 
L 19.390625 0 
L 9.8125 0 
z
" id="DejaVuSans-77"/>
      <path d="M 19.671875 34.8125 
L 19.671875 8.109375 
L 35.5 8.109375 
Q 43.453125 8.109375 47.28125 11.40625 
Q 51.125 14.703125 51.125 21.484375 
Q 51.125 28.328125 47.28125 31.5625 
Q 43.453125 34.8125 35.5 34.8125 
z
M 19.671875 64.796875 
L 19.671875 42.828125 
L 34.28125 42.828125 
Q 41.5 42.828125 45.03125 45.53125 
Q 48.578125 48.25 48.578125 53.8125 
Q 48.578125 59.328125 45.03125 62.0625 
Q 41.5 64.796875 34.28125 64.796875 
z
M 9.8125 72.90625 
L 35.015625 72.90625 
Q 46.296875 72.90625 52.390625 68.21875 
Q 58.5 63.53125 58.5 54.890625 
Q 58.5 48.1875 55.375 44.234375 
Q 52.25 40.28125 46.1875 39.3125 
Q 53.46875 37.75 57.5 32.78125 
Q 61.53125 27.828125 61.53125 20.40625 
Q 61.53125 10.640625 54.890625 5.3125 
Q 48.25 0 35.984375 0 
L 9.8125 0 
z
" id="DejaVuSans-66"/>
      <path d="M 4.890625 31.390625 
L 31.203125 31.390625 
L 31.203125 23.390625 
L 4.890625 23.390625 
z
" id="DejaVuSans-45"/>
      <path d="M 53.515625 70.515625 
L 53.515625 60.890625 
Q 47.90625 63.578125 42.921875 64.890625 
Q 37.9375 66.21875 33.296875 66.21875 
Q 25.25 66.21875 20.875 63.09375 
Q 16.5 59.96875 16.5 54.203125 
Q 16.5 49.359375 19.40625 46.890625 
Q 22.3125 44.4375 30.421875 42.921875 
L 36.375 41.703125 
Q 47.40625 39.59375 52.65625 34.296875 
Q 57.90625 29 57.90625 20.125 
Q 57.90625 9.515625 50.796875 4.046875 
Q 43.703125 -1.421875 29.984375 -1.421875 
Q 24.8125 -1.421875 18.96875 -0.25 
Q 13.140625 0.921875 6.890625 3.21875 
L 6.890625 13.375 
Q 12.890625 10.015625 18.65625 8.296875 
Q 24.421875 6.59375 29.984375 6.59375 
Q 38.421875 6.59375 43.015625 9.90625 
Q 47.609375 13.234375 47.609375 19.390625 
Q 47.609375 24.75 44.3125 27.78125 
Q 41.015625 30.8125 33.5 32.328125 
L 27.484375 33.5 
Q 16.453125 35.6875 11.515625 40.375 
Q 6.59375 45.0625 6.59375 53.421875 
Q 6.59375 63.09375 13.40625 68.65625 
Q 20.21875 74.21875 32.171875 74.21875 
Q 37.3125 74.21875 42.625 73.28125 
Q 47.953125 72.359375 53.515625 70.515625 
z
" id="DejaVuSans-83"/>
      <path d="M 9.8125 72.90625 
L 19.671875 72.90625 
L 19.671875 8.296875 
L 55.171875 8.296875 
L 55.171875 0 
L 9.8125 0 
z
" id="DejaVuSans-76"/>
      <path d="M 44.390625 34.1875 
Q 47.5625 33.109375 50.5625 29.59375 
Q 53.5625 26.078125 56.59375 19.921875 
L 66.609375 0 
L 56 0 
L 46.6875 18.703125 
Q 43.0625 26.03125 39.671875 28.421875 
Q 36.28125 30.8125 30.421875 30.8125 
L 19.671875 30.8125 
L 19.671875 0 
L 9.8125 0 
L 9.8125 72.90625 
L 32.078125 72.90625 
Q 44.578125 72.90625 50.734375 67.671875 
Q 56.890625 62.453125 56.890625 51.90625 
Q 56.890625 45.015625 53.6875 40.46875 
Q 50.484375 35.9375 44.390625 34.1875 
z
M 19.671875 64.796875 
L 19.671875 38.921875 
L 32.078125 38.921875 
Q 39.203125 38.921875 42.84375 42.21875 
Q 46.484375 45.515625 46.484375 51.90625 
Q 46.484375 58.296875 42.84375 61.546875 
Q 39.203125 64.796875 32.078125 64.796875 
z
" id="DejaVuSans-82"/>
     </defs>
     <g transform="translate(207.016051 267.031379)scale(0.1 -0.1)">
      <use xlink:href="#DejaVuSans-67"/>
      <use x="69.824219" xlink:href="#DejaVuSans-111"/>
      <use x="131.005859" xlink:href="#DejaVuSans-109"/>
      <use x="228.417969" xlink:href="#DejaVuSans-98"/>
      <use x="291.894531" xlink:href="#DejaVuSans-105"/>
      <use x="319.677734" xlink:href="#DejaVuSans-110"/>
      <use x="383.056641" xlink:href="#DejaVuSans-101"/>
      <use x="444.580078" xlink:href="#DejaVuSans-100"/>
      <use x="508.056641" xlink:href="#DejaVuSans-32"/>
      <use x="539.84375" xlink:href="#DejaVuSans-80"/>
      <use x="600.146484" xlink:href="#DejaVuSans-68"/>
      <use x="677.148438" xlink:href="#DejaVuSans-70"/>
      <use x="734.667969" xlink:href="#DejaVuSans-32"/>
      <use x="766.455078" xlink:href="#DejaVuSans-77"/>
      <use x="852.734375" xlink:href="#DejaVuSans-67"/>
      <use x="922.558594" xlink:href="#DejaVuSans-66"/>
      <use x="991.162109" xlink:href="#DejaVuSans-80"/>
      <use x="1051.433594" xlink:href="#DejaVuSans-45"/>
      <use x="1087.517578" xlink:href="#DejaVuSans-83"/>
      <use x="1150.994141" xlink:href="#DejaVuSans-76"/>
      <use x="1206.707031" xlink:href="#DejaVuSans-82"/>
     </g>
    </g>
    <g id="PathCollection_7">
     <g>
      <use style="fill:#ff00ff;stroke:#ffffff;" x="189.016051" xlink:href="#m1f842d1015" y="279.084504"/>
     </g>
    </g>
    <g id="text_16">
     <!-- SWE -->
     <defs>
      <path d="M 3.328125 72.90625 
L 13.28125 72.90625 
L 28.609375 11.28125 
L 43.890625 72.90625 
L 54.984375 72.90625 
L 70.3125 11.28125 
L 85.59375 72.90625 
L 95.609375 72.90625 
L 77.296875 0 
L 64.890625 0 
L 49.515625 63.28125 
L 33.984375 0 
L 21.578125 0 
z
" id="DejaVuSans-87"/>
      <path d="M 9.8125 72.90625 
L 55.90625 72.90625 
L 55.90625 64.59375 
L 19.671875 64.59375 
L 19.671875 43.015625 
L 54.390625 43.015625 
L 54.390625 34.71875 
L 19.671875 34.71875 
L 19.671875 8.296875 
L 56.78125 8.296875 
L 56.78125 0 
L 9.8125 0 
z
" id="DejaVuSans-69"/>
     </defs>
     <g transform="translate(207.016051 281.709504)scale(0.1 -0.1)">
      <use xlink:href="#DejaVuSans-83"/>
      <use x="63.476562" xlink:href="#DejaVuSans-87"/>
      <use x="162.353516" xlink:href="#DejaVuSans-69"/>
     </g>
    </g>
    <g id="PathCollection_8">
     <g>
      <use style="fill:#4b0082;stroke:#ffffff;" x="189.016051" xlink:href="#m02f25d18d6" y="293.762629"/>
     </g>
    </g>
    <g id="text_17">
     <!-- PC -->
     <g transform="translate(207.016051 296.387629)scale(0.1 -0.1)">
      <use xlink:href="#DejaVuSans-80"/>
      <use x="60.302734" xlink:href="#DejaVuSans-67"/>
     </g>
    </g>
    <g id="PathCollection_9">
     <g>
      <use style="fill:#ffdab9;stroke:#ffffff;" x="189.016051" xlink:href="#mb3ac44851c" y="308.440754"/>
     </g>
    </g>
    <g id="text_18">
     <!-- GIS -->
     <defs>
      <path d="M 59.515625 10.40625 
L 59.515625 29.984375 
L 43.40625 29.984375 
L 43.40625 38.09375 
L 69.28125 38.09375 
L 69.28125 6.78125 
Q 63.578125 2.734375 56.6875 0.65625 
Q 49.8125 -1.421875 42 -1.421875 
Q 24.90625 -1.421875 15.25 8.5625 
Q 5.609375 18.5625 5.609375 36.375 
Q 5.609375 54.25 15.25 64.234375 
Q 24.90625 74.21875 42 74.21875 
Q 49.125 74.21875 55.546875 72.453125 
Q 61.96875 70.703125 67.390625 67.28125 
L 67.390625 56.78125 
Q 61.921875 61.421875 55.765625 63.765625 
Q 49.609375 66.109375 42.828125 66.109375 
Q 29.4375 66.109375 22.71875 58.640625 
Q 16.015625 51.171875 16.015625 36.375 
Q 16.015625 21.625 22.71875 14.15625 
Q 29.4375 6.6875 42.828125 6.6875 
Q 48.046875 6.6875 52.140625 7.59375 
Q 56.25 8.5 59.515625 10.40625 
z
" id="DejaVuSans-71"/>
      <path d="M 9.8125 72.90625 
L 19.671875 72.90625 
L 19.671875 0 
L 9.8125 0 
z
" id="DejaVuSans-73"/>
     </defs>
     <g transform="translate(207.016051 311.065754)scale(0.1 -0.1)">
      <use xlink:href="#DejaVuSans-71"/>
      <use x="77.490234" xlink:href="#DejaVuSans-73"/>
      <use x="106.982422" xlink:href="#DejaVuSans-83"/>
     </g>
    </g>
   </g>
  </g>
  <g id="axes_3">
   <g id="patch_14">
    <path d="M 394.363636 221.654118 
L 648 221.654118 
L 648 77.76 
L 394.363636 77.76 
z
" style="fill:#ffffff;"/>
   </g>
   <g id="line2d_21">
    <path clip-path="url(#pef9bc14c20)" d="M 518.172092 149.707059 
L 461.080557 149.707059 
" style="fill:none;stroke:#008b8b;stroke-linecap:square;"/>
   </g>
   <g id="line2d_22">
    <path clip-path="url(#pef9bc14c20)" d="M 563.264308 149.707059 
L 616.110273 149.707059 
" style="fill:none;stroke:#008b8b;stroke-linecap:square;"/>
   </g>
   <g id="line2d_23">
    <path clip-path="url(#pef9bc14c20)" d="M 461.080557 178.485882 
L 461.080557 120.928235 
" style="fill:none;stroke:#008b8b;stroke-linecap:square;"/>
   </g>
   <g id="line2d_24">
    <path clip-path="url(#pef9bc14c20)" d="M 616.110273 178.485882 
L 616.110273 120.928235 
" style="fill:none;stroke:#008b8b;stroke-linecap:square;"/>
   </g>
   <g id="line2d_25">
    <g clip-path="url(#pef9bc14c20)">
     <use style="fill:#00008b;fill-opacity:0.4;stroke:#ffffff;stroke-opacity:0.4;" x="405.892562" xlink:href="#m6f22507ecf" y="149.707059"/>
     <use style="fill:#00008b;fill-opacity:0.4;stroke:#ffffff;stroke-opacity:0.4;" x="431.657178" xlink:href="#m6f22507ecf" y="149.707059"/>
     <use style="fill:#00008b;fill-opacity:0.4;stroke:#ffffff;stroke-opacity:0.4;" x="440.384356" xlink:href="#m6f22507ecf" y="149.707059"/>
    </g>
   </g>
   <g id="patch_15">
    <path clip-path="url(#pef9bc14c20)" d="M 518.172092 207.264706 
L 518.172092 92.149412 
L 563.264308 92.149412 
L 563.264308 207.264706 
L 518.172092 207.264706 
z
" style="fill:#00008b;opacity:0.4;stroke:#000000;stroke-linejoin:miter;stroke-width:2;"/>
   </g>
   <g id="line2d_26">
    <path clip-path="url(#pef9bc14c20)" d="M 538.410604 207.264706 
L 538.410604 92.149412 
" style="fill:none;stroke:#008b8b;stroke-linecap:square;"/>
   </g>
   <g id="matplotlib.axis_5"/>
   <g id="matplotlib.axis_6">
    <g id="ytick_7">
     <g id="line2d_27">
      <g>
       <use style="stroke:#000000;stroke-width:0.8;" x="394.363636" xlink:href="#m59d81a7b93" y="149.707059"/>
      </g>
     </g>
     <g id="text_19">
      <!-- 1 -->
      <g transform="translate(381.001136 153.506278)scale(0.1 -0.1)">
       <use xlink:href="#DejaVuSans-49"/>
      </g>
     </g>
    </g>
   </g>
   <g id="patch_16">
    <path d="M 394.363636 221.654118 
L 394.363636 77.76 
" style="fill:none;stroke:#000000;stroke-linecap:square;stroke-linejoin:miter;stroke-width:0.8;"/>
   </g>
   <g id="patch_17">
    <path d="M 648 221.654118 
L 648 77.76 
" style="fill:none;stroke:#000000;stroke-linecap:square;stroke-linejoin:miter;stroke-width:0.8;"/>
   </g>
   <g id="patch_18">
    <path d="M 394.363636 221.654118 
L 648 221.654118 
" style="fill:none;stroke:#000000;stroke-linecap:square;stroke-linejoin:miter;stroke-width:0.8;"/>
   </g>
   <g id="patch_19">
    <path d="M 394.363636 77.76 
L 648 77.76 
" style="fill:none;stroke:#000000;stroke-linecap:square;stroke-linejoin:miter;stroke-width:0.8;"/>
   </g>
   <g id="PathCollection_10">
    <g clip-path="url(#pef9bc14c20)">
     <use style="fill:#ff00ff;stroke:#ffffff;" x="596.129458" xlink:href="#m1f842d1015" y="149.707059"/>
     <use style="fill:#ff00ff;stroke:#ffffff;" x="572.921627" xlink:href="#m1f842d1015" y="149.707059"/>
     <use style="fill:#ff00ff;stroke:#ffffff;" x="556.140472" xlink:href="#m1f842d1015" y="149.707059"/>
     <use style="fill:#ff00ff;stroke:#ffffff;" x="543.24679" xlink:href="#m1f842d1015" y="149.707059"/>
     <use style="fill:#ff00ff;stroke:#ffffff;" x="631.077403" xlink:href="#m1f842d1015" y="149.707059"/>
     <use style="fill:#ff00ff;stroke:#ffffff;" x="553.135781" xlink:href="#m1f842d1015" y="149.707059"/>
    </g>
   </g>
   <g id="PathCollection_11">
    <g clip-path="url(#pef9bc14c20)">
     <use style="fill:#4b0082;stroke:#ffffff;" x="534.921074" xlink:href="#m02f25d18d6" y="149.707059"/>
     <use style="fill:#4b0082;stroke:#ffffff;" x="492.871433" xlink:href="#m02f25d18d6" y="149.707059"/>
    </g>
   </g>
   <g id="PathCollection_12">
    <g clip-path="url(#pef9bc14c20)">
     <use style="fill:#ffdab9;stroke:#ffffff;" x="557.050124" xlink:href="#mb3ac44851c" y="149.707059"/>
    </g>
   </g>
   <g id="text_20">
    <!-- Plot of Log(pcs/m) -->
    <defs>
     <path d="M 45.40625 27.984375 
Q 45.40625 37.75 41.375 43.109375 
Q 37.359375 48.484375 30.078125 48.484375 
Q 22.859375 48.484375 18.828125 43.109375 
Q 14.796875 37.75 14.796875 27.984375 
Q 14.796875 18.265625 18.828125 12.890625 
Q 22.859375 7.515625 30.078125 7.515625 
Q 37.359375 7.515625 41.375 12.890625 
Q 45.40625 18.265625 45.40625 27.984375 
z
M 54.390625 6.78125 
Q 54.390625 -7.171875 48.1875 -13.984375 
Q 42 -20.796875 29.203125 -20.796875 
Q 24.46875 -20.796875 20.265625 -20.09375 
Q 16.0625 -19.390625 12.109375 -17.921875 
L 12.109375 -9.1875 
Q 16.0625 -11.328125 19.921875 -12.34375 
Q 23.78125 -13.375 27.78125 -13.375 
Q 36.625 -13.375 41.015625 -8.765625 
Q 45.40625 -4.15625 45.40625 5.171875 
L 45.40625 9.625 
Q 42.625 4.78125 38.28125 2.390625 
Q 33.9375 0 27.875 0 
Q 17.828125 0 11.671875 7.65625 
Q 5.515625 15.328125 5.515625 27.984375 
Q 5.515625 40.671875 11.671875 48.328125 
Q 17.828125 56 27.875 56 
Q 33.9375 56 38.28125 53.609375 
Q 42.625 51.21875 45.40625 46.390625 
L 45.40625 54.6875 
L 54.390625 54.6875 
z
" id="DejaVuSans-103"/>
     <path d="M 31 75.875 
Q 24.46875 64.65625 21.28125 53.65625 
Q 18.109375 42.671875 18.109375 31.390625 
Q 18.109375 20.125 21.3125 9.0625 
Q 24.515625 -2 31 -13.1875 
L 23.1875 -13.1875 
Q 15.875 -1.703125 12.234375 9.375 
Q 8.59375 20.453125 8.59375 31.390625 
Q 8.59375 42.28125 12.203125 53.3125 
Q 15.828125 64.359375 23.1875 75.875 
z
" id="DejaVuSans-40"/>
    </defs>
    <g transform="translate(457.587912 71.76)scale(0.14 -0.14)">
     <use xlink:href="#DejaVuSans-80"/>
     <use x="60.302734" xlink:href="#DejaVuSans-108"/>
     <use x="88.085938" xlink:href="#DejaVuSans-111"/>
     <use x="149.267578" xlink:href="#DejaVuSans-116"/>
     <use x="188.476562" xlink:href="#DejaVuSans-32"/>
     <use x="220.263672" xlink:href="#DejaVuSans-111"/>
     <use x="281.445312" xlink:href="#DejaVuSans-102"/>
     <use x="316.650391" xlink:href="#DejaVuSans-32"/>
     <use x="348.4375" xlink:href="#DejaVuSans-76"/>
     <use x="404.134766" xlink:href="#DejaVuSans-111"/>
     <use x="465.316406" xlink:href="#DejaVuSans-103"/>
     <use x="528.792969" xlink:href="#DejaVuSans-40"/>
     <use x="567.806641" xlink:href="#DejaVuSans-112"/>
     <use x="631.283203" xlink:href="#DejaVuSans-99"/>
     <use x="686.263672" xlink:href="#DejaVuSans-115"/>
     <use x="738.363281" xlink:href="#DejaVuSans-47"/>
     <use x="772.054688" xlink:href="#DejaVuSans-109"/>
     <use x="869.466797" xlink:href="#DejaVuSans-41"/>
    </g>
   </g>
  </g>
  <g id="axes_4">
   <g id="patch_20">
    <path d="M 394.363636 567 
L 648 567 
L 648 250.432941 
L 394.363636 250.432941 
z
" style="fill:#ffffff;"/>
   </g>
   <g id="PolyCollection_2">
    <defs>
     <path d="M 405.892562 -95.389412 
L 405.892562 -95.879119 
L 431.657178 -99.998045 
L 440.384356 -104.211468 
L 461.080557 -128.321588 
L 466.875378 -140.410403 
L 468.524407 -144.379569 
L 471.423196 -151.950611 
L 472.966834 -156.295905 
L 475.355395 -163.452552 
L 479.547317 -177.27502 
L 480.208787 -179.600281 
L 480.208787 -179.600281 
L 481.016408 -182.491221 
L 487.383701 -207.164423 
L 488.845059 -213.255273 
L 495.592569 -242.956729 
L 497.644499 -252.354849 
L 498.546527 -256.5164 
L 501.923892 -272.165364 
L 502.997556 -277.133945 
L 505.67392 -289.42244 
L 506.236029 -291.976218 
L 510.036433 -308.848831 
L 510.281272 -309.906516 
L 511.098395 -313.405326 
L 512.592687 -319.668531 
L 513.205292 -322.180874 
L 514.386315 -326.924653 
L 514.883833 -328.881294 
L 514.918301 -329.015893 
L 515.158621 -329.95086 
L 515.634329 -331.78321 
L 515.747126 -332.214033 
L 516.80708 -336.19156 
L 517.048769 -337.080018 
L 519.295416 -344.986554 
L 520.788736 -349.864336 
L 521.088481 -350.804654 
L 521.333827 -351.564377 
L 522.018108 -353.635169 
L 522.616849 -355.387786 
L 522.738708 -355.737582 
L 522.996374 -356.469428 
L 524.753863 -361.171991 
L 525.088783 -362.009381 
L 525.534259 -363.093253 
L 525.775948 -363.666848 
L 526.8715 -366.137284 
L 528.144556 -368.735041 
L 528.349431 -369.125117 
L 528.349431 -369.125117 
L 528.349431 -369.125117 
L 528.70929 -369.791237 
L 528.998536 -370.308949 
L 530.15199 -372.214726 
L 530.187221 -372.268904 
L 531.085186 -373.568121 
L 532.543707 -375.339353 
L 533.088686 -375.892062 
L 533.373328 -376.156932 
L 533.795964 -376.519944 
L 534.055041 -376.724535 
L 534.449315 -377.00965 
L 534.658138 -377.147801 
L 535.175336 -377.451525 
L 535.292062 -377.512484 
L 535.632214 -377.674162 
L 536.438243 -377.962177 
L 538.02807 -378.137071 
L 538.410604 -378.101166 
L 538.624995 -378.067818 
L 538.834099 -378.026145 
L 540.29856 -377.481556 
L 540.444776 -377.402956 
L 540.778043 -377.207419 
L 540.857243 -377.157604 
L 541.592852 -376.633706 
L 541.662207 -376.578622 
L 542.797142 -375.538712 
L 543.692574 -374.535345 
L 544.045127 -374.096443 
L 544.456701 -373.55295 
L 544.923897 -372.895629 
L 545.110164 -372.621655 
L 545.399521 -372.182659 
L 546.728561 -369.959205 
L 546.968793 -369.521424 
L 547.066696 -369.339897 
L 547.157011 -369.170844 
L 547.373695 -368.759028 
L 547.701303 -368.119792 
L 549.191685 -364.963341 
L 550.941822 -360.752529 
L 551.156845 -360.198827 
L 554.019037 -352.1095 
L 554.138004 -351.745422 
L 554.751241 -349.835122 
L 555.665456 -346.885201 
L 557.356923 -341.120861 
L 557.595182 -340.278414 
L 558.841391 -335.75621 
L 558.952113 -335.345305 
L 560.424948 -329.745825 
L 562.374241 -321.981991 
L 564.154376 -314.584084 
L 564.454966 -313.309101 
L 565.719593 -307.871954 
L 565.741509 -307.776743 
L 567.121395 -301.721242 
L 567.196858 -301.386835 
L 567.602498 -299.583955 
L 568.115449 -297.291921 
L 569.346279 -291.742394 
L 571.110213 -283.690063 
L 571.496877 -281.912831 
L 573.003138 -274.960774 
L 573.051996 -274.734685 
L 573.745947 -271.520774 
L 575.141653 -265.049139 
L 575.943195 -261.333702 
L 578.885931 -247.762192 
L 579.668041 -244.187194 
L 581.184172 -237.313224 
L 581.705056 -234.971481 
L 582.374594 -231.978284 
L 588.056938 -207.535714 
L 588.184143 -207.011642 
L 589.307403 -202.433925 
L 591.521771 -193.686083 
L 594.381941 -182.970491 
L 595.04074 -180.600433 
L 596.45668 -175.635104 
L 600.560397 -162.263268 
L 602.18166 -157.405804 
L 603.613869 -153.316425 
L 607.90812 -142.17901 
L 607.9274 -142.132754 
L 609.497947 -138.475047 
L 616.110273 -125.363973 
L 616.110273 -95.389412 
L 616.110273 -95.389412 
L 609.497947 -95.389412 
L 607.9274 -95.389412 
L 607.90812 -95.389412 
L 603.613869 -95.389412 
L 602.18166 -95.389412 
L 600.560397 -95.389412 
L 596.45668 -95.389412 
L 595.04074 -95.389412 
L 594.381941 -95.389412 
L 591.521771 -95.389412 
L 589.307403 -95.389412 
L 588.184143 -95.389412 
L 588.056938 -95.389412 
L 582.374594 -95.389412 
L 581.705056 -95.389412 
L 581.184172 -95.389412 
L 579.668041 -95.389412 
L 578.885931 -95.389412 
L 575.943195 -95.389412 
L 575.141653 -95.389412 
L 573.745947 -95.389412 
L 573.051996 -95.389412 
L 573.003138 -95.389412 
L 571.496877 -95.389412 
L 571.110213 -95.389412 
L 569.346279 -95.389412 
L 568.115449 -95.389412 
L 567.602498 -95.389412 
L 567.196858 -95.389412 
L 567.121395 -95.389412 
L 565.741509 -95.389412 
L 565.719593 -95.389412 
L 564.454966 -95.389412 
L 564.154376 -95.389412 
L 562.374241 -95.389412 
L 560.424948 -95.389412 
L 558.952113 -95.389412 
L 558.841391 -95.389412 
L 557.595182 -95.389412 
L 557.356923 -95.389412 
L 555.665456 -95.389412 
L 554.751241 -95.389412 
L 554.138004 -95.389412 
L 554.019037 -95.389412 
L 551.156845 -95.389412 
L 550.941822 -95.389412 
L 549.191685 -95.389412 
L 547.701303 -95.389412 
L 547.373695 -95.389412 
L 547.157011 -95.389412 
L 547.066696 -95.389412 
L 546.968793 -95.389412 
L 546.728561 -95.389412 
L 545.399521 -95.389412 
L 545.110164 -95.389412 
L 544.923897 -95.389412 
L 544.456701 -95.389412 
L 544.045127 -95.389412 
L 543.692574 -95.389412 
L 542.797142 -95.389412 
L 541.662207 -95.389412 
L 541.592852 -95.389412 
L 540.857243 -95.389412 
L 540.778043 -95.389412 
L 540.444776 -95.389412 
L 540.29856 -95.389412 
L 538.834099 -95.389412 
L 538.624995 -95.389412 
L 538.410604 -95.389412 
L 538.02807 -95.389412 
L 536.438243 -95.389412 
L 535.632214 -95.389412 
L 535.292062 -95.389412 
L 535.175336 -95.389412 
L 534.658138 -95.389412 
L 534.449315 -95.389412 
L 534.055041 -95.389412 
L 533.795964 -95.389412 
L 533.373328 -95.389412 
L 533.088686 -95.389412 
L 532.543707 -95.389412 
L 531.085186 -95.389412 
L 530.187221 -95.389412 
L 530.15199 -95.389412 
L 528.998536 -95.389412 
L 528.70929 -95.389412 
L 528.349431 -95.389412 
L 528.349431 -95.389412 
L 528.349431 -95.389412 
L 528.144556 -95.389412 
L 526.8715 -95.389412 
L 525.775948 -95.389412 
L 525.534259 -95.389412 
L 525.088783 -95.389412 
L 524.753863 -95.389412 
L 522.996374 -95.389412 
L 522.738708 -95.389412 
L 522.616849 -95.389412 
L 522.018108 -95.389412 
L 521.333827 -95.389412 
L 521.088481 -95.389412 
L 520.788736 -95.389412 
L 519.295416 -95.389412 
L 517.048769 -95.389412 
L 516.80708 -95.389412 
L 515.747126 -95.389412 
L 515.634329 -95.389412 
L 515.158621 -95.389412 
L 514.918301 -95.389412 
L 514.883833 -95.389412 
L 514.386315 -95.389412 
L 513.205292 -95.389412 
L 512.592687 -95.389412 
L 511.098395 -95.389412 
L 510.281272 -95.389412 
L 510.036433 -95.389412 
L 506.236029 -95.389412 
L 505.67392 -95.389412 
L 502.997556 -95.389412 
L 501.923892 -95.389412 
L 498.546527 -95.389412 
L 497.644499 -95.389412 
L 495.592569 -95.389412 
L 488.845059 -95.389412 
L 487.383701 -95.389412 
L 481.016408 -95.389412 
L 480.208787 -95.389412 
L 480.208787 -95.389412 
L 479.547317 -95.389412 
L 475.355395 -95.389412 
L 472.966834 -95.389412 
L 471.423196 -95.389412 
L 468.524407 -95.389412 
L 466.875378 -95.389412 
L 461.080557 -95.389412 
L 440.384356 -95.389412 
L 431.657178 -95.389412 
L 405.892562 -95.389412 
z
" id="me14a169fdd" style="stroke:#00008b;stroke-opacity:0.2;"/>
    </defs>
    <g clip-path="url(#p5a0372e54e)">
     <use style="fill:#00008b;fill-opacity:0.2;stroke:#00008b;stroke-opacity:0.2;" x="0" xlink:href="#me14a169fdd" y="648"/>
    </g>
   </g>
   <g id="matplotlib.axis_7">
    <g id="xtick_6">
     <g id="line2d_28">
      <g>
       <use style="stroke:#000000;stroke-width:0.8;" x="410.756518" xlink:href="#m55d7de6c3d" y="567"/>
      </g>
     </g>
     <g id="text_21">
      <!-- 2 -->
      <defs>
       <path d="M 10.59375 35.5 
L 73.1875 35.5 
L 73.1875 27.203125 
L 10.59375 27.203125 
z
" id="DejaVuSans-8722"/>
      </defs>
      <g transform="translate(403.385425 581.598438)scale(0.1 -0.1)">
       <use xlink:href="#DejaVuSans-8722"/>
       <use x="83.789062" xlink:href="#DejaVuSans-50"/>
      </g>
     </g>
    </g>
    <g id="xtick_7">
     <g id="line2d_29">
      <g>
       <use style="stroke:#000000;stroke-width:0.8;" x="445.482653" xlink:href="#m55d7de6c3d" y="567"/>
      </g>
     </g>
     <g id="text_22">
      <!-- 1 -->
      <g transform="translate(438.111559 581.598438)scale(0.1 -0.1)">
       <use xlink:href="#DejaVuSans-8722"/>
       <use x="83.789062" xlink:href="#DejaVuSans-49"/>
      </g>
     </g>
    </g>
    <g id="xtick_8">
     <g id="line2d_30">
      <g>
       <use style="stroke:#000000;stroke-width:0.8;" x="480.208787" xlink:href="#m55d7de6c3d" y="567"/>
      </g>
     </g>
     <g id="text_23">
      <!-- 0 -->
      <g transform="translate(477.027537 581.598438)scale(0.1 -0.1)">
       <use xlink:href="#DejaVuSans-48"/>
      </g>
     </g>
    </g>
    <g id="xtick_9">
     <g id="line2d_31">
      <g>
       <use style="stroke:#000000;stroke-width:0.8;" x="514.934921" xlink:href="#m55d7de6c3d" y="567"/>
      </g>
     </g>
     <g id="text_24">
      <!-- 1 -->
      <g transform="translate(511.753671 581.598438)scale(0.1 -0.1)">
       <use xlink:href="#DejaVuSans-49"/>
      </g>
     </g>
    </g>
    <g id="xtick_10">
     <g id="line2d_32">
      <g>
       <use style="stroke:#000000;stroke-width:0.8;" x="549.661055" xlink:href="#m55d7de6c3d" y="567"/>
      </g>
     </g>
     <g id="text_25">
      <!-- 2 -->
      <g transform="translate(546.479805 581.598438)scale(0.1 -0.1)">
       <use xlink:href="#DejaVuSans-50"/>
      </g>
     </g>
    </g>
    <g id="xtick_11">
     <g id="line2d_33">
      <g>
       <use style="stroke:#000000;stroke-width:0.8;" x="584.38719" xlink:href="#m55d7de6c3d" y="567"/>
      </g>
     </g>
     <g id="text_26">
      <!-- 3 -->
      <g transform="translate(581.20594 581.598438)scale(0.1 -0.1)">
       <use xlink:href="#DejaVuSans-51"/>
      </g>
     </g>
    </g>
    <g id="xtick_12">
     <g id="line2d_34">
      <g>
       <use style="stroke:#000000;stroke-width:0.8;" x="619.113324" xlink:href="#m55d7de6c3d" y="567"/>
      </g>
     </g>
     <g id="text_27">
      <!-- 4 -->
      <g transform="translate(615.932074 581.598438)scale(0.1 -0.1)">
       <use xlink:href="#DejaVuSans-52"/>
      </g>
     </g>
    </g>
    <g id="text_28">
     <!-- Log(pieces of trash per meter) -->
     <g transform="translate(414.271037 604.315938)scale(0.14 -0.14)">
      <use xlink:href="#DejaVuSans-76"/>
      <use x="55.697266" xlink:href="#DejaVuSans-111"/>
      <use x="116.878906" xlink:href="#DejaVuSans-103"/>
      <use x="180.355469" xlink:href="#DejaVuSans-40"/>
      <use x="219.369141" xlink:href="#DejaVuSans-112"/>
      <use x="282.845703" xlink:href="#DejaVuSans-105"/>
      <use x="310.628906" xlink:href="#DejaVuSans-101"/>
      <use x="372.152344" xlink:href="#DejaVuSans-99"/>
      <use x="427.132812" xlink:href="#DejaVuSans-101"/>
      <use x="488.65625" xlink:href="#DejaVuSans-115"/>
      <use x="540.755859" xlink:href="#DejaVuSans-32"/>
      <use x="572.542969" xlink:href="#DejaVuSans-111"/>
      <use x="633.724609" xlink:href="#DejaVuSans-102"/>
      <use x="668.929688" xlink:href="#DejaVuSans-32"/>
      <use x="700.716797" xlink:href="#DejaVuSans-116"/>
      <use x="739.925781" xlink:href="#DejaVuSans-114"/>
      <use x="781.039062" xlink:href="#DejaVuSans-97"/>
      <use x="842.318359" xlink:href="#DejaVuSans-115"/>
      <use x="894.417969" xlink:href="#DejaVuSans-104"/>
      <use x="957.796875" xlink:href="#DejaVuSans-32"/>
      <use x="989.583984" xlink:href="#DejaVuSans-112"/>
      <use x="1053.060547" xlink:href="#DejaVuSans-101"/>
      <use x="1114.583984" xlink:href="#DejaVuSans-114"/>
      <use x="1155.697266" xlink:href="#DejaVuSans-32"/>
      <use x="1187.484375" xlink:href="#DejaVuSans-109"/>
      <use x="1284.896484" xlink:href="#DejaVuSans-101"/>
      <use x="1346.419922" xlink:href="#DejaVuSans-116"/>
      <use x="1385.628906" xlink:href="#DejaVuSans-101"/>
      <use x="1447.152344" xlink:href="#DejaVuSans-114"/>
      <use x="1488.265625" xlink:href="#DejaVuSans-41"/>
     </g>
    </g>
   </g>
   <g id="matplotlib.axis_8">
    <g id="ytick_8">
     <g id="line2d_35">
      <g>
       <use style="stroke:#000000;stroke-width:0.8;" x="394.363636" xlink:href="#m59d81a7b93" y="552.610588"/>
      </g>
     </g>
     <g id="text_29">
      <!-- 0.00 -->
      <g transform="translate(365.098011 556.409807)scale(0.1 -0.1)">
       <use xlink:href="#DejaVuSans-48"/>
       <use x="63.623047" xlink:href="#DejaVuSans-46"/>
       <use x="95.410156" xlink:href="#DejaVuSans-48"/>
       <use x="159.033203" xlink:href="#DejaVuSans-48"/>
      </g>
     </g>
    </g>
    <g id="ytick_9">
     <g id="line2d_36">
      <g>
       <use style="stroke:#000000;stroke-width:0.8;" x="394.363636" xlink:href="#m59d81a7b93" y="514.872885"/>
      </g>
     </g>
     <g id="text_30">
      <!-- 0.05 -->
      <defs>
       <path d="M 10.796875 72.90625 
L 49.515625 72.90625 
L 49.515625 64.59375 
L 19.828125 64.59375 
L 19.828125 46.734375 
Q 21.96875 47.46875 24.109375 47.828125 
Q 26.265625 48.1875 28.421875 48.1875 
Q 40.625 48.1875 47.75 41.5 
Q 54.890625 34.8125 54.890625 23.390625 
Q 54.890625 11.625 47.5625 5.09375 
Q 40.234375 -1.421875 26.90625 -1.421875 
Q 22.3125 -1.421875 17.546875 -0.640625 
Q 12.796875 0.140625 7.71875 1.703125 
L 7.71875 11.625 
Q 12.109375 9.234375 16.796875 8.0625 
Q 21.484375 6.890625 26.703125 6.890625 
Q 35.15625 6.890625 40.078125 11.328125 
Q 45.015625 15.765625 45.015625 23.390625 
Q 45.015625 31 40.078125 35.4375 
Q 35.15625 39.890625 26.703125 39.890625 
Q 22.75 39.890625 18.8125 39.015625 
Q 14.890625 38.140625 10.796875 36.28125 
z
" id="DejaVuSans-53"/>
      </defs>
      <g transform="translate(365.098011 518.672104)scale(0.1 -0.1)">
       <use xlink:href="#DejaVuSans-48"/>
       <use x="63.623047" xlink:href="#DejaVuSans-46"/>
       <use x="95.410156" xlink:href="#DejaVuSans-48"/>
       <use x="159.033203" xlink:href="#DejaVuSans-53"/>
      </g>
     </g>
    </g>
    <g id="ytick_10">
     <g id="line2d_37">
      <g>
       <use style="stroke:#000000;stroke-width:0.8;" x="394.363636" xlink:href="#m59d81a7b93" y="477.135181"/>
      </g>
     </g>
     <g id="text_31">
      <!-- 0.10 -->
      <g transform="translate(365.098011 480.9344)scale(0.1 -0.1)">
       <use xlink:href="#DejaVuSans-48"/>
       <use x="63.623047" xlink:href="#DejaVuSans-46"/>
       <use x="95.410156" xlink:href="#DejaVuSans-49"/>
       <use x="159.033203" xlink:href="#DejaVuSans-48"/>
      </g>
     </g>
    </g>
    <g id="ytick_11">
     <g id="line2d_38">
      <g>
       <use style="stroke:#000000;stroke-width:0.8;" x="394.363636" xlink:href="#m59d81a7b93" y="439.397478"/>
      </g>
     </g>
     <g id="text_32">
      <!-- 0.15 -->
      <g transform="translate(365.098011 443.196697)scale(0.1 -0.1)">
       <use xlink:href="#DejaVuSans-48"/>
       <use x="63.623047" xlink:href="#DejaVuSans-46"/>
       <use x="95.410156" xlink:href="#DejaVuSans-49"/>
       <use x="159.033203" xlink:href="#DejaVuSans-53"/>
      </g>
     </g>
    </g>
    <g id="ytick_12">
     <g id="line2d_39">
      <g>
       <use style="stroke:#000000;stroke-width:0.8;" x="394.363636" xlink:href="#m59d81a7b93" y="401.659774"/>
      </g>
     </g>
     <g id="text_33">
      <!-- 0.20 -->
      <g transform="translate(365.098011 405.458993)scale(0.1 -0.1)">
       <use xlink:href="#DejaVuSans-48"/>
       <use x="63.623047" xlink:href="#DejaVuSans-46"/>
       <use x="95.410156" xlink:href="#DejaVuSans-50"/>
       <use x="159.033203" xlink:href="#DejaVuSans-48"/>
      </g>
     </g>
    </g>
    <g id="ytick_13">
     <g id="line2d_40">
      <g>
       <use style="stroke:#000000;stroke-width:0.8;" x="394.363636" xlink:href="#m59d81a7b93" y="363.922071"/>
      </g>
     </g>
     <g id="text_34">
      <!-- 0.25 -->
      <g transform="translate(365.098011 367.72129)scale(0.1 -0.1)">
       <use xlink:href="#DejaVuSans-48"/>
       <use x="63.623047" xlink:href="#DejaVuSans-46"/>
       <use x="95.410156" xlink:href="#DejaVuSans-50"/>
       <use x="159.033203" xlink:href="#DejaVuSans-53"/>
      </g>
     </g>
    </g>
    <g id="ytick_14">
     <g id="line2d_41">
      <g>
       <use style="stroke:#000000;stroke-width:0.8;" x="394.363636" xlink:href="#m59d81a7b93" y="326.184367"/>
      </g>
     </g>
     <g id="text_35">
      <!-- 0.30 -->
      <g transform="translate(365.098011 329.983586)scale(0.1 -0.1)">
       <use xlink:href="#DejaVuSans-48"/>
       <use x="63.623047" xlink:href="#DejaVuSans-46"/>
       <use x="95.410156" xlink:href="#DejaVuSans-51"/>
       <use x="159.033203" xlink:href="#DejaVuSans-48"/>
      </g>
     </g>
    </g>
    <g id="ytick_15">
     <g id="line2d_42">
      <g>
       <use style="stroke:#000000;stroke-width:0.8;" x="394.363636" xlink:href="#m59d81a7b93" y="288.446664"/>
      </g>
     </g>
     <g id="text_36">
      <!-- 0.35 -->
      <g transform="translate(365.098011 292.245883)scale(0.1 -0.1)">
       <use xlink:href="#DejaVuSans-48"/>
       <use x="63.623047" xlink:href="#DejaVuSans-46"/>
       <use x="95.410156" xlink:href="#DejaVuSans-51"/>
       <use x="159.033203" xlink:href="#DejaVuSans-53"/>
      </g>
     </g>
    </g>
    <g id="ytick_16">
     <g id="line2d_43">
      <g>
       <use style="stroke:#000000;stroke-width:0.8;" x="394.363636" xlink:href="#m59d81a7b93" y="250.70896"/>
      </g>
     </g>
     <g id="text_37">
      <!-- 0.40 -->
      <g transform="translate(365.098011 254.508179)scale(0.1 -0.1)">
       <use xlink:href="#DejaVuSans-48"/>
       <use x="63.623047" xlink:href="#DejaVuSans-46"/>
       <use x="95.410156" xlink:href="#DejaVuSans-52"/>
       <use x="159.033203" xlink:href="#DejaVuSans-48"/>
      </g>
     </g>
    </g>
   </g>
   <g id="line2d_44">
    <path clip-path="url(#p5a0372e54e)" d="M 405.892562 552.120881 
L 431.657178 548.001955 
L 440.384356 543.788532 
L 461.080557 519.678412 
L 466.875378 507.589597 
L 468.524407 503.620431 
L 471.423196 496.049389 
L 472.966834 491.704095 
L 475.355395 484.547448 
L 481.016408 465.508779 
L 488.845059 434.744727 
L 497.644499 395.645151 
L 506.236029 356.023782 
L 511.098395 334.594674 
L 515.158621 318.04914 
L 517.048769 310.919982 
L 520.788736 298.135664 
L 522.996374 291.530572 
L 525.775948 284.333152 
L 528.144556 279.264959 
L 528.998536 277.691051 
L 531.085186 274.431879 
L 533.088686 272.107938 
L 534.449315 270.99035 
L 535.632214 270.325838 
L 536.438243 270.037823 
L 538.410604 269.898834 
L 538.834099 269.973855 
L 540.857243 270.842396 
L 541.662207 271.421378 
L 542.797142 272.461288 
L 544.456701 274.44705 
L 545.399521 275.817341 
L 547.701303 279.880208 
L 549.191685 283.036659 
L 551.156845 287.801173 
L 554.751241 298.164878 
L 557.356923 306.879139 
L 558.952113 312.654695 
L 562.374241 326.018009 
L 565.741509 340.223257 
L 569.346279 356.257606 
L 582.374594 416.021716 
L 589.307403 445.566075 
L 591.521771 454.313917 
L 595.04074 467.399567 
L 596.45668 472.364896 
L 600.560397 485.736732 
L 603.613869 494.683575 
L 607.9274 505.867246 
L 609.497947 509.524953 
L 616.110273 522.636027 
L 616.110273 522.636027 
" style="fill:none;stroke:#00008b;stroke-linecap:square;stroke-opacity:0.8;stroke-width:1.5;"/>
   </g>
   <g id="patch_21">
    <path d="M 394.363636 567 
L 394.363636 250.432941 
" style="fill:none;stroke:#000000;stroke-linecap:square;stroke-linejoin:miter;stroke-width:0.8;"/>
   </g>
   <g id="patch_22">
    <path d="M 648 567 
L 648 250.432941 
" style="fill:none;stroke:#000000;stroke-linecap:square;stroke-linejoin:miter;stroke-width:0.8;"/>
   </g>
   <g id="patch_23">
    <path d="M 394.363636 567 
L 648 567 
" style="fill:none;stroke:#000000;stroke-linecap:square;stroke-linejoin:miter;stroke-width:0.8;"/>
   </g>
   <g id="patch_24">
    <path d="M 394.363636 250.432941 
L 648 250.432941 
" style="fill:none;stroke:#000000;stroke-linecap:square;stroke-linejoin:miter;stroke-width:0.8;"/>
   </g>
   <g id="PathCollection_13">
    <g clip-path="url(#p5a0372e54e)">
     <use style="fill:#ff00ff;stroke:#ffffff;" x="596.129458" xlink:href="#m1f842d1015" y="471.233158"/>
     <use style="fill:#ff00ff;stroke:#ffffff;" x="572.921627" xlink:href="#m1f842d1015" y="372.662093"/>
     <use style="fill:#ff00ff;stroke:#ffffff;" x="556.140472" xlink:href="#m1f842d1015" y="302.694326"/>
     <use style="fill:#ff00ff;stroke:#ffffff;" x="543.24679" xlink:href="#m1f842d1015" y="272.94509"/>
     <use style="fill:#ff00ff;stroke:#ffffff;" x="631.077403" xlink:href="#m1f842d1015" y="540.894545"/>
     <use style="fill:#ff00ff;stroke:#ffffff;" x="553.135781" xlink:href="#m1f842d1015" y="293.255202"/>
    </g>
   </g>
   <g id="PathCollection_14">
    <g clip-path="url(#p5a0372e54e)">
     <use style="fill:#4b0082;stroke:#ffffff;" x="534.921074" xlink:href="#m02f25d18d6" y="270.69094"/>
     <use style="fill:#4b0082;stroke:#ffffff;" x="492.871433" xlink:href="#m02f25d18d6" y="417.288418"/>
    </g>
   </g>
   <g id="PathCollection_15">
    <g clip-path="url(#p5a0372e54e)">
     <use style="fill:#ffdab9;stroke:#ffffff;" x="557.050124" xlink:href="#mb3ac44851c" y="305.805164"/>
    </g>
   </g>
  </g>
  <g id="text_38">
   <!-- Distribution of combined results - MCBP &amp; SLR, Lake Geneva 2015-2018 -->
   <defs>
    <path d="M 8.5 21.578125 
L 8.5 54.6875 
L 17.484375 54.6875 
L 17.484375 21.921875 
Q 17.484375 14.15625 20.5 10.265625 
Q 23.53125 6.390625 29.59375 6.390625 
Q 36.859375 6.390625 41.078125 11.03125 
Q 45.3125 15.671875 45.3125 23.6875 
L 45.3125 54.6875 
L 54.296875 54.6875 
L 54.296875 0 
L 45.3125 0 
L 45.3125 8.40625 
Q 42.046875 3.421875 37.71875 1 
Q 33.40625 -1.421875 27.6875 -1.421875 
Q 18.265625 -1.421875 13.375 4.4375 
Q 8.5 10.296875 8.5 21.578125 
z
M 31.109375 56 
z
" id="DejaVuSans-117"/>
    <path d="M 24.3125 39.203125 
Q 19.875 35.25 17.796875 31.3125 
Q 15.71875 27.390625 15.71875 23.09375 
Q 15.71875 15.96875 20.890625 11.234375 
Q 26.078125 6.5 33.890625 6.5 
Q 38.53125 6.5 42.578125 8.03125 
Q 46.625 9.578125 50.203125 12.703125 
z
M 31.203125 44.671875 
L 56 19.28125 
Q 58.890625 23.640625 60.5 28.59375 
Q 62.109375 33.546875 62.40625 39.109375 
L 71.484375 39.109375 
Q 70.90625 32.671875 68.359375 26.359375 
Q 65.828125 20.0625 61.28125 13.921875 
L 74.90625 0 
L 62.59375 0 
L 55.609375 7.171875 
Q 50.53125 2.828125 44.96875 0.703125 
Q 39.40625 -1.421875 33.015625 -1.421875 
Q 21.234375 -1.421875 13.765625 5.296875 
Q 6.296875 12.015625 6.296875 22.515625 
Q 6.296875 28.765625 9.5625 34.25 
Q 12.84375 39.75 19.390625 44.578125 
Q 17.046875 47.65625 15.8125 50.703125 
Q 14.59375 53.765625 14.59375 56.6875 
Q 14.59375 64.59375 20.015625 69.40625 
Q 25.4375 74.21875 34.421875 74.21875 
Q 38.484375 74.21875 42.5 73.34375 
Q 46.53125 72.46875 50.6875 70.703125 
L 50.6875 61.8125 
Q 46.4375 64.109375 42.578125 65.296875 
Q 38.71875 66.5 35.40625 66.5 
Q 30.28125 66.5 27.078125 63.78125 
Q 23.875 61.078125 23.875 56.78125 
Q 23.875 54.296875 25.3125 51.78125 
Q 26.765625 49.265625 31.203125 44.671875 
z
" id="DejaVuSans-38"/>
    <path d="M 11.71875 12.40625 
L 22.015625 12.40625 
L 22.015625 4 
L 14.015625 -11.625 
L 7.71875 -11.625 
L 11.71875 4 
z
" id="DejaVuSans-44"/>
    <path d="M 9.078125 75.984375 
L 18.109375 75.984375 
L 18.109375 31.109375 
L 44.921875 54.6875 
L 56.390625 54.6875 
L 27.390625 29.109375 
L 57.625 0 
L 45.90625 0 
L 18.109375 26.703125 
L 18.109375 0 
L 9.078125 0 
z
" id="DejaVuSans-107"/>
   </defs>
   <g transform="translate(107.06375 23.597813)scale(0.14 -0.14)">
    <use xlink:href="#DejaVuSans-68"/>
    <use x="77.001953" xlink:href="#DejaVuSans-105"/>
    <use x="104.785156" xlink:href="#DejaVuSans-115"/>
    <use x="156.884766" xlink:href="#DejaVuSans-116"/>
    <use x="196.09375" xlink:href="#DejaVuSans-114"/>
    <use x="237.207031" xlink:href="#DejaVuSans-105"/>
    <use x="264.990234" xlink:href="#DejaVuSans-98"/>
    <use x="328.466797" xlink:href="#DejaVuSans-117"/>
    <use x="391.845703" xlink:href="#DejaVuSans-116"/>
    <use x="431.054688" xlink:href="#DejaVuSans-105"/>
    <use x="458.837891" xlink:href="#DejaVuSans-111"/>
    <use x="520.019531" xlink:href="#DejaVuSans-110"/>
    <use x="583.398438" xlink:href="#DejaVuSans-32"/>
    <use x="615.185547" xlink:href="#DejaVuSans-111"/>
    <use x="676.367188" xlink:href="#DejaVuSans-102"/>
    <use x="711.572266" xlink:href="#DejaVuSans-32"/>
    <use x="743.359375" xlink:href="#DejaVuSans-99"/>
    <use x="798.339844" xlink:href="#DejaVuSans-111"/>
    <use x="859.521484" xlink:href="#DejaVuSans-109"/>
    <use x="956.933594" xlink:href="#DejaVuSans-98"/>
    <use x="1020.410156" xlink:href="#DejaVuSans-105"/>
    <use x="1048.193359" xlink:href="#DejaVuSans-110"/>
    <use x="1111.572266" xlink:href="#DejaVuSans-101"/>
    <use x="1173.095703" xlink:href="#DejaVuSans-100"/>
    <use x="1236.572266" xlink:href="#DejaVuSans-32"/>
    <use x="1268.359375" xlink:href="#DejaVuSans-114"/>
    <use x="1309.441406" xlink:href="#DejaVuSans-101"/>
    <use x="1370.964844" xlink:href="#DejaVuSans-115"/>
    <use x="1423.064453" xlink:href="#DejaVuSans-117"/>
    <use x="1486.443359" xlink:href="#DejaVuSans-108"/>
    <use x="1514.226562" xlink:href="#DejaVuSans-116"/>
    <use x="1553.435547" xlink:href="#DejaVuSans-115"/>
    <use x="1605.535156" xlink:href="#DejaVuSans-32"/>
    <use x="1637.322266" xlink:href="#DejaVuSans-45"/>
    <use x="1673.40625" xlink:href="#DejaVuSans-32"/>
    <use x="1705.193359" xlink:href="#DejaVuSans-77"/>
    <use x="1791.472656" xlink:href="#DejaVuSans-67"/>
    <use x="1861.296875" xlink:href="#DejaVuSans-66"/>
    <use x="1929.900391" xlink:href="#DejaVuSans-80"/>
    <use x="1990.203125" xlink:href="#DejaVuSans-32"/>
    <use x="2021.990234" xlink:href="#DejaVuSans-38"/>
    <use x="2099.96875" xlink:href="#DejaVuSans-32"/>
    <use x="2131.755859" xlink:href="#DejaVuSans-83"/>
    <use x="2195.232422" xlink:href="#DejaVuSans-76"/>
    <use x="2250.945312" xlink:href="#DejaVuSans-82"/>
    <use x="2320.427734" xlink:href="#DejaVuSans-44"/>
    <use x="2352.214844" xlink:href="#DejaVuSans-32"/>
    <use x="2384.001953" xlink:href="#DejaVuSans-76"/>
    <use x="2439.714844" xlink:href="#DejaVuSans-97"/>
    <use x="2500.994141" xlink:href="#DejaVuSans-107"/>
    <use x="2558.857422" xlink:href="#DejaVuSans-101"/>
    <use x="2620.380859" xlink:href="#DejaVuSans-32"/>
    <use x="2652.167969" xlink:href="#DejaVuSans-71"/>
    <use x="2729.658203" xlink:href="#DejaVuSans-101"/>
    <use x="2791.181641" xlink:href="#DejaVuSans-110"/>
    <use x="2854.560547" xlink:href="#DejaVuSans-101"/>
    <use x="2916.083984" xlink:href="#DejaVuSans-118"/>
    <use x="2975.263672" xlink:href="#DejaVuSans-97"/>
    <use x="3036.542969" xlink:href="#DejaVuSans-32"/>
    <use x="3068.330078" xlink:href="#DejaVuSans-50"/>
    <use x="3131.953125" xlink:href="#DejaVuSans-48"/>
    <use x="3195.576172" xlink:href="#DejaVuSans-49"/>
    <use x="3259.199219" xlink:href="#DejaVuSans-53"/>
    <use x="3322.822266" xlink:href="#DejaVuSans-45"/>
    <use x="3358.90625" xlink:href="#DejaVuSans-50"/>
    <use x="3422.529297" xlink:href="#DejaVuSans-48"/>
    <use x="3486.152344" xlink:href="#DejaVuSans-49"/>
    <use x="3549.775391" xlink:href="#DejaVuSans-56"/>
   </g>
  </g>
 </g>
 <defs>
  <clipPath id="pe2b2c1a89c">
   <rect height="143.894118" width="253.636364" x="90" y="77.76"/>
  </clipPath>
  <clipPath id="pcdf2eb6a2d">
   <rect height="316.567059" width="253.636364" x="90" y="250.432941"/>
  </clipPath>
  <clipPath id="pef9bc14c20">
   <rect height="143.894118" width="253.636364" x="394.363636" y="77.76"/>
  </clipPath>
  <clipPath id="p5a0372e54e">
   <rect height="316.567059" width="253.636364" x="394.363636" y="250.432941"/>
  </clipPath>
 </defs>
</svg>
