<?xml version="1.0" encoding="utf-8" standalone="no"?>
<!DOCTYPE svg PUBLIC "-//W3C//DTD SVG 1.1//EN"
  "http://www.w3.org/Graphics/SVG/1.1/DTD/svg11.dtd">
<!-- Created with matplotlib (https://matplotlib.org/) -->
<svg height="432pt" version="1.1" viewBox="0 0 432 432" width="432pt" xmlns="http://www.w3.org/2000/svg" xmlns:xlink="http://www.w3.org/1999/xlink">
 <defs>
  <style type="text/css">
*{stroke-linecap:butt;stroke-linejoin:round;}
  </style>
 </defs>
 <g id="figure_1">
  <g id="patch_1">
   <path d="M 0 432 
L 432 432 
L 432 0 
L 0 0 
z
" style="fill:#ffffff;"/>
  </g>
  <g id="axes_1">
   <g id="patch_2">
    <path d="M 54 378 
L 388.8 378 
L 388.8 51.84 
L 54 51.84 
z
" style="fill:#ffffff;"/>
   </g>
   <g id="PathCollection_1">
    <defs>
     <path d="M 0 5.700877 
C 1.51189 5.700877 2.962061 5.100197 4.031129 4.031129 
C 5.100197 2.962061 5.700877 1.51189 5.700877 0 
C 5.700877 -1.51189 5.100197 -2.962061 4.031129 -4.031129 
C 2.962061 -5.100197 1.51189 -5.700877 0 -5.700877 
C -1.51189 -5.700877 -2.962061 -5.100197 -4.031129 -4.031129 
C -5.100197 -2.962061 -5.700877 -1.51189 -5.700877 0 
C -5.700877 1.51189 -5.100197 2.962061 -4.031129 4.031129 
C -2.962061 5.100197 -1.51189 5.700877 0 5.700877 
z
" id="m3241a169de" style="stroke:#ffffff;stroke-width:2;"/>
    </defs>
    <g clip-path="url(#pd51d029db4)">
     <use style="fill:#00bfbf;stroke:#ffffff;stroke-width:2;" x="74.714597" xlink:href="#m3241a169de" y="357.508019"/>
     <use style="fill:#00bfbf;stroke:#ffffff;stroke-width:2;" x="201.089713" xlink:href="#m3241a169de" y="318.634028"/>
     <use style="fill:#00bfbf;stroke:#ffffff;stroke-width:2;" x="262.020573" xlink:href="#m3241a169de" y="351.423965"/>
     <use style="fill:#00bfbf;stroke:#ffffff;stroke-width:2;" x="131.13206" xlink:href="#m3241a169de" y="355.641321"/>
     <use style="fill:#00bfbf;stroke:#ffffff;stroke-width:2;" x="76.971296" xlink:href="#m3241a169de" y="357.192989"/>
     <use style="fill:#00bfbf;stroke:#ffffff;stroke-width:2;" x="85.99809" xlink:href="#m3241a169de" y="356.366179"/>
     <use style="fill:#00bfbf;stroke:#ffffff;stroke-width:2;" x="101.794979" xlink:href="#m3241a169de" y="356.782081"/>
     <use style="fill:#00bfbf;stroke:#ffffff;stroke-width:2;" x="95.024884" xlink:href="#m3241a169de" y="354.586982"/>
     <use style="fill:#00bfbf;stroke:#ffffff;stroke-width:2;" x="223.656699" xlink:href="#m3241a169de" y="352.57079"/>
     <use style="fill:#00bfbf;stroke:#ffffff;stroke-width:2;" x="113.078472" xlink:href="#m3241a169de" y="355.641321"/>
     <use style="fill:#00bfbf;stroke:#ffffff;stroke-width:2;" x="83.741391" xlink:href="#m3241a169de" y="352.675993"/>
     <use style="fill:#00bfbf;stroke:#ffffff;stroke-width:2;" x="76.971296" xlink:href="#m3241a169de" y="356.01344"/>
     <use style="fill:#00bfbf;stroke:#ffffff;stroke-width:2;" x="126.618663" xlink:href="#m3241a169de" y="355.641321"/>
     <use style="fill:#00bfbf;stroke:#ffffff;stroke-width:2;" x="79.227994" xlink:href="#m3241a169de" y="357.203304"/>
     <use style="fill:#00bfbf;stroke:#ffffff;stroke-width:2;" x="79.227994" xlink:href="#m3241a169de" y="355.563222"/>
     <use style="fill:#00bfbf;stroke:#ffffff;stroke-width:2;" x="83.741391" xlink:href="#m3241a169de" y="355.641321"/>
     <use style="fill:#00bfbf;stroke:#ffffff;stroke-width:2;" x="74.714597" xlink:href="#m3241a169de" y="357.222829"/>
     <use style="fill:#00bfbf;stroke:#ffffff;stroke-width:2;" x="99.538281" xlink:href="#m3241a169de" y="354.586982"/>
     <use style="fill:#00bfbf;stroke:#ffffff;stroke-width:2;" x="83.741391" xlink:href="#m3241a169de" y="353.532643"/>
     <use style="fill:#00bfbf;stroke:#ffffff;stroke-width:2;" x="155.955743" xlink:href="#m3241a169de" y="351.423965"/>
     <use style="fill:#00bfbf;stroke:#ffffff;stroke-width:2;" x="76.971296" xlink:href="#m3241a169de" y="355.641321"/>
     <use style="fill:#00bfbf;stroke:#ffffff;stroke-width:2;" x="74.714597" xlink:href="#m3241a169de" y="357.471494"/>
     <use style="fill:#00bfbf;stroke:#ffffff;stroke-width:2;" x="92.768185" xlink:href="#m3241a169de" y="355.755303"/>
     <use style="fill:#00bfbf;stroke:#ffffff;stroke-width:2;" x="174.009331" xlink:href="#m3241a169de" y="349.935487"/>
     <use style="fill:#00bfbf;stroke:#ffffff;stroke-width:2;" x="149.185648" xlink:href="#m3241a169de" y="343.957172"/>
     <use style="fill:#00bfbf;stroke:#ffffff;stroke-width:2;" x="79.227994" xlink:href="#m3241a169de" y="356.078971"/>
     <use style="fill:#00bfbf;stroke:#ffffff;stroke-width:2;" x="74.714597" xlink:href="#m3241a169de" y="356.906527"/>
     <use style="fill:#00bfbf;stroke:#ffffff;stroke-width:2;" x="259.763875" xlink:href="#m3241a169de" y="337.005169"/>
     <use style="fill:#00bfbf;stroke:#ffffff;stroke-width:2;" x="113.078472" xlink:href="#m3241a169de" y="340.880577"/>
     <use style="fill:#00bfbf;stroke:#ffffff;stroke-width:2;" x="198.833015" xlink:href="#m3241a169de" y="353.532643"/>
     <use style="fill:#00bfbf;stroke:#ffffff;stroke-width:2;" x="74.714597" xlink:href="#m3241a169de" y="357.576343"/>
     <use style="fill:#00bfbf;stroke:#ffffff;stroke-width:2;" x="101.794979" xlink:href="#m3241a169de" y="354.586982"/>
     <use style="fill:#00bfbf;stroke:#ffffff;stroke-width:2;" x="74.714597" xlink:href="#m3241a169de" y="357.351059"/>
     <use style="fill:#00bfbf;stroke:#ffffff;stroke-width:2;" x="135.645457" xlink:href="#m3241a169de" y="352.164852"/>
     <use style="fill:#00bfbf;stroke:#ffffff;stroke-width:2;" x="74.714597" xlink:href="#m3241a169de" y="353.532643"/>
     <use style="fill:#00bfbf;stroke:#ffffff;stroke-width:2;" x="90.511487" xlink:href="#m3241a169de" y="355.563222"/>
     <use style="fill:#00bfbf;stroke:#ffffff;stroke-width:2;" x="76.971296" xlink:href="#m3241a169de" y="356.298122"/>
     <use style="fill:#00bfbf;stroke:#ffffff;stroke-width:2;" x="83.741391" xlink:href="#m3241a169de" y="357.288725"/>
     <use style="fill:#00bfbf;stroke:#ffffff;stroke-width:2;" x="162.725839" xlink:href="#m3241a169de" y="340.880577"/>
     <use style="fill:#00bfbf;stroke:#ffffff;stroke-width:2;" x="74.714597" xlink:href="#m3241a169de" y="357.134967"/>
     <use style="fill:#00bfbf;stroke:#ffffff;stroke-width:2;" x="289.100955" xlink:href="#m3241a169de" y="341.934916"/>
     <use style="fill:#00bfbf;stroke:#ffffff;stroke-width:2;" x="304.897845" xlink:href="#m3241a169de" y="339.053056"/>
     <use style="fill:#00bfbf;stroke:#ffffff;stroke-width:2;" x="74.714597" xlink:href="#m3241a169de" y="357.503986"/>
     <use style="fill:#00bfbf;stroke:#ffffff;stroke-width:2;" x="104.051678" xlink:href="#m3241a169de" y="355.641321"/>
     <use style="fill:#00bfbf;stroke:#ffffff;stroke-width:2;" x="79.227994" xlink:href="#m3241a169de" y="356.914485"/>
     <use style="fill:#00bfbf;stroke:#ffffff;stroke-width:2;" x="90.511487" xlink:href="#m3241a169de" y="357.011961"/>
     <use style="fill:#00bfbf;stroke:#ffffff;stroke-width:2;" x="196.576316" xlink:href="#m3241a169de" y="350.369627"/>
     <use style="fill:#00bfbf;stroke:#ffffff;stroke-width:2;" x="74.714597" xlink:href="#m3241a169de" y="357.539131"/>
     <use style="fill:#00bfbf;stroke:#ffffff;stroke-width:2;" x="74.714597" xlink:href="#m3241a169de" y="356.65661"/>
     <use style="fill:#00bfbf;stroke:#ffffff;stroke-width:2;" x="250.737081" xlink:href="#m3241a169de" y="344.043594"/>
     <use style="fill:#00bfbf;stroke:#ffffff;stroke-width:2;" x="83.741391" xlink:href="#m3241a169de" y="355.563222"/>
     <use style="fill:#00bfbf;stroke:#ffffff;stroke-width:2;" x="243.966985" xlink:href="#m3241a169de" y="307.194451"/>
     <use style="fill:#00bfbf;stroke:#ffffff;stroke-width:2;" x="79.227994" xlink:href="#m3241a169de" y="357.171146"/>
     <use style="fill:#00bfbf;stroke:#ffffff;stroke-width:2;" x="79.227994" xlink:href="#m3241a169de" y="348.456197"/>
     <use style="fill:#00bfbf;stroke:#ffffff;stroke-width:2;" x="146.928949" xlink:href="#m3241a169de" y="325.768387"/>
     <use style="fill:#00bfbf;stroke:#ffffff;stroke-width:2;" x="74.714597" xlink:href="#m3241a169de" y="357.508019"/>
     <use style="fill:#00bfbf;stroke:#ffffff;stroke-width:2;" x="117.591869" xlink:href="#m3241a169de" y="297.613635"/>
     <use style="fill:#00bfbf;stroke:#ffffff;stroke-width:2;" x="318.438036" xlink:href="#m3241a169de" y="305.718377"/>
     <use style="fill:#00bfbf;stroke:#ffffff;stroke-width:2;" x="74.714597" xlink:href="#m3241a169de" y="357.203304"/>
     <use style="fill:#00bfbf;stroke:#ffffff;stroke-width:2;" x="169.495934" xlink:href="#m3241a169de" y="352.478304"/>
     <use style="fill:#00bfbf;stroke:#ffffff;stroke-width:2;" x="117.591869" xlink:href="#m3241a169de" y="355.641321"/>
     <use style="fill:#00bfbf;stroke:#ffffff;stroke-width:2;" x="171.752633" xlink:href="#m3241a169de" y="323.615779"/>
     <use style="fill:#00bfbf;stroke:#ffffff;stroke-width:2;" x="275.560764" xlink:href="#m3241a169de" y="329.704585"/>
     <use style="fill:#00bfbf;stroke:#ffffff;stroke-width:2;" x="298.127749" xlink:href="#m3241a169de" y="340.037106"/>
     <use style="fill:#00bfbf;stroke:#ffffff;stroke-width:2;" x="277.817463" xlink:href="#m3241a169de" y="340.802478"/>
     <use style="fill:#00bfbf;stroke:#ffffff;stroke-width:2;" x="160.46914" xlink:href="#m3241a169de" y="351.672045"/>
     <use style="fill:#00bfbf;stroke:#ffffff;stroke-width:2;" x="354.545212" xlink:href="#m3241a169de" y="66.923454"/>
     <use style="fill:#00bfbf;stroke:#ffffff;stroke-width:2;" x="178.522728" xlink:href="#m3241a169de" y="354.059812"/>
     <use style="fill:#00bfbf;stroke:#ffffff;stroke-width:2;" x="88.254788" xlink:href="#m3241a169de" y="357.222829"/>
     <use style="fill:#00bfbf;stroke:#ffffff;stroke-width:2;" x="110.821773" xlink:href="#m3241a169de" y="349.315288"/>
     <use style="fill:#00bfbf;stroke:#ffffff;stroke-width:2;" x="368.085403" xlink:href="#m3241a169de" y="159.534298"/>
     <use style="fill:#00bfbf;stroke:#ffffff;stroke-width:2;" x="271.047367" xlink:href="#m3241a169de" y="349.44708"/>
     <use style="fill:#00bfbf;stroke:#ffffff;stroke-width:2;" x="225.913397" xlink:href="#m3241a169de" y="345.941403"/>
     <use style="fill:#00bfbf;stroke:#ffffff;stroke-width:2;" x="248.480382" xlink:href="#m3241a169de" y="330.337189"/>
     <use style="fill:#00bfbf;stroke:#ffffff;stroke-width:2;" x="212.373206" xlink:href="#m3241a169de" y="349.315288"/>
     <use style="fill:#00bfbf;stroke:#ffffff;stroke-width:2;" x="268.790669" xlink:href="#m3241a169de" y="337.084957"/>
     <use style="fill:#00bfbf;stroke:#ffffff;stroke-width:2;" x="88.254788" xlink:href="#m3241a169de" y="356.65661"/>
     <use style="fill:#00bfbf;stroke:#ffffff;stroke-width:2;" x="187.549522" xlink:href="#m3241a169de" y="332.445866"/>
     <use style="fill:#00bfbf;stroke:#ffffff;stroke-width:2;" x="79.227994" xlink:href="#m3241a169de" y="356.95212"/>
     <use style="fill:#00bfbf;stroke:#ffffff;stroke-width:2;" x="74.714597" xlink:href="#m3241a169de" y="357.134967"/>
     <use style="fill:#00bfbf;stroke:#ffffff;stroke-width:2;" x="76.971296" xlink:href="#m3241a169de" y="356.69566"/>
     <use style="fill:#00bfbf;stroke:#ffffff;stroke-width:2;" x="92.768185" xlink:href="#m3241a169de" y="356.69566"/>
     <use style="fill:#00bfbf;stroke:#ffffff;stroke-width:2;" x="167.239236" xlink:href="#m3241a169de" y="351.765913"/>
     <use style="fill:#00bfbf;stroke:#ffffff;stroke-width:2;" x="162.725839" xlink:href="#m3241a169de" y="353.532643"/>
     <use style="fill:#00bfbf;stroke:#ffffff;stroke-width:2;" x="76.971296" xlink:href="#m3241a169de" y="356.69566"/>
     <use style="fill:#00bfbf;stroke:#ffffff;stroke-width:2;" x="74.714597" xlink:href="#m3241a169de" y="357.442483"/>
     <use style="fill:#00bfbf;stroke:#ffffff;stroke-width:2;" x="74.714597" xlink:href="#m3241a169de" y="357.011961"/>
     <use style="fill:#00bfbf;stroke:#ffffff;stroke-width:2;" x="117.591869" xlink:href="#m3241a169de" y="353.532643"/>
     <use style="fill:#00bfbf;stroke:#ffffff;stroke-width:2;" x="74.714597" xlink:href="#m3241a169de" y="357.134967"/>
     <use style="fill:#00bfbf;stroke:#ffffff;stroke-width:2;" x="76.971296" xlink:href="#m3241a169de" y="357.503986"/>
     <use style="fill:#00bfbf;stroke:#ffffff;stroke-width:2;" x="74.714597" xlink:href="#m3241a169de" y="356.782081"/>
     <use style="fill:#00bfbf;stroke:#ffffff;stroke-width:2;" x="106.308376" xlink:href="#m3241a169de" y="354.428831"/>
     <use style="fill:#00bfbf;stroke:#ffffff;stroke-width:2;" x="216.886603" xlink:href="#m3241a169de" y="346.462371"/>
     <use style="fill:#00bfbf;stroke:#ffffff;stroke-width:2;" x="307.154543" xlink:href="#m3241a169de" y="267.709462"/>
     <use style="fill:#00bfbf;stroke:#ffffff;stroke-width:2;" x="74.714597" xlink:href="#m3241a169de" y="357.222829"/>
     <use style="fill:#00bfbf;stroke:#ffffff;stroke-width:2;" x="189.806221" xlink:href="#m3241a169de" y="355.088225"/>
     <use style="fill:#00bfbf;stroke:#ffffff;stroke-width:2;" x="248.480382" xlink:href="#m3241a169de" y="333.500205"/>
     <use style="fill:#00bfbf;stroke:#ffffff;stroke-width:2;" x="83.741391" xlink:href="#m3241a169de" y="355.641321"/>
     <use style="fill:#00bfbf;stroke:#ffffff;stroke-width:2;" x="76.971296" xlink:href="#m3241a169de" y="357.222829"/>
     <use style="fill:#00bfbf;stroke:#ffffff;stroke-width:2;" x="74.714597" xlink:href="#m3241a169de" y="354.957425"/>
     <use style="fill:#00bfbf;stroke:#ffffff;stroke-width:2;" x="365.828704" xlink:href="#m3241a169de" y="212.747399"/>
     <use style="fill:#00bfbf;stroke:#ffffff;stroke-width:2;" x="137.902155" xlink:href="#m3241a169de" y="355.641321"/>
     <use style="fill:#00bfbf;stroke:#ffffff;stroke-width:2;" x="79.227994" xlink:href="#m3241a169de" y="353.532643"/>
     <use style="fill:#00bfbf;stroke:#ffffff;stroke-width:2;" x="350.031815" xlink:href="#m3241a169de" y="152.94468"/>
     <use style="fill:#00bfbf;stroke:#ffffff;stroke-width:2;" x="88.254788" xlink:href="#m3241a169de" y="311.886259"/>
     <use style="fill:#00bfbf;stroke:#ffffff;stroke-width:2;" x="133.388758" xlink:href="#m3241a169de" y="353.532643"/>
     <use style="fill:#00bfbf;stroke:#ffffff;stroke-width:2;" x="76.971296" xlink:href="#m3241a169de" y="357.508019"/>
     <use style="fill:#00bfbf;stroke:#ffffff;stroke-width:2;" x="237.19689" xlink:href="#m3241a169de" y="334.501827"/>
     <use style="fill:#00bfbf;stroke:#ffffff;stroke-width:2;" x="85.99809" xlink:href="#m3241a169de" y="354.79785"/>
     <use style="fill:#00bfbf;stroke:#ffffff;stroke-width:2;" x="122.105266" xlink:href="#m3241a169de" y="349.631589"/>
     <use style="fill:#00bfbf;stroke:#ffffff;stroke-width:2;" x="221.4" xlink:href="#m3241a169de" y="343.727292"/>
     <use style="fill:#00bfbf;stroke:#ffffff;stroke-width:2;" x="81.484693" xlink:href="#m3241a169de" y="357.26604"/>
     <use style="fill:#00bfbf;stroke:#ffffff;stroke-width:2;" x="90.511487" xlink:href="#m3241a169de" y="357.203304"/>
     <use style="fill:#00bfbf;stroke:#ffffff;stroke-width:2;" x="361.315307" xlink:href="#m3241a169de" y="258.114979"/>
     <use style="fill:#00bfbf;stroke:#ffffff;stroke-width:2;" x="198.833015" xlink:href="#m3241a169de" y="332.445866"/>
     <use style="fill:#00bfbf;stroke:#ffffff;stroke-width:2;" x="92.768185" xlink:href="#m3241a169de" y="349.771218"/>
     <use style="fill:#00bfbf;stroke:#ffffff;stroke-width:2;" x="115.33517" xlink:href="#m3241a169de" y="355.641321"/>
    </g>
   </g>
   <g id="PathCollection_2">
    <defs>
     <path d="M 0 5.700877 
C 1.51189 5.700877 2.962061 5.100197 4.031129 4.031129 
C 5.100197 2.962061 5.700877 1.51189 5.700877 0 
C 5.700877 -1.51189 5.100197 -2.962061 4.031129 -4.031129 
C 2.962061 -5.100197 1.51189 -5.700877 0 -5.700877 
C -1.51189 -5.700877 -2.962061 -5.100197 -4.031129 -4.031129 
C -5.100197 -2.962061 -5.700877 -1.51189 -5.700877 0 
C -5.700877 1.51189 -5.100197 2.962061 -4.031129 4.031129 
C -2.962061 5.100197 -1.51189 5.700877 0 5.700877 
z
" id="m5cc9f2b6dd" style="stroke:#ffffff;stroke-width:2;"/>
    </defs>
    <g clip-path="url(#pd51d029db4)">
     <use style="fill:#0000ff;stroke:#ffffff;stroke-width:2;" x="74.714597" xlink:href="#m5cc9f2b6dd" y="357.508019"/>
     <use style="fill:#0000ff;stroke:#ffffff;stroke-width:2;" x="201.089713" xlink:href="#m5cc9f2b6dd" y="355.894629"/>
     <use style="fill:#0000ff;stroke:#ffffff;stroke-width:2;" x="262.020573" xlink:href="#m5cc9f2b6dd" y="356.607725"/>
     <use style="fill:#0000ff;stroke:#ffffff;stroke-width:2;" x="131.13206" xlink:href="#m5cc9f2b6dd" y="357.242332"/>
     <use style="fill:#0000ff;stroke:#ffffff;stroke-width:2;" x="76.971296" xlink:href="#m5cc9f2b6dd" y="357.350504"/>
     <use style="fill:#0000ff;stroke:#ffffff;stroke-width:2;" x="85.99809" xlink:href="#m5cc9f2b6dd" y="357.223718"/>
     <use style="fill:#0000ff;stroke:#ffffff;stroke-width:2;" x="101.794979" xlink:href="#m5cc9f2b6dd" y="357.30173"/>
     <use style="fill:#0000ff;stroke:#ffffff;stroke-width:2;" x="95.024884" xlink:href="#m5cc9f2b6dd" y="356.846047"/>
     <use style="fill:#0000ff;stroke:#ffffff;stroke-width:2;" x="223.656699" xlink:href="#m5cc9f2b6dd" y="356.544849"/>
     <use style="fill:#0000ff;stroke:#ffffff;stroke-width:2;" x="113.078472" xlink:href="#m5cc9f2b6dd" y="357.198516"/>
     <use style="fill:#0000ff;stroke:#ffffff;stroke-width:2;" x="83.741391" xlink:href="#m5cc9f2b6dd" y="356.06998"/>
     <use style="fill:#0000ff;stroke:#ffffff;stroke-width:2;" x="76.971296" xlink:href="#m5cc9f2b6dd" y="356.794891"/>
     <use style="fill:#0000ff;stroke:#ffffff;stroke-width:2;" x="126.618663" xlink:href="#m5cc9f2b6dd" y="356.860023"/>
     <use style="fill:#0000ff;stroke:#ffffff;stroke-width:2;" x="79.227994" xlink:href="#m5cc9f2b6dd" y="357.221527"/>
     <use style="fill:#0000ff;stroke:#ffffff;stroke-width:2;" x="79.227994" xlink:href="#m5cc9f2b6dd" y="356.780956"/>
     <use style="fill:#0000ff;stroke:#ffffff;stroke-width:2;" x="83.741391" xlink:href="#m5cc9f2b6dd" y="356.727726"/>
     <use style="fill:#0000ff;stroke:#ffffff;stroke-width:2;" x="74.714597" xlink:href="#m5cc9f2b6dd" y="357.222829"/>
     <use style="fill:#0000ff;stroke:#ffffff;stroke-width:2;" x="99.538281" xlink:href="#m5cc9f2b6dd" y="356.414257"/>
     <use style="fill:#0000ff;stroke:#ffffff;stroke-width:2;" x="83.741391" xlink:href="#m5cc9f2b6dd" y="356.442434"/>
     <use style="fill:#0000ff;stroke:#ffffff;stroke-width:2;" x="155.955743" xlink:href="#m5cc9f2b6dd" y="356.520838"/>
     <use style="fill:#0000ff;stroke:#ffffff;stroke-width:2;" x="76.971296" xlink:href="#m5cc9f2b6dd" y="355.897781"/>
     <use style="fill:#0000ff;stroke:#ffffff;stroke-width:2;" x="74.714597" xlink:href="#m5cc9f2b6dd" y="357.471494"/>
     <use style="fill:#0000ff;stroke:#ffffff;stroke-width:2;" x="92.768185" xlink:href="#m5cc9f2b6dd" y="357.270656"/>
     <use style="fill:#0000ff;stroke:#ffffff;stroke-width:2;" x="174.009331" xlink:href="#m5cc9f2b6dd" y="356.734865"/>
     <use style="fill:#0000ff;stroke:#ffffff;stroke-width:2;" x="149.185648" xlink:href="#m5cc9f2b6dd" y="356.434508"/>
     <use style="fill:#0000ff;stroke:#ffffff;stroke-width:2;" x="79.227994" xlink:href="#m5cc9f2b6dd" y="357.00034"/>
     <use style="fill:#0000ff;stroke:#ffffff;stroke-width:2;" x="74.714597" xlink:href="#m5cc9f2b6dd" y="356.906527"/>
     <use style="fill:#0000ff;stroke:#ffffff;stroke-width:2;" x="259.763875" xlink:href="#m5cc9f2b6dd" y="354.232036"/>
     <use style="fill:#0000ff;stroke:#ffffff;stroke-width:2;" x="113.078472" xlink:href="#m5cc9f2b6dd" y="354.515738"/>
     <use style="fill:#0000ff;stroke:#ffffff;stroke-width:2;" x="198.833015" xlink:href="#m5cc9f2b6dd" y="356.914323"/>
     <use style="fill:#0000ff;stroke:#ffffff;stroke-width:2;" x="74.714597" xlink:href="#m5cc9f2b6dd" y="357.576343"/>
     <use style="fill:#0000ff;stroke:#ffffff;stroke-width:2;" x="101.794979" xlink:href="#m5cc9f2b6dd" y="356.756797"/>
     <use style="fill:#0000ff;stroke:#ffffff;stroke-width:2;" x="74.714597" xlink:href="#m5cc9f2b6dd" y="357.351059"/>
     <use style="fill:#0000ff;stroke:#ffffff;stroke-width:2;" x="135.645457" xlink:href="#m5cc9f2b6dd" y="356.614978"/>
     <use style="fill:#0000ff;stroke:#ffffff;stroke-width:2;" x="74.714597" xlink:href="#m5cc9f2b6dd" y="353.532643"/>
     <use style="fill:#0000ff;stroke:#ffffff;stroke-width:2;" x="90.511487" xlink:href="#m5cc9f2b6dd" y="356.666372"/>
     <use style="fill:#0000ff;stroke:#ffffff;stroke-width:2;" x="76.971296" xlink:href="#m5cc9f2b6dd" y="356.562787"/>
     <use style="fill:#0000ff;stroke:#ffffff;stroke-width:2;" x="83.741391" xlink:href="#m5cc9f2b6dd" y="357.432126"/>
     <use style="fill:#0000ff;stroke:#ffffff;stroke-width:2;" x="162.725839" xlink:href="#m5cc9f2b6dd" y="356.127487"/>
     <use style="fill:#0000ff;stroke:#ffffff;stroke-width:2;" x="74.714597" xlink:href="#m5cc9f2b6dd" y="357.134967"/>
     <use style="fill:#0000ff;stroke:#ffffff;stroke-width:2;" x="289.100955" xlink:href="#m5cc9f2b6dd" y="355.839259"/>
     <use style="fill:#0000ff;stroke:#ffffff;stroke-width:2;" x="304.897845" xlink:href="#m5cc9f2b6dd" y="355.092919"/>
     <use style="fill:#0000ff;stroke:#ffffff;stroke-width:2;" x="74.714597" xlink:href="#m5cc9f2b6dd" y="357.503986"/>
     <use style="fill:#0000ff;stroke:#ffffff;stroke-width:2;" x="104.051678" xlink:href="#m5cc9f2b6dd" y="356.927953"/>
     <use style="fill:#0000ff;stroke:#ffffff;stroke-width:2;" x="79.227994" xlink:href="#m5cc9f2b6dd" y="357.329897"/>
     <use style="fill:#0000ff;stroke:#ffffff;stroke-width:2;" x="90.511487" xlink:href="#m5cc9f2b6dd" y="357.412852"/>
     <use style="fill:#0000ff;stroke:#ffffff;stroke-width:2;" x="196.576316" xlink:href="#m5cc9f2b6dd" y="356.694538"/>
     <use style="fill:#0000ff;stroke:#ffffff;stroke-width:2;" x="74.714597" xlink:href="#m5cc9f2b6dd" y="357.539131"/>
     <use style="fill:#0000ff;stroke:#ffffff;stroke-width:2;" x="74.714597" xlink:href="#m5cc9f2b6dd" y="356.65661"/>
     <use style="fill:#0000ff;stroke:#ffffff;stroke-width:2;" x="250.737081" xlink:href="#m5cc9f2b6dd" y="355.497054"/>
     <use style="fill:#0000ff;stroke:#ffffff;stroke-width:2;" x="83.741391" xlink:href="#m5cc9f2b6dd" y="356.981665"/>
     <use style="fill:#0000ff;stroke:#ffffff;stroke-width:2;" x="243.966985" xlink:href="#m5cc9f2b6dd" y="352.729551"/>
     <use style="fill:#0000ff;stroke:#ffffff;stroke-width:2;" x="79.227994" xlink:href="#m5cc9f2b6dd" y="357.40508"/>
     <use style="fill:#0000ff;stroke:#ffffff;stroke-width:2;" x="79.227994" xlink:href="#m5cc9f2b6dd" y="354.188982"/>
     <use style="fill:#0000ff;stroke:#ffffff;stroke-width:2;" x="146.928949" xlink:href="#m5cc9f2b6dd" y="355.268603"/>
     <use style="fill:#0000ff;stroke:#ffffff;stroke-width:2;" x="74.714597" xlink:href="#m5cc9f2b6dd" y="357.508019"/>
     <use style="fill:#0000ff;stroke:#ffffff;stroke-width:2;" x="117.591869" xlink:href="#m5cc9f2b6dd" y="338.054421"/>
     <use style="fill:#0000ff;stroke:#ffffff;stroke-width:2;" x="318.438036" xlink:href="#m5cc9f2b6dd" y="354.51279"/>
     <use style="fill:#0000ff;stroke:#ffffff;stroke-width:2;" x="74.714597" xlink:href="#m5cc9f2b6dd" y="357.203304"/>
     <use style="fill:#0000ff;stroke:#ffffff;stroke-width:2;" x="169.495934" xlink:href="#m5cc9f2b6dd" y="356.612569"/>
     <use style="fill:#0000ff;stroke:#ffffff;stroke-width:2;" x="117.591869" xlink:href="#m5cc9f2b6dd" y="357.118947"/>
     <use style="fill:#0000ff;stroke:#ffffff;stroke-width:2;" x="171.752633" xlink:href="#m5cc9f2b6dd" y="355.326105"/>
     <use style="fill:#0000ff;stroke:#ffffff;stroke-width:2;" x="275.560764" xlink:href="#m5cc9f2b6dd" y="354.786982"/>
     <use style="fill:#0000ff;stroke:#ffffff;stroke-width:2;" x="298.127749" xlink:href="#m5cc9f2b6dd" y="355.591378"/>
     <use style="fill:#0000ff;stroke:#ffffff;stroke-width:2;" x="277.817463" xlink:href="#m5cc9f2b6dd" y="355.88248"/>
     <use style="fill:#0000ff;stroke:#ffffff;stroke-width:2;" x="160.46914" xlink:href="#m5cc9f2b6dd" y="356.834153"/>
     <use style="fill:#0000ff;stroke:#ffffff;stroke-width:2;" x="354.545212" xlink:href="#m5cc9f2b6dd" y="329.236653"/>
     <use style="fill:#0000ff;stroke:#ffffff;stroke-width:2;" x="178.522728" xlink:href="#m5cc9f2b6dd" y="356.944494"/>
     <use style="fill:#0000ff;stroke:#ffffff;stroke-width:2;" x="88.254788" xlink:href="#m5cc9f2b6dd" y="357.322964"/>
     <use style="fill:#0000ff;stroke:#ffffff;stroke-width:2;" x="110.821773" xlink:href="#m5cc9f2b6dd" y="356.206566"/>
     <use style="fill:#0000ff;stroke:#ffffff;stroke-width:2;" x="368.085403" xlink:href="#m5cc9f2b6dd" y="347.535085"/>
     <use style="fill:#0000ff;stroke:#ffffff;stroke-width:2;" x="271.047367" xlink:href="#m5cc9f2b6dd" y="356.020238"/>
     <use style="fill:#0000ff;stroke:#ffffff;stroke-width:2;" x="225.913397" xlink:href="#m5cc9f2b6dd" y="356.308319"/>
     <use style="fill:#0000ff;stroke:#ffffff;stroke-width:2;" x="248.480382" xlink:href="#m5cc9f2b6dd" y="355.402543"/>
     <use style="fill:#0000ff;stroke:#ffffff;stroke-width:2;" x="212.373206" xlink:href="#m5cc9f2b6dd" y="356.624317"/>
     <use style="fill:#0000ff;stroke:#ffffff;stroke-width:2;" x="268.790669" xlink:href="#m5cc9f2b6dd" y="355.743075"/>
     <use style="fill:#0000ff;stroke:#ffffff;stroke-width:2;" x="88.254788" xlink:href="#m5cc9f2b6dd" y="357.318468"/>
     <use style="fill:#0000ff;stroke:#ffffff;stroke-width:2;" x="187.549522" xlink:href="#m5cc9f2b6dd" y="355.2162"/>
     <use style="fill:#0000ff;stroke:#ffffff;stroke-width:2;" x="79.227994" xlink:href="#m5cc9f2b6dd" y="357.319896"/>
     <use style="fill:#0000ff;stroke:#ffffff;stroke-width:2;" x="74.714597" xlink:href="#m5cc9f2b6dd" y="357.134967"/>
     <use style="fill:#0000ff;stroke:#ffffff;stroke-width:2;" x="76.971296" xlink:href="#m5cc9f2b6dd" y="356.98085"/>
     <use style="fill:#0000ff;stroke:#ffffff;stroke-width:2;" x="92.768185" xlink:href="#m5cc9f2b6dd" y="357.121697"/>
     <use style="fill:#0000ff;stroke:#ffffff;stroke-width:2;" x="167.239236" xlink:href="#m5cc9f2b6dd" y="356.851763"/>
     <use style="fill:#0000ff;stroke:#ffffff;stroke-width:2;" x="162.725839" xlink:href="#m5cc9f2b6dd" y="356.931092"/>
     <use style="fill:#0000ff;stroke:#ffffff;stroke-width:2;" x="76.971296" xlink:href="#m5cc9f2b6dd" y="357.136001"/>
     <use style="fill:#0000ff;stroke:#ffffff;stroke-width:2;" x="74.714597" xlink:href="#m5cc9f2b6dd" y="357.442483"/>
     <use style="fill:#0000ff;stroke:#ffffff;stroke-width:2;" x="74.714597" xlink:href="#m5cc9f2b6dd" y="357.011961"/>
     <use style="fill:#0000ff;stroke:#ffffff;stroke-width:2;" x="117.591869" xlink:href="#m5cc9f2b6dd" y="357.103495"/>
     <use style="fill:#0000ff;stroke:#ffffff;stroke-width:2;" x="74.714597" xlink:href="#m5cc9f2b6dd" y="357.134967"/>
     <use style="fill:#0000ff;stroke:#ffffff;stroke-width:2;" x="76.971296" xlink:href="#m5cc9f2b6dd" y="357.566989"/>
     <use style="fill:#0000ff;stroke:#ffffff;stroke-width:2;" x="74.714597" xlink:href="#m5cc9f2b6dd" y="356.782081"/>
     <use style="fill:#0000ff;stroke:#ffffff;stroke-width:2;" x="106.308376" xlink:href="#m5cc9f2b6dd" y="357.006016"/>
     <use style="fill:#0000ff;stroke:#ffffff;stroke-width:2;" x="216.886603" xlink:href="#m5cc9f2b6dd" y="356.240213"/>
     <use style="fill:#0000ff;stroke:#ffffff;stroke-width:2;" x="307.154543" xlink:href="#m5cc9f2b6dd" y="349.548264"/>
     <use style="fill:#0000ff;stroke:#ffffff;stroke-width:2;" x="74.714597" xlink:href="#m5cc9f2b6dd" y="357.222829"/>
     <use style="fill:#0000ff;stroke:#ffffff;stroke-width:2;" x="189.806221" xlink:href="#m5cc9f2b6dd" y="356.94249"/>
     <use style="fill:#0000ff;stroke:#ffffff;stroke-width:2;" x="248.480382" xlink:href="#m5cc9f2b6dd" y="354.878106"/>
     <use style="fill:#0000ff;stroke:#ffffff;stroke-width:2;" x="83.741391" xlink:href="#m5cc9f2b6dd" y="357.036589"/>
     <use style="fill:#0000ff;stroke:#ffffff;stroke-width:2;" x="76.971296" xlink:href="#m5cc9f2b6dd" y="357.379452"/>
     <use style="fill:#0000ff;stroke:#ffffff;stroke-width:2;" x="74.714597" xlink:href="#m5cc9f2b6dd" y="354.957425"/>
     <use style="fill:#0000ff;stroke:#ffffff;stroke-width:2;" x="365.828704" xlink:href="#m5cc9f2b6dd" y="340.645236"/>
     <use style="fill:#0000ff;stroke:#ffffff;stroke-width:2;" x="137.902155" xlink:href="#m5cc9f2b6dd" y="357.211736"/>
     <use style="fill:#0000ff;stroke:#ffffff;stroke-width:2;" x="79.227994" xlink:href="#m5cc9f2b6dd" y="355.343012"/>
     <use style="fill:#0000ff;stroke:#ffffff;stroke-width:2;" x="350.031815" xlink:href="#m5cc9f2b6dd" y="336.601451"/>
     <use style="fill:#0000ff;stroke:#ffffff;stroke-width:2;" x="88.254788" xlink:href="#m5cc9f2b6dd" y="346.564378"/>
     <use style="fill:#0000ff;stroke:#ffffff;stroke-width:2;" x="133.388758" xlink:href="#m5cc9f2b6dd" y="356.591386"/>
     <use style="fill:#0000ff;stroke:#ffffff;stroke-width:2;" x="76.971296" xlink:href="#m5cc9f2b6dd" y="357.522047"/>
     <use style="fill:#0000ff;stroke:#ffffff;stroke-width:2;" x="237.19689" xlink:href="#m5cc9f2b6dd" y="353.715942"/>
     <use style="fill:#0000ff;stroke:#ffffff;stroke-width:2;" x="85.99809" xlink:href="#m5cc9f2b6dd" y="356.877463"/>
     <use style="fill:#0000ff;stroke:#ffffff;stroke-width:2;" x="122.105266" xlink:href="#m5cc9f2b6dd" y="356.461912"/>
     <use style="fill:#0000ff;stroke:#ffffff;stroke-width:2;" x="221.4" xlink:href="#m5cc9f2b6dd" y="356.016051"/>
     <use style="fill:#0000ff;stroke:#ffffff;stroke-width:2;" x="81.484693" xlink:href="#m5cc9f2b6dd" y="357.387291"/>
     <use style="fill:#0000ff;stroke:#ffffff;stroke-width:2;" x="90.511487" xlink:href="#m5cc9f2b6dd" y="357.274857"/>
     <use style="fill:#0000ff;stroke:#ffffff;stroke-width:2;" x="361.315307" xlink:href="#m5cc9f2b6dd" y="348.662407"/>
     <use style="fill:#0000ff;stroke:#ffffff;stroke-width:2;" x="198.833015" xlink:href="#m5cc9f2b6dd" y="355.677478"/>
     <use style="fill:#0000ff;stroke:#ffffff;stroke-width:2;" x="92.768185" xlink:href="#m5cc9f2b6dd" y="356.396738"/>
     <use style="fill:#0000ff;stroke:#ffffff;stroke-width:2;" x="115.33517" xlink:href="#m5cc9f2b6dd" y="356.97483"/>
    </g>
   </g>
   <g id="matplotlib.axis_1">
    <g id="xtick_1">
     <g id="line2d_1">
      <defs>
       <path d="M 0 0 
L 0 3.5 
" id="mc09847dfe1" style="stroke:#000000;stroke-width:0.8;"/>
      </defs>
      <g>
       <use style="stroke:#000000;stroke-width:0.8;" x="72.457899" xlink:href="#mc09847dfe1" y="378"/>
      </g>
     </g>
     <g id="text_1">
      <!-- 0 -->
      <defs>
       <path d="M 31.78125 66.40625 
Q 24.171875 66.40625 20.328125 58.90625 
Q 16.5 51.421875 16.5 36.375 
Q 16.5 21.390625 20.328125 13.890625 
Q 24.171875 6.390625 31.78125 6.390625 
Q 39.453125 6.390625 43.28125 13.890625 
Q 47.125 21.390625 47.125 36.375 
Q 47.125 51.421875 43.28125 58.90625 
Q 39.453125 66.40625 31.78125 66.40625 
z
M 31.78125 74.21875 
Q 44.046875 74.21875 50.515625 64.515625 
Q 56.984375 54.828125 56.984375 36.375 
Q 56.984375 17.96875 50.515625 8.265625 
Q 44.046875 -1.421875 31.78125 -1.421875 
Q 19.53125 -1.421875 13.0625 8.265625 
Q 6.59375 17.96875 6.59375 36.375 
Q 6.59375 54.828125 13.0625 64.515625 
Q 19.53125 74.21875 31.78125 74.21875 
z
" id="DejaVuSans-48"/>
      </defs>
      <g transform="translate(69.276649 392.598437)scale(0.1 -0.1)">
       <use xlink:href="#DejaVuSans-48"/>
      </g>
     </g>
    </g>
    <g id="xtick_2">
     <g id="line2d_2">
      <g>
       <use style="stroke:#000000;stroke-width:0.8;" x="117.591869" xlink:href="#mc09847dfe1" y="378"/>
      </g>
     </g>
     <g id="text_2">
      <!-- 20 -->
      <defs>
       <path d="M 19.1875 8.296875 
L 53.609375 8.296875 
L 53.609375 0 
L 7.328125 0 
L 7.328125 8.296875 
Q 12.9375 14.109375 22.625 23.890625 
Q 32.328125 33.6875 34.8125 36.53125 
Q 39.546875 41.84375 41.421875 45.53125 
Q 43.3125 49.21875 43.3125 52.78125 
Q 43.3125 58.59375 39.234375 62.25 
Q 35.15625 65.921875 28.609375 65.921875 
Q 23.96875 65.921875 18.8125 64.3125 
Q 13.671875 62.703125 7.8125 59.421875 
L 7.8125 69.390625 
Q 13.765625 71.78125 18.9375 73 
Q 24.125 74.21875 28.421875 74.21875 
Q 39.75 74.21875 46.484375 68.546875 
Q 53.21875 62.890625 53.21875 53.421875 
Q 53.21875 48.921875 51.53125 44.890625 
Q 49.859375 40.875 45.40625 35.40625 
Q 44.1875 33.984375 37.640625 27.21875 
Q 31.109375 20.453125 19.1875 8.296875 
z
" id="DejaVuSans-50"/>
      </defs>
      <g transform="translate(111.229369 392.598437)scale(0.1 -0.1)">
       <use xlink:href="#DejaVuSans-50"/>
       <use x="63.623047" xlink:href="#DejaVuSans-48"/>
      </g>
     </g>
    </g>
    <g id="xtick_3">
     <g id="line2d_3">
      <g>
       <use style="stroke:#000000;stroke-width:0.8;" x="162.725839" xlink:href="#mc09847dfe1" y="378"/>
      </g>
     </g>
     <g id="text_3">
      <!-- 40 -->
      <defs>
       <path d="M 37.796875 64.3125 
L 12.890625 25.390625 
L 37.796875 25.390625 
z
M 35.203125 72.90625 
L 47.609375 72.90625 
L 47.609375 25.390625 
L 58.015625 25.390625 
L 58.015625 17.1875 
L 47.609375 17.1875 
L 47.609375 0 
L 37.796875 0 
L 37.796875 17.1875 
L 4.890625 17.1875 
L 4.890625 26.703125 
z
" id="DejaVuSans-52"/>
      </defs>
      <g transform="translate(156.363339 392.598437)scale(0.1 -0.1)">
       <use xlink:href="#DejaVuSans-52"/>
       <use x="63.623047" xlink:href="#DejaVuSans-48"/>
      </g>
     </g>
    </g>
    <g id="xtick_4">
     <g id="line2d_4">
      <g>
       <use style="stroke:#000000;stroke-width:0.8;" x="207.859809" xlink:href="#mc09847dfe1" y="378"/>
      </g>
     </g>
     <g id="text_4">
      <!-- 60 -->
      <defs>
       <path d="M 33.015625 40.375 
Q 26.375 40.375 22.484375 35.828125 
Q 18.609375 31.296875 18.609375 23.390625 
Q 18.609375 15.53125 22.484375 10.953125 
Q 26.375 6.390625 33.015625 6.390625 
Q 39.65625 6.390625 43.53125 10.953125 
Q 47.40625 15.53125 47.40625 23.390625 
Q 47.40625 31.296875 43.53125 35.828125 
Q 39.65625 40.375 33.015625 40.375 
z
M 52.59375 71.296875 
L 52.59375 62.3125 
Q 48.875 64.0625 45.09375 64.984375 
Q 41.3125 65.921875 37.59375 65.921875 
Q 27.828125 65.921875 22.671875 59.328125 
Q 17.53125 52.734375 16.796875 39.40625 
Q 19.671875 43.65625 24.015625 45.921875 
Q 28.375 48.1875 33.59375 48.1875 
Q 44.578125 48.1875 50.953125 41.515625 
Q 57.328125 34.859375 57.328125 23.390625 
Q 57.328125 12.15625 50.6875 5.359375 
Q 44.046875 -1.421875 33.015625 -1.421875 
Q 20.359375 -1.421875 13.671875 8.265625 
Q 6.984375 17.96875 6.984375 36.375 
Q 6.984375 53.65625 15.1875 63.9375 
Q 23.390625 74.21875 37.203125 74.21875 
Q 40.921875 74.21875 44.703125 73.484375 
Q 48.484375 72.75 52.59375 71.296875 
z
" id="DejaVuSans-54"/>
      </defs>
      <g transform="translate(201.497309 392.598437)scale(0.1 -0.1)">
       <use xlink:href="#DejaVuSans-54"/>
       <use x="63.623047" xlink:href="#DejaVuSans-48"/>
      </g>
     </g>
    </g>
    <g id="xtick_5">
     <g id="line2d_5">
      <g>
       <use style="stroke:#000000;stroke-width:0.8;" x="252.993779" xlink:href="#mc09847dfe1" y="378"/>
      </g>
     </g>
     <g id="text_5">
      <!-- 80 -->
      <defs>
       <path d="M 31.78125 34.625 
Q 24.75 34.625 20.71875 30.859375 
Q 16.703125 27.09375 16.703125 20.515625 
Q 16.703125 13.921875 20.71875 10.15625 
Q 24.75 6.390625 31.78125 6.390625 
Q 38.8125 6.390625 42.859375 10.171875 
Q 46.921875 13.96875 46.921875 20.515625 
Q 46.921875 27.09375 42.890625 30.859375 
Q 38.875 34.625 31.78125 34.625 
z
M 21.921875 38.8125 
Q 15.578125 40.375 12.03125 44.71875 
Q 8.5 49.078125 8.5 55.328125 
Q 8.5 64.0625 14.71875 69.140625 
Q 20.953125 74.21875 31.78125 74.21875 
Q 42.671875 74.21875 48.875 69.140625 
Q 55.078125 64.0625 55.078125 55.328125 
Q 55.078125 49.078125 51.53125 44.71875 
Q 48 40.375 41.703125 38.8125 
Q 48.828125 37.15625 52.796875 32.3125 
Q 56.78125 27.484375 56.78125 20.515625 
Q 56.78125 9.90625 50.3125 4.234375 
Q 43.84375 -1.421875 31.78125 -1.421875 
Q 19.734375 -1.421875 13.25 4.234375 
Q 6.78125 9.90625 6.78125 20.515625 
Q 6.78125 27.484375 10.78125 32.3125 
Q 14.796875 37.15625 21.921875 38.8125 
z
M 18.3125 54.390625 
Q 18.3125 48.734375 21.84375 45.5625 
Q 25.390625 42.390625 31.78125 42.390625 
Q 38.140625 42.390625 41.71875 45.5625 
Q 45.3125 48.734375 45.3125 54.390625 
Q 45.3125 60.0625 41.71875 63.234375 
Q 38.140625 66.40625 31.78125 66.40625 
Q 25.390625 66.40625 21.84375 63.234375 
Q 18.3125 60.0625 18.3125 54.390625 
z
" id="DejaVuSans-56"/>
      </defs>
      <g transform="translate(246.631279 392.598437)scale(0.1 -0.1)">
       <use xlink:href="#DejaVuSans-56"/>
       <use x="63.623047" xlink:href="#DejaVuSans-48"/>
      </g>
     </g>
    </g>
    <g id="xtick_6">
     <g id="line2d_6">
      <g>
       <use style="stroke:#000000;stroke-width:0.8;" x="298.127749" xlink:href="#mc09847dfe1" y="378"/>
      </g>
     </g>
     <g id="text_6">
      <!-- 100 -->
      <defs>
       <path d="M 12.40625 8.296875 
L 28.515625 8.296875 
L 28.515625 63.921875 
L 10.984375 60.40625 
L 10.984375 69.390625 
L 28.421875 72.90625 
L 38.28125 72.90625 
L 38.28125 8.296875 
L 54.390625 8.296875 
L 54.390625 0 
L 12.40625 0 
z
" id="DejaVuSans-49"/>
      </defs>
      <g transform="translate(288.583999 392.598437)scale(0.1 -0.1)">
       <use xlink:href="#DejaVuSans-49"/>
       <use x="63.623047" xlink:href="#DejaVuSans-48"/>
       <use x="127.246094" xlink:href="#DejaVuSans-48"/>
      </g>
     </g>
    </g>
    <g id="xtick_7">
     <g id="line2d_7">
      <g>
       <use style="stroke:#000000;stroke-width:0.8;" x="343.261719" xlink:href="#mc09847dfe1" y="378"/>
      </g>
     </g>
     <g id="text_7">
      <!-- 120 -->
      <g transform="translate(333.717969 392.598437)scale(0.1 -0.1)">
       <use xlink:href="#DejaVuSans-49"/>
       <use x="63.623047" xlink:href="#DejaVuSans-50"/>
       <use x="127.246094" xlink:href="#DejaVuSans-48"/>
      </g>
     </g>
    </g>
    <g id="xtick_8">
     <g id="line2d_8">
      <g>
       <use style="stroke:#000000;stroke-width:0.8;" x="388.395689" xlink:href="#mc09847dfe1" y="378"/>
      </g>
     </g>
     <g id="text_8">
      <!-- 140 -->
      <g transform="translate(378.851939 392.598437)scale(0.1 -0.1)">
       <use xlink:href="#DejaVuSans-49"/>
       <use x="63.623047" xlink:href="#DejaVuSans-52"/>
       <use x="127.246094" xlink:href="#DejaVuSans-48"/>
      </g>
     </g>
    </g>
    <g id="text_9">
     <!-- Number of times identified (max = 148) -->
     <defs>
      <path d="M 9.8125 72.90625 
L 23.09375 72.90625 
L 55.421875 11.921875 
L 55.421875 72.90625 
L 64.984375 72.90625 
L 64.984375 0 
L 51.703125 0 
L 19.390625 60.984375 
L 19.390625 0 
L 9.8125 0 
z
" id="DejaVuSans-78"/>
      <path d="M 8.5 21.578125 
L 8.5 54.6875 
L 17.484375 54.6875 
L 17.484375 21.921875 
Q 17.484375 14.15625 20.5 10.265625 
Q 23.53125 6.390625 29.59375 6.390625 
Q 36.859375 6.390625 41.078125 11.03125 
Q 45.3125 15.671875 45.3125 23.6875 
L 45.3125 54.6875 
L 54.296875 54.6875 
L 54.296875 0 
L 45.3125 0 
L 45.3125 8.40625 
Q 42.046875 3.421875 37.71875 1 
Q 33.40625 -1.421875 27.6875 -1.421875 
Q 18.265625 -1.421875 13.375 4.4375 
Q 8.5 10.296875 8.5 21.578125 
z
M 31.109375 56 
z
" id="DejaVuSans-117"/>
      <path d="M 52 44.1875 
Q 55.375 50.25 60.0625 53.125 
Q 64.75 56 71.09375 56 
Q 79.640625 56 84.28125 50.015625 
Q 88.921875 44.046875 88.921875 33.015625 
L 88.921875 0 
L 79.890625 0 
L 79.890625 32.71875 
Q 79.890625 40.578125 77.09375 44.375 
Q 74.3125 48.1875 68.609375 48.1875 
Q 61.625 48.1875 57.5625 43.546875 
Q 53.515625 38.921875 53.515625 30.90625 
L 53.515625 0 
L 44.484375 0 
L 44.484375 32.71875 
Q 44.484375 40.625 41.703125 44.40625 
Q 38.921875 48.1875 33.109375 48.1875 
Q 26.21875 48.1875 22.15625 43.53125 
Q 18.109375 38.875 18.109375 30.90625 
L 18.109375 0 
L 9.078125 0 
L 9.078125 54.6875 
L 18.109375 54.6875 
L 18.109375 46.1875 
Q 21.1875 51.21875 25.484375 53.609375 
Q 29.78125 56 35.6875 56 
Q 41.65625 56 45.828125 52.96875 
Q 50 49.953125 52 44.1875 
z
" id="DejaVuSans-109"/>
      <path d="M 48.6875 27.296875 
Q 48.6875 37.203125 44.609375 42.84375 
Q 40.53125 48.484375 33.40625 48.484375 
Q 26.265625 48.484375 22.1875 42.84375 
Q 18.109375 37.203125 18.109375 27.296875 
Q 18.109375 17.390625 22.1875 11.75 
Q 26.265625 6.109375 33.40625 6.109375 
Q 40.53125 6.109375 44.609375 11.75 
Q 48.6875 17.390625 48.6875 27.296875 
z
M 18.109375 46.390625 
Q 20.953125 51.265625 25.265625 53.625 
Q 29.59375 56 35.59375 56 
Q 45.5625 56 51.78125 48.09375 
Q 58.015625 40.1875 58.015625 27.296875 
Q 58.015625 14.40625 51.78125 6.484375 
Q 45.5625 -1.421875 35.59375 -1.421875 
Q 29.59375 -1.421875 25.265625 0.953125 
Q 20.953125 3.328125 18.109375 8.203125 
L 18.109375 0 
L 9.078125 0 
L 9.078125 75.984375 
L 18.109375 75.984375 
z
" id="DejaVuSans-98"/>
      <path d="M 56.203125 29.59375 
L 56.203125 25.203125 
L 14.890625 25.203125 
Q 15.484375 15.921875 20.484375 11.0625 
Q 25.484375 6.203125 34.421875 6.203125 
Q 39.59375 6.203125 44.453125 7.46875 
Q 49.3125 8.734375 54.109375 11.28125 
L 54.109375 2.78125 
Q 49.265625 0.734375 44.1875 -0.34375 
Q 39.109375 -1.421875 33.890625 -1.421875 
Q 20.796875 -1.421875 13.15625 6.1875 
Q 5.515625 13.8125 5.515625 26.8125 
Q 5.515625 40.234375 12.765625 48.109375 
Q 20.015625 56 32.328125 56 
Q 43.359375 56 49.78125 48.890625 
Q 56.203125 41.796875 56.203125 29.59375 
z
M 47.21875 32.234375 
Q 47.125 39.59375 43.09375 43.984375 
Q 39.0625 48.390625 32.421875 48.390625 
Q 24.90625 48.390625 20.390625 44.140625 
Q 15.875 39.890625 15.1875 32.171875 
z
" id="DejaVuSans-101"/>
      <path d="M 41.109375 46.296875 
Q 39.59375 47.171875 37.8125 47.578125 
Q 36.03125 48 33.890625 48 
Q 26.265625 48 22.1875 43.046875 
Q 18.109375 38.09375 18.109375 28.8125 
L 18.109375 0 
L 9.078125 0 
L 9.078125 54.6875 
L 18.109375 54.6875 
L 18.109375 46.1875 
Q 20.953125 51.171875 25.484375 53.578125 
Q 30.03125 56 36.53125 56 
Q 37.453125 56 38.578125 55.875 
Q 39.703125 55.765625 41.0625 55.515625 
z
" id="DejaVuSans-114"/>
      <path id="DejaVuSans-32"/>
      <path d="M 30.609375 48.390625 
Q 23.390625 48.390625 19.1875 42.75 
Q 14.984375 37.109375 14.984375 27.296875 
Q 14.984375 17.484375 19.15625 11.84375 
Q 23.34375 6.203125 30.609375 6.203125 
Q 37.796875 6.203125 41.984375 11.859375 
Q 46.1875 17.53125 46.1875 27.296875 
Q 46.1875 37.015625 41.984375 42.703125 
Q 37.796875 48.390625 30.609375 48.390625 
z
M 30.609375 56 
Q 42.328125 56 49.015625 48.375 
Q 55.71875 40.765625 55.71875 27.296875 
Q 55.71875 13.875 49.015625 6.21875 
Q 42.328125 -1.421875 30.609375 -1.421875 
Q 18.84375 -1.421875 12.171875 6.21875 
Q 5.515625 13.875 5.515625 27.296875 
Q 5.515625 40.765625 12.171875 48.375 
Q 18.84375 56 30.609375 56 
z
" id="DejaVuSans-111"/>
      <path d="M 37.109375 75.984375 
L 37.109375 68.5 
L 28.515625 68.5 
Q 23.6875 68.5 21.796875 66.546875 
Q 19.921875 64.59375 19.921875 59.515625 
L 19.921875 54.6875 
L 34.71875 54.6875 
L 34.71875 47.703125 
L 19.921875 47.703125 
L 19.921875 0 
L 10.890625 0 
L 10.890625 47.703125 
L 2.296875 47.703125 
L 2.296875 54.6875 
L 10.890625 54.6875 
L 10.890625 58.5 
Q 10.890625 67.625 15.140625 71.796875 
Q 19.390625 75.984375 28.609375 75.984375 
z
" id="DejaVuSans-102"/>
      <path d="M 18.3125 70.21875 
L 18.3125 54.6875 
L 36.8125 54.6875 
L 36.8125 47.703125 
L 18.3125 47.703125 
L 18.3125 18.015625 
Q 18.3125 11.328125 20.140625 9.421875 
Q 21.96875 7.515625 27.59375 7.515625 
L 36.8125 7.515625 
L 36.8125 0 
L 27.59375 0 
Q 17.1875 0 13.234375 3.875 
Q 9.28125 7.765625 9.28125 18.015625 
L 9.28125 47.703125 
L 2.6875 47.703125 
L 2.6875 54.6875 
L 9.28125 54.6875 
L 9.28125 70.21875 
z
" id="DejaVuSans-116"/>
      <path d="M 9.421875 54.6875 
L 18.40625 54.6875 
L 18.40625 0 
L 9.421875 0 
z
M 9.421875 75.984375 
L 18.40625 75.984375 
L 18.40625 64.59375 
L 9.421875 64.59375 
z
" id="DejaVuSans-105"/>
      <path d="M 44.28125 53.078125 
L 44.28125 44.578125 
Q 40.484375 46.53125 36.375 47.5 
Q 32.28125 48.484375 27.875 48.484375 
Q 21.1875 48.484375 17.84375 46.4375 
Q 14.5 44.390625 14.5 40.28125 
Q 14.5 37.15625 16.890625 35.375 
Q 19.28125 33.59375 26.515625 31.984375 
L 29.59375 31.296875 
Q 39.15625 29.25 43.1875 25.515625 
Q 47.21875 21.78125 47.21875 15.09375 
Q 47.21875 7.46875 41.1875 3.015625 
Q 35.15625 -1.421875 24.609375 -1.421875 
Q 20.21875 -1.421875 15.453125 -0.5625 
Q 10.6875 0.296875 5.421875 2 
L 5.421875 11.28125 
Q 10.40625 8.6875 15.234375 7.390625 
Q 20.0625 6.109375 24.8125 6.109375 
Q 31.15625 6.109375 34.5625 8.28125 
Q 37.984375 10.453125 37.984375 14.40625 
Q 37.984375 18.0625 35.515625 20.015625 
Q 33.0625 21.96875 24.703125 23.78125 
L 21.578125 24.515625 
Q 13.234375 26.265625 9.515625 29.90625 
Q 5.8125 33.546875 5.8125 39.890625 
Q 5.8125 47.609375 11.28125 51.796875 
Q 16.75 56 26.8125 56 
Q 31.78125 56 36.171875 55.265625 
Q 40.578125 54.546875 44.28125 53.078125 
z
" id="DejaVuSans-115"/>
      <path d="M 45.40625 46.390625 
L 45.40625 75.984375 
L 54.390625 75.984375 
L 54.390625 0 
L 45.40625 0 
L 45.40625 8.203125 
Q 42.578125 3.328125 38.25 0.953125 
Q 33.9375 -1.421875 27.875 -1.421875 
Q 17.96875 -1.421875 11.734375 6.484375 
Q 5.515625 14.40625 5.515625 27.296875 
Q 5.515625 40.1875 11.734375 48.09375 
Q 17.96875 56 27.875 56 
Q 33.9375 56 38.25 53.625 
Q 42.578125 51.265625 45.40625 46.390625 
z
M 14.796875 27.296875 
Q 14.796875 17.390625 18.875 11.75 
Q 22.953125 6.109375 30.078125 6.109375 
Q 37.203125 6.109375 41.296875 11.75 
Q 45.40625 17.390625 45.40625 27.296875 
Q 45.40625 37.203125 41.296875 42.84375 
Q 37.203125 48.484375 30.078125 48.484375 
Q 22.953125 48.484375 18.875 42.84375 
Q 14.796875 37.203125 14.796875 27.296875 
z
" id="DejaVuSans-100"/>
      <path d="M 54.890625 33.015625 
L 54.890625 0 
L 45.90625 0 
L 45.90625 32.71875 
Q 45.90625 40.484375 42.875 44.328125 
Q 39.84375 48.1875 33.796875 48.1875 
Q 26.515625 48.1875 22.3125 43.546875 
Q 18.109375 38.921875 18.109375 30.90625 
L 18.109375 0 
L 9.078125 0 
L 9.078125 54.6875 
L 18.109375 54.6875 
L 18.109375 46.1875 
Q 21.34375 51.125 25.703125 53.5625 
Q 30.078125 56 35.796875 56 
Q 45.21875 56 50.046875 50.171875 
Q 54.890625 44.34375 54.890625 33.015625 
z
" id="DejaVuSans-110"/>
      <path d="M 31 75.875 
Q 24.46875 64.65625 21.28125 53.65625 
Q 18.109375 42.671875 18.109375 31.390625 
Q 18.109375 20.125 21.3125 9.0625 
Q 24.515625 -2 31 -13.1875 
L 23.1875 -13.1875 
Q 15.875 -1.703125 12.234375 9.375 
Q 8.59375 20.453125 8.59375 31.390625 
Q 8.59375 42.28125 12.203125 53.3125 
Q 15.828125 64.359375 23.1875 75.875 
z
" id="DejaVuSans-40"/>
      <path d="M 34.28125 27.484375 
Q 23.390625 27.484375 19.1875 25 
Q 14.984375 22.515625 14.984375 16.5 
Q 14.984375 11.71875 18.140625 8.90625 
Q 21.296875 6.109375 26.703125 6.109375 
Q 34.1875 6.109375 38.703125 11.40625 
Q 43.21875 16.703125 43.21875 25.484375 
L 43.21875 27.484375 
z
M 52.203125 31.203125 
L 52.203125 0 
L 43.21875 0 
L 43.21875 8.296875 
Q 40.140625 3.328125 35.546875 0.953125 
Q 30.953125 -1.421875 24.3125 -1.421875 
Q 15.921875 -1.421875 10.953125 3.296875 
Q 6 8.015625 6 15.921875 
Q 6 25.140625 12.171875 29.828125 
Q 18.359375 34.515625 30.609375 34.515625 
L 43.21875 34.515625 
L 43.21875 35.40625 
Q 43.21875 41.609375 39.140625 45 
Q 35.0625 48.390625 27.6875 48.390625 
Q 23 48.390625 18.546875 47.265625 
Q 14.109375 46.140625 10.015625 43.890625 
L 10.015625 52.203125 
Q 14.9375 54.109375 19.578125 55.046875 
Q 24.21875 56 28.609375 56 
Q 40.484375 56 46.34375 49.84375 
Q 52.203125 43.703125 52.203125 31.203125 
z
" id="DejaVuSans-97"/>
      <path d="M 54.890625 54.6875 
L 35.109375 28.078125 
L 55.90625 0 
L 45.3125 0 
L 29.390625 21.484375 
L 13.484375 0 
L 2.875 0 
L 24.125 28.609375 
L 4.6875 54.6875 
L 15.28125 54.6875 
L 29.78125 35.203125 
L 44.28125 54.6875 
z
" id="DejaVuSans-120"/>
      <path d="M 10.59375 45.40625 
L 73.1875 45.40625 
L 73.1875 37.203125 
L 10.59375 37.203125 
z
M 10.59375 25.484375 
L 73.1875 25.484375 
L 73.1875 17.1875 
L 10.59375 17.1875 
z
" id="DejaVuSans-61"/>
      <path d="M 8.015625 75.875 
L 15.828125 75.875 
Q 23.140625 64.359375 26.78125 53.3125 
Q 30.421875 42.28125 30.421875 31.390625 
Q 30.421875 20.453125 26.78125 9.375 
Q 23.140625 -1.703125 15.828125 -13.1875 
L 8.015625 -13.1875 
Q 14.5 -2 17.703125 9.0625 
Q 20.90625 20.125 20.90625 31.390625 
Q 20.90625 42.671875 17.703125 53.65625 
Q 14.5 64.65625 8.015625 75.875 
z
" id="DejaVuSans-41"/>
     </defs>
     <g transform="translate(80.801719 415.315938)scale(0.14 -0.14)">
      <use xlink:href="#DejaVuSans-78"/>
      <use x="74.804688" xlink:href="#DejaVuSans-117"/>
      <use x="138.183594" xlink:href="#DejaVuSans-109"/>
      <use x="235.595703" xlink:href="#DejaVuSans-98"/>
      <use x="299.072266" xlink:href="#DejaVuSans-101"/>
      <use x="360.595703" xlink:href="#DejaVuSans-114"/>
      <use x="401.708984" xlink:href="#DejaVuSans-32"/>
      <use x="433.496094" xlink:href="#DejaVuSans-111"/>
      <use x="494.677734" xlink:href="#DejaVuSans-102"/>
      <use x="529.882812" xlink:href="#DejaVuSans-32"/>
      <use x="561.669922" xlink:href="#DejaVuSans-116"/>
      <use x="600.878906" xlink:href="#DejaVuSans-105"/>
      <use x="628.662109" xlink:href="#DejaVuSans-109"/>
      <use x="726.074219" xlink:href="#DejaVuSans-101"/>
      <use x="787.597656" xlink:href="#DejaVuSans-115"/>
      <use x="839.697266" xlink:href="#DejaVuSans-32"/>
      <use x="871.484375" xlink:href="#DejaVuSans-105"/>
      <use x="899.267578" xlink:href="#DejaVuSans-100"/>
      <use x="962.744141" xlink:href="#DejaVuSans-101"/>
      <use x="1024.267578" xlink:href="#DejaVuSans-110"/>
      <use x="1087.646484" xlink:href="#DejaVuSans-116"/>
      <use x="1126.855469" xlink:href="#DejaVuSans-105"/>
      <use x="1154.638672" xlink:href="#DejaVuSans-102"/>
      <use x="1189.84375" xlink:href="#DejaVuSans-105"/>
      <use x="1217.626953" xlink:href="#DejaVuSans-101"/>
      <use x="1279.150391" xlink:href="#DejaVuSans-100"/>
      <use x="1342.626953" xlink:href="#DejaVuSans-32"/>
      <use x="1374.414062" xlink:href="#DejaVuSans-40"/>
      <use x="1413.427734" xlink:href="#DejaVuSans-109"/>
      <use x="1510.839844" xlink:href="#DejaVuSans-97"/>
      <use x="1572.119141" xlink:href="#DejaVuSans-120"/>
      <use x="1631.298828" xlink:href="#DejaVuSans-32"/>
      <use x="1663.085938" xlink:href="#DejaVuSans-61"/>
      <use x="1746.875" xlink:href="#DejaVuSans-32"/>
      <use x="1778.662109" xlink:href="#DejaVuSans-49"/>
      <use x="1842.285156" xlink:href="#DejaVuSans-52"/>
      <use x="1905.908203" xlink:href="#DejaVuSans-56"/>
      <use x="1969.53125" xlink:href="#DejaVuSans-41"/>
     </g>
    </g>
   </g>
   <g id="matplotlib.axis_2">
    <g id="ytick_1">
     <g id="line2d_9">
      <defs>
       <path d="M 0 0 
L -3.5 0 
" id="mfbe55bfd66" style="stroke:#000000;stroke-width:0.8;"/>
      </defs>
      <g>
       <use style="stroke:#000000;stroke-width:0.8;" x="54" xlink:href="#mfbe55bfd66" y="357.749998"/>
      </g>
     </g>
     <g id="text_10">
      <!-- 0.0 -->
      <defs>
       <path d="M 10.6875 12.40625 
L 21 12.40625 
L 21 0 
L 10.6875 0 
z
" id="DejaVuSans-46"/>
      </defs>
      <g transform="translate(31.096875 361.549217)scale(0.1 -0.1)">
       <use xlink:href="#DejaVuSans-48"/>
       <use x="63.623047" xlink:href="#DejaVuSans-46"/>
       <use x="95.410156" xlink:href="#DejaVuSans-48"/>
      </g>
     </g>
    </g>
    <g id="ytick_2">
     <g id="line2d_10">
      <g>
       <use style="stroke:#000000;stroke-width:0.8;" x="54" xlink:href="#mfbe55bfd66" y="320.848139"/>
      </g>
     </g>
     <g id="text_11">
      <!-- 2.5 -->
      <defs>
       <path d="M 10.796875 72.90625 
L 49.515625 72.90625 
L 49.515625 64.59375 
L 19.828125 64.59375 
L 19.828125 46.734375 
Q 21.96875 47.46875 24.109375 47.828125 
Q 26.265625 48.1875 28.421875 48.1875 
Q 40.625 48.1875 47.75 41.5 
Q 54.890625 34.8125 54.890625 23.390625 
Q 54.890625 11.625 47.5625 5.09375 
Q 40.234375 -1.421875 26.90625 -1.421875 
Q 22.3125 -1.421875 17.546875 -0.640625 
Q 12.796875 0.140625 7.71875 1.703125 
L 7.71875 11.625 
Q 12.109375 9.234375 16.796875 8.0625 
Q 21.484375 6.890625 26.703125 6.890625 
Q 35.15625 6.890625 40.078125 11.328125 
Q 45.015625 15.765625 45.015625 23.390625 
Q 45.015625 31 40.078125 35.4375 
Q 35.15625 39.890625 26.703125 39.890625 
Q 22.75 39.890625 18.8125 39.015625 
Q 14.890625 38.140625 10.796875 36.28125 
z
" id="DejaVuSans-53"/>
      </defs>
      <g transform="translate(31.096875 324.647358)scale(0.1 -0.1)">
       <use xlink:href="#DejaVuSans-50"/>
       <use x="63.623047" xlink:href="#DejaVuSans-46"/>
       <use x="95.410156" xlink:href="#DejaVuSans-53"/>
      </g>
     </g>
    </g>
    <g id="ytick_3">
     <g id="line2d_11">
      <g>
       <use style="stroke:#000000;stroke-width:0.8;" x="54" xlink:href="#mfbe55bfd66" y="283.94628"/>
      </g>
     </g>
     <g id="text_12">
      <!-- 5.0 -->
      <g transform="translate(31.096875 287.745499)scale(0.1 -0.1)">
       <use xlink:href="#DejaVuSans-53"/>
       <use x="63.623047" xlink:href="#DejaVuSans-46"/>
       <use x="95.410156" xlink:href="#DejaVuSans-48"/>
      </g>
     </g>
    </g>
    <g id="ytick_4">
     <g id="line2d_12">
      <g>
       <use style="stroke:#000000;stroke-width:0.8;" x="54" xlink:href="#mfbe55bfd66" y="247.044421"/>
      </g>
     </g>
     <g id="text_13">
      <!-- 7.5 -->
      <defs>
       <path d="M 8.203125 72.90625 
L 55.078125 72.90625 
L 55.078125 68.703125 
L 28.609375 0 
L 18.3125 0 
L 43.21875 64.59375 
L 8.203125 64.59375 
z
" id="DejaVuSans-55"/>
      </defs>
      <g transform="translate(31.096875 250.84364)scale(0.1 -0.1)">
       <use xlink:href="#DejaVuSans-55"/>
       <use x="63.623047" xlink:href="#DejaVuSans-46"/>
       <use x="95.410156" xlink:href="#DejaVuSans-53"/>
      </g>
     </g>
    </g>
    <g id="ytick_5">
     <g id="line2d_13">
      <g>
       <use style="stroke:#000000;stroke-width:0.8;" x="54" xlink:href="#mfbe55bfd66" y="210.142562"/>
      </g>
     </g>
     <g id="text_14">
      <!-- 10.0 -->
      <g transform="translate(24.734375 213.94178)scale(0.1 -0.1)">
       <use xlink:href="#DejaVuSans-49"/>
       <use x="63.623047" xlink:href="#DejaVuSans-48"/>
       <use x="127.246094" xlink:href="#DejaVuSans-46"/>
       <use x="159.033203" xlink:href="#DejaVuSans-48"/>
      </g>
     </g>
    </g>
    <g id="ytick_6">
     <g id="line2d_14">
      <g>
       <use style="stroke:#000000;stroke-width:0.8;" x="54" xlink:href="#mfbe55bfd66" y="173.240703"/>
      </g>
     </g>
     <g id="text_15">
      <!-- 12.5 -->
      <g transform="translate(24.734375 177.039921)scale(0.1 -0.1)">
       <use xlink:href="#DejaVuSans-49"/>
       <use x="63.623047" xlink:href="#DejaVuSans-50"/>
       <use x="127.246094" xlink:href="#DejaVuSans-46"/>
       <use x="159.033203" xlink:href="#DejaVuSans-53"/>
      </g>
     </g>
    </g>
    <g id="ytick_7">
     <g id="line2d_15">
      <g>
       <use style="stroke:#000000;stroke-width:0.8;" x="54" xlink:href="#mfbe55bfd66" y="136.338843"/>
      </g>
     </g>
     <g id="text_16">
      <!-- 15.0 -->
      <g transform="translate(24.734375 140.138062)scale(0.1 -0.1)">
       <use xlink:href="#DejaVuSans-49"/>
       <use x="63.623047" xlink:href="#DejaVuSans-53"/>
       <use x="127.246094" xlink:href="#DejaVuSans-46"/>
       <use x="159.033203" xlink:href="#DejaVuSans-48"/>
      </g>
     </g>
    </g>
    <g id="ytick_8">
     <g id="line2d_16">
      <g>
       <use style="stroke:#000000;stroke-width:0.8;" x="54" xlink:href="#mfbe55bfd66" y="99.436984"/>
      </g>
     </g>
     <g id="text_17">
      <!-- 17.5 -->
      <g transform="translate(24.734375 103.236203)scale(0.1 -0.1)">
       <use xlink:href="#DejaVuSans-49"/>
       <use x="63.623047" xlink:href="#DejaVuSans-55"/>
       <use x="127.246094" xlink:href="#DejaVuSans-46"/>
       <use x="159.033203" xlink:href="#DejaVuSans-53"/>
      </g>
     </g>
    </g>
    <g id="ytick_9">
     <g id="line2d_17">
      <g>
       <use style="stroke:#000000;stroke-width:0.8;" x="54" xlink:href="#mfbe55bfd66" y="62.535125"/>
      </g>
     </g>
     <g id="text_18">
      <!-- 20.0 -->
      <g transform="translate(24.734375 66.334344)scale(0.1 -0.1)">
       <use xlink:href="#DejaVuSans-50"/>
       <use x="63.623047" xlink:href="#DejaVuSans-48"/>
       <use x="127.246094" xlink:href="#DejaVuSans-46"/>
       <use x="159.033203" xlink:href="#DejaVuSans-48"/>
      </g>
     </g>
    </g>
    <g id="text_19">
     <!-- Pieces per meter -->
     <defs>
      <path d="M 19.671875 64.796875 
L 19.671875 37.40625 
L 32.078125 37.40625 
Q 38.96875 37.40625 42.71875 40.96875 
Q 46.484375 44.53125 46.484375 51.125 
Q 46.484375 57.671875 42.71875 61.234375 
Q 38.96875 64.796875 32.078125 64.796875 
z
M 9.8125 72.90625 
L 32.078125 72.90625 
Q 44.34375 72.90625 50.609375 67.359375 
Q 56.890625 61.8125 56.890625 51.125 
Q 56.890625 40.328125 50.609375 34.8125 
Q 44.34375 29.296875 32.078125 29.296875 
L 19.671875 29.296875 
L 19.671875 0 
L 9.8125 0 
z
" id="DejaVuSans-80"/>
      <path d="M 48.78125 52.59375 
L 48.78125 44.1875 
Q 44.96875 46.296875 41.140625 47.34375 
Q 37.3125 48.390625 33.40625 48.390625 
Q 24.65625 48.390625 19.8125 42.84375 
Q 14.984375 37.3125 14.984375 27.296875 
Q 14.984375 17.28125 19.8125 11.734375 
Q 24.65625 6.203125 33.40625 6.203125 
Q 37.3125 6.203125 41.140625 7.25 
Q 44.96875 8.296875 48.78125 10.40625 
L 48.78125 2.09375 
Q 45.015625 0.34375 40.984375 -0.53125 
Q 36.96875 -1.421875 32.421875 -1.421875 
Q 20.0625 -1.421875 12.78125 6.34375 
Q 5.515625 14.109375 5.515625 27.296875 
Q 5.515625 40.671875 12.859375 48.328125 
Q 20.21875 56 33.015625 56 
Q 37.15625 56 41.109375 55.140625 
Q 45.0625 54.296875 48.78125 52.59375 
z
" id="DejaVuSans-99"/>
      <path d="M 18.109375 8.203125 
L 18.109375 -20.796875 
L 9.078125 -20.796875 
L 9.078125 54.6875 
L 18.109375 54.6875 
L 18.109375 46.390625 
Q 20.953125 51.265625 25.265625 53.625 
Q 29.59375 56 35.59375 56 
Q 45.5625 56 51.78125 48.09375 
Q 58.015625 40.1875 58.015625 27.296875 
Q 58.015625 14.40625 51.78125 6.484375 
Q 45.5625 -1.421875 35.59375 -1.421875 
Q 29.59375 -1.421875 25.265625 0.953125 
Q 20.953125 3.328125 18.109375 8.203125 
z
M 48.6875 27.296875 
Q 48.6875 37.203125 44.609375 42.84375 
Q 40.53125 48.484375 33.40625 48.484375 
Q 26.265625 48.484375 22.1875 42.84375 
Q 18.109375 37.203125 18.109375 27.296875 
Q 18.109375 17.390625 22.1875 11.75 
Q 26.265625 6.109375 33.40625 6.109375 
Q 40.53125 6.109375 44.609375 11.75 
Q 48.6875 17.390625 48.6875 27.296875 
z
" id="DejaVuSans-112"/>
     </defs>
     <g transform="translate(11.822812 274.325938)rotate(-90)scale(0.14 -0.14)">
      <use xlink:href="#DejaVuSans-80"/>
      <use x="60.271484" xlink:href="#DejaVuSans-105"/>
      <use x="88.054688" xlink:href="#DejaVuSans-101"/>
      <use x="149.578125" xlink:href="#DejaVuSans-99"/>
      <use x="204.558594" xlink:href="#DejaVuSans-101"/>
      <use x="266.082031" xlink:href="#DejaVuSans-115"/>
      <use x="318.181641" xlink:href="#DejaVuSans-32"/>
      <use x="349.96875" xlink:href="#DejaVuSans-112"/>
      <use x="413.445312" xlink:href="#DejaVuSans-101"/>
      <use x="474.96875" xlink:href="#DejaVuSans-114"/>
      <use x="516.082031" xlink:href="#DejaVuSans-32"/>
      <use x="547.869141" xlink:href="#DejaVuSans-109"/>
      <use x="645.28125" xlink:href="#DejaVuSans-101"/>
      <use x="706.804688" xlink:href="#DejaVuSans-116"/>
      <use x="746.013672" xlink:href="#DejaVuSans-101"/>
      <use x="807.537109" xlink:href="#DejaVuSans-114"/>
     </g>
    </g>
   </g>
   <g id="patch_3">
    <path d="M 54 378 
L 54 51.84 
" style="fill:none;stroke:#000000;stroke-linecap:square;stroke-linejoin:miter;stroke-width:0.8;"/>
   </g>
   <g id="patch_4">
    <path d="M 388.8 378 
L 388.8 51.84 
" style="fill:none;stroke:#000000;stroke-linecap:square;stroke-linejoin:miter;stroke-width:0.8;"/>
   </g>
   <g id="patch_5">
    <path d="M 54 378 
L 388.8 378 
" style="fill:none;stroke:#000000;stroke-linecap:square;stroke-linejoin:miter;stroke-width:0.8;"/>
   </g>
   <g id="patch_6">
    <path d="M 54 51.84 
L 388.8 51.84 
" style="fill:none;stroke:#000000;stroke-linecap:square;stroke-linejoin:miter;stroke-width:0.8;"/>
   </g>
   <g id="text_20">
    <!-- Frequency of identification and max/mean pcs/m 2015-2018 -->
    <defs>
     <path d="M 9.8125 72.90625 
L 51.703125 72.90625 
L 51.703125 64.59375 
L 19.671875 64.59375 
L 19.671875 43.109375 
L 48.578125 43.109375 
L 48.578125 34.8125 
L 19.671875 34.8125 
L 19.671875 0 
L 9.8125 0 
z
" id="DejaVuSans-70"/>
     <path d="M 14.796875 27.296875 
Q 14.796875 17.390625 18.875 11.75 
Q 22.953125 6.109375 30.078125 6.109375 
Q 37.203125 6.109375 41.296875 11.75 
Q 45.40625 17.390625 45.40625 27.296875 
Q 45.40625 37.203125 41.296875 42.84375 
Q 37.203125 48.484375 30.078125 48.484375 
Q 22.953125 48.484375 18.875 42.84375 
Q 14.796875 37.203125 14.796875 27.296875 
z
M 45.40625 8.203125 
Q 42.578125 3.328125 38.25 0.953125 
Q 33.9375 -1.421875 27.875 -1.421875 
Q 17.96875 -1.421875 11.734375 6.484375 
Q 5.515625 14.40625 5.515625 27.296875 
Q 5.515625 40.1875 11.734375 48.09375 
Q 17.96875 56 27.875 56 
Q 33.9375 56 38.25 53.625 
Q 42.578125 51.265625 45.40625 46.390625 
L 45.40625 54.6875 
L 54.390625 54.6875 
L 54.390625 -20.796875 
L 45.40625 -20.796875 
z
" id="DejaVuSans-113"/>
     <path d="M 32.171875 -5.078125 
Q 28.375 -14.84375 24.75 -17.8125 
Q 21.140625 -20.796875 15.09375 -20.796875 
L 7.90625 -20.796875 
L 7.90625 -13.28125 
L 13.1875 -13.28125 
Q 16.890625 -13.28125 18.9375 -11.515625 
Q 21 -9.765625 23.484375 -3.21875 
L 25.09375 0.875 
L 2.984375 54.6875 
L 12.5 54.6875 
L 29.59375 11.921875 
L 46.6875 54.6875 
L 56.203125 54.6875 
z
" id="DejaVuSans-121"/>
     <path d="M 25.390625 72.90625 
L 33.6875 72.90625 
L 8.296875 -9.28125 
L 0 -9.28125 
z
" id="DejaVuSans-47"/>
     <path d="M 4.890625 31.390625 
L 31.203125 31.390625 
L 31.203125 23.390625 
L 4.890625 23.390625 
z
" id="DejaVuSans-45"/>
    </defs>
    <g transform="translate(39.179063 45.84)scale(0.12 -0.12)">
     <use xlink:href="#DejaVuSans-70"/>
     <use x="57.410156" xlink:href="#DejaVuSans-114"/>
     <use x="98.492188" xlink:href="#DejaVuSans-101"/>
     <use x="160.015625" xlink:href="#DejaVuSans-113"/>
     <use x="223.492188" xlink:href="#DejaVuSans-117"/>
     <use x="286.871094" xlink:href="#DejaVuSans-101"/>
     <use x="348.394531" xlink:href="#DejaVuSans-110"/>
     <use x="411.773438" xlink:href="#DejaVuSans-99"/>
     <use x="466.753906" xlink:href="#DejaVuSans-121"/>
     <use x="525.933594" xlink:href="#DejaVuSans-32"/>
     <use x="557.720703" xlink:href="#DejaVuSans-111"/>
     <use x="618.902344" xlink:href="#DejaVuSans-102"/>
     <use x="654.107422" xlink:href="#DejaVuSans-32"/>
     <use x="685.894531" xlink:href="#DejaVuSans-105"/>
     <use x="713.677734" xlink:href="#DejaVuSans-100"/>
     <use x="777.154297" xlink:href="#DejaVuSans-101"/>
     <use x="838.677734" xlink:href="#DejaVuSans-110"/>
     <use x="902.056641" xlink:href="#DejaVuSans-116"/>
     <use x="941.265625" xlink:href="#DejaVuSans-105"/>
     <use x="969.048828" xlink:href="#DejaVuSans-102"/>
     <use x="1004.253906" xlink:href="#DejaVuSans-105"/>
     <use x="1032.037109" xlink:href="#DejaVuSans-99"/>
     <use x="1087.017578" xlink:href="#DejaVuSans-97"/>
     <use x="1148.296875" xlink:href="#DejaVuSans-116"/>
     <use x="1187.505859" xlink:href="#DejaVuSans-105"/>
     <use x="1215.289062" xlink:href="#DejaVuSans-111"/>
     <use x="1276.470703" xlink:href="#DejaVuSans-110"/>
     <use x="1339.849609" xlink:href="#DejaVuSans-32"/>
     <use x="1371.636719" xlink:href="#DejaVuSans-97"/>
     <use x="1432.916016" xlink:href="#DejaVuSans-110"/>
     <use x="1496.294922" xlink:href="#DejaVuSans-100"/>
     <use x="1559.771484" xlink:href="#DejaVuSans-32"/>
     <use x="1591.558594" xlink:href="#DejaVuSans-109"/>
     <use x="1688.970703" xlink:href="#DejaVuSans-97"/>
     <use x="1750.25" xlink:href="#DejaVuSans-120"/>
     <use x="1809.429688" xlink:href="#DejaVuSans-47"/>
     <use x="1843.121094" xlink:href="#DejaVuSans-109"/>
     <use x="1940.533203" xlink:href="#DejaVuSans-101"/>
     <use x="2002.056641" xlink:href="#DejaVuSans-97"/>
     <use x="2063.335938" xlink:href="#DejaVuSans-110"/>
     <use x="2126.714844" xlink:href="#DejaVuSans-32"/>
     <use x="2158.501953" xlink:href="#DejaVuSans-112"/>
     <use x="2221.978516" xlink:href="#DejaVuSans-99"/>
     <use x="2276.958984" xlink:href="#DejaVuSans-115"/>
     <use x="2329.058594" xlink:href="#DejaVuSans-47"/>
     <use x="2362.75" xlink:href="#DejaVuSans-109"/>
     <use x="2460.162109" xlink:href="#DejaVuSans-32"/>
     <use x="2491.949219" xlink:href="#DejaVuSans-50"/>
     <use x="2555.572266" xlink:href="#DejaVuSans-48"/>
     <use x="2619.195312" xlink:href="#DejaVuSans-49"/>
     <use x="2682.818359" xlink:href="#DejaVuSans-53"/>
     <use x="2746.441406" xlink:href="#DejaVuSans-45"/>
     <use x="2782.525391" xlink:href="#DejaVuSans-50"/>
     <use x="2846.148438" xlink:href="#DejaVuSans-48"/>
     <use x="2909.771484" xlink:href="#DejaVuSans-49"/>
     <use x="2973.394531" xlink:href="#DejaVuSans-56"/>
    </g>
   </g>
   <g id="legend_1">
    <g id="patch_7">
     <path d="M 61 89.19625 
L 167.989062 89.19625 
Q 169.989062 89.19625 169.989062 87.19625 
L 169.989062 58.84 
Q 169.989062 56.84 167.989062 56.84 
L 61 56.84 
Q 59 56.84 59 58.84 
L 59 87.19625 
Q 59 89.19625 61 89.19625 
z
" style="fill:#ffffff;opacity:0.8;stroke:#cccccc;stroke-linejoin:miter;"/>
    </g>
    <g id="PathCollection_3">
     <g>
      <use style="fill:#00bfbf;stroke:#ffffff;stroke-width:2;" x="73" xlink:href="#m3241a169de" y="65.813437"/>
     </g>
    </g>
    <g id="text_21">
     <!-- Max pcs/m -->
     <defs>
      <path d="M 9.8125 72.90625 
L 24.515625 72.90625 
L 43.109375 23.296875 
L 61.8125 72.90625 
L 76.515625 72.90625 
L 76.515625 0 
L 66.890625 0 
L 66.890625 64.015625 
L 48.09375 14.015625 
L 38.1875 14.015625 
L 19.390625 64.015625 
L 19.390625 0 
L 9.8125 0 
z
" id="DejaVuSans-77"/>
     </defs>
     <g transform="translate(91 68.438437)scale(0.1 -0.1)">
      <use xlink:href="#DejaVuSans-77"/>
      <use x="86.279297" xlink:href="#DejaVuSans-97"/>
      <use x="147.558594" xlink:href="#DejaVuSans-120"/>
      <use x="206.738281" xlink:href="#DejaVuSans-32"/>
      <use x="238.525391" xlink:href="#DejaVuSans-112"/>
      <use x="302.001953" xlink:href="#DejaVuSans-99"/>
      <use x="356.982422" xlink:href="#DejaVuSans-115"/>
      <use x="409.082031" xlink:href="#DejaVuSans-47"/>
      <use x="442.773438" xlink:href="#DejaVuSans-109"/>
     </g>
    </g>
    <g id="PathCollection_4">
     <g>
      <use style="fill:#0000ff;stroke:#ffffff;stroke-width:2;" x="73" xlink:href="#m5cc9f2b6dd" y="80.491562"/>
     </g>
    </g>
    <g id="text_22">
     <!-- Average pcs/m -->
     <defs>
      <path d="M 34.1875 63.1875 
L 20.796875 26.90625 
L 47.609375 26.90625 
z
M 28.609375 72.90625 
L 39.796875 72.90625 
L 67.578125 0 
L 57.328125 0 
L 50.6875 18.703125 
L 17.828125 18.703125 
L 11.1875 0 
L 0.78125 0 
z
" id="DejaVuSans-65"/>
      <path d="M 2.984375 54.6875 
L 12.5 54.6875 
L 29.59375 8.796875 
L 46.6875 54.6875 
L 56.203125 54.6875 
L 35.6875 0 
L 23.484375 0 
z
" id="DejaVuSans-118"/>
      <path d="M 45.40625 27.984375 
Q 45.40625 37.75 41.375 43.109375 
Q 37.359375 48.484375 30.078125 48.484375 
Q 22.859375 48.484375 18.828125 43.109375 
Q 14.796875 37.75 14.796875 27.984375 
Q 14.796875 18.265625 18.828125 12.890625 
Q 22.859375 7.515625 30.078125 7.515625 
Q 37.359375 7.515625 41.375 12.890625 
Q 45.40625 18.265625 45.40625 27.984375 
z
M 54.390625 6.78125 
Q 54.390625 -7.171875 48.1875 -13.984375 
Q 42 -20.796875 29.203125 -20.796875 
Q 24.46875 -20.796875 20.265625 -20.09375 
Q 16.0625 -19.390625 12.109375 -17.921875 
L 12.109375 -9.1875 
Q 16.0625 -11.328125 19.921875 -12.34375 
Q 23.78125 -13.375 27.78125 -13.375 
Q 36.625 -13.375 41.015625 -8.765625 
Q 45.40625 -4.15625 45.40625 5.171875 
L 45.40625 9.625 
Q 42.625 4.78125 38.28125 2.390625 
Q 33.9375 0 27.875 0 
Q 17.828125 0 11.671875 7.65625 
Q 5.515625 15.328125 5.515625 27.984375 
Q 5.515625 40.671875 11.671875 48.328125 
Q 17.828125 56 27.875 56 
Q 33.9375 56 38.28125 53.609375 
Q 42.625 51.21875 45.40625 46.390625 
L 45.40625 54.6875 
L 54.390625 54.6875 
z
" id="DejaVuSans-103"/>
     </defs>
     <g transform="translate(91 83.116562)scale(0.1 -0.1)">
      <use xlink:href="#DejaVuSans-65"/>
      <use x="68.330078" xlink:href="#DejaVuSans-118"/>
      <use x="127.509766" xlink:href="#DejaVuSans-101"/>
      <use x="189.033203" xlink:href="#DejaVuSans-114"/>
      <use x="230.146484" xlink:href="#DejaVuSans-97"/>
      <use x="291.425781" xlink:href="#DejaVuSans-103"/>
      <use x="354.902344" xlink:href="#DejaVuSans-101"/>
      <use x="416.425781" xlink:href="#DejaVuSans-32"/>
      <use x="448.212891" xlink:href="#DejaVuSans-112"/>
      <use x="511.689453" xlink:href="#DejaVuSans-99"/>
      <use x="566.669922" xlink:href="#DejaVuSans-115"/>
      <use x="618.769531" xlink:href="#DejaVuSans-47"/>
      <use x="652.460938" xlink:href="#DejaVuSans-109"/>
     </g>
    </g>
   </g>
  </g>
 </g>
 <defs>
  <clipPath id="pd51d029db4">
   <rect height="326.16" width="334.8" x="54" y="51.84"/>
  </clipPath>
 </defs>
</svg>
