<?xml version="1.0" encoding="utf-8" standalone="no"?>
<!DOCTYPE svg PUBLIC "-//W3C//DTD SVG 1.1//EN"
  "http://www.w3.org/Graphics/SVG/1.1/DTD/svg11.dtd">
<!-- Created with matplotlib (https://matplotlib.org/) -->
<svg height="576pt" version="1.1" viewBox="0 0 576 576" width="576pt" xmlns="http://www.w3.org/2000/svg" xmlns:xlink="http://www.w3.org/1999/xlink">
 <defs>
  <style type="text/css">
*{stroke-linecap:butt;stroke-linejoin:round;}
  </style>
 </defs>
 <g id="figure_1">
  <g id="patch_1">
   <path d="M 0 576 
L 576 576 
L 576 0 
L 0 0 
z
" style="fill:#ffffff;"/>
  </g>
  <g id="axes_1">
   <g id="patch_2">
    <path d="M 72 504 
L 518.4 504 
L 518.4 69.12 
L 72 69.12 
z
" style="fill:#ffffff;"/>
   </g>
   <g id="matplotlib.axis_1">
    <g id="xtick_1">
     <g id="line2d_1">
      <defs>
       <path d="M 0 0 
L 0 3.5 
" id="m32d4c2711d" style="stroke:#000000;stroke-width:0.8;"/>
      </defs>
      <g>
       <use style="stroke:#000000;stroke-width:0.8;" x="120.247889" xlink:href="#m32d4c2711d" y="504"/>
      </g>
     </g>
     <g id="text_1">
      <!-- 2016 -->
      <defs>
       <path d="M 19.1875 8.296875 
L 53.609375 8.296875 
L 53.609375 0 
L 7.328125 0 
L 7.328125 8.296875 
Q 12.9375 14.109375 22.625 23.890625 
Q 32.328125 33.6875 34.8125 36.53125 
Q 39.546875 41.84375 41.421875 45.53125 
Q 43.3125 49.21875 43.3125 52.78125 
Q 43.3125 58.59375 39.234375 62.25 
Q 35.15625 65.921875 28.609375 65.921875 
Q 23.96875 65.921875 18.8125 64.3125 
Q 13.671875 62.703125 7.8125 59.421875 
L 7.8125 69.390625 
Q 13.765625 71.78125 18.9375 73 
Q 24.125 74.21875 28.421875 74.21875 
Q 39.75 74.21875 46.484375 68.546875 
Q 53.21875 62.890625 53.21875 53.421875 
Q 53.21875 48.921875 51.53125 44.890625 
Q 49.859375 40.875 45.40625 35.40625 
Q 44.1875 33.984375 37.640625 27.21875 
Q 31.109375 20.453125 19.1875 8.296875 
z
" id="DejaVuSans-50"/>
       <path d="M 31.78125 66.40625 
Q 24.171875 66.40625 20.328125 58.90625 
Q 16.5 51.421875 16.5 36.375 
Q 16.5 21.390625 20.328125 13.890625 
Q 24.171875 6.390625 31.78125 6.390625 
Q 39.453125 6.390625 43.28125 13.890625 
Q 47.125 21.390625 47.125 36.375 
Q 47.125 51.421875 43.28125 58.90625 
Q 39.453125 66.40625 31.78125 66.40625 
z
M 31.78125 74.21875 
Q 44.046875 74.21875 50.515625 64.515625 
Q 56.984375 54.828125 56.984375 36.375 
Q 56.984375 17.96875 50.515625 8.265625 
Q 44.046875 -1.421875 31.78125 -1.421875 
Q 19.53125 -1.421875 13.0625 8.265625 
Q 6.59375 17.96875 6.59375 36.375 
Q 6.59375 54.828125 13.0625 64.515625 
Q 19.53125 74.21875 31.78125 74.21875 
z
" id="DejaVuSans-48"/>
       <path d="M 12.40625 8.296875 
L 28.515625 8.296875 
L 28.515625 63.921875 
L 10.984375 60.40625 
L 10.984375 69.390625 
L 28.421875 72.90625 
L 38.28125 72.90625 
L 38.28125 8.296875 
L 54.390625 8.296875 
L 54.390625 0 
L 12.40625 0 
z
" id="DejaVuSans-49"/>
       <path d="M 33.015625 40.375 
Q 26.375 40.375 22.484375 35.828125 
Q 18.609375 31.296875 18.609375 23.390625 
Q 18.609375 15.53125 22.484375 10.953125 
Q 26.375 6.390625 33.015625 6.390625 
Q 39.65625 6.390625 43.53125 10.953125 
Q 47.40625 15.53125 47.40625 23.390625 
Q 47.40625 31.296875 43.53125 35.828125 
Q 39.65625 40.375 33.015625 40.375 
z
M 52.59375 71.296875 
L 52.59375 62.3125 
Q 48.875 64.0625 45.09375 64.984375 
Q 41.3125 65.921875 37.59375 65.921875 
Q 27.828125 65.921875 22.671875 59.328125 
Q 17.53125 52.734375 16.796875 39.40625 
Q 19.671875 43.65625 24.015625 45.921875 
Q 28.375 48.1875 33.59375 48.1875 
Q 44.578125 48.1875 50.953125 41.515625 
Q 57.328125 34.859375 57.328125 23.390625 
Q 57.328125 12.15625 50.6875 5.359375 
Q 44.046875 -1.421875 33.015625 -1.421875 
Q 20.359375 -1.421875 13.671875 8.265625 
Q 6.984375 17.96875 6.984375 36.375 
Q 6.984375 53.65625 15.1875 63.9375 
Q 23.390625 74.21875 37.203125 74.21875 
Q 40.921875 74.21875 44.703125 73.484375 
Q 48.484375 72.75 52.59375 71.296875 
z
" id="DejaVuSans-54"/>
      </defs>
      <g transform="translate(123.007264 554.95)rotate(-90)scale(0.1 -0.1)">
       <use xlink:href="#DejaVuSans-50"/>
       <use x="63.623047" xlink:href="#DejaVuSans-48"/>
       <use x="127.246094" xlink:href="#DejaVuSans-49"/>
       <use x="190.869141" xlink:href="#DejaVuSans-54"/>
      </g>
     </g>
    </g>
    <g id="xtick_2">
     <g id="line2d_2">
      <g>
       <use style="stroke:#000000;stroke-width:0.8;" x="239.711459" xlink:href="#m32d4c2711d" y="504"/>
      </g>
     </g>
     <g id="text_2">
      <!-- 2017 -->
      <defs>
       <path d="M 8.203125 72.90625 
L 55.078125 72.90625 
L 55.078125 68.703125 
L 28.609375 0 
L 18.3125 0 
L 43.21875 64.59375 
L 8.203125 64.59375 
z
" id="DejaVuSans-55"/>
      </defs>
      <g transform="translate(242.470834 554.95)rotate(-90)scale(0.1 -0.1)">
       <use xlink:href="#DejaVuSans-50"/>
       <use x="63.623047" xlink:href="#DejaVuSans-48"/>
       <use x="127.246094" xlink:href="#DejaVuSans-49"/>
       <use x="190.869141" xlink:href="#DejaVuSans-55"/>
      </g>
     </g>
    </g>
    <g id="xtick_3">
     <g id="line2d_3">
      <g>
       <use style="stroke:#000000;stroke-width:0.8;" x="358.848625" xlink:href="#m32d4c2711d" y="504"/>
      </g>
     </g>
     <g id="text_3">
      <!-- 2018 -->
      <defs>
       <path d="M 31.78125 34.625 
Q 24.75 34.625 20.71875 30.859375 
Q 16.703125 27.09375 16.703125 20.515625 
Q 16.703125 13.921875 20.71875 10.15625 
Q 24.75 6.390625 31.78125 6.390625 
Q 38.8125 6.390625 42.859375 10.171875 
Q 46.921875 13.96875 46.921875 20.515625 
Q 46.921875 27.09375 42.890625 30.859375 
Q 38.875 34.625 31.78125 34.625 
z
M 21.921875 38.8125 
Q 15.578125 40.375 12.03125 44.71875 
Q 8.5 49.078125 8.5 55.328125 
Q 8.5 64.0625 14.71875 69.140625 
Q 20.953125 74.21875 31.78125 74.21875 
Q 42.671875 74.21875 48.875 69.140625 
Q 55.078125 64.0625 55.078125 55.328125 
Q 55.078125 49.078125 51.53125 44.71875 
Q 48 40.375 41.703125 38.8125 
Q 48.828125 37.15625 52.796875 32.3125 
Q 56.78125 27.484375 56.78125 20.515625 
Q 56.78125 9.90625 50.3125 4.234375 
Q 43.84375 -1.421875 31.78125 -1.421875 
Q 19.734375 -1.421875 13.25 4.234375 
Q 6.78125 9.90625 6.78125 20.515625 
Q 6.78125 27.484375 10.78125 32.3125 
Q 14.796875 37.15625 21.921875 38.8125 
z
M 18.3125 54.390625 
Q 18.3125 48.734375 21.84375 45.5625 
Q 25.390625 42.390625 31.78125 42.390625 
Q 38.140625 42.390625 41.71875 45.5625 
Q 45.3125 48.734375 45.3125 54.390625 
Q 45.3125 60.0625 41.71875 63.234375 
Q 38.140625 66.40625 31.78125 66.40625 
Q 25.390625 66.40625 21.84375 63.234375 
Q 18.3125 60.0625 18.3125 54.390625 
z
" id="DejaVuSans-56"/>
      </defs>
      <g transform="translate(361.608 554.95)rotate(-90)scale(0.1 -0.1)">
       <use xlink:href="#DejaVuSans-50"/>
       <use x="63.623047" xlink:href="#DejaVuSans-48"/>
       <use x="127.246094" xlink:href="#DejaVuSans-49"/>
       <use x="190.869141" xlink:href="#DejaVuSans-56"/>
      </g>
     </g>
    </g>
    <g id="xtick_4">
     <g id="line2d_4">
      <g>
       <use style="stroke:#000000;stroke-width:0.8;" x="477.985792" xlink:href="#m32d4c2711d" y="504"/>
      </g>
     </g>
     <g id="text_4">
      <!-- 2019 -->
      <defs>
       <path d="M 10.984375 1.515625 
L 10.984375 10.5 
Q 14.703125 8.734375 18.5 7.8125 
Q 22.3125 6.890625 25.984375 6.890625 
Q 35.75 6.890625 40.890625 13.453125 
Q 46.046875 20.015625 46.78125 33.40625 
Q 43.953125 29.203125 39.59375 26.953125 
Q 35.25 24.703125 29.984375 24.703125 
Q 19.046875 24.703125 12.671875 31.3125 
Q 6.296875 37.9375 6.296875 49.421875 
Q 6.296875 60.640625 12.9375 67.421875 
Q 19.578125 74.21875 30.609375 74.21875 
Q 43.265625 74.21875 49.921875 64.515625 
Q 56.59375 54.828125 56.59375 36.375 
Q 56.59375 19.140625 48.40625 8.859375 
Q 40.234375 -1.421875 26.421875 -1.421875 
Q 22.703125 -1.421875 18.890625 -0.6875 
Q 15.09375 0.046875 10.984375 1.515625 
z
M 30.609375 32.421875 
Q 37.25 32.421875 41.125 36.953125 
Q 45.015625 41.5 45.015625 49.421875 
Q 45.015625 57.28125 41.125 61.84375 
Q 37.25 66.40625 30.609375 66.40625 
Q 23.96875 66.40625 20.09375 61.84375 
Q 16.21875 57.28125 16.21875 49.421875 
Q 16.21875 41.5 20.09375 36.953125 
Q 23.96875 32.421875 30.609375 32.421875 
z
" id="DejaVuSans-57"/>
      </defs>
      <g transform="translate(480.745167 554.95)rotate(-90)scale(0.1 -0.1)">
       <use xlink:href="#DejaVuSans-50"/>
       <use x="63.623047" xlink:href="#DejaVuSans-48"/>
       <use x="127.246094" xlink:href="#DejaVuSans-49"/>
       <use x="190.869141" xlink:href="#DejaVuSans-57"/>
      </g>
     </g>
    </g>
    <g id="xtick_5">
     <g id="line2d_5">
      <defs>
       <path d="M 0 0 
L 0 2 
" id="macf38a4328" style="stroke:#000000;stroke-width:0.6;"/>
      </defs>
      <g>
       <use style="stroke:#000000;stroke-width:0.6;" x="80.426697" xlink:href="#macf38a4328" y="504"/>
      </g>
     </g>
    </g>
    <g id="xtick_6">
     <g id="line2d_6">
      <g>
       <use style="stroke:#000000;stroke-width:0.6;" x="90.218793" xlink:href="#macf38a4328" y="504"/>
      </g>
     </g>
     <g id="text_5">
      <!-- Oct -->
      <defs>
       <path d="M 39.40625 66.21875 
Q 28.65625 66.21875 22.328125 58.203125 
Q 16.015625 50.203125 16.015625 36.375 
Q 16.015625 22.609375 22.328125 14.59375 
Q 28.65625 6.59375 39.40625 6.59375 
Q 50.140625 6.59375 56.421875 14.59375 
Q 62.703125 22.609375 62.703125 36.375 
Q 62.703125 50.203125 56.421875 58.203125 
Q 50.140625 66.21875 39.40625 66.21875 
z
M 39.40625 74.21875 
Q 54.734375 74.21875 63.90625 63.9375 
Q 73.09375 53.65625 73.09375 36.375 
Q 73.09375 19.140625 63.90625 8.859375 
Q 54.734375 -1.421875 39.40625 -1.421875 
Q 24.03125 -1.421875 14.8125 8.828125 
Q 5.609375 19.09375 5.609375 36.375 
Q 5.609375 53.65625 14.8125 63.9375 
Q 24.03125 74.21875 39.40625 74.21875 
z
" id="DejaVuSans-79"/>
       <path d="M 48.78125 52.59375 
L 48.78125 44.1875 
Q 44.96875 46.296875 41.140625 47.34375 
Q 37.3125 48.390625 33.40625 48.390625 
Q 24.65625 48.390625 19.8125 42.84375 
Q 14.984375 37.3125 14.984375 27.296875 
Q 14.984375 17.28125 19.8125 11.734375 
Q 24.65625 6.203125 33.40625 6.203125 
Q 37.3125 6.203125 41.140625 7.25 
Q 44.96875 8.296875 48.78125 10.40625 
L 48.78125 2.09375 
Q 45.015625 0.34375 40.984375 -0.53125 
Q 36.96875 -1.421875 32.421875 -1.421875 
Q 20.0625 -1.421875 12.78125 6.34375 
Q 5.515625 14.109375 5.515625 27.296875 
Q 5.515625 40.671875 12.859375 48.328125 
Q 20.21875 56 33.015625 56 
Q 37.15625 56 41.109375 55.140625 
Q 45.0625 54.296875 48.78125 52.59375 
z
" id="DejaVuSans-99"/>
       <path d="M 18.3125 70.21875 
L 18.3125 54.6875 
L 36.8125 54.6875 
L 36.8125 47.703125 
L 18.3125 47.703125 
L 18.3125 18.015625 
Q 18.3125 11.328125 20.140625 9.421875 
Q 21.96875 7.515625 27.59375 7.515625 
L 36.8125 7.515625 
L 36.8125 0 
L 27.59375 0 
Q 17.1875 0 13.234375 3.875 
Q 9.28125 7.765625 9.28125 18.015625 
L 9.28125 47.703125 
L 2.6875 47.703125 
L 2.6875 54.6875 
L 9.28125 54.6875 
L 9.28125 70.21875 
z
" id="DejaVuSans-116"/>
      </defs>
      <g transform="translate(86.056807 526.999225)rotate(-45)scale(0.1 -0.1)">
       <use xlink:href="#DejaVuSans-79"/>
       <use x="78.710938" xlink:href="#DejaVuSans-99"/>
       <use x="133.691406" xlink:href="#DejaVuSans-116"/>
      </g>
     </g>
    </g>
    <g id="xtick_7">
     <g id="line2d_7">
      <g>
       <use style="stroke:#000000;stroke-width:0.6;" x="100.337292" xlink:href="#macf38a4328" y="504"/>
      </g>
     </g>
    </g>
    <g id="xtick_8">
     <g id="line2d_8">
      <g>
       <use style="stroke:#000000;stroke-width:0.6;" x="110.129388" xlink:href="#macf38a4328" y="504"/>
      </g>
     </g>
     <g id="text_6">
      <!-- Dec -->
      <defs>
       <path d="M 19.671875 64.796875 
L 19.671875 8.109375 
L 31.59375 8.109375 
Q 46.6875 8.109375 53.6875 14.9375 
Q 60.6875 21.78125 60.6875 36.53125 
Q 60.6875 51.171875 53.6875 57.984375 
Q 46.6875 64.796875 31.59375 64.796875 
z
M 9.8125 72.90625 
L 30.078125 72.90625 
Q 51.265625 72.90625 61.171875 64.09375 
Q 71.09375 55.28125 71.09375 36.53125 
Q 71.09375 17.671875 61.125 8.828125 
Q 51.171875 0 30.078125 0 
L 9.8125 0 
z
" id="DejaVuSans-68"/>
       <path d="M 56.203125 29.59375 
L 56.203125 25.203125 
L 14.890625 25.203125 
Q 15.484375 15.921875 20.484375 11.0625 
Q 25.484375 6.203125 34.421875 6.203125 
Q 39.59375 6.203125 44.453125 7.46875 
Q 49.3125 8.734375 54.109375 11.28125 
L 54.109375 2.78125 
Q 49.265625 0.734375 44.1875 -0.34375 
Q 39.109375 -1.421875 33.890625 -1.421875 
Q 20.796875 -1.421875 13.15625 6.1875 
Q 5.515625 13.8125 5.515625 26.8125 
Q 5.515625 40.234375 12.765625 48.109375 
Q 20.015625 56 32.328125 56 
Q 43.359375 56 49.78125 48.890625 
Q 56.203125 41.796875 56.203125 29.59375 
z
M 47.21875 32.234375 
Q 47.125 39.59375 43.09375 43.984375 
Q 39.0625 48.390625 32.421875 48.390625 
Q 24.90625 48.390625 20.390625 44.140625 
Q 15.875 39.890625 15.1875 32.171875 
z
" id="DejaVuSans-101"/>
      </defs>
      <g transform="translate(105.23875 528.456528)rotate(-45)scale(0.1 -0.1)">
       <use xlink:href="#DejaVuSans-68"/>
       <use x="77.001953" xlink:href="#DejaVuSans-101"/>
       <use x="138.525391" xlink:href="#DejaVuSans-99"/>
      </g>
     </g>
    </g>
    <g id="xtick_9">
     <g id="line2d_9">
      <g>
       <use style="stroke:#000000;stroke-width:0.6;" x="120.247887" xlink:href="#macf38a4328" y="504"/>
      </g>
     </g>
    </g>
    <g id="xtick_10">
     <g id="line2d_10">
      <g>
       <use style="stroke:#000000;stroke-width:0.6;" x="130.366386" xlink:href="#macf38a4328" y="504"/>
      </g>
     </g>
     <g id="text_7">
      <!-- Feb -->
      <defs>
       <path d="M 9.8125 72.90625 
L 51.703125 72.90625 
L 51.703125 64.59375 
L 19.671875 64.59375 
L 19.671875 43.109375 
L 48.578125 43.109375 
L 48.578125 34.8125 
L 19.671875 34.8125 
L 19.671875 0 
L 9.8125 0 
z
" id="DejaVuSans-70"/>
       <path d="M 48.6875 27.296875 
Q 48.6875 37.203125 44.609375 42.84375 
Q 40.53125 48.484375 33.40625 48.484375 
Q 26.265625 48.484375 22.1875 42.84375 
Q 18.109375 37.203125 18.109375 27.296875 
Q 18.109375 17.390625 22.1875 11.75 
Q 26.265625 6.109375 33.40625 6.109375 
Q 40.53125 6.109375 44.609375 11.75 
Q 48.6875 17.390625 48.6875 27.296875 
z
M 18.109375 46.390625 
Q 20.953125 51.265625 25.265625 53.625 
Q 29.59375 56 35.59375 56 
Q 45.5625 56 51.78125 48.09375 
Q 58.015625 40.1875 58.015625 27.296875 
Q 58.015625 14.40625 51.78125 6.484375 
Q 45.5625 -1.421875 35.59375 -1.421875 
Q 29.59375 -1.421875 25.265625 0.953125 
Q 20.953125 3.328125 18.109375 8.203125 
L 18.109375 0 
L 9.078125 0 
L 9.078125 75.984375 
L 18.109375 75.984375 
z
" id="DejaVuSans-98"/>
      </defs>
      <g transform="translate(125.866867 527.674291)rotate(-45)scale(0.1 -0.1)">
       <use xlink:href="#DejaVuSans-70"/>
       <use x="57.441406" xlink:href="#DejaVuSans-101"/>
       <use x="118.964844" xlink:href="#DejaVuSans-98"/>
      </g>
     </g>
    </g>
    <g id="xtick_11">
     <g id="line2d_11">
      <g>
       <use style="stroke:#000000;stroke-width:0.6;" x="139.832079" xlink:href="#macf38a4328" y="504"/>
      </g>
     </g>
    </g>
    <g id="xtick_12">
     <g id="line2d_12">
      <g>
       <use style="stroke:#000000;stroke-width:0.6;" x="149.950578" xlink:href="#macf38a4328" y="504"/>
      </g>
     </g>
     <g id="text_8">
      <!-- Apr -->
      <defs>
       <path d="M 34.1875 63.1875 
L 20.796875 26.90625 
L 47.609375 26.90625 
z
M 28.609375 72.90625 
L 39.796875 72.90625 
L 67.578125 0 
L 57.328125 0 
L 50.6875 18.703125 
L 17.828125 18.703125 
L 11.1875 0 
L 0.78125 0 
z
" id="DejaVuSans-65"/>
       <path d="M 18.109375 8.203125 
L 18.109375 -20.796875 
L 9.078125 -20.796875 
L 9.078125 54.6875 
L 18.109375 54.6875 
L 18.109375 46.390625 
Q 20.953125 51.265625 25.265625 53.625 
Q 29.59375 56 35.59375 56 
Q 45.5625 56 51.78125 48.09375 
Q 58.015625 40.1875 58.015625 27.296875 
Q 58.015625 14.40625 51.78125 6.484375 
Q 45.5625 -1.421875 35.59375 -1.421875 
Q 29.59375 -1.421875 25.265625 0.953125 
Q 20.953125 3.328125 18.109375 8.203125 
z
M 48.6875 27.296875 
Q 48.6875 37.203125 44.609375 42.84375 
Q 40.53125 48.484375 33.40625 48.484375 
Q 26.265625 48.484375 22.1875 42.84375 
Q 18.109375 37.203125 18.109375 27.296875 
Q 18.109375 17.390625 22.1875 11.75 
Q 26.265625 6.109375 33.40625 6.109375 
Q 40.53125 6.109375 44.609375 11.75 
Q 48.6875 17.390625 48.6875 27.296875 
z
" id="DejaVuSans-112"/>
       <path d="M 41.109375 46.296875 
Q 39.59375 47.171875 37.8125 47.578125 
Q 36.03125 48 33.890625 48 
Q 26.265625 48 22.1875 43.046875 
Q 18.109375 38.09375 18.109375 28.8125 
L 18.109375 0 
L 9.078125 0 
L 9.078125 54.6875 
L 18.109375 54.6875 
L 18.109375 46.1875 
Q 20.953125 51.171875 25.484375 53.578125 
Q 30.03125 56 36.53125 56 
Q 37.453125 56 38.578125 55.875 
Q 39.703125 55.765625 41.0625 55.515625 
z
" id="DejaVuSans-114"/>
      </defs>
      <g transform="translate(145.785277 527.005854)rotate(-45)scale(0.1 -0.1)">
       <use xlink:href="#DejaVuSans-65"/>
       <use x="68.408203" xlink:href="#DejaVuSans-112"/>
       <use x="131.884766" xlink:href="#DejaVuSans-114"/>
      </g>
     </g>
    </g>
    <g id="xtick_13">
     <g id="line2d_13">
      <g>
       <use style="stroke:#000000;stroke-width:0.6;" x="159.742674" xlink:href="#macf38a4328" y="504"/>
      </g>
     </g>
    </g>
    <g id="xtick_14">
     <g id="line2d_14">
      <g>
       <use style="stroke:#000000;stroke-width:0.6;" x="169.861173" xlink:href="#macf38a4328" y="504"/>
      </g>
     </g>
     <g id="text_9">
      <!-- Jun -->
      <defs>
       <path d="M 9.8125 72.90625 
L 19.671875 72.90625 
L 19.671875 5.078125 
Q 19.671875 -8.109375 14.671875 -14.0625 
Q 9.671875 -20.015625 -1.421875 -20.015625 
L -5.171875 -20.015625 
L -5.171875 -11.71875 
L -2.09375 -11.71875 
Q 4.4375 -11.71875 7.125 -8.046875 
Q 9.8125 -4.390625 9.8125 5.078125 
z
" id="DejaVuSans-74"/>
       <path d="M 8.5 21.578125 
L 8.5 54.6875 
L 17.484375 54.6875 
L 17.484375 21.921875 
Q 17.484375 14.15625 20.5 10.265625 
Q 23.53125 6.390625 29.59375 6.390625 
Q 36.859375 6.390625 41.078125 11.03125 
Q 45.3125 15.671875 45.3125 23.6875 
L 45.3125 54.6875 
L 54.296875 54.6875 
L 54.296875 0 
L 45.3125 0 
L 45.3125 8.40625 
Q 42.046875 3.421875 37.71875 1 
Q 33.40625 -1.421875 27.6875 -1.421875 
Q 18.265625 -1.421875 13.375 4.4375 
Q 8.5 10.296875 8.5 21.578125 
z
M 31.109375 56 
z
" id="DejaVuSans-117"/>
       <path d="M 54.890625 33.015625 
L 54.890625 0 
L 45.90625 0 
L 45.90625 32.71875 
Q 45.90625 40.484375 42.875 44.328125 
Q 39.84375 48.1875 33.796875 48.1875 
Q 26.515625 48.1875 22.3125 43.546875 
Q 18.109375 38.921875 18.109375 30.90625 
L 18.109375 0 
L 9.078125 0 
L 9.078125 54.6875 
L 18.109375 54.6875 
L 18.109375 46.1875 
Q 21.34375 51.125 25.703125 53.5625 
Q 30.078125 56 35.796875 56 
Q 45.21875 56 50.046875 50.171875 
Q 54.890625 44.34375 54.890625 33.015625 
z
" id="DejaVuSans-110"/>
      </defs>
      <g transform="translate(166.288074 525.82145)rotate(-45)scale(0.1 -0.1)">
       <use xlink:href="#DejaVuSans-74"/>
       <use x="29.492188" xlink:href="#DejaVuSans-117"/>
       <use x="92.871094" xlink:href="#DejaVuSans-110"/>
      </g>
     </g>
    </g>
    <g id="xtick_15">
     <g id="line2d_15">
      <g>
       <use style="stroke:#000000;stroke-width:0.6;" x="179.653269" xlink:href="#macf38a4328" y="504"/>
      </g>
     </g>
    </g>
    <g id="xtick_16">
     <g id="line2d_16">
      <g>
       <use style="stroke:#000000;stroke-width:0.6;" x="189.771768" xlink:href="#macf38a4328" y="504"/>
      </g>
     </g>
     <g id="text_10">
      <!-- Aug -->
      <defs>
       <path d="M 45.40625 27.984375 
Q 45.40625 37.75 41.375 43.109375 
Q 37.359375 48.484375 30.078125 48.484375 
Q 22.859375 48.484375 18.828125 43.109375 
Q 14.796875 37.75 14.796875 27.984375 
Q 14.796875 18.265625 18.828125 12.890625 
Q 22.859375 7.515625 30.078125 7.515625 
Q 37.359375 7.515625 41.375 12.890625 
Q 45.40625 18.265625 45.40625 27.984375 
z
M 54.390625 6.78125 
Q 54.390625 -7.171875 48.1875 -13.984375 
Q 42 -20.796875 29.203125 -20.796875 
Q 24.46875 -20.796875 20.265625 -20.09375 
Q 16.0625 -19.390625 12.109375 -17.921875 
L 12.109375 -9.1875 
Q 16.0625 -11.328125 19.921875 -12.34375 
Q 23.78125 -13.375 27.78125 -13.375 
Q 36.625 -13.375 41.015625 -8.765625 
Q 45.40625 -4.15625 45.40625 5.171875 
L 45.40625 9.625 
Q 42.625 4.78125 38.28125 2.390625 
Q 33.9375 0 27.875 0 
Q 17.828125 0 11.671875 7.65625 
Q 5.515625 15.328125 5.515625 27.984375 
Q 5.515625 40.671875 11.671875 48.328125 
Q 17.828125 56 27.875 56 
Q 33.9375 56 38.28125 53.609375 
Q 42.625 51.21875 45.40625 46.390625 
L 45.40625 54.6875 
L 54.390625 54.6875 
z
" id="DejaVuSans-103"/>
      </defs>
      <g transform="translate(184.819258 528.580271)rotate(-45)scale(0.1 -0.1)">
       <use xlink:href="#DejaVuSans-65"/>
       <use x="68.408203" xlink:href="#DejaVuSans-117"/>
       <use x="131.787109" xlink:href="#DejaVuSans-103"/>
      </g>
     </g>
    </g>
    <g id="xtick_17">
     <g id="line2d_17">
      <g>
       <use style="stroke:#000000;stroke-width:0.6;" x="199.890267" xlink:href="#macf38a4328" y="504"/>
      </g>
     </g>
    </g>
    <g id="xtick_18">
     <g id="line2d_18">
      <g>
       <use style="stroke:#000000;stroke-width:0.6;" x="209.682363" xlink:href="#macf38a4328" y="504"/>
      </g>
     </g>
     <g id="text_11">
      <!-- Oct -->
      <g transform="translate(205.520376 526.999225)rotate(-45)scale(0.1 -0.1)">
       <use xlink:href="#DejaVuSans-79"/>
       <use x="78.710938" xlink:href="#DejaVuSans-99"/>
       <use x="133.691406" xlink:href="#DejaVuSans-116"/>
      </g>
     </g>
    </g>
    <g id="xtick_19">
     <g id="line2d_19">
      <g>
       <use style="stroke:#000000;stroke-width:0.6;" x="219.800862" xlink:href="#macf38a4328" y="504"/>
      </g>
     </g>
    </g>
    <g id="xtick_20">
     <g id="line2d_20">
      <g>
       <use style="stroke:#000000;stroke-width:0.6;" x="229.592958" xlink:href="#macf38a4328" y="504"/>
      </g>
     </g>
     <g id="text_12">
      <!-- Dec -->
      <g transform="translate(224.70232 528.456528)rotate(-45)scale(0.1 -0.1)">
       <use xlink:href="#DejaVuSans-68"/>
       <use x="77.001953" xlink:href="#DejaVuSans-101"/>
       <use x="138.525391" xlink:href="#DejaVuSans-99"/>
      </g>
     </g>
    </g>
    <g id="xtick_21">
     <g id="line2d_21">
      <g>
       <use style="stroke:#000000;stroke-width:0.6;" x="239.711457" xlink:href="#macf38a4328" y="504"/>
      </g>
     </g>
    </g>
    <g id="xtick_22">
     <g id="line2d_22">
      <g>
       <use style="stroke:#000000;stroke-width:0.6;" x="249.829956" xlink:href="#macf38a4328" y="504"/>
      </g>
     </g>
     <g id="text_13">
      <!-- Feb -->
      <g transform="translate(245.330436 527.674291)rotate(-45)scale(0.1 -0.1)">
       <use xlink:href="#DejaVuSans-70"/>
       <use x="57.441406" xlink:href="#DejaVuSans-101"/>
       <use x="118.964844" xlink:href="#DejaVuSans-98"/>
      </g>
     </g>
    </g>
    <g id="xtick_23">
     <g id="line2d_23">
      <g>
       <use style="stroke:#000000;stroke-width:0.6;" x="258.969245" xlink:href="#macf38a4328" y="504"/>
      </g>
     </g>
    </g>
    <g id="xtick_24">
     <g id="line2d_24">
      <g>
       <use style="stroke:#000000;stroke-width:0.6;" x="269.087744" xlink:href="#macf38a4328" y="504"/>
      </g>
     </g>
     <g id="text_14">
      <!-- Apr -->
      <g transform="translate(264.922443 527.005854)rotate(-45)scale(0.1 -0.1)">
       <use xlink:href="#DejaVuSans-65"/>
       <use x="68.408203" xlink:href="#DejaVuSans-112"/>
       <use x="131.884766" xlink:href="#DejaVuSans-114"/>
      </g>
     </g>
    </g>
    <g id="xtick_25">
     <g id="line2d_25">
      <g>
       <use style="stroke:#000000;stroke-width:0.6;" x="278.87984" xlink:href="#macf38a4328" y="504"/>
      </g>
     </g>
    </g>
    <g id="xtick_26">
     <g id="line2d_26">
      <g>
       <use style="stroke:#000000;stroke-width:0.6;" x="288.998339" xlink:href="#macf38a4328" y="504"/>
      </g>
     </g>
     <g id="text_15">
      <!-- Jun -->
      <g transform="translate(285.42524 525.82145)rotate(-45)scale(0.1 -0.1)">
       <use xlink:href="#DejaVuSans-74"/>
       <use x="29.492188" xlink:href="#DejaVuSans-117"/>
       <use x="92.871094" xlink:href="#DejaVuSans-110"/>
      </g>
     </g>
    </g>
    <g id="xtick_27">
     <g id="line2d_27">
      <g>
       <use style="stroke:#000000;stroke-width:0.6;" x="298.790435" xlink:href="#macf38a4328" y="504"/>
      </g>
     </g>
    </g>
    <g id="xtick_28">
     <g id="line2d_28">
      <g>
       <use style="stroke:#000000;stroke-width:0.6;" x="308.908934" xlink:href="#macf38a4328" y="504"/>
      </g>
     </g>
     <g id="text_16">
      <!-- Aug -->
      <g transform="translate(303.956425 528.580271)rotate(-45)scale(0.1 -0.1)">
       <use xlink:href="#DejaVuSans-65"/>
       <use x="68.408203" xlink:href="#DejaVuSans-117"/>
       <use x="131.787109" xlink:href="#DejaVuSans-103"/>
      </g>
     </g>
    </g>
    <g id="xtick_29">
     <g id="line2d_29">
      <g>
       <use style="stroke:#000000;stroke-width:0.6;" x="319.027433" xlink:href="#macf38a4328" y="504"/>
      </g>
     </g>
    </g>
    <g id="xtick_30">
     <g id="line2d_30">
      <g>
       <use style="stroke:#000000;stroke-width:0.6;" x="328.819529" xlink:href="#macf38a4328" y="504"/>
      </g>
     </g>
     <g id="text_17">
      <!-- Oct -->
      <g transform="translate(324.657543 526.999225)rotate(-45)scale(0.1 -0.1)">
       <use xlink:href="#DejaVuSans-79"/>
       <use x="78.710938" xlink:href="#DejaVuSans-99"/>
       <use x="133.691406" xlink:href="#DejaVuSans-116"/>
      </g>
     </g>
    </g>
    <g id="xtick_31">
     <g id="line2d_31">
      <g>
       <use style="stroke:#000000;stroke-width:0.6;" x="338.938028" xlink:href="#macf38a4328" y="504"/>
      </g>
     </g>
    </g>
    <g id="xtick_32">
     <g id="line2d_32">
      <g>
       <use style="stroke:#000000;stroke-width:0.6;" x="348.730124" xlink:href="#macf38a4328" y="504"/>
      </g>
     </g>
     <g id="text_18">
      <!-- Dec -->
      <g transform="translate(343.839486 528.456528)rotate(-45)scale(0.1 -0.1)">
       <use xlink:href="#DejaVuSans-68"/>
       <use x="77.001953" xlink:href="#DejaVuSans-101"/>
       <use x="138.525391" xlink:href="#DejaVuSans-99"/>
      </g>
     </g>
    </g>
    <g id="xtick_33">
     <g id="line2d_33">
      <g>
       <use style="stroke:#000000;stroke-width:0.6;" x="358.848623" xlink:href="#macf38a4328" y="504"/>
      </g>
     </g>
    </g>
    <g id="xtick_34">
     <g id="line2d_34">
      <g>
       <use style="stroke:#000000;stroke-width:0.6;" x="368.967122" xlink:href="#macf38a4328" y="504"/>
      </g>
     </g>
     <g id="text_19">
      <!-- Feb -->
      <g transform="translate(364.467603 527.674291)rotate(-45)scale(0.1 -0.1)">
       <use xlink:href="#DejaVuSans-70"/>
       <use x="57.441406" xlink:href="#DejaVuSans-101"/>
       <use x="118.964844" xlink:href="#DejaVuSans-98"/>
      </g>
     </g>
    </g>
    <g id="xtick_35">
     <g id="line2d_35">
      <g>
       <use style="stroke:#000000;stroke-width:0.6;" x="378.106412" xlink:href="#macf38a4328" y="504"/>
      </g>
     </g>
    </g>
    <g id="xtick_36">
     <g id="line2d_36">
      <g>
       <use style="stroke:#000000;stroke-width:0.6;" x="388.224911" xlink:href="#macf38a4328" y="504"/>
      </g>
     </g>
     <g id="text_20">
      <!-- Apr -->
      <g transform="translate(384.05961 527.005854)rotate(-45)scale(0.1 -0.1)">
       <use xlink:href="#DejaVuSans-65"/>
       <use x="68.408203" xlink:href="#DejaVuSans-112"/>
       <use x="131.884766" xlink:href="#DejaVuSans-114"/>
      </g>
     </g>
    </g>
    <g id="xtick_37">
     <g id="line2d_37">
      <g>
       <use style="stroke:#000000;stroke-width:0.6;" x="398.017007" xlink:href="#macf38a4328" y="504"/>
      </g>
     </g>
    </g>
    <g id="xtick_38">
     <g id="line2d_38">
      <g>
       <use style="stroke:#000000;stroke-width:0.6;" x="408.135506" xlink:href="#macf38a4328" y="504"/>
      </g>
     </g>
     <g id="text_21">
      <!-- Jun -->
      <g transform="translate(404.562407 525.82145)rotate(-45)scale(0.1 -0.1)">
       <use xlink:href="#DejaVuSans-74"/>
       <use x="29.492188" xlink:href="#DejaVuSans-117"/>
       <use x="92.871094" xlink:href="#DejaVuSans-110"/>
      </g>
     </g>
    </g>
    <g id="xtick_39">
     <g id="line2d_39">
      <g>
       <use style="stroke:#000000;stroke-width:0.6;" x="417.927602" xlink:href="#macf38a4328" y="504"/>
      </g>
     </g>
    </g>
    <g id="xtick_40">
     <g id="line2d_40">
      <g>
       <use style="stroke:#000000;stroke-width:0.6;" x="428.046101" xlink:href="#macf38a4328" y="504"/>
      </g>
     </g>
     <g id="text_22">
      <!-- Aug -->
      <g transform="translate(423.093591 528.580271)rotate(-45)scale(0.1 -0.1)">
       <use xlink:href="#DejaVuSans-65"/>
       <use x="68.408203" xlink:href="#DejaVuSans-117"/>
       <use x="131.787109" xlink:href="#DejaVuSans-103"/>
      </g>
     </g>
    </g>
    <g id="xtick_41">
     <g id="line2d_41">
      <g>
       <use style="stroke:#000000;stroke-width:0.6;" x="438.1646" xlink:href="#macf38a4328" y="504"/>
      </g>
     </g>
    </g>
    <g id="xtick_42">
     <g id="line2d_42">
      <g>
       <use style="stroke:#000000;stroke-width:0.6;" x="447.956696" xlink:href="#macf38a4328" y="504"/>
      </g>
     </g>
     <g id="text_23">
      <!-- Oct -->
      <g transform="translate(443.794709 526.999225)rotate(-45)scale(0.1 -0.1)">
       <use xlink:href="#DejaVuSans-79"/>
       <use x="78.710938" xlink:href="#DejaVuSans-99"/>
       <use x="133.691406" xlink:href="#DejaVuSans-116"/>
      </g>
     </g>
    </g>
    <g id="xtick_43">
     <g id="line2d_43">
      <g>
       <use style="stroke:#000000;stroke-width:0.6;" x="458.075195" xlink:href="#macf38a4328" y="504"/>
      </g>
     </g>
    </g>
    <g id="xtick_44">
     <g id="line2d_44">
      <g>
       <use style="stroke:#000000;stroke-width:0.6;" x="467.867291" xlink:href="#macf38a4328" y="504"/>
      </g>
     </g>
     <g id="text_24">
      <!-- Dec -->
      <g transform="translate(462.976653 528.456528)rotate(-45)scale(0.1 -0.1)">
       <use xlink:href="#DejaVuSans-68"/>
       <use x="77.001953" xlink:href="#DejaVuSans-101"/>
       <use x="138.525391" xlink:href="#DejaVuSans-99"/>
      </g>
     </g>
    </g>
    <g id="xtick_45">
     <g id="line2d_45">
      <g>
       <use style="stroke:#000000;stroke-width:0.6;" x="477.98579" xlink:href="#macf38a4328" y="504"/>
      </g>
     </g>
    </g>
    <g id="xtick_46">
     <g id="line2d_46">
      <g>
       <use style="stroke:#000000;stroke-width:0.6;" x="488.104289" xlink:href="#macf38a4328" y="504"/>
      </g>
     </g>
     <g id="text_25">
      <!-- Feb -->
      <g transform="translate(483.60477 527.674291)rotate(-45)scale(0.1 -0.1)">
       <use xlink:href="#DejaVuSans-70"/>
       <use x="57.441406" xlink:href="#DejaVuSans-101"/>
       <use x="118.964844" xlink:href="#DejaVuSans-98"/>
      </g>
     </g>
    </g>
    <g id="xtick_47">
     <g id="line2d_47">
      <g>
       <use style="stroke:#000000;stroke-width:0.6;" x="497.243578" xlink:href="#macf38a4328" y="504"/>
      </g>
     </g>
    </g>
    <g id="xtick_48">
     <g id="line2d_48">
      <g>
       <use style="stroke:#000000;stroke-width:0.6;" x="507.362077" xlink:href="#macf38a4328" y="504"/>
      </g>
     </g>
     <g id="text_26">
      <!-- Apr -->
      <g transform="translate(503.196777 527.005854)rotate(-45)scale(0.1 -0.1)">
       <use xlink:href="#DejaVuSans-65"/>
       <use x="68.408203" xlink:href="#DejaVuSans-112"/>
       <use x="131.884766" xlink:href="#DejaVuSans-114"/>
      </g>
     </g>
    </g>
    <g id="xtick_49">
     <g id="line2d_49">
      <g>
       <use style="stroke:#000000;stroke-width:0.6;" x="517.154173" xlink:href="#macf38a4328" y="504"/>
      </g>
     </g>
    </g>
   </g>
   <g id="matplotlib.axis_2">
    <g id="ytick_1">
     <g id="line2d_50">
      <path clip-path="url(#p7d8080667a)" d="M 72 496.777973 
L 518.4 496.777973 
" style="fill:none;stroke:#708090;stroke-linecap:square;stroke-opacity:0.5;"/>
     </g>
     <g id="line2d_51">
      <defs>
       <path d="M 0 0 
L -3.5 0 
" id="ma0a44f3e9f" style="stroke:#000000;stroke-width:0.8;"/>
      </defs>
      <g>
       <use style="stroke:#000000;stroke-width:0.8;" x="72" xlink:href="#ma0a44f3e9f" y="496.777973"/>
      </g>
     </g>
     <g id="text_27">
      <!-- 0 -->
      <g transform="translate(58.6375 500.577192)scale(0.1 -0.1)">
       <use xlink:href="#DejaVuSans-48"/>
      </g>
     </g>
    </g>
    <g id="ytick_2">
     <g id="line2d_52">
      <path clip-path="url(#p7d8080667a)" d="M 72 442.309878 
L 518.4 442.309878 
" style="fill:none;stroke:#708090;stroke-linecap:square;stroke-opacity:0.5;"/>
     </g>
     <g id="line2d_53">
      <g>
       <use style="stroke:#000000;stroke-width:0.8;" x="72" xlink:href="#ma0a44f3e9f" y="442.309878"/>
      </g>
     </g>
     <g id="text_28">
      <!-- 10 -->
      <g transform="translate(52.275 446.109097)scale(0.1 -0.1)">
       <use xlink:href="#DejaVuSans-49"/>
       <use x="63.623047" xlink:href="#DejaVuSans-48"/>
      </g>
     </g>
    </g>
    <g id="ytick_3">
     <g id="line2d_54">
      <path clip-path="url(#p7d8080667a)" d="M 72 387.841783 
L 518.4 387.841783 
" style="fill:none;stroke:#708090;stroke-linecap:square;stroke-opacity:0.5;"/>
     </g>
     <g id="line2d_55">
      <g>
       <use style="stroke:#000000;stroke-width:0.8;" x="72" xlink:href="#ma0a44f3e9f" y="387.841783"/>
      </g>
     </g>
     <g id="text_29">
      <!-- 20 -->
      <g transform="translate(52.275 391.641002)scale(0.1 -0.1)">
       <use xlink:href="#DejaVuSans-50"/>
       <use x="63.623047" xlink:href="#DejaVuSans-48"/>
      </g>
     </g>
    </g>
    <g id="ytick_4">
     <g id="line2d_56">
      <path clip-path="url(#p7d8080667a)" d="M 72 333.373688 
L 518.4 333.373688 
" style="fill:none;stroke:#708090;stroke-linecap:square;stroke-opacity:0.5;"/>
     </g>
     <g id="line2d_57">
      <g>
       <use style="stroke:#000000;stroke-width:0.8;" x="72" xlink:href="#ma0a44f3e9f" y="333.373688"/>
      </g>
     </g>
     <g id="text_30">
      <!-- 30 -->
      <defs>
       <path d="M 40.578125 39.3125 
Q 47.65625 37.796875 51.625 33 
Q 55.609375 28.21875 55.609375 21.1875 
Q 55.609375 10.40625 48.1875 4.484375 
Q 40.765625 -1.421875 27.09375 -1.421875 
Q 22.515625 -1.421875 17.65625 -0.515625 
Q 12.796875 0.390625 7.625 2.203125 
L 7.625 11.71875 
Q 11.71875 9.328125 16.59375 8.109375 
Q 21.484375 6.890625 26.8125 6.890625 
Q 36.078125 6.890625 40.9375 10.546875 
Q 45.796875 14.203125 45.796875 21.1875 
Q 45.796875 27.640625 41.28125 31.265625 
Q 36.765625 34.90625 28.71875 34.90625 
L 20.21875 34.90625 
L 20.21875 43.015625 
L 29.109375 43.015625 
Q 36.375 43.015625 40.234375 45.921875 
Q 44.09375 48.828125 44.09375 54.296875 
Q 44.09375 59.90625 40.109375 62.90625 
Q 36.140625 65.921875 28.71875 65.921875 
Q 24.65625 65.921875 20.015625 65.03125 
Q 15.375 64.15625 9.8125 62.3125 
L 9.8125 71.09375 
Q 15.4375 72.65625 20.34375 73.4375 
Q 25.25 74.21875 29.59375 74.21875 
Q 40.828125 74.21875 47.359375 69.109375 
Q 53.90625 64.015625 53.90625 55.328125 
Q 53.90625 49.265625 50.4375 45.09375 
Q 46.96875 40.921875 40.578125 39.3125 
z
" id="DejaVuSans-51"/>
      </defs>
      <g transform="translate(52.275 337.172907)scale(0.1 -0.1)">
       <use xlink:href="#DejaVuSans-51"/>
       <use x="63.623047" xlink:href="#DejaVuSans-48"/>
      </g>
     </g>
    </g>
    <g id="ytick_5">
     <g id="line2d_58">
      <path clip-path="url(#p7d8080667a)" d="M 72 278.905593 
L 518.4 278.905593 
" style="fill:none;stroke:#708090;stroke-linecap:square;stroke-opacity:0.5;"/>
     </g>
     <g id="line2d_59">
      <g>
       <use style="stroke:#000000;stroke-width:0.8;" x="72" xlink:href="#ma0a44f3e9f" y="278.905593"/>
      </g>
     </g>
     <g id="text_31">
      <!-- 40 -->
      <defs>
       <path d="M 37.796875 64.3125 
L 12.890625 25.390625 
L 37.796875 25.390625 
z
M 35.203125 72.90625 
L 47.609375 72.90625 
L 47.609375 25.390625 
L 58.015625 25.390625 
L 58.015625 17.1875 
L 47.609375 17.1875 
L 47.609375 0 
L 37.796875 0 
L 37.796875 17.1875 
L 4.890625 17.1875 
L 4.890625 26.703125 
z
" id="DejaVuSans-52"/>
      </defs>
      <g transform="translate(52.275 282.704812)scale(0.1 -0.1)">
       <use xlink:href="#DejaVuSans-52"/>
       <use x="63.623047" xlink:href="#DejaVuSans-48"/>
      </g>
     </g>
    </g>
    <g id="ytick_6">
     <g id="line2d_60">
      <path clip-path="url(#p7d8080667a)" d="M 72 224.437498 
L 518.4 224.437498 
" style="fill:none;stroke:#708090;stroke-linecap:square;stroke-opacity:0.5;"/>
     </g>
     <g id="line2d_61">
      <g>
       <use style="stroke:#000000;stroke-width:0.8;" x="72" xlink:href="#ma0a44f3e9f" y="224.437498"/>
      </g>
     </g>
     <g id="text_32">
      <!-- 50 -->
      <defs>
       <path d="M 10.796875 72.90625 
L 49.515625 72.90625 
L 49.515625 64.59375 
L 19.828125 64.59375 
L 19.828125 46.734375 
Q 21.96875 47.46875 24.109375 47.828125 
Q 26.265625 48.1875 28.421875 48.1875 
Q 40.625 48.1875 47.75 41.5 
Q 54.890625 34.8125 54.890625 23.390625 
Q 54.890625 11.625 47.5625 5.09375 
Q 40.234375 -1.421875 26.90625 -1.421875 
Q 22.3125 -1.421875 17.546875 -0.640625 
Q 12.796875 0.140625 7.71875 1.703125 
L 7.71875 11.625 
Q 12.109375 9.234375 16.796875 8.0625 
Q 21.484375 6.890625 26.703125 6.890625 
Q 35.15625 6.890625 40.078125 11.328125 
Q 45.015625 15.765625 45.015625 23.390625 
Q 45.015625 31 40.078125 35.4375 
Q 35.15625 39.890625 26.703125 39.890625 
Q 22.75 39.890625 18.8125 39.015625 
Q 14.890625 38.140625 10.796875 36.28125 
z
" id="DejaVuSans-53"/>
      </defs>
      <g transform="translate(52.275 228.236717)scale(0.1 -0.1)">
       <use xlink:href="#DejaVuSans-53"/>
       <use x="63.623047" xlink:href="#DejaVuSans-48"/>
      </g>
     </g>
    </g>
    <g id="ytick_7">
     <g id="line2d_62">
      <path clip-path="url(#p7d8080667a)" d="M 72 169.969403 
L 518.4 169.969403 
" style="fill:none;stroke:#708090;stroke-linecap:square;stroke-opacity:0.5;"/>
     </g>
     <g id="line2d_63">
      <g>
       <use style="stroke:#000000;stroke-width:0.8;" x="72" xlink:href="#ma0a44f3e9f" y="169.969403"/>
      </g>
     </g>
     <g id="text_33">
      <!-- 60 -->
      <g transform="translate(52.275 173.768622)scale(0.1 -0.1)">
       <use xlink:href="#DejaVuSans-54"/>
       <use x="63.623047" xlink:href="#DejaVuSans-48"/>
      </g>
     </g>
    </g>
    <g id="ytick_8">
     <g id="line2d_64">
      <path clip-path="url(#p7d8080667a)" d="M 72 115.501308 
L 518.4 115.501308 
" style="fill:none;stroke:#708090;stroke-linecap:square;stroke-opacity:0.5;"/>
     </g>
     <g id="line2d_65">
      <g>
       <use style="stroke:#000000;stroke-width:0.8;" x="72" xlink:href="#ma0a44f3e9f" y="115.501308"/>
      </g>
     </g>
     <g id="text_34">
      <!-- 70 -->
      <g transform="translate(52.275 119.300527)scale(0.1 -0.1)">
       <use xlink:href="#DejaVuSans-55"/>
       <use x="63.623047" xlink:href="#DejaVuSans-48"/>
      </g>
     </g>
    </g>
    <g id="ytick_9">
     <g id="line2d_66">
      <path clip-path="url(#p7d8080667a)" d="M 72 496.777973 
L 518.4 496.777973 
" style="fill:none;stroke:#708090;stroke-linecap:square;stroke-opacity:0.2;"/>
     </g>
     <g id="line2d_67">
      <defs>
       <path d="M 0 0 
L -2 0 
" id="m01d9ae65e0" style="stroke:#000000;stroke-width:0.6;"/>
      </defs>
      <g>
       <use style="stroke:#000000;stroke-width:0.6;" x="72" xlink:href="#m01d9ae65e0" y="496.777973"/>
      </g>
     </g>
    </g>
    <g id="ytick_10">
     <g id="line2d_68">
      <path clip-path="url(#p7d8080667a)" d="M 72 485.884354 
L 518.4 485.884354 
" style="fill:none;stroke:#708090;stroke-linecap:square;stroke-opacity:0.2;"/>
     </g>
     <g id="line2d_69">
      <g>
       <use style="stroke:#000000;stroke-width:0.6;" x="72" xlink:href="#m01d9ae65e0" y="485.884354"/>
      </g>
     </g>
    </g>
    <g id="ytick_11">
     <g id="line2d_70">
      <path clip-path="url(#p7d8080667a)" d="M 72 474.990735 
L 518.4 474.990735 
" style="fill:none;stroke:#708090;stroke-linecap:square;stroke-opacity:0.2;"/>
     </g>
     <g id="line2d_71">
      <g>
       <use style="stroke:#000000;stroke-width:0.6;" x="72" xlink:href="#m01d9ae65e0" y="474.990735"/>
      </g>
     </g>
    </g>
    <g id="ytick_12">
     <g id="line2d_72">
      <path clip-path="url(#p7d8080667a)" d="M 72 464.097116 
L 518.4 464.097116 
" style="fill:none;stroke:#708090;stroke-linecap:square;stroke-opacity:0.2;"/>
     </g>
     <g id="line2d_73">
      <g>
       <use style="stroke:#000000;stroke-width:0.6;" x="72" xlink:href="#m01d9ae65e0" y="464.097116"/>
      </g>
     </g>
    </g>
    <g id="ytick_13">
     <g id="line2d_74">
      <path clip-path="url(#p7d8080667a)" d="M 72 453.203497 
L 518.4 453.203497 
" style="fill:none;stroke:#708090;stroke-linecap:square;stroke-opacity:0.2;"/>
     </g>
     <g id="line2d_75">
      <g>
       <use style="stroke:#000000;stroke-width:0.6;" x="72" xlink:href="#m01d9ae65e0" y="453.203497"/>
      </g>
     </g>
    </g>
    <g id="ytick_14">
     <g id="line2d_76">
      <path clip-path="url(#p7d8080667a)" d="M 72 442.309878 
L 518.4 442.309878 
" style="fill:none;stroke:#708090;stroke-linecap:square;stroke-opacity:0.2;"/>
     </g>
     <g id="line2d_77">
      <g>
       <use style="stroke:#000000;stroke-width:0.6;" x="72" xlink:href="#m01d9ae65e0" y="442.309878"/>
      </g>
     </g>
    </g>
    <g id="ytick_15">
     <g id="line2d_78">
      <path clip-path="url(#p7d8080667a)" d="M 72 431.416259 
L 518.4 431.416259 
" style="fill:none;stroke:#708090;stroke-linecap:square;stroke-opacity:0.2;"/>
     </g>
     <g id="line2d_79">
      <g>
       <use style="stroke:#000000;stroke-width:0.6;" x="72" xlink:href="#m01d9ae65e0" y="431.416259"/>
      </g>
     </g>
    </g>
    <g id="ytick_16">
     <g id="line2d_80">
      <path clip-path="url(#p7d8080667a)" d="M 72 420.52264 
L 518.4 420.52264 
" style="fill:none;stroke:#708090;stroke-linecap:square;stroke-opacity:0.2;"/>
     </g>
     <g id="line2d_81">
      <g>
       <use style="stroke:#000000;stroke-width:0.6;" x="72" xlink:href="#m01d9ae65e0" y="420.52264"/>
      </g>
     </g>
    </g>
    <g id="ytick_17">
     <g id="line2d_82">
      <path clip-path="url(#p7d8080667a)" d="M 72 409.629021 
L 518.4 409.629021 
" style="fill:none;stroke:#708090;stroke-linecap:square;stroke-opacity:0.2;"/>
     </g>
     <g id="line2d_83">
      <g>
       <use style="stroke:#000000;stroke-width:0.6;" x="72" xlink:href="#m01d9ae65e0" y="409.629021"/>
      </g>
     </g>
    </g>
    <g id="ytick_18">
     <g id="line2d_84">
      <path clip-path="url(#p7d8080667a)" d="M 72 398.735402 
L 518.4 398.735402 
" style="fill:none;stroke:#708090;stroke-linecap:square;stroke-opacity:0.2;"/>
     </g>
     <g id="line2d_85">
      <g>
       <use style="stroke:#000000;stroke-width:0.6;" x="72" xlink:href="#m01d9ae65e0" y="398.735402"/>
      </g>
     </g>
    </g>
    <g id="ytick_19">
     <g id="line2d_86">
      <path clip-path="url(#p7d8080667a)" d="M 72 387.841783 
L 518.4 387.841783 
" style="fill:none;stroke:#708090;stroke-linecap:square;stroke-opacity:0.2;"/>
     </g>
     <g id="line2d_87">
      <g>
       <use style="stroke:#000000;stroke-width:0.6;" x="72" xlink:href="#m01d9ae65e0" y="387.841783"/>
      </g>
     </g>
    </g>
    <g id="ytick_20">
     <g id="line2d_88">
      <path clip-path="url(#p7d8080667a)" d="M 72 376.948164 
L 518.4 376.948164 
" style="fill:none;stroke:#708090;stroke-linecap:square;stroke-opacity:0.2;"/>
     </g>
     <g id="line2d_89">
      <g>
       <use style="stroke:#000000;stroke-width:0.6;" x="72" xlink:href="#m01d9ae65e0" y="376.948164"/>
      </g>
     </g>
    </g>
    <g id="ytick_21">
     <g id="line2d_90">
      <path clip-path="url(#p7d8080667a)" d="M 72 366.054545 
L 518.4 366.054545 
" style="fill:none;stroke:#708090;stroke-linecap:square;stroke-opacity:0.2;"/>
     </g>
     <g id="line2d_91">
      <g>
       <use style="stroke:#000000;stroke-width:0.6;" x="72" xlink:href="#m01d9ae65e0" y="366.054545"/>
      </g>
     </g>
    </g>
    <g id="ytick_22">
     <g id="line2d_92">
      <path clip-path="url(#p7d8080667a)" d="M 72 355.160926 
L 518.4 355.160926 
" style="fill:none;stroke:#708090;stroke-linecap:square;stroke-opacity:0.2;"/>
     </g>
     <g id="line2d_93">
      <g>
       <use style="stroke:#000000;stroke-width:0.6;" x="72" xlink:href="#m01d9ae65e0" y="355.160926"/>
      </g>
     </g>
    </g>
    <g id="ytick_23">
     <g id="line2d_94">
      <path clip-path="url(#p7d8080667a)" d="M 72 344.267307 
L 518.4 344.267307 
" style="fill:none;stroke:#708090;stroke-linecap:square;stroke-opacity:0.2;"/>
     </g>
     <g id="line2d_95">
      <g>
       <use style="stroke:#000000;stroke-width:0.6;" x="72" xlink:href="#m01d9ae65e0" y="344.267307"/>
      </g>
     </g>
    </g>
    <g id="ytick_24">
     <g id="line2d_96">
      <path clip-path="url(#p7d8080667a)" d="M 72 333.373688 
L 518.4 333.373688 
" style="fill:none;stroke:#708090;stroke-linecap:square;stroke-opacity:0.2;"/>
     </g>
     <g id="line2d_97">
      <g>
       <use style="stroke:#000000;stroke-width:0.6;" x="72" xlink:href="#m01d9ae65e0" y="333.373688"/>
      </g>
     </g>
    </g>
    <g id="ytick_25">
     <g id="line2d_98">
      <path clip-path="url(#p7d8080667a)" d="M 72 322.480069 
L 518.4 322.480069 
" style="fill:none;stroke:#708090;stroke-linecap:square;stroke-opacity:0.2;"/>
     </g>
     <g id="line2d_99">
      <g>
       <use style="stroke:#000000;stroke-width:0.6;" x="72" xlink:href="#m01d9ae65e0" y="322.480069"/>
      </g>
     </g>
    </g>
    <g id="ytick_26">
     <g id="line2d_100">
      <path clip-path="url(#p7d8080667a)" d="M 72 311.58645 
L 518.4 311.58645 
" style="fill:none;stroke:#708090;stroke-linecap:square;stroke-opacity:0.2;"/>
     </g>
     <g id="line2d_101">
      <g>
       <use style="stroke:#000000;stroke-width:0.6;" x="72" xlink:href="#m01d9ae65e0" y="311.58645"/>
      </g>
     </g>
    </g>
    <g id="ytick_27">
     <g id="line2d_102">
      <path clip-path="url(#p7d8080667a)" d="M 72 300.692831 
L 518.4 300.692831 
" style="fill:none;stroke:#708090;stroke-linecap:square;stroke-opacity:0.2;"/>
     </g>
     <g id="line2d_103">
      <g>
       <use style="stroke:#000000;stroke-width:0.6;" x="72" xlink:href="#m01d9ae65e0" y="300.692831"/>
      </g>
     </g>
    </g>
    <g id="ytick_28">
     <g id="line2d_104">
      <path clip-path="url(#p7d8080667a)" d="M 72 289.799212 
L 518.4 289.799212 
" style="fill:none;stroke:#708090;stroke-linecap:square;stroke-opacity:0.2;"/>
     </g>
     <g id="line2d_105">
      <g>
       <use style="stroke:#000000;stroke-width:0.6;" x="72" xlink:href="#m01d9ae65e0" y="289.799212"/>
      </g>
     </g>
    </g>
    <g id="ytick_29">
     <g id="line2d_106">
      <path clip-path="url(#p7d8080667a)" d="M 72 278.905593 
L 518.4 278.905593 
" style="fill:none;stroke:#708090;stroke-linecap:square;stroke-opacity:0.2;"/>
     </g>
     <g id="line2d_107">
      <g>
       <use style="stroke:#000000;stroke-width:0.6;" x="72" xlink:href="#m01d9ae65e0" y="278.905593"/>
      </g>
     </g>
    </g>
    <g id="ytick_30">
     <g id="line2d_108">
      <path clip-path="url(#p7d8080667a)" d="M 72 268.011974 
L 518.4 268.011974 
" style="fill:none;stroke:#708090;stroke-linecap:square;stroke-opacity:0.2;"/>
     </g>
     <g id="line2d_109">
      <g>
       <use style="stroke:#000000;stroke-width:0.6;" x="72" xlink:href="#m01d9ae65e0" y="268.011974"/>
      </g>
     </g>
    </g>
    <g id="ytick_31">
     <g id="line2d_110">
      <path clip-path="url(#p7d8080667a)" d="M 72 257.118355 
L 518.4 257.118355 
" style="fill:none;stroke:#708090;stroke-linecap:square;stroke-opacity:0.2;"/>
     </g>
     <g id="line2d_111">
      <g>
       <use style="stroke:#000000;stroke-width:0.6;" x="72" xlink:href="#m01d9ae65e0" y="257.118355"/>
      </g>
     </g>
    </g>
    <g id="ytick_32">
     <g id="line2d_112">
      <path clip-path="url(#p7d8080667a)" d="M 72 246.224736 
L 518.4 246.224736 
" style="fill:none;stroke:#708090;stroke-linecap:square;stroke-opacity:0.2;"/>
     </g>
     <g id="line2d_113">
      <g>
       <use style="stroke:#000000;stroke-width:0.6;" x="72" xlink:href="#m01d9ae65e0" y="246.224736"/>
      </g>
     </g>
    </g>
    <g id="ytick_33">
     <g id="line2d_114">
      <path clip-path="url(#p7d8080667a)" d="M 72 235.331117 
L 518.4 235.331117 
" style="fill:none;stroke:#708090;stroke-linecap:square;stroke-opacity:0.2;"/>
     </g>
     <g id="line2d_115">
      <g>
       <use style="stroke:#000000;stroke-width:0.6;" x="72" xlink:href="#m01d9ae65e0" y="235.331117"/>
      </g>
     </g>
    </g>
    <g id="ytick_34">
     <g id="line2d_116">
      <path clip-path="url(#p7d8080667a)" d="M 72 224.437498 
L 518.4 224.437498 
" style="fill:none;stroke:#708090;stroke-linecap:square;stroke-opacity:0.2;"/>
     </g>
     <g id="line2d_117">
      <g>
       <use style="stroke:#000000;stroke-width:0.6;" x="72" xlink:href="#m01d9ae65e0" y="224.437498"/>
      </g>
     </g>
    </g>
    <g id="ytick_35">
     <g id="line2d_118">
      <path clip-path="url(#p7d8080667a)" d="M 72 213.543879 
L 518.4 213.543879 
" style="fill:none;stroke:#708090;stroke-linecap:square;stroke-opacity:0.2;"/>
     </g>
     <g id="line2d_119">
      <g>
       <use style="stroke:#000000;stroke-width:0.6;" x="72" xlink:href="#m01d9ae65e0" y="213.543879"/>
      </g>
     </g>
    </g>
    <g id="ytick_36">
     <g id="line2d_120">
      <path clip-path="url(#p7d8080667a)" d="M 72 202.65026 
L 518.4 202.65026 
" style="fill:none;stroke:#708090;stroke-linecap:square;stroke-opacity:0.2;"/>
     </g>
     <g id="line2d_121">
      <g>
       <use style="stroke:#000000;stroke-width:0.6;" x="72" xlink:href="#m01d9ae65e0" y="202.65026"/>
      </g>
     </g>
    </g>
    <g id="ytick_37">
     <g id="line2d_122">
      <path clip-path="url(#p7d8080667a)" d="M 72 191.756641 
L 518.4 191.756641 
" style="fill:none;stroke:#708090;stroke-linecap:square;stroke-opacity:0.2;"/>
     </g>
     <g id="line2d_123">
      <g>
       <use style="stroke:#000000;stroke-width:0.6;" x="72" xlink:href="#m01d9ae65e0" y="191.756641"/>
      </g>
     </g>
    </g>
    <g id="ytick_38">
     <g id="line2d_124">
      <path clip-path="url(#p7d8080667a)" d="M 72 180.863022 
L 518.4 180.863022 
" style="fill:none;stroke:#708090;stroke-linecap:square;stroke-opacity:0.2;"/>
     </g>
     <g id="line2d_125">
      <g>
       <use style="stroke:#000000;stroke-width:0.6;" x="72" xlink:href="#m01d9ae65e0" y="180.863022"/>
      </g>
     </g>
    </g>
    <g id="ytick_39">
     <g id="line2d_126">
      <path clip-path="url(#p7d8080667a)" d="M 72 169.969403 
L 518.4 169.969403 
" style="fill:none;stroke:#708090;stroke-linecap:square;stroke-opacity:0.2;"/>
     </g>
     <g id="line2d_127">
      <g>
       <use style="stroke:#000000;stroke-width:0.6;" x="72" xlink:href="#m01d9ae65e0" y="169.969403"/>
      </g>
     </g>
    </g>
    <g id="ytick_40">
     <g id="line2d_128">
      <path clip-path="url(#p7d8080667a)" d="M 72 159.075784 
L 518.4 159.075784 
" style="fill:none;stroke:#708090;stroke-linecap:square;stroke-opacity:0.2;"/>
     </g>
     <g id="line2d_129">
      <g>
       <use style="stroke:#000000;stroke-width:0.6;" x="72" xlink:href="#m01d9ae65e0" y="159.075784"/>
      </g>
     </g>
    </g>
    <g id="ytick_41">
     <g id="line2d_130">
      <path clip-path="url(#p7d8080667a)" d="M 72 148.182165 
L 518.4 148.182165 
" style="fill:none;stroke:#708090;stroke-linecap:square;stroke-opacity:0.2;"/>
     </g>
     <g id="line2d_131">
      <g>
       <use style="stroke:#000000;stroke-width:0.6;" x="72" xlink:href="#m01d9ae65e0" y="148.182165"/>
      </g>
     </g>
    </g>
    <g id="ytick_42">
     <g id="line2d_132">
      <path clip-path="url(#p7d8080667a)" d="M 72 137.288546 
L 518.4 137.288546 
" style="fill:none;stroke:#708090;stroke-linecap:square;stroke-opacity:0.2;"/>
     </g>
     <g id="line2d_133">
      <g>
       <use style="stroke:#000000;stroke-width:0.6;" x="72" xlink:href="#m01d9ae65e0" y="137.288546"/>
      </g>
     </g>
    </g>
    <g id="ytick_43">
     <g id="line2d_134">
      <path clip-path="url(#p7d8080667a)" d="M 72 126.394927 
L 518.4 126.394927 
" style="fill:none;stroke:#708090;stroke-linecap:square;stroke-opacity:0.2;"/>
     </g>
     <g id="line2d_135">
      <g>
       <use style="stroke:#000000;stroke-width:0.6;" x="72" xlink:href="#m01d9ae65e0" y="126.394927"/>
      </g>
     </g>
    </g>
    <g id="ytick_44">
     <g id="line2d_136">
      <path clip-path="url(#p7d8080667a)" d="M 72 115.501308 
L 518.4 115.501308 
" style="fill:none;stroke:#708090;stroke-linecap:square;stroke-opacity:0.2;"/>
     </g>
     <g id="line2d_137">
      <g>
       <use style="stroke:#000000;stroke-width:0.6;" x="72" xlink:href="#m01d9ae65e0" y="115.501308"/>
      </g>
     </g>
    </g>
    <g id="ytick_45">
     <g id="line2d_138">
      <path clip-path="url(#p7d8080667a)" d="M 72 104.607689 
L 518.4 104.607689 
" style="fill:none;stroke:#708090;stroke-linecap:square;stroke-opacity:0.2;"/>
     </g>
     <g id="line2d_139">
      <g>
       <use style="stroke:#000000;stroke-width:0.6;" x="72" xlink:href="#m01d9ae65e0" y="104.607689"/>
      </g>
     </g>
    </g>
    <g id="ytick_46">
     <g id="line2d_140">
      <path clip-path="url(#p7d8080667a)" d="M 72 93.71407 
L 518.4 93.71407 
" style="fill:none;stroke:#708090;stroke-linecap:square;stroke-opacity:0.2;"/>
     </g>
     <g id="line2d_141">
      <g>
       <use style="stroke:#000000;stroke-width:0.6;" x="72" xlink:href="#m01d9ae65e0" y="93.71407"/>
      </g>
     </g>
    </g>
    <g id="ytick_47">
     <g id="line2d_142">
      <path clip-path="url(#p7d8080667a)" d="M 72 82.820451 
L 518.4 82.820451 
" style="fill:none;stroke:#708090;stroke-linecap:square;stroke-opacity:0.2;"/>
     </g>
     <g id="line2d_143">
      <g>
       <use style="stroke:#000000;stroke-width:0.6;" x="72" xlink:href="#m01d9ae65e0" y="82.820451"/>
      </g>
     </g>
    </g>
    <g id="ytick_48">
     <g id="line2d_144">
      <path clip-path="url(#p7d8080667a)" d="M 72 71.926832 
L 518.4 71.926832 
" style="fill:none;stroke:#708090;stroke-linecap:square;stroke-opacity:0.2;"/>
     </g>
     <g id="line2d_145">
      <g>
       <use style="stroke:#000000;stroke-width:0.6;" x="72" xlink:href="#m01d9ae65e0" y="71.926832"/>
      </g>
     </g>
    </g>
    <g id="text_35">
     <!-- Total pieces of trash per meter of shoreline per sample -->
     <defs>
      <path d="M -0.296875 72.90625 
L 61.375 72.90625 
L 61.375 64.59375 
L 35.5 64.59375 
L 35.5 0 
L 25.59375 0 
L 25.59375 64.59375 
L -0.296875 64.59375 
z
" id="DejaVuSans-84"/>
      <path d="M 30.609375 48.390625 
Q 23.390625 48.390625 19.1875 42.75 
Q 14.984375 37.109375 14.984375 27.296875 
Q 14.984375 17.484375 19.15625 11.84375 
Q 23.34375 6.203125 30.609375 6.203125 
Q 37.796875 6.203125 41.984375 11.859375 
Q 46.1875 17.53125 46.1875 27.296875 
Q 46.1875 37.015625 41.984375 42.703125 
Q 37.796875 48.390625 30.609375 48.390625 
z
M 30.609375 56 
Q 42.328125 56 49.015625 48.375 
Q 55.71875 40.765625 55.71875 27.296875 
Q 55.71875 13.875 49.015625 6.21875 
Q 42.328125 -1.421875 30.609375 -1.421875 
Q 18.84375 -1.421875 12.171875 6.21875 
Q 5.515625 13.875 5.515625 27.296875 
Q 5.515625 40.765625 12.171875 48.375 
Q 18.84375 56 30.609375 56 
z
" id="DejaVuSans-111"/>
      <path d="M 34.28125 27.484375 
Q 23.390625 27.484375 19.1875 25 
Q 14.984375 22.515625 14.984375 16.5 
Q 14.984375 11.71875 18.140625 8.90625 
Q 21.296875 6.109375 26.703125 6.109375 
Q 34.1875 6.109375 38.703125 11.40625 
Q 43.21875 16.703125 43.21875 25.484375 
L 43.21875 27.484375 
z
M 52.203125 31.203125 
L 52.203125 0 
L 43.21875 0 
L 43.21875 8.296875 
Q 40.140625 3.328125 35.546875 0.953125 
Q 30.953125 -1.421875 24.3125 -1.421875 
Q 15.921875 -1.421875 10.953125 3.296875 
Q 6 8.015625 6 15.921875 
Q 6 25.140625 12.171875 29.828125 
Q 18.359375 34.515625 30.609375 34.515625 
L 43.21875 34.515625 
L 43.21875 35.40625 
Q 43.21875 41.609375 39.140625 45 
Q 35.0625 48.390625 27.6875 48.390625 
Q 23 48.390625 18.546875 47.265625 
Q 14.109375 46.140625 10.015625 43.890625 
L 10.015625 52.203125 
Q 14.9375 54.109375 19.578125 55.046875 
Q 24.21875 56 28.609375 56 
Q 40.484375 56 46.34375 49.84375 
Q 52.203125 43.703125 52.203125 31.203125 
z
" id="DejaVuSans-97"/>
      <path d="M 9.421875 75.984375 
L 18.40625 75.984375 
L 18.40625 0 
L 9.421875 0 
z
" id="DejaVuSans-108"/>
      <path id="DejaVuSans-32"/>
      <path d="M 9.421875 54.6875 
L 18.40625 54.6875 
L 18.40625 0 
L 9.421875 0 
z
M 9.421875 75.984375 
L 18.40625 75.984375 
L 18.40625 64.59375 
L 9.421875 64.59375 
z
" id="DejaVuSans-105"/>
      <path d="M 44.28125 53.078125 
L 44.28125 44.578125 
Q 40.484375 46.53125 36.375 47.5 
Q 32.28125 48.484375 27.875 48.484375 
Q 21.1875 48.484375 17.84375 46.4375 
Q 14.5 44.390625 14.5 40.28125 
Q 14.5 37.15625 16.890625 35.375 
Q 19.28125 33.59375 26.515625 31.984375 
L 29.59375 31.296875 
Q 39.15625 29.25 43.1875 25.515625 
Q 47.21875 21.78125 47.21875 15.09375 
Q 47.21875 7.46875 41.1875 3.015625 
Q 35.15625 -1.421875 24.609375 -1.421875 
Q 20.21875 -1.421875 15.453125 -0.5625 
Q 10.6875 0.296875 5.421875 2 
L 5.421875 11.28125 
Q 10.40625 8.6875 15.234375 7.390625 
Q 20.0625 6.109375 24.8125 6.109375 
Q 31.15625 6.109375 34.5625 8.28125 
Q 37.984375 10.453125 37.984375 14.40625 
Q 37.984375 18.0625 35.515625 20.015625 
Q 33.0625 21.96875 24.703125 23.78125 
L 21.578125 24.515625 
Q 13.234375 26.265625 9.515625 29.90625 
Q 5.8125 33.546875 5.8125 39.890625 
Q 5.8125 47.609375 11.28125 51.796875 
Q 16.75 56 26.8125 56 
Q 31.78125 56 36.171875 55.265625 
Q 40.578125 54.546875 44.28125 53.078125 
z
" id="DejaVuSans-115"/>
      <path d="M 37.109375 75.984375 
L 37.109375 68.5 
L 28.515625 68.5 
Q 23.6875 68.5 21.796875 66.546875 
Q 19.921875 64.59375 19.921875 59.515625 
L 19.921875 54.6875 
L 34.71875 54.6875 
L 34.71875 47.703125 
L 19.921875 47.703125 
L 19.921875 0 
L 10.890625 0 
L 10.890625 47.703125 
L 2.296875 47.703125 
L 2.296875 54.6875 
L 10.890625 54.6875 
L 10.890625 58.5 
Q 10.890625 67.625 15.140625 71.796875 
Q 19.390625 75.984375 28.609375 75.984375 
z
" id="DejaVuSans-102"/>
      <path d="M 54.890625 33.015625 
L 54.890625 0 
L 45.90625 0 
L 45.90625 32.71875 
Q 45.90625 40.484375 42.875 44.328125 
Q 39.84375 48.1875 33.796875 48.1875 
Q 26.515625 48.1875 22.3125 43.546875 
Q 18.109375 38.921875 18.109375 30.90625 
L 18.109375 0 
L 9.078125 0 
L 9.078125 75.984375 
L 18.109375 75.984375 
L 18.109375 46.1875 
Q 21.34375 51.125 25.703125 53.5625 
Q 30.078125 56 35.796875 56 
Q 45.21875 56 50.046875 50.171875 
Q 54.890625 44.34375 54.890625 33.015625 
z
" id="DejaVuSans-104"/>
      <path d="M 52 44.1875 
Q 55.375 50.25 60.0625 53.125 
Q 64.75 56 71.09375 56 
Q 79.640625 56 84.28125 50.015625 
Q 88.921875 44.046875 88.921875 33.015625 
L 88.921875 0 
L 79.890625 0 
L 79.890625 32.71875 
Q 79.890625 40.578125 77.09375 44.375 
Q 74.3125 48.1875 68.609375 48.1875 
Q 61.625 48.1875 57.5625 43.546875 
Q 53.515625 38.921875 53.515625 30.90625 
L 53.515625 0 
L 44.484375 0 
L 44.484375 32.71875 
Q 44.484375 40.625 41.703125 44.40625 
Q 38.921875 48.1875 33.109375 48.1875 
Q 26.21875 48.1875 22.15625 43.53125 
Q 18.109375 38.875 18.109375 30.90625 
L 18.109375 0 
L 9.078125 0 
L 9.078125 54.6875 
L 18.109375 54.6875 
L 18.109375 46.1875 
Q 21.1875 51.21875 25.484375 53.609375 
Q 29.78125 56 35.6875 56 
Q 41.65625 56 45.828125 52.96875 
Q 50 49.953125 52 44.1875 
z
" id="DejaVuSans-109"/>
     </defs>
     <g transform="translate(39.779375 452.393438)rotate(-90)scale(0.12 -0.12)">
      <use xlink:href="#DejaVuSans-84"/>
      <use x="60.818359" xlink:href="#DejaVuSans-111"/>
      <use x="122" xlink:href="#DejaVuSans-116"/>
      <use x="161.208984" xlink:href="#DejaVuSans-97"/>
      <use x="222.488281" xlink:href="#DejaVuSans-108"/>
      <use x="250.271484" xlink:href="#DejaVuSans-32"/>
      <use x="282.058594" xlink:href="#DejaVuSans-112"/>
      <use x="345.535156" xlink:href="#DejaVuSans-105"/>
      <use x="373.318359" xlink:href="#DejaVuSans-101"/>
      <use x="434.841797" xlink:href="#DejaVuSans-99"/>
      <use x="489.822266" xlink:href="#DejaVuSans-101"/>
      <use x="551.345703" xlink:href="#DejaVuSans-115"/>
      <use x="603.445312" xlink:href="#DejaVuSans-32"/>
      <use x="635.232422" xlink:href="#DejaVuSans-111"/>
      <use x="696.414062" xlink:href="#DejaVuSans-102"/>
      <use x="731.619141" xlink:href="#DejaVuSans-32"/>
      <use x="763.40625" xlink:href="#DejaVuSans-116"/>
      <use x="802.615234" xlink:href="#DejaVuSans-114"/>
      <use x="843.728516" xlink:href="#DejaVuSans-97"/>
      <use x="905.007812" xlink:href="#DejaVuSans-115"/>
      <use x="957.107422" xlink:href="#DejaVuSans-104"/>
      <use x="1020.486328" xlink:href="#DejaVuSans-32"/>
      <use x="1052.273438" xlink:href="#DejaVuSans-112"/>
      <use x="1115.75" xlink:href="#DejaVuSans-101"/>
      <use x="1177.273438" xlink:href="#DejaVuSans-114"/>
      <use x="1218.386719" xlink:href="#DejaVuSans-32"/>
      <use x="1250.173828" xlink:href="#DejaVuSans-109"/>
      <use x="1347.585938" xlink:href="#DejaVuSans-101"/>
      <use x="1409.109375" xlink:href="#DejaVuSans-116"/>
      <use x="1448.318359" xlink:href="#DejaVuSans-101"/>
      <use x="1509.841797" xlink:href="#DejaVuSans-114"/>
      <use x="1550.955078" xlink:href="#DejaVuSans-32"/>
      <use x="1582.742188" xlink:href="#DejaVuSans-111"/>
      <use x="1643.923828" xlink:href="#DejaVuSans-102"/>
      <use x="1679.128906" xlink:href="#DejaVuSans-32"/>
      <use x="1710.916016" xlink:href="#DejaVuSans-115"/>
      <use x="1763.015625" xlink:href="#DejaVuSans-104"/>
      <use x="1826.394531" xlink:href="#DejaVuSans-111"/>
      <use x="1887.576172" xlink:href="#DejaVuSans-114"/>
      <use x="1928.658203" xlink:href="#DejaVuSans-101"/>
      <use x="1990.181641" xlink:href="#DejaVuSans-108"/>
      <use x="2017.964844" xlink:href="#DejaVuSans-105"/>
      <use x="2045.748047" xlink:href="#DejaVuSans-110"/>
      <use x="2109.126953" xlink:href="#DejaVuSans-101"/>
      <use x="2170.650391" xlink:href="#DejaVuSans-32"/>
      <use x="2202.4375" xlink:href="#DejaVuSans-112"/>
      <use x="2265.914062" xlink:href="#DejaVuSans-101"/>
      <use x="2327.4375" xlink:href="#DejaVuSans-114"/>
      <use x="2368.550781" xlink:href="#DejaVuSans-32"/>
      <use x="2400.337891" xlink:href="#DejaVuSans-115"/>
      <use x="2452.4375" xlink:href="#DejaVuSans-97"/>
      <use x="2513.716797" xlink:href="#DejaVuSans-109"/>
      <use x="2611.128906" xlink:href="#DejaVuSans-112"/>
      <use x="2674.605469" xlink:href="#DejaVuSans-108"/>
      <use x="2702.388672" xlink:href="#DejaVuSans-101"/>
     </g>
    </g>
   </g>
   <g id="PathCollection_1">
    <defs>
     <path d="M 0 5.700877 
C 1.51189 5.700877 2.962061 5.100197 4.031129 4.031129 
C 5.100197 2.962061 5.700877 1.51189 5.700877 0 
C 5.700877 -1.51189 5.100197 -2.962061 4.031129 -4.031129 
C 2.962061 -5.100197 1.51189 -5.700877 0 -5.700877 
C -1.51189 -5.700877 -2.962061 -5.100197 -4.031129 -4.031129 
C -5.100197 -2.962061 -5.700877 -1.51189 -5.700877 0 
C -5.700877 1.51189 -5.100197 2.962061 -4.031129 4.031129 
C -2.962061 5.100197 -1.51189 5.700877 0 5.700877 
z
" id="mfabe6e0ed0" style="stroke:#ffffff;"/>
    </defs>
    <g clip-path="url(#p7d8080667a)">
     <use style="fill:#00008b;stroke:#ffffff;" x="107.518162" xlink:href="#mfabe6e0ed0" y="465.61508"/>
     <use style="fill:#00008b;stroke:#ffffff;" x="111.108597" xlink:href="#mfabe6e0ed0" y="459.096767"/>
     <use style="fill:#00008b;stroke:#ffffff;" x="111.108597" xlink:href="#mfabe6e0ed0" y="451.149782"/>
     <use style="fill:#00008b;stroke:#ffffff;" x="113.067017" xlink:href="#mfabe6e0ed0" y="444.185009"/>
     <use style="fill:#00008b;stroke:#ffffff;" x="113.067017" xlink:href="#mfabe6e0ed0" y="469.27605"/>
     <use style="fill:#00008b;stroke:#ffffff;" x="115.351839" xlink:href="#mfabe6e0ed0" y="482.93772"/>
     <use style="fill:#00008b;stroke:#ffffff;" x="115.351839" xlink:href="#mfabe6e0ed0" y="473.82994"/>
     <use style="fill:#00008b;stroke:#ffffff;" x="119.595081" xlink:href="#mfabe6e0ed0" y="464.811452"/>
     <use style="fill:#00008b;stroke:#ffffff;" x="122.206306" xlink:href="#mfabe6e0ed0" y="483.919931"/>
     <use style="fill:#00008b;stroke:#ffffff;" x="124.164725" xlink:href="#mfabe6e0ed0" y="462.132693"/>
     <use style="fill:#00008b;stroke:#ffffff;" x="126.123144" xlink:href="#mfabe6e0ed0" y="488.295237"/>
     <use style="fill:#00008b;stroke:#ffffff;" x="126.123144" xlink:href="#mfabe6e0ed0" y="490.081076"/>
     <use style="fill:#00008b;stroke:#ffffff;" x="133.630418" xlink:href="#mfabe6e0ed0" y="486.59869"/>
     <use style="fill:#00008b;stroke:#ffffff;" x="142.769707" xlink:href="#mfabe6e0ed0" y="479.991085"/>
     <use style="fill:#00008b;stroke:#ffffff;" x="147.339352" xlink:href="#mfabe6e0ed0" y="481.15188"/>
     <use style="fill:#00008b;stroke:#ffffff;" x="151.908997" xlink:href="#mfabe6e0ed0" y="476.687282"/>
     <use style="fill:#00008b;stroke:#ffffff;" x="154.193819" xlink:href="#mfabe6e0ed0" y="485.437894"/>
     <use style="fill:#00008b;stroke:#ffffff;" x="164.965125" xlink:href="#mfabe6e0ed0" y="470.168969"/>
     <use style="fill:#00008b;stroke:#ffffff;" x="168.55556" xlink:href="#mfabe6e0ed0" y="470.258261"/>
     <use style="fill:#00008b;stroke:#ffffff;" x="176.71564" xlink:href="#mfabe6e0ed0" y="477.133742"/>
     <use style="fill:#00008b;stroke:#ffffff;" x="178.674059" xlink:href="#mfabe6e0ed0" y="438.7382"/>
     <use style="fill:#00008b;stroke:#ffffff;" x="184.549317" xlink:href="#mfabe6e0ed0" y="417.843881"/>
     <use style="fill:#00008b;stroke:#ffffff;" x="184.222913" xlink:href="#mfabe6e0ed0" y="467.311627"/>
     <use style="fill:#00008b;stroke:#ffffff;" x="182.590897" xlink:href="#mfabe6e0ed0" y="467.668795"/>
     <use style="fill:#00008b;stroke:#ffffff;" x="180.958881" xlink:href="#mfabe6e0ed0" y="473.204896"/>
     <use style="fill:#00008b;stroke:#ffffff;" x="185.528526" xlink:href="#mfabe6e0ed0" y="458.739599"/>
     <use style="fill:#00008b;stroke:#ffffff;" x="206.418331" xlink:href="#mfabe6e0ed0" y="271.318966"/>
     <use style="fill:#00008b;stroke:#ffffff;" x="234.489006" xlink:href="#mfabe6e0ed0" y="429.307817"/>
     <use style="fill:#00008b;stroke:#ffffff;" x="234.489006" xlink:href="#mfabe6e0ed0" y="482.691397"/>
     <use style="fill:#00008b;stroke:#ffffff;" x="107.844565" xlink:href="#mfabe6e0ed0" y="487.542079"/>
     <use style="fill:#00008b;stroke:#ffffff;" x="110.455791" xlink:href="#mfabe6e0ed0" y="493.067828"/>
     <use style="fill:#00008b;stroke:#ffffff;" x="112.41421" xlink:href="#mfabe6e0ed0" y="478.306185"/>
     <use style="fill:#00008b;stroke:#ffffff;" x="115.025436" xlink:href="#mfabe6e0ed0" y="481.621634"/>
     <use style="fill:#00008b;stroke:#ffffff;" x="121.879903" xlink:href="#mfabe6e0ed0" y="486.279051"/>
     <use style="fill:#00008b;stroke:#ffffff;" x="124.164725" xlink:href="#mfabe6e0ed0" y="435.154266"/>
     <use style="fill:#00008b;stroke:#ffffff;" x="127.428757" xlink:href="#mfabe6e0ed0" y="450.993198"/>
     <use style="fill:#00008b;stroke:#ffffff;" x="133.304015" xlink:href="#mfabe6e0ed0" y="485.25284"/>
     <use style="fill:#00008b;stroke:#ffffff;" x="144.07532" xlink:href="#mfabe6e0ed0" y="350.888919"/>
     <use style="fill:#00008b;stroke:#ffffff;" x="147.339352" xlink:href="#mfabe6e0ed0" y="479.253456"/>
     <use style="fill:#00008b;stroke:#ffffff;" x="149.624175" xlink:href="#mfabe6e0ed0" y="457.071521"/>
     <use style="fill:#00008b;stroke:#ffffff;" x="151.908997" xlink:href="#mfabe6e0ed0" y="470.806954"/>
     <use style="fill:#00008b;stroke:#ffffff;" x="154.193819" xlink:href="#mfabe6e0ed0" y="492.041617"/>
     <use style="fill:#00008b;stroke:#ffffff;" x="160.069077" xlink:href="#mfabe6e0ed0" y="474.763785"/>
     <use style="fill:#00008b;stroke:#ffffff;" x="162.680302" xlink:href="#mfabe6e0ed0" y="473.806646"/>
     <use style="fill:#00008b;stroke:#ffffff;" x="162.680302" xlink:href="#mfabe6e0ed0" y="281.288572"/>
     <use style="fill:#00008b;stroke:#ffffff;" x="164.965125" xlink:href="#mfabe6e0ed0" y="487.778897"/>
     <use style="fill:#00008b;stroke:#ffffff;" x="169.208366" xlink:href="#mfabe6e0ed0" y="416.250633"/>
     <use style="fill:#00008b;stroke:#ffffff;" x="158.763464" xlink:href="#mfabe6e0ed0" y="478.976206"/>
     <use style="fill:#00008b;stroke:#ffffff;" x="108.823775" xlink:href="#mfabe6e0ed0" y="474.579655"/>
     <use style="fill:#00008b;stroke:#ffffff;" x="110.129388" xlink:href="#mfabe6e0ed0" y="491.433934"/>
     <use style="fill:#00008b;stroke:#ffffff;" x="112.087807" xlink:href="#mfabe6e0ed0" y="476.943365"/>
     <use style="fill:#00008b;stroke:#ffffff;" x="114.372629" xlink:href="#mfabe6e0ed0" y="483.520644"/>
     <use style="fill:#00008b;stroke:#ffffff;" x="122.532709" xlink:href="#mfabe6e0ed0" y="481.670785"/>
     <use style="fill:#00008b;stroke:#ffffff;" x="124.817532" xlink:href="#mfabe6e0ed0" y="481.876325"/>
     <use style="fill:#00008b;stroke:#ffffff;" x="127.75516" xlink:href="#mfabe6e0ed0" y="224.028988"/>
     <use style="fill:#00008b;stroke:#ffffff;" x="126.775951" xlink:href="#mfabe6e0ed0" y="481.979095"/>
     <use style="fill:#00008b;stroke:#ffffff;" x="132.977612" xlink:href="#mfabe6e0ed0" y="483.828954"/>
     <use style="fill:#00008b;stroke:#ffffff;" x="143.096111" xlink:href="#mfabe6e0ed0" y="471.599326"/>
     <use style="fill:#00008b;stroke:#ffffff;" x="147.992159" xlink:href="#mfabe6e0ed0" y="306.460041"/>
     <use style="fill:#00008b;stroke:#ffffff;" x="149.624175" xlink:href="#mfabe6e0ed0" y="430.236117"/>
     <use style="fill:#00008b;stroke:#ffffff;" x="150.276981" xlink:href="#mfabe6e0ed0" y="410.990724"/>
     <use style="fill:#00008b;stroke:#ffffff;" x="150.276981" xlink:href="#mfabe6e0ed0" y="471.804866"/>
     <use style="fill:#00008b;stroke:#ffffff;" x="150.276981" xlink:href="#mfabe6e0ed0" y="403.404096"/>
     <use style="fill:#00008b;stroke:#ffffff;" x="152.888207" xlink:href="#mfabe6e0ed0" y="466.042405"/>
     <use style="fill:#00008b;stroke:#ffffff;" x="152.888207" xlink:href="#mfabe6e0ed0" y="374.735398"/>
     <use style="fill:#00008b;stroke:#ffffff;" x="153.541013" xlink:href="#mfabe6e0ed0" y="479.101535"/>
     <use style="fill:#00008b;stroke:#ffffff;" x="154.846626" xlink:href="#mfabe6e0ed0" y="474.990735"/>
     <use style="fill:#00008b;stroke:#ffffff;" x="155.825835" xlink:href="#mfabe6e0ed0" y="471.291016"/>
     <use style="fill:#00008b;stroke:#ffffff;" x="155.825835" xlink:href="#mfabe6e0ed0" y="314.149655"/>
     <use style="fill:#00008b;stroke:#ffffff;" x="156.805045" xlink:href="#mfabe6e0ed0" y="454.759729"/>
     <use style="fill:#00008b;stroke:#ffffff;" x="157.457851" xlink:href="#mfabe6e0ed0" y="412.948171"/>
     <use style="fill:#00008b;stroke:#ffffff;" x="160.069077" xlink:href="#mfabe6e0ed0" y="476.546967"/>
     <use style="fill:#00008b;stroke:#ffffff;" x="160.39548" xlink:href="#mfabe6e0ed0" y="465.543925"/>
     <use style="fill:#00008b;stroke:#ffffff;" x="162.027496" xlink:href="#mfabe6e0ed0" y="470.650309"/>
     <use style="fill:#00008b;stroke:#ffffff;" x="162.027496" xlink:href="#mfabe6e0ed0" y="471.100157"/>
     <use style="fill:#00008b;stroke:#ffffff;" x="169.53477" xlink:href="#mfabe6e0ed0" y="432.868742"/>
     <use style="fill:#00008b;stroke:#ffffff;" x="171.166786" xlink:href="#mfabe6e0ed0" y="446.200456"/>
     <use style="fill:#00008b;stroke:#ffffff;" x="171.819592" xlink:href="#mfabe6e0ed0" y="459.331158"/>
     <use style="fill:#00008b;stroke:#ffffff;" x="175.083624" xlink:href="#mfabe6e0ed0" y="467.488526"/>
     <use style="fill:#00008b;stroke:#ffffff;" x="186.507736" xlink:href="#mfabe6e0ed0" y="370.723239"/>
     <use style="fill:#00008b;stroke:#ffffff;" x="186.181333" xlink:href="#mfabe6e0ed0" y="428.303797"/>
     <use style="fill:#00008b;stroke:#ffffff;" x="197.605444" xlink:href="#mfabe6e0ed0" y="425.83328"/>
     <use style="fill:#00008b;stroke:#ffffff;" x="224.044103" xlink:href="#mfabe6e0ed0" y="478.241251"/>
     <use style="fill:#00008b;stroke:#ffffff;" x="226.328926" xlink:href="#mfabe6e0ed0" y="375.181631"/>
     <use style="fill:#00008b;stroke:#ffffff;" x="228.613748" xlink:href="#mfabe6e0ed0" y="461.663435"/>
     <use style="fill:#00008b;stroke:#ffffff;" x="230.89857" xlink:href="#mfabe6e0ed0" y="463.749448"/>
     <use style="fill:#00008b;stroke:#ffffff;" x="235.794618" xlink:href="#mfabe6e0ed0" y="448.934376"/>
     <use style="fill:#00008b;stroke:#ffffff;" x="241.017069" xlink:href="#mfabe6e0ed0" y="459.790337"/>
     <use style="fill:#00008b;stroke:#ffffff;" x="245.913117" xlink:href="#mfabe6e0ed0" y="491.331164"/>
     <use style="fill:#00008b;stroke:#ffffff;" x="249.503553" xlink:href="#mfabe6e0ed0" y="362.423339"/>
     <use style="fill:#00008b;stroke:#ffffff;" x="265.170906" xlink:href="#mfabe6e0ed0" y="444.352432"/>
     <use style="fill:#00008b;stroke:#ffffff;" x="269.740551" xlink:href="#mfabe6e0ed0" y="459.533573"/>
     <use style="fill:#00008b;stroke:#ffffff;" x="254.726004" xlink:href="#mfabe6e0ed0" y="475.898537"/>
     <use style="fill:#00008b;stroke:#ffffff;" x="271.69897" xlink:href="#mfabe6e0ed0" y="465.912719"/>
     <use style="fill:#00008b;stroke:#ffffff;" x="291.283162" xlink:href="#mfabe6e0ed0" y="281.408181"/>
     <use style="fill:#00008b;stroke:#ffffff;" x="306.950515" xlink:href="#mfabe6e0ed0" y="348.094795"/>
     <use style="fill:#00008b;stroke:#ffffff;" x="286.713517" xlink:href="#mfabe6e0ed0" y="397.015357"/>
     <use style="fill:#00008b;stroke:#ffffff;" x="342.20206" xlink:href="#mfabe6e0ed0" y="430.09136"/>
     <use style="fill:#00008b;stroke:#ffffff;" x="284.755098" xlink:href="#mfabe6e0ed0" y="401.277247"/>
     <use style="fill:#00008b;stroke:#ffffff;" x="328.493126" xlink:href="#mfabe6e0ed0" y="435.68538"/>
     <use style="fill:#00008b;stroke:#ffffff;" x="335.673996" xlink:href="#mfabe6e0ed0" y="461.179183"/>
     <use style="fill:#00008b;stroke:#ffffff;" x="388.551314" xlink:href="#mfabe6e0ed0" y="417.954859"/>
     <use style="fill:#00008b;stroke:#ffffff;" x="372.231154" xlink:href="#mfabe6e0ed0" y="482.204078"/>
     <use style="fill:#00008b;stroke:#ffffff;" x="385.940088" xlink:href="#mfabe6e0ed0" y="472.193725"/>
     <use style="fill:#00008b;stroke:#ffffff;" x="400.301829" xlink:href="#mfabe6e0ed0" y="469.907046"/>
     <use style="fill:#00008b;stroke:#ffffff;" x="424.782069" xlink:href="#mfabe6e0ed0" y="393.536175"/>
     <use style="fill:#00008b;stroke:#ffffff;" x="482.881838" xlink:href="#mfabe6e0ed0" y="446.667326"/>
    </g>
   </g>
   <g id="PathCollection_2">
    <defs>
     <path d="M 0 5.700877 
C 1.51189 5.700877 2.962061 5.100197 4.031129 4.031129 
C 5.100197 2.962061 5.700877 1.51189 5.700877 0 
C 5.700877 -1.51189 5.100197 -2.962061 4.031129 -4.031129 
C 2.962061 -5.100197 1.51189 -5.700877 0 -5.700877 
C -1.51189 -5.700877 -2.962061 -5.100197 -4.031129 -4.031129 
C -5.100197 -2.962061 -5.700877 -1.51189 -5.700877 0 
C -5.700877 1.51189 -5.100197 2.962061 -4.031129 4.031129 
C -2.962061 5.100197 -1.51189 5.700877 0 5.700877 
z
" id="mc727e71499" style="stroke:#ffffff;"/>
    </defs>
    <g clip-path="url(#p7d8080667a)">
     <use style="fill:#008b8b;stroke:#ffffff;" x="286.713517" xlink:href="#mc727e71499" y="421.300756"/>
     <use style="fill:#008b8b;stroke:#ffffff;" x="297.811226" xlink:href="#mc727e71499" y="459.428422"/>
     <use style="fill:#008b8b;stroke:#ffffff;" x="306.624112" xlink:href="#mc727e71499" y="462.540885"/>
     <use style="fill:#008b8b;stroke:#ffffff;" x="318.048224" xlink:href="#mc727e71499" y="474.990735"/>
     <use style="fill:#008b8b;stroke:#ffffff;" x="327.84032" xlink:href="#mc727e71499" y="464.875232"/>
     <use style="fill:#008b8b;stroke:#ffffff;" x="336.979609" xlink:href="#mc727e71499" y="491.331164"/>
     <use style="fill:#008b8b;stroke:#ffffff;" x="347.750915" xlink:href="#mc727e71499" y="467.987694"/>
     <use style="fill:#008b8b;stroke:#ffffff;" x="353.626172" xlink:href="#mc727e71499" y="481.993776"/>
     <use style="fill:#008b8b;stroke:#ffffff;" x="364.723881" xlink:href="#mc727e71499" y="478.103198"/>
     <use style="fill:#008b8b;stroke:#ffffff;" x="374.84238" xlink:href="#mc727e71499" y="492.887395"/>
     <use style="fill:#008b8b;stroke:#ffffff;" x="383.655266" xlink:href="#mc727e71499" y="322.480069"/>
     <use style="fill:#008b8b;stroke:#ffffff;" x="302.054467" xlink:href="#mc727e71499" y="493.638048"/>
     <use style="fill:#008b8b;stroke:#ffffff;" x="310.867353" xlink:href="#mc727e71499" y="489.793241"/>
     <use style="fill:#008b8b;stroke:#ffffff;" x="322.617868" xlink:href="#mc727e71499" y="492.548686"/>
     <use style="fill:#008b8b;stroke:#ffffff;" x="331.757158" xlink:href="#mc727e71499" y="492.356446"/>
     <use style="fill:#008b8b;stroke:#ffffff;" x="344.160479" xlink:href="#mc727e71499" y="491.203004"/>
     <use style="fill:#008b8b;stroke:#ffffff;" x="353.626172" xlink:href="#mc727e71499" y="495.04781"/>
     <use style="fill:#008b8b;stroke:#ffffff;" x="364.723881" xlink:href="#mc727e71499" y="495.432291"/>
     <use style="fill:#008b8b;stroke:#ffffff;" x="374.84238" xlink:href="#mc727e71499" y="496.137172"/>
     <use style="fill:#008b8b;stroke:#ffffff;" x="383.655266" xlink:href="#mc727e71499" y="475.118895"/>
     <use style="fill:#008b8b;stroke:#ffffff;" x="284.755098" xlink:href="#mc727e71499" y="341.907023"/>
     <use style="fill:#008b8b;stroke:#ffffff;" x="278.553437" xlink:href="#mc727e71499" y="432.828395"/>
     <use style="fill:#008b8b;stroke:#ffffff;" x="286.060711" xlink:href="#mc727e71499" y="395.507663"/>
     <use style="fill:#008b8b;stroke:#ffffff;" x="293.894387" xlink:href="#mc727e71499" y="422.13651"/>
     <use style="fill:#008b8b;stroke:#ffffff;" x="305.318499" xlink:href="#mc727e71499" y="450.177492"/>
     <use style="fill:#008b8b;stroke:#ffffff;" x="316.742611" xlink:href="#mc727e71499" y="441.906411"/>
     <use style="fill:#008b8b;stroke:#ffffff;" x="327.187513" xlink:href="#mc727e71499" y="462.886714"/>
     <use style="fill:#008b8b;stroke:#ffffff;" x="336.326803" xlink:href="#mc727e71499" y="474.990735"/>
     <use style="fill:#008b8b;stroke:#ffffff;" x="344.160479" xlink:href="#mc727e71499" y="481.042746"/>
     <use style="fill:#008b8b;stroke:#ffffff;" x="356.890204" xlink:href="#mc727e71499" y="478.621942"/>
     <use style="fill:#008b8b;stroke:#ffffff;" x="366.029494" xlink:href="#mc727e71499" y="461.474578"/>
     <use style="fill:#008b8b;stroke:#ffffff;" x="377.127202" xlink:href="#mc727e71499" y="455.0191"/>
     <use style="fill:#008b8b;stroke:#ffffff;" x="386.266492" xlink:href="#mc727e71499" y="446.546286"/>
    </g>
   </g>
   <g id="PathCollection_3">
    <defs>
     <path d="M 0 5.700877 
C 1.51189 5.700877 2.962061 5.100197 4.031129 4.031129 
C 5.100197 2.962061 5.700877 1.51189 5.700877 0 
C 5.700877 -1.51189 5.100197 -2.962061 4.031129 -4.031129 
C 2.962061 -5.100197 1.51189 -5.700877 0 -5.700877 
C -1.51189 -5.700877 -2.962061 -5.100197 -4.031129 -4.031129 
C -5.100197 -2.962061 -5.700877 -1.51189 -5.700877 0 
C -5.700877 1.51189 -5.100197 2.962061 -4.031129 4.031129 
C -2.962061 5.100197 -1.51189 5.700877 0 5.700877 
z
" id="ma1dddf4ee7" style="stroke:#ffffff;"/>
    </defs>
    <g clip-path="url(#p7d8080667a)">
     <use style="fill:#2f4f4f;stroke:#ffffff;" x="213.599201" xlink:href="#ma1dddf4ee7" y="343.359506"/>
     <use style="fill:#2f4f4f;stroke:#ffffff;" x="213.599201" xlink:href="#ma1dddf4ee7" y="418.139661"/>
     <use style="fill:#2f4f4f;stroke:#ffffff;" x="330.125142" xlink:href="#ma1dddf4ee7" y="448.275432"/>
     <use style="fill:#2f4f4f;stroke:#ffffff;" x="330.125142" xlink:href="#ma1dddf4ee7" y="463.319001"/>
     <use style="fill:#2f4f4f;stroke:#ffffff;" x="452.852744" xlink:href="#ma1dddf4ee7" y="77.071041"/>
     <use style="fill:#2f4f4f;stroke:#ffffff;" x="459.707211" xlink:href="#ma1dddf4ee7" y="452.295696"/>
    </g>
   </g>
   <g id="PathCollection_4">
    <defs>
     <path d="M 0 5.700877 
C 1.51189 5.700877 2.962061 5.100197 4.031129 4.031129 
C 5.100197 2.962061 5.700877 1.51189 5.700877 0 
C 5.700877 -1.51189 5.100197 -2.962061 4.031129 -4.031129 
C 2.962061 -5.100197 1.51189 -5.700877 0 -5.700877 
C -1.51189 -5.700877 -2.962061 -5.100197 -4.031129 -4.031129 
C -5.100197 -2.962061 -5.700877 -1.51189 -5.700877 0 
C -5.700877 1.51189 -5.100197 2.962061 -4.031129 4.031129 
C -2.962061 5.100197 -1.51189 5.700877 0 5.700877 
z
" id="me53a1e46cd" style="stroke:#ffffff;"/>
    </defs>
    <g clip-path="url(#p7d8080667a)">
     <use style="fill:#556b2f;stroke:#ffffff;" x="421.191634" xlink:href="#me53a1e46cd" y="470.451727"/>
     <use style="fill:#556b2f;stroke:#ffffff;" x="398.996216" xlink:href="#me53a1e46cd" y="488.934568"/>
    </g>
   </g>
   <g id="PathCollection_5">
    <defs>
     <path d="M 0 5.700877 
C 1.51189 5.700877 2.962061 5.100197 4.031129 4.031129 
C 5.100197 2.962061 5.700877 1.51189 5.700877 0 
C 5.700877 -1.51189 5.100197 -2.962061 4.031129 -4.031129 
C 2.962061 -5.100197 1.51189 -5.700877 0 -5.700877 
C -1.51189 -5.700877 -2.962061 -5.100197 -4.031129 -4.031129 
C -5.100197 -2.962061 -5.700877 -1.51189 -5.700877 0 
C -5.700877 1.51189 -5.100197 2.962061 -4.031129 4.031129 
C -2.962061 5.100197 -1.51189 5.700877 0 5.700877 
z
" id="m442116a142" style="stroke:#ffffff;"/>
    </defs>
    <g clip-path="url(#p7d8080667a)">
     <use style="fill:#8b0000;stroke:#ffffff;" x="225.023313" xlink:href="#m442116a142" y="446.98812"/>
    </g>
   </g>
   <g id="patch_3">
    <path d="M 72 504 
L 72 69.12 
" style="fill:none;stroke:#000000;stroke-linecap:square;stroke-linejoin:miter;stroke-width:0.8;"/>
   </g>
   <g id="patch_4">
    <path d="M 518.4 504 
L 518.4 69.12 
" style="fill:none;stroke:#000000;stroke-linecap:square;stroke-linejoin:miter;stroke-width:0.8;"/>
   </g>
   <g id="patch_5">
    <path d="M 72 504 
L 518.4 504 
" style="fill:none;stroke:#000000;stroke-linecap:square;stroke-linejoin:miter;stroke-width:0.8;"/>
   </g>
   <g id="patch_6">
    <path d="M 72 69.12 
L 518.4 69.12 
" style="fill:none;stroke:#000000;stroke-linecap:square;stroke-linejoin:miter;stroke-width:0.8;"/>
   </g>
   <g id="text_36">
    <!-- Lake Geneva all sample sites, sorted by project/team n=149 -->
    <defs>
     <path d="M 9.8125 72.90625 
L 19.671875 72.90625 
L 19.671875 8.296875 
L 55.171875 8.296875 
L 55.171875 0 
L 9.8125 0 
z
" id="DejaVuSans-76"/>
     <path d="M 9.078125 75.984375 
L 18.109375 75.984375 
L 18.109375 31.109375 
L 44.921875 54.6875 
L 56.390625 54.6875 
L 27.390625 29.109375 
L 57.625 0 
L 45.90625 0 
L 18.109375 26.703125 
L 18.109375 0 
L 9.078125 0 
z
" id="DejaVuSans-107"/>
     <path d="M 59.515625 10.40625 
L 59.515625 29.984375 
L 43.40625 29.984375 
L 43.40625 38.09375 
L 69.28125 38.09375 
L 69.28125 6.78125 
Q 63.578125 2.734375 56.6875 0.65625 
Q 49.8125 -1.421875 42 -1.421875 
Q 24.90625 -1.421875 15.25 8.5625 
Q 5.609375 18.5625 5.609375 36.375 
Q 5.609375 54.25 15.25 64.234375 
Q 24.90625 74.21875 42 74.21875 
Q 49.125 74.21875 55.546875 72.453125 
Q 61.96875 70.703125 67.390625 67.28125 
L 67.390625 56.78125 
Q 61.921875 61.421875 55.765625 63.765625 
Q 49.609375 66.109375 42.828125 66.109375 
Q 29.4375 66.109375 22.71875 58.640625 
Q 16.015625 51.171875 16.015625 36.375 
Q 16.015625 21.625 22.71875 14.15625 
Q 29.4375 6.6875 42.828125 6.6875 
Q 48.046875 6.6875 52.140625 7.59375 
Q 56.25 8.5 59.515625 10.40625 
z
" id="DejaVuSans-71"/>
     <path d="M 2.984375 54.6875 
L 12.5 54.6875 
L 29.59375 8.796875 
L 46.6875 54.6875 
L 56.203125 54.6875 
L 35.6875 0 
L 23.484375 0 
z
" id="DejaVuSans-118"/>
     <path d="M 11.71875 12.40625 
L 22.015625 12.40625 
L 22.015625 4 
L 14.015625 -11.625 
L 7.71875 -11.625 
L 11.71875 4 
z
" id="DejaVuSans-44"/>
     <path d="M 45.40625 46.390625 
L 45.40625 75.984375 
L 54.390625 75.984375 
L 54.390625 0 
L 45.40625 0 
L 45.40625 8.203125 
Q 42.578125 3.328125 38.25 0.953125 
Q 33.9375 -1.421875 27.875 -1.421875 
Q 17.96875 -1.421875 11.734375 6.484375 
Q 5.515625 14.40625 5.515625 27.296875 
Q 5.515625 40.1875 11.734375 48.09375 
Q 17.96875 56 27.875 56 
Q 33.9375 56 38.25 53.625 
Q 42.578125 51.265625 45.40625 46.390625 
z
M 14.796875 27.296875 
Q 14.796875 17.390625 18.875 11.75 
Q 22.953125 6.109375 30.078125 6.109375 
Q 37.203125 6.109375 41.296875 11.75 
Q 45.40625 17.390625 45.40625 27.296875 
Q 45.40625 37.203125 41.296875 42.84375 
Q 37.203125 48.484375 30.078125 48.484375 
Q 22.953125 48.484375 18.875 42.84375 
Q 14.796875 37.203125 14.796875 27.296875 
z
" id="DejaVuSans-100"/>
     <path d="M 32.171875 -5.078125 
Q 28.375 -14.84375 24.75 -17.8125 
Q 21.140625 -20.796875 15.09375 -20.796875 
L 7.90625 -20.796875 
L 7.90625 -13.28125 
L 13.1875 -13.28125 
Q 16.890625 -13.28125 18.9375 -11.515625 
Q 21 -9.765625 23.484375 -3.21875 
L 25.09375 0.875 
L 2.984375 54.6875 
L 12.5 54.6875 
L 29.59375 11.921875 
L 46.6875 54.6875 
L 56.203125 54.6875 
z
" id="DejaVuSans-121"/>
     <path d="M 9.421875 54.6875 
L 18.40625 54.6875 
L 18.40625 -0.984375 
Q 18.40625 -11.421875 14.421875 -16.109375 
Q 10.453125 -20.796875 1.609375 -20.796875 
L -1.8125 -20.796875 
L -1.8125 -13.1875 
L 0.59375 -13.1875 
Q 5.71875 -13.1875 7.5625 -10.8125 
Q 9.421875 -8.453125 9.421875 -0.984375 
z
M 9.421875 75.984375 
L 18.40625 75.984375 
L 18.40625 64.59375 
L 9.421875 64.59375 
z
" id="DejaVuSans-106"/>
     <path d="M 25.390625 72.90625 
L 33.6875 72.90625 
L 8.296875 -9.28125 
L 0 -9.28125 
z
" id="DejaVuSans-47"/>
     <path d="M 10.59375 45.40625 
L 73.1875 45.40625 
L 73.1875 37.203125 
L 10.59375 37.203125 
z
M 10.59375 25.484375 
L 73.1875 25.484375 
L 73.1875 17.1875 
L 10.59375 17.1875 
z
" id="DejaVuSans-61"/>
    </defs>
    <g transform="translate(112.7025 54.12)scale(0.12 -0.12)">
     <use xlink:href="#DejaVuSans-76"/>
     <use x="55.712891" xlink:href="#DejaVuSans-97"/>
     <use x="116.992188" xlink:href="#DejaVuSans-107"/>
     <use x="174.855469" xlink:href="#DejaVuSans-101"/>
     <use x="236.378906" xlink:href="#DejaVuSans-32"/>
     <use x="268.166016" xlink:href="#DejaVuSans-71"/>
     <use x="345.65625" xlink:href="#DejaVuSans-101"/>
     <use x="407.179688" xlink:href="#DejaVuSans-110"/>
     <use x="470.558594" xlink:href="#DejaVuSans-101"/>
     <use x="532.082031" xlink:href="#DejaVuSans-118"/>
     <use x="591.261719" xlink:href="#DejaVuSans-97"/>
     <use x="652.541016" xlink:href="#DejaVuSans-32"/>
     <use x="684.328125" xlink:href="#DejaVuSans-97"/>
     <use x="745.607422" xlink:href="#DejaVuSans-108"/>
     <use x="773.390625" xlink:href="#DejaVuSans-108"/>
     <use x="801.173828" xlink:href="#DejaVuSans-32"/>
     <use x="832.960938" xlink:href="#DejaVuSans-115"/>
     <use x="885.060547" xlink:href="#DejaVuSans-97"/>
     <use x="946.339844" xlink:href="#DejaVuSans-109"/>
     <use x="1043.751953" xlink:href="#DejaVuSans-112"/>
     <use x="1107.228516" xlink:href="#DejaVuSans-108"/>
     <use x="1135.011719" xlink:href="#DejaVuSans-101"/>
     <use x="1196.535156" xlink:href="#DejaVuSans-32"/>
     <use x="1228.322266" xlink:href="#DejaVuSans-115"/>
     <use x="1280.421875" xlink:href="#DejaVuSans-105"/>
     <use x="1308.205078" xlink:href="#DejaVuSans-116"/>
     <use x="1347.414062" xlink:href="#DejaVuSans-101"/>
     <use x="1408.9375" xlink:href="#DejaVuSans-115"/>
     <use x="1461.037109" xlink:href="#DejaVuSans-44"/>
     <use x="1492.824219" xlink:href="#DejaVuSans-32"/>
     <use x="1524.611328" xlink:href="#DejaVuSans-115"/>
     <use x="1576.710938" xlink:href="#DejaVuSans-111"/>
     <use x="1637.892578" xlink:href="#DejaVuSans-114"/>
     <use x="1679.005859" xlink:href="#DejaVuSans-116"/>
     <use x="1718.214844" xlink:href="#DejaVuSans-101"/>
     <use x="1779.738281" xlink:href="#DejaVuSans-100"/>
     <use x="1843.214844" xlink:href="#DejaVuSans-32"/>
     <use x="1875.001953" xlink:href="#DejaVuSans-98"/>
     <use x="1938.478516" xlink:href="#DejaVuSans-121"/>
     <use x="1997.658203" xlink:href="#DejaVuSans-32"/>
     <use x="2029.445312" xlink:href="#DejaVuSans-112"/>
     <use x="2092.921875" xlink:href="#DejaVuSans-114"/>
     <use x="2134.003906" xlink:href="#DejaVuSans-111"/>
     <use x="2195.185547" xlink:href="#DejaVuSans-106"/>
     <use x="2222.96875" xlink:href="#DejaVuSans-101"/>
     <use x="2284.492188" xlink:href="#DejaVuSans-99"/>
     <use x="2339.472656" xlink:href="#DejaVuSans-116"/>
     <use x="2378.681641" xlink:href="#DejaVuSans-47"/>
     <use x="2412.373047" xlink:href="#DejaVuSans-116"/>
     <use x="2451.582031" xlink:href="#DejaVuSans-101"/>
     <use x="2513.105469" xlink:href="#DejaVuSans-97"/>
     <use x="2574.384766" xlink:href="#DejaVuSans-109"/>
     <use x="2671.796875" xlink:href="#DejaVuSans-32"/>
     <use x="2703.583984" xlink:href="#DejaVuSans-110"/>
     <use x="2766.962891" xlink:href="#DejaVuSans-61"/>
     <use x="2850.751953" xlink:href="#DejaVuSans-49"/>
     <use x="2914.375" xlink:href="#DejaVuSans-52"/>
     <use x="2977.998047" xlink:href="#DejaVuSans-57"/>
    </g>
   </g>
   <g id="legend_1">
    <g id="patch_7">
     <path d="M 79 150.510625 
L 139.501563 150.510625 
Q 141.501563 150.510625 141.501563 148.510625 
L 141.501563 76.12 
Q 141.501563 74.12 139.501563 74.12 
L 79 74.12 
Q 77 74.12 77 76.12 
L 77 148.510625 
Q 77 150.510625 79 150.510625 
z
" style="fill:#ffffff;opacity:0.8;stroke:#cccccc;stroke-linejoin:miter;"/>
    </g>
    <g id="PathCollection_6">
     <g>
      <use style="fill:#00008b;stroke:#ffffff;" x="91" xlink:href="#mfabe6e0ed0" y="83.093437"/>
     </g>
    </g>
    <g id="text_37">
     <!-- MCBP -->
     <defs>
      <path d="M 9.8125 72.90625 
L 24.515625 72.90625 
L 43.109375 23.296875 
L 61.8125 72.90625 
L 76.515625 72.90625 
L 76.515625 0 
L 66.890625 0 
L 66.890625 64.015625 
L 48.09375 14.015625 
L 38.1875 14.015625 
L 19.390625 64.015625 
L 19.390625 0 
L 9.8125 0 
z
" id="DejaVuSans-77"/>
      <path d="M 64.40625 67.28125 
L 64.40625 56.890625 
Q 59.421875 61.53125 53.78125 63.8125 
Q 48.140625 66.109375 41.796875 66.109375 
Q 29.296875 66.109375 22.65625 58.46875 
Q 16.015625 50.828125 16.015625 36.375 
Q 16.015625 21.96875 22.65625 14.328125 
Q 29.296875 6.6875 41.796875 6.6875 
Q 48.140625 6.6875 53.78125 8.984375 
Q 59.421875 11.28125 64.40625 15.921875 
L 64.40625 5.609375 
Q 59.234375 2.09375 53.4375 0.328125 
Q 47.65625 -1.421875 41.21875 -1.421875 
Q 24.65625 -1.421875 15.125 8.703125 
Q 5.609375 18.84375 5.609375 36.375 
Q 5.609375 53.953125 15.125 64.078125 
Q 24.65625 74.21875 41.21875 74.21875 
Q 47.75 74.21875 53.53125 72.484375 
Q 59.328125 70.75 64.40625 67.28125 
z
" id="DejaVuSans-67"/>
      <path d="M 19.671875 34.8125 
L 19.671875 8.109375 
L 35.5 8.109375 
Q 43.453125 8.109375 47.28125 11.40625 
Q 51.125 14.703125 51.125 21.484375 
Q 51.125 28.328125 47.28125 31.5625 
Q 43.453125 34.8125 35.5 34.8125 
z
M 19.671875 64.796875 
L 19.671875 42.828125 
L 34.28125 42.828125 
Q 41.5 42.828125 45.03125 45.53125 
Q 48.578125 48.25 48.578125 53.8125 
Q 48.578125 59.328125 45.03125 62.0625 
Q 41.5 64.796875 34.28125 64.796875 
z
M 9.8125 72.90625 
L 35.015625 72.90625 
Q 46.296875 72.90625 52.390625 68.21875 
Q 58.5 63.53125 58.5 54.890625 
Q 58.5 48.1875 55.375 44.234375 
Q 52.25 40.28125 46.1875 39.3125 
Q 53.46875 37.75 57.5 32.78125 
Q 61.53125 27.828125 61.53125 20.40625 
Q 61.53125 10.640625 54.890625 5.3125 
Q 48.25 0 35.984375 0 
L 9.8125 0 
z
" id="DejaVuSans-66"/>
      <path d="M 19.671875 64.796875 
L 19.671875 37.40625 
L 32.078125 37.40625 
Q 38.96875 37.40625 42.71875 40.96875 
Q 46.484375 44.53125 46.484375 51.125 
Q 46.484375 57.671875 42.71875 61.234375 
Q 38.96875 64.796875 32.078125 64.796875 
z
M 9.8125 72.90625 
L 32.078125 72.90625 
Q 44.34375 72.90625 50.609375 67.359375 
Q 56.890625 61.8125 56.890625 51.125 
Q 56.890625 40.328125 50.609375 34.8125 
Q 44.34375 29.296875 32.078125 29.296875 
L 19.671875 29.296875 
L 19.671875 0 
L 9.8125 0 
z
" id="DejaVuSans-80"/>
     </defs>
     <g transform="translate(109 85.718437)scale(0.1 -0.1)">
      <use xlink:href="#DejaVuSans-77"/>
      <use x="86.279297" xlink:href="#DejaVuSans-67"/>
      <use x="156.103516" xlink:href="#DejaVuSans-66"/>
      <use x="224.707031" xlink:href="#DejaVuSans-80"/>
     </g>
    </g>
    <g id="PathCollection_7">
     <g>
      <use style="fill:#008b8b;stroke:#ffffff;" x="91" xlink:href="#mc727e71499" y="97.771563"/>
     </g>
    </g>
    <g id="text_38">
     <!-- SLR -->
     <defs>
      <path d="M 53.515625 70.515625 
L 53.515625 60.890625 
Q 47.90625 63.578125 42.921875 64.890625 
Q 37.9375 66.21875 33.296875 66.21875 
Q 25.25 66.21875 20.875 63.09375 
Q 16.5 59.96875 16.5 54.203125 
Q 16.5 49.359375 19.40625 46.890625 
Q 22.3125 44.4375 30.421875 42.921875 
L 36.375 41.703125 
Q 47.40625 39.59375 52.65625 34.296875 
Q 57.90625 29 57.90625 20.125 
Q 57.90625 9.515625 50.796875 4.046875 
Q 43.703125 -1.421875 29.984375 -1.421875 
Q 24.8125 -1.421875 18.96875 -0.25 
Q 13.140625 0.921875 6.890625 3.21875 
L 6.890625 13.375 
Q 12.890625 10.015625 18.65625 8.296875 
Q 24.421875 6.59375 29.984375 6.59375 
Q 38.421875 6.59375 43.015625 9.90625 
Q 47.609375 13.234375 47.609375 19.390625 
Q 47.609375 24.75 44.3125 27.78125 
Q 41.015625 30.8125 33.5 32.328125 
L 27.484375 33.5 
Q 16.453125 35.6875 11.515625 40.375 
Q 6.59375 45.0625 6.59375 53.421875 
Q 6.59375 63.09375 13.40625 68.65625 
Q 20.21875 74.21875 32.171875 74.21875 
Q 37.3125 74.21875 42.625 73.28125 
Q 47.953125 72.359375 53.515625 70.515625 
z
" id="DejaVuSans-83"/>
      <path d="M 44.390625 34.1875 
Q 47.5625 33.109375 50.5625 29.59375 
Q 53.5625 26.078125 56.59375 19.921875 
L 66.609375 0 
L 56 0 
L 46.6875 18.703125 
Q 43.0625 26.03125 39.671875 28.421875 
Q 36.28125 30.8125 30.421875 30.8125 
L 19.671875 30.8125 
L 19.671875 0 
L 9.8125 0 
L 9.8125 72.90625 
L 32.078125 72.90625 
Q 44.578125 72.90625 50.734375 67.671875 
Q 56.890625 62.453125 56.890625 51.90625 
Q 56.890625 45.015625 53.6875 40.46875 
Q 50.484375 35.9375 44.390625 34.1875 
z
M 19.671875 64.796875 
L 19.671875 38.921875 
L 32.078125 38.921875 
Q 39.203125 38.921875 42.84375 42.21875 
Q 46.484375 45.515625 46.484375 51.90625 
Q 46.484375 58.296875 42.84375 61.546875 
Q 39.203125 64.796875 32.078125 64.796875 
z
" id="DejaVuSans-82"/>
     </defs>
     <g transform="translate(109 100.396563)scale(0.1 -0.1)">
      <use xlink:href="#DejaVuSans-83"/>
      <use x="63.476562" xlink:href="#DejaVuSans-76"/>
      <use x="119.189453" xlink:href="#DejaVuSans-82"/>
     </g>
    </g>
    <g id="PathCollection_8">
     <g>
      <use style="fill:#2f4f4f;stroke:#ffffff;" x="91" xlink:href="#ma1dddf4ee7" y="112.449687"/>
     </g>
    </g>
    <g id="text_39">
     <!-- SWE -->
     <defs>
      <path d="M 3.328125 72.90625 
L 13.28125 72.90625 
L 28.609375 11.28125 
L 43.890625 72.90625 
L 54.984375 72.90625 
L 70.3125 11.28125 
L 85.59375 72.90625 
L 95.609375 72.90625 
L 77.296875 0 
L 64.890625 0 
L 49.515625 63.28125 
L 33.984375 0 
L 21.578125 0 
z
" id="DejaVuSans-87"/>
      <path d="M 9.8125 72.90625 
L 55.90625 72.90625 
L 55.90625 64.59375 
L 19.671875 64.59375 
L 19.671875 43.015625 
L 54.390625 43.015625 
L 54.390625 34.71875 
L 19.671875 34.71875 
L 19.671875 8.296875 
L 56.78125 8.296875 
L 56.78125 0 
L 9.8125 0 
z
" id="DejaVuSans-69"/>
     </defs>
     <g transform="translate(109 115.074687)scale(0.1 -0.1)">
      <use xlink:href="#DejaVuSans-83"/>
      <use x="63.476562" xlink:href="#DejaVuSans-87"/>
      <use x="162.353516" xlink:href="#DejaVuSans-69"/>
     </g>
    </g>
    <g id="PathCollection_9">
     <g>
      <use style="fill:#556b2f;stroke:#ffffff;" x="91" xlink:href="#me53a1e46cd" y="127.127813"/>
     </g>
    </g>
    <g id="text_40">
     <!-- PC -->
     <g transform="translate(109 129.752813)scale(0.1 -0.1)">
      <use xlink:href="#DejaVuSans-80"/>
      <use x="60.302734" xlink:href="#DejaVuSans-67"/>
     </g>
    </g>
    <g id="PathCollection_10">
     <g>
      <use style="fill:#8b0000;stroke:#ffffff;" x="91" xlink:href="#m442116a142" y="141.805938"/>
     </g>
    </g>
    <g id="text_41">
     <!-- GIS -->
     <defs>
      <path d="M 9.8125 72.90625 
L 19.671875 72.90625 
L 19.671875 0 
L 9.8125 0 
z
" id="DejaVuSans-73"/>
     </defs>
     <g transform="translate(109 144.430938)scale(0.1 -0.1)">
      <use xlink:href="#DejaVuSans-71"/>
      <use x="77.490234" xlink:href="#DejaVuSans-73"/>
      <use x="106.982422" xlink:href="#DejaVuSans-83"/>
     </g>
    </g>
   </g>
  </g>
  <g id="text_42">
   <!-- Beach litter surveys 2015-2018 -->
   <defs>
    <path d="M 4.890625 31.390625 
L 31.203125 31.390625 
L 31.203125 23.390625 
L 4.890625 23.390625 
z
" id="DejaVuSans-45"/>
   </defs>
   <g transform="translate(130.460938 26.716875)scale(0.2 -0.2)">
    <use xlink:href="#DejaVuSans-66"/>
    <use x="68.603516" xlink:href="#DejaVuSans-101"/>
    <use x="130.126953" xlink:href="#DejaVuSans-97"/>
    <use x="191.40625" xlink:href="#DejaVuSans-99"/>
    <use x="246.386719" xlink:href="#DejaVuSans-104"/>
    <use x="309.765625" xlink:href="#DejaVuSans-32"/>
    <use x="341.552734" xlink:href="#DejaVuSans-108"/>
    <use x="369.335938" xlink:href="#DejaVuSans-105"/>
    <use x="397.119141" xlink:href="#DejaVuSans-116"/>
    <use x="436.328125" xlink:href="#DejaVuSans-116"/>
    <use x="475.537109" xlink:href="#DejaVuSans-101"/>
    <use x="537.060547" xlink:href="#DejaVuSans-114"/>
    <use x="578.173828" xlink:href="#DejaVuSans-32"/>
    <use x="609.960938" xlink:href="#DejaVuSans-115"/>
    <use x="662.060547" xlink:href="#DejaVuSans-117"/>
    <use x="725.439453" xlink:href="#DejaVuSans-114"/>
    <use x="766.552734" xlink:href="#DejaVuSans-118"/>
    <use x="825.732422" xlink:href="#DejaVuSans-101"/>
    <use x="887.255859" xlink:href="#DejaVuSans-121"/>
    <use x="946.435547" xlink:href="#DejaVuSans-115"/>
    <use x="998.535156" xlink:href="#DejaVuSans-32"/>
    <use x="1030.322266" xlink:href="#DejaVuSans-50"/>
    <use x="1093.945312" xlink:href="#DejaVuSans-48"/>
    <use x="1157.568359" xlink:href="#DejaVuSans-49"/>
    <use x="1221.191406" xlink:href="#DejaVuSans-53"/>
    <use x="1284.814453" xlink:href="#DejaVuSans-45"/>
    <use x="1320.898438" xlink:href="#DejaVuSans-50"/>
    <use x="1384.521484" xlink:href="#DejaVuSans-48"/>
    <use x="1448.144531" xlink:href="#DejaVuSans-49"/>
    <use x="1511.767578" xlink:href="#DejaVuSans-56"/>
   </g>
  </g>
 </g>
 <defs>
  <clipPath id="p7d8080667a">
   <rect height="434.88" width="446.4" x="72" y="69.12"/>
  </clipPath>
 </defs>
</svg>
