<?xml version="1.0" encoding="utf-8" standalone="no"?>
<!DOCTYPE svg PUBLIC "-//W3C//DTD SVG 1.1//EN"
  "http://www.w3.org/Graphics/SVG/1.1/DTD/svg11.dtd">
<!-- Created with matplotlib (https://matplotlib.org/) -->
<svg height="432pt" version="1.1" viewBox="0 0 504 432" width="504pt" xmlns="http://www.w3.org/2000/svg" xmlns:xlink="http://www.w3.org/1999/xlink">
 <defs>
  <style type="text/css">
*{stroke-linecap:butt;stroke-linejoin:round;}
  </style>
 </defs>
 <g id="figure_1">
  <g id="patch_1">
   <path d="M 0 432 
L 504 432 
L 504 0 
L 0 0 
z
" style="fill:#ffffff;"/>
  </g>
  <g id="axes_1">
   <g id="patch_2">
    <path d="M 25.2 388.8 
L 174.109091 388.8 
L 174.109091 43.2 
L 25.2 43.2 
z
" style="fill:#ffffff;"/>
   </g>
   <g id="patch_3">
    <path clip-path="url(#p6d91d1a4be)" d="M 31.968595 388.8 
L 167.340496 388.8 
L 167.340496 236.769231 
L 31.968595 236.769231 
z
" style="fill:#0000ff;"/>
   </g>
   <g id="patch_4">
    <path clip-path="url(#p6d91d1a4be)" d="M 31.968595 236.769231 
L 167.340496 236.769231 
L 167.340496 201.046154 
L 31.968595 201.046154 
z
" style="fill:#ff00ff;"/>
   </g>
   <g id="patch_5">
    <path clip-path="url(#p6d91d1a4be)" d="M 31.968595 201.046154 
L 167.340496 201.046154 
L 167.340496 167.815385 
L 31.968595 167.815385 
z
" style="fill:#708090;"/>
   </g>
   <g id="patch_6">
    <path clip-path="url(#p6d91d1a4be)" d="M 31.968595 167.815385 
L 167.340496 167.815385 
L 167.340496 136.246154 
L 31.968595 136.246154 
z
" style="fill:#800000;"/>
   </g>
   <g id="patch_7">
    <path clip-path="url(#p6d91d1a4be)" d="M 31.968595 136.246154 
L 167.340496 136.246154 
L 167.340496 115.476923 
L 31.968595 115.476923 
z
" style="fill:#a9a9a9;"/>
   </g>
   <g id="patch_8">
    <path clip-path="url(#p6d91d1a4be)" d="M 31.968595 115.476923 
L 167.340496 115.476923 
L 167.340496 97.2 
L 31.968595 97.2 
z
" style="fill:#4b0082;"/>
   </g>
   <g id="patch_9">
    <path clip-path="url(#p6d91d1a4be)" d="M 31.968595 97.2 
L 167.340496 97.2 
L 167.340496 84.323077 
L 31.968595 84.323077 
z
" style="fill:#e9967a;"/>
   </g>
   <g id="patch_10">
    <path clip-path="url(#p6d91d1a4be)" d="M 31.968595 84.323077 
L 167.340496 84.323077 
L 167.340496 80.169231 
L 31.968595 80.169231 
z
" style="fill:#eee8aa;"/>
   </g>
   <g id="patch_11">
    <path clip-path="url(#p6d91d1a4be)" d="M 31.968595 80.169231 
L 167.340496 80.169231 
L 167.340496 78.507692 
L 31.968595 78.507692 
z
" style="fill:#2e8b57;"/>
   </g>
   <g id="patch_12">
    <path clip-path="url(#p6d91d1a4be)" d="M 31.968595 78.507692 
L 167.340496 78.507692 
L 167.340496 78.092308 
L 31.968595 78.092308 
z
" style="fill:#8a2be2;"/>
   </g>
   <g id="matplotlib.axis_1"/>
   <g id="matplotlib.axis_2">
    <g id="ytick_1">
     <g id="line2d_1">
      <defs>
       <path d="M 0 0 
L -3.5 0 
" id="me3d3da4b5f" style="stroke:#000000;stroke-width:0.8;"/>
      </defs>
      <g>
       <use style="stroke:#000000;stroke-width:0.8;" x="25.2" xlink:href="#me3d3da4b5f" y="388.8"/>
      </g>
     </g>
     <g id="text_1">
      <!-- 0 -->
      <defs>
       <path d="M 31.78125 66.40625 
Q 24.171875 66.40625 20.328125 58.90625 
Q 16.5 51.421875 16.5 36.375 
Q 16.5 21.390625 20.328125 13.890625 
Q 24.171875 6.390625 31.78125 6.390625 
Q 39.453125 6.390625 43.28125 13.890625 
Q 47.125 21.390625 47.125 36.375 
Q 47.125 51.421875 43.28125 58.90625 
Q 39.453125 66.40625 31.78125 66.40625 
z
M 31.78125 74.21875 
Q 44.046875 74.21875 50.515625 64.515625 
Q 56.984375 54.828125 56.984375 36.375 
Q 56.984375 17.96875 50.515625 8.265625 
Q 44.046875 -1.421875 31.78125 -1.421875 
Q 19.53125 -1.421875 13.0625 8.265625 
Q 6.59375 17.96875 6.59375 36.375 
Q 6.59375 54.828125 13.0625 64.515625 
Q 19.53125 74.21875 31.78125 74.21875 
z
" id="DejaVuSans-48"/>
      </defs>
      <g transform="translate(11.8375 392.599219)scale(0.1 -0.1)">
       <use xlink:href="#DejaVuSans-48"/>
      </g>
     </g>
    </g>
    <g id="ytick_2">
     <g id="line2d_2">
      <g>
       <use style="stroke:#000000;stroke-width:0.8;" x="25.2" xlink:href="#me3d3da4b5f" y="319.015385"/>
      </g>
     </g>
     <g id="text_2">
      <!-- 2 -->
      <defs>
       <path d="M 19.1875 8.296875 
L 53.609375 8.296875 
L 53.609375 0 
L 7.328125 0 
L 7.328125 8.296875 
Q 12.9375 14.109375 22.625 23.890625 
Q 32.328125 33.6875 34.8125 36.53125 
Q 39.546875 41.84375 41.421875 45.53125 
Q 43.3125 49.21875 43.3125 52.78125 
Q 43.3125 58.59375 39.234375 62.25 
Q 35.15625 65.921875 28.609375 65.921875 
Q 23.96875 65.921875 18.8125 64.3125 
Q 13.671875 62.703125 7.8125 59.421875 
L 7.8125 69.390625 
Q 13.765625 71.78125 18.9375 73 
Q 24.125 74.21875 28.421875 74.21875 
Q 39.75 74.21875 46.484375 68.546875 
Q 53.21875 62.890625 53.21875 53.421875 
Q 53.21875 48.921875 51.53125 44.890625 
Q 49.859375 40.875 45.40625 35.40625 
Q 44.1875 33.984375 37.640625 27.21875 
Q 31.109375 20.453125 19.1875 8.296875 
z
" id="DejaVuSans-50"/>
      </defs>
      <g transform="translate(11.8375 322.814603)scale(0.1 -0.1)">
       <use xlink:href="#DejaVuSans-50"/>
      </g>
     </g>
    </g>
    <g id="ytick_3">
     <g id="line2d_3">
      <g>
       <use style="stroke:#000000;stroke-width:0.8;" x="25.2" xlink:href="#me3d3da4b5f" y="249.230769"/>
      </g>
     </g>
     <g id="text_3">
      <!-- 4 -->
      <defs>
       <path d="M 37.796875 64.3125 
L 12.890625 25.390625 
L 37.796875 25.390625 
z
M 35.203125 72.90625 
L 47.609375 72.90625 
L 47.609375 25.390625 
L 58.015625 25.390625 
L 58.015625 17.1875 
L 47.609375 17.1875 
L 47.609375 0 
L 37.796875 0 
L 37.796875 17.1875 
L 4.890625 17.1875 
L 4.890625 26.703125 
z
" id="DejaVuSans-52"/>
      </defs>
      <g transform="translate(11.8375 253.029988)scale(0.1 -0.1)">
       <use xlink:href="#DejaVuSans-52"/>
      </g>
     </g>
    </g>
    <g id="ytick_4">
     <g id="line2d_4">
      <g>
       <use style="stroke:#000000;stroke-width:0.8;" x="25.2" xlink:href="#me3d3da4b5f" y="179.446154"/>
      </g>
     </g>
     <g id="text_4">
      <!-- 6 -->
      <defs>
       <path d="M 33.015625 40.375 
Q 26.375 40.375 22.484375 35.828125 
Q 18.609375 31.296875 18.609375 23.390625 
Q 18.609375 15.53125 22.484375 10.953125 
Q 26.375 6.390625 33.015625 6.390625 
Q 39.65625 6.390625 43.53125 10.953125 
Q 47.40625 15.53125 47.40625 23.390625 
Q 47.40625 31.296875 43.53125 35.828125 
Q 39.65625 40.375 33.015625 40.375 
z
M 52.59375 71.296875 
L 52.59375 62.3125 
Q 48.875 64.0625 45.09375 64.984375 
Q 41.3125 65.921875 37.59375 65.921875 
Q 27.828125 65.921875 22.671875 59.328125 
Q 17.53125 52.734375 16.796875 39.40625 
Q 19.671875 43.65625 24.015625 45.921875 
Q 28.375 48.1875 33.59375 48.1875 
Q 44.578125 48.1875 50.953125 41.515625 
Q 57.328125 34.859375 57.328125 23.390625 
Q 57.328125 12.15625 50.6875 5.359375 
Q 44.046875 -1.421875 33.015625 -1.421875 
Q 20.359375 -1.421875 13.671875 8.265625 
Q 6.984375 17.96875 6.984375 36.375 
Q 6.984375 53.65625 15.1875 63.9375 
Q 23.390625 74.21875 37.203125 74.21875 
Q 40.921875 74.21875 44.703125 73.484375 
Q 48.484375 72.75 52.59375 71.296875 
z
" id="DejaVuSans-54"/>
      </defs>
      <g transform="translate(11.8375 183.245373)scale(0.1 -0.1)">
       <use xlink:href="#DejaVuSans-54"/>
      </g>
     </g>
    </g>
    <g id="ytick_5">
     <g id="line2d_5">
      <g>
       <use style="stroke:#000000;stroke-width:0.8;" x="25.2" xlink:href="#me3d3da4b5f" y="109.661538"/>
      </g>
     </g>
     <g id="text_5">
      <!-- 8 -->
      <defs>
       <path d="M 31.78125 34.625 
Q 24.75 34.625 20.71875 30.859375 
Q 16.703125 27.09375 16.703125 20.515625 
Q 16.703125 13.921875 20.71875 10.15625 
Q 24.75 6.390625 31.78125 6.390625 
Q 38.8125 6.390625 42.859375 10.171875 
Q 46.921875 13.96875 46.921875 20.515625 
Q 46.921875 27.09375 42.890625 30.859375 
Q 38.875 34.625 31.78125 34.625 
z
M 21.921875 38.8125 
Q 15.578125 40.375 12.03125 44.71875 
Q 8.5 49.078125 8.5 55.328125 
Q 8.5 64.0625 14.71875 69.140625 
Q 20.953125 74.21875 31.78125 74.21875 
Q 42.671875 74.21875 48.875 69.140625 
Q 55.078125 64.0625 55.078125 55.328125 
Q 55.078125 49.078125 51.53125 44.71875 
Q 48 40.375 41.703125 38.8125 
Q 48.828125 37.15625 52.796875 32.3125 
Q 56.78125 27.484375 56.78125 20.515625 
Q 56.78125 9.90625 50.3125 4.234375 
Q 43.84375 -1.421875 31.78125 -1.421875 
Q 19.734375 -1.421875 13.25 4.234375 
Q 6.78125 9.90625 6.78125 20.515625 
Q 6.78125 27.484375 10.78125 32.3125 
Q 14.796875 37.15625 21.921875 38.8125 
z
M 18.3125 54.390625 
Q 18.3125 48.734375 21.84375 45.5625 
Q 25.390625 42.390625 31.78125 42.390625 
Q 38.140625 42.390625 41.71875 45.5625 
Q 45.3125 48.734375 45.3125 54.390625 
Q 45.3125 60.0625 41.71875 63.234375 
Q 38.140625 66.40625 31.78125 66.40625 
Q 25.390625 66.40625 21.84375 63.234375 
Q 18.3125 60.0625 18.3125 54.390625 
z
" id="DejaVuSans-56"/>
      </defs>
      <g transform="translate(11.8375 113.460757)scale(0.1 -0.1)">
       <use xlink:href="#DejaVuSans-56"/>
      </g>
     </g>
    </g>
    <g id="text_6">
     <!-- Pieces per meter -->
     <defs>
      <path d="M 19.671875 64.796875 
L 19.671875 37.40625 
L 32.078125 37.40625 
Q 38.96875 37.40625 42.71875 40.96875 
Q 46.484375 44.53125 46.484375 51.125 
Q 46.484375 57.671875 42.71875 61.234375 
Q 38.96875 64.796875 32.078125 64.796875 
z
M 9.8125 72.90625 
L 32.078125 72.90625 
Q 44.34375 72.90625 50.609375 67.359375 
Q 56.890625 61.8125 56.890625 51.125 
Q 56.890625 40.328125 50.609375 34.8125 
Q 44.34375 29.296875 32.078125 29.296875 
L 19.671875 29.296875 
L 19.671875 0 
L 9.8125 0 
z
" id="DejaVuSans-80"/>
      <path d="M 9.421875 54.6875 
L 18.40625 54.6875 
L 18.40625 0 
L 9.421875 0 
z
M 9.421875 75.984375 
L 18.40625 75.984375 
L 18.40625 64.59375 
L 9.421875 64.59375 
z
" id="DejaVuSans-105"/>
      <path d="M 56.203125 29.59375 
L 56.203125 25.203125 
L 14.890625 25.203125 
Q 15.484375 15.921875 20.484375 11.0625 
Q 25.484375 6.203125 34.421875 6.203125 
Q 39.59375 6.203125 44.453125 7.46875 
Q 49.3125 8.734375 54.109375 11.28125 
L 54.109375 2.78125 
Q 49.265625 0.734375 44.1875 -0.34375 
Q 39.109375 -1.421875 33.890625 -1.421875 
Q 20.796875 -1.421875 13.15625 6.1875 
Q 5.515625 13.8125 5.515625 26.8125 
Q 5.515625 40.234375 12.765625 48.109375 
Q 20.015625 56 32.328125 56 
Q 43.359375 56 49.78125 48.890625 
Q 56.203125 41.796875 56.203125 29.59375 
z
M 47.21875 32.234375 
Q 47.125 39.59375 43.09375 43.984375 
Q 39.0625 48.390625 32.421875 48.390625 
Q 24.90625 48.390625 20.390625 44.140625 
Q 15.875 39.890625 15.1875 32.171875 
z
" id="DejaVuSans-101"/>
      <path d="M 48.78125 52.59375 
L 48.78125 44.1875 
Q 44.96875 46.296875 41.140625 47.34375 
Q 37.3125 48.390625 33.40625 48.390625 
Q 24.65625 48.390625 19.8125 42.84375 
Q 14.984375 37.3125 14.984375 27.296875 
Q 14.984375 17.28125 19.8125 11.734375 
Q 24.65625 6.203125 33.40625 6.203125 
Q 37.3125 6.203125 41.140625 7.25 
Q 44.96875 8.296875 48.78125 10.40625 
L 48.78125 2.09375 
Q 45.015625 0.34375 40.984375 -0.53125 
Q 36.96875 -1.421875 32.421875 -1.421875 
Q 20.0625 -1.421875 12.78125 6.34375 
Q 5.515625 14.109375 5.515625 27.296875 
Q 5.515625 40.671875 12.859375 48.328125 
Q 20.21875 56 33.015625 56 
Q 37.15625 56 41.109375 55.140625 
Q 45.0625 54.296875 48.78125 52.59375 
z
" id="DejaVuSans-99"/>
      <path d="M 44.28125 53.078125 
L 44.28125 44.578125 
Q 40.484375 46.53125 36.375 47.5 
Q 32.28125 48.484375 27.875 48.484375 
Q 21.1875 48.484375 17.84375 46.4375 
Q 14.5 44.390625 14.5 40.28125 
Q 14.5 37.15625 16.890625 35.375 
Q 19.28125 33.59375 26.515625 31.984375 
L 29.59375 31.296875 
Q 39.15625 29.25 43.1875 25.515625 
Q 47.21875 21.78125 47.21875 15.09375 
Q 47.21875 7.46875 41.1875 3.015625 
Q 35.15625 -1.421875 24.609375 -1.421875 
Q 20.21875 -1.421875 15.453125 -0.5625 
Q 10.6875 0.296875 5.421875 2 
L 5.421875 11.28125 
Q 10.40625 8.6875 15.234375 7.390625 
Q 20.0625 6.109375 24.8125 6.109375 
Q 31.15625 6.109375 34.5625 8.28125 
Q 37.984375 10.453125 37.984375 14.40625 
Q 37.984375 18.0625 35.515625 20.015625 
Q 33.0625 21.96875 24.703125 23.78125 
L 21.578125 24.515625 
Q 13.234375 26.265625 9.515625 29.90625 
Q 5.8125 33.546875 5.8125 39.890625 
Q 5.8125 47.609375 11.28125 51.796875 
Q 16.75 56 26.8125 56 
Q 31.78125 56 36.171875 55.265625 
Q 40.578125 54.546875 44.28125 53.078125 
z
" id="DejaVuSans-115"/>
      <path id="DejaVuSans-32"/>
      <path d="M 18.109375 8.203125 
L 18.109375 -20.796875 
L 9.078125 -20.796875 
L 9.078125 54.6875 
L 18.109375 54.6875 
L 18.109375 46.390625 
Q 20.953125 51.265625 25.265625 53.625 
Q 29.59375 56 35.59375 56 
Q 45.5625 56 51.78125 48.09375 
Q 58.015625 40.1875 58.015625 27.296875 
Q 58.015625 14.40625 51.78125 6.484375 
Q 45.5625 -1.421875 35.59375 -1.421875 
Q 29.59375 -1.421875 25.265625 0.953125 
Q 20.953125 3.328125 18.109375 8.203125 
z
M 48.6875 27.296875 
Q 48.6875 37.203125 44.609375 42.84375 
Q 40.53125 48.484375 33.40625 48.484375 
Q 26.265625 48.484375 22.1875 42.84375 
Q 18.109375 37.203125 18.109375 27.296875 
Q 18.109375 17.390625 22.1875 11.75 
Q 26.265625 6.109375 33.40625 6.109375 
Q 40.53125 6.109375 44.609375 11.75 
Q 48.6875 17.390625 48.6875 27.296875 
z
" id="DejaVuSans-112"/>
      <path d="M 41.109375 46.296875 
Q 39.59375 47.171875 37.8125 47.578125 
Q 36.03125 48 33.890625 48 
Q 26.265625 48 22.1875 43.046875 
Q 18.109375 38.09375 18.109375 28.8125 
L 18.109375 0 
L 9.078125 0 
L 9.078125 54.6875 
L 18.109375 54.6875 
L 18.109375 46.1875 
Q 20.953125 51.171875 25.484375 53.578125 
Q 30.03125 56 36.53125 56 
Q 37.453125 56 38.578125 55.875 
Q 39.703125 55.765625 41.0625 55.515625 
z
" id="DejaVuSans-114"/>
      <path d="M 52 44.1875 
Q 55.375 50.25 60.0625 53.125 
Q 64.75 56 71.09375 56 
Q 79.640625 56 84.28125 50.015625 
Q 88.921875 44.046875 88.921875 33.015625 
L 88.921875 0 
L 79.890625 0 
L 79.890625 32.71875 
Q 79.890625 40.578125 77.09375 44.375 
Q 74.3125 48.1875 68.609375 48.1875 
Q 61.625 48.1875 57.5625 43.546875 
Q 53.515625 38.921875 53.515625 30.90625 
L 53.515625 0 
L 44.484375 0 
L 44.484375 32.71875 
Q 44.484375 40.625 41.703125 44.40625 
Q 38.921875 48.1875 33.109375 48.1875 
Q 26.21875 48.1875 22.15625 43.53125 
Q 18.109375 38.875 18.109375 30.90625 
L 18.109375 0 
L 9.078125 0 
L 9.078125 54.6875 
L 18.109375 54.6875 
L 18.109375 46.1875 
Q 21.1875 51.21875 25.484375 53.609375 
Q 29.78125 56 35.6875 56 
Q 41.65625 56 45.828125 52.96875 
Q 50 49.953125 52 44.1875 
z
" id="DejaVuSans-109"/>
      <path d="M 18.3125 70.21875 
L 18.3125 54.6875 
L 36.8125 54.6875 
L 36.8125 47.703125 
L 18.3125 47.703125 
L 18.3125 18.015625 
Q 18.3125 11.328125 20.140625 9.421875 
Q 21.96875 7.515625 27.59375 7.515625 
L 36.8125 7.515625 
L 36.8125 0 
L 27.59375 0 
Q 17.1875 0 13.234375 3.875 
Q 9.28125 7.765625 9.28125 18.015625 
L 9.28125 47.703125 
L 2.6875 47.703125 
L 2.6875 54.6875 
L 9.28125 54.6875 
L 9.28125 70.21875 
z
" id="DejaVuSans-116"/>
     </defs>
     <g transform="translate(-1.074063 275.405937)rotate(-90)scale(0.14 -0.14)">
      <use xlink:href="#DejaVuSans-80"/>
      <use x="60.271484" xlink:href="#DejaVuSans-105"/>
      <use x="88.054688" xlink:href="#DejaVuSans-101"/>
      <use x="149.578125" xlink:href="#DejaVuSans-99"/>
      <use x="204.558594" xlink:href="#DejaVuSans-101"/>
      <use x="266.082031" xlink:href="#DejaVuSans-115"/>
      <use x="318.181641" xlink:href="#DejaVuSans-32"/>
      <use x="349.96875" xlink:href="#DejaVuSans-112"/>
      <use x="413.445312" xlink:href="#DejaVuSans-101"/>
      <use x="474.96875" xlink:href="#DejaVuSans-114"/>
      <use x="516.082031" xlink:href="#DejaVuSans-32"/>
      <use x="547.869141" xlink:href="#DejaVuSans-109"/>
      <use x="645.28125" xlink:href="#DejaVuSans-101"/>
      <use x="706.804688" xlink:href="#DejaVuSans-116"/>
      <use x="746.013672" xlink:href="#DejaVuSans-101"/>
      <use x="807.537109" xlink:href="#DejaVuSans-114"/>
     </g>
    </g>
   </g>
   <g id="patch_13">
    <path d="M 25.2 388.8 
L 25.2 43.2 
" style="fill:none;stroke:#000000;stroke-linecap:square;stroke-linejoin:miter;stroke-width:0.8;"/>
   </g>
   <g id="patch_14">
    <path d="M 174.109091 388.8 
L 174.109091 43.2 
" style="fill:none;stroke:#000000;stroke-linecap:square;stroke-linejoin:miter;stroke-width:0.8;"/>
   </g>
   <g id="patch_15">
    <path d="M 25.2 388.8 
L 174.109091 388.8 
" style="fill:none;stroke:#000000;stroke-linecap:square;stroke-linejoin:miter;stroke-width:0.8;"/>
   </g>
   <g id="patch_16">
    <path d="M 25.2 43.2 
L 174.109091 43.2 
" style="fill:none;stroke:#000000;stroke-linecap:square;stroke-linejoin:miter;stroke-width:0.8;"/>
   </g>
   <g id="text_7">
    <!-- Trash by source Plage-de-St-Sulpice, 2017-10-05 -->
    <defs>
     <path d="M -0.296875 72.90625 
L 61.375 72.90625 
L 61.375 64.59375 
L 35.5 64.59375 
L 35.5 0 
L 25.59375 0 
L 25.59375 64.59375 
L -0.296875 64.59375 
z
" id="DejaVuSans-84"/>
     <path d="M 34.28125 27.484375 
Q 23.390625 27.484375 19.1875 25 
Q 14.984375 22.515625 14.984375 16.5 
Q 14.984375 11.71875 18.140625 8.90625 
Q 21.296875 6.109375 26.703125 6.109375 
Q 34.1875 6.109375 38.703125 11.40625 
Q 43.21875 16.703125 43.21875 25.484375 
L 43.21875 27.484375 
z
M 52.203125 31.203125 
L 52.203125 0 
L 43.21875 0 
L 43.21875 8.296875 
Q 40.140625 3.328125 35.546875 0.953125 
Q 30.953125 -1.421875 24.3125 -1.421875 
Q 15.921875 -1.421875 10.953125 3.296875 
Q 6 8.015625 6 15.921875 
Q 6 25.140625 12.171875 29.828125 
Q 18.359375 34.515625 30.609375 34.515625 
L 43.21875 34.515625 
L 43.21875 35.40625 
Q 43.21875 41.609375 39.140625 45 
Q 35.0625 48.390625 27.6875 48.390625 
Q 23 48.390625 18.546875 47.265625 
Q 14.109375 46.140625 10.015625 43.890625 
L 10.015625 52.203125 
Q 14.9375 54.109375 19.578125 55.046875 
Q 24.21875 56 28.609375 56 
Q 40.484375 56 46.34375 49.84375 
Q 52.203125 43.703125 52.203125 31.203125 
z
" id="DejaVuSans-97"/>
     <path d="M 54.890625 33.015625 
L 54.890625 0 
L 45.90625 0 
L 45.90625 32.71875 
Q 45.90625 40.484375 42.875 44.328125 
Q 39.84375 48.1875 33.796875 48.1875 
Q 26.515625 48.1875 22.3125 43.546875 
Q 18.109375 38.921875 18.109375 30.90625 
L 18.109375 0 
L 9.078125 0 
L 9.078125 75.984375 
L 18.109375 75.984375 
L 18.109375 46.1875 
Q 21.34375 51.125 25.703125 53.5625 
Q 30.078125 56 35.796875 56 
Q 45.21875 56 50.046875 50.171875 
Q 54.890625 44.34375 54.890625 33.015625 
z
" id="DejaVuSans-104"/>
     <path d="M 48.6875 27.296875 
Q 48.6875 37.203125 44.609375 42.84375 
Q 40.53125 48.484375 33.40625 48.484375 
Q 26.265625 48.484375 22.1875 42.84375 
Q 18.109375 37.203125 18.109375 27.296875 
Q 18.109375 17.390625 22.1875 11.75 
Q 26.265625 6.109375 33.40625 6.109375 
Q 40.53125 6.109375 44.609375 11.75 
Q 48.6875 17.390625 48.6875 27.296875 
z
M 18.109375 46.390625 
Q 20.953125 51.265625 25.265625 53.625 
Q 29.59375 56 35.59375 56 
Q 45.5625 56 51.78125 48.09375 
Q 58.015625 40.1875 58.015625 27.296875 
Q 58.015625 14.40625 51.78125 6.484375 
Q 45.5625 -1.421875 35.59375 -1.421875 
Q 29.59375 -1.421875 25.265625 0.953125 
Q 20.953125 3.328125 18.109375 8.203125 
L 18.109375 0 
L 9.078125 0 
L 9.078125 75.984375 
L 18.109375 75.984375 
z
" id="DejaVuSans-98"/>
     <path d="M 32.171875 -5.078125 
Q 28.375 -14.84375 24.75 -17.8125 
Q 21.140625 -20.796875 15.09375 -20.796875 
L 7.90625 -20.796875 
L 7.90625 -13.28125 
L 13.1875 -13.28125 
Q 16.890625 -13.28125 18.9375 -11.515625 
Q 21 -9.765625 23.484375 -3.21875 
L 25.09375 0.875 
L 2.984375 54.6875 
L 12.5 54.6875 
L 29.59375 11.921875 
L 46.6875 54.6875 
L 56.203125 54.6875 
z
" id="DejaVuSans-121"/>
     <path d="M 30.609375 48.390625 
Q 23.390625 48.390625 19.1875 42.75 
Q 14.984375 37.109375 14.984375 27.296875 
Q 14.984375 17.484375 19.15625 11.84375 
Q 23.34375 6.203125 30.609375 6.203125 
Q 37.796875 6.203125 41.984375 11.859375 
Q 46.1875 17.53125 46.1875 27.296875 
Q 46.1875 37.015625 41.984375 42.703125 
Q 37.796875 48.390625 30.609375 48.390625 
z
M 30.609375 56 
Q 42.328125 56 49.015625 48.375 
Q 55.71875 40.765625 55.71875 27.296875 
Q 55.71875 13.875 49.015625 6.21875 
Q 42.328125 -1.421875 30.609375 -1.421875 
Q 18.84375 -1.421875 12.171875 6.21875 
Q 5.515625 13.875 5.515625 27.296875 
Q 5.515625 40.765625 12.171875 48.375 
Q 18.84375 56 30.609375 56 
z
" id="DejaVuSans-111"/>
     <path d="M 8.5 21.578125 
L 8.5 54.6875 
L 17.484375 54.6875 
L 17.484375 21.921875 
Q 17.484375 14.15625 20.5 10.265625 
Q 23.53125 6.390625 29.59375 6.390625 
Q 36.859375 6.390625 41.078125 11.03125 
Q 45.3125 15.671875 45.3125 23.6875 
L 45.3125 54.6875 
L 54.296875 54.6875 
L 54.296875 0 
L 45.3125 0 
L 45.3125 8.40625 
Q 42.046875 3.421875 37.71875 1 
Q 33.40625 -1.421875 27.6875 -1.421875 
Q 18.265625 -1.421875 13.375 4.4375 
Q 8.5 10.296875 8.5 21.578125 
z
M 31.109375 56 
z
" id="DejaVuSans-117"/>
     <path d="M 9.421875 75.984375 
L 18.40625 75.984375 
L 18.40625 0 
L 9.421875 0 
z
" id="DejaVuSans-108"/>
     <path d="M 45.40625 27.984375 
Q 45.40625 37.75 41.375 43.109375 
Q 37.359375 48.484375 30.078125 48.484375 
Q 22.859375 48.484375 18.828125 43.109375 
Q 14.796875 37.75 14.796875 27.984375 
Q 14.796875 18.265625 18.828125 12.890625 
Q 22.859375 7.515625 30.078125 7.515625 
Q 37.359375 7.515625 41.375 12.890625 
Q 45.40625 18.265625 45.40625 27.984375 
z
M 54.390625 6.78125 
Q 54.390625 -7.171875 48.1875 -13.984375 
Q 42 -20.796875 29.203125 -20.796875 
Q 24.46875 -20.796875 20.265625 -20.09375 
Q 16.0625 -19.390625 12.109375 -17.921875 
L 12.109375 -9.1875 
Q 16.0625 -11.328125 19.921875 -12.34375 
Q 23.78125 -13.375 27.78125 -13.375 
Q 36.625 -13.375 41.015625 -8.765625 
Q 45.40625 -4.15625 45.40625 5.171875 
L 45.40625 9.625 
Q 42.625 4.78125 38.28125 2.390625 
Q 33.9375 0 27.875 0 
Q 17.828125 0 11.671875 7.65625 
Q 5.515625 15.328125 5.515625 27.984375 
Q 5.515625 40.671875 11.671875 48.328125 
Q 17.828125 56 27.875 56 
Q 33.9375 56 38.28125 53.609375 
Q 42.625 51.21875 45.40625 46.390625 
L 45.40625 54.6875 
L 54.390625 54.6875 
z
" id="DejaVuSans-103"/>
     <path d="M 4.890625 31.390625 
L 31.203125 31.390625 
L 31.203125 23.390625 
L 4.890625 23.390625 
z
" id="DejaVuSans-45"/>
     <path d="M 45.40625 46.390625 
L 45.40625 75.984375 
L 54.390625 75.984375 
L 54.390625 0 
L 45.40625 0 
L 45.40625 8.203125 
Q 42.578125 3.328125 38.25 0.953125 
Q 33.9375 -1.421875 27.875 -1.421875 
Q 17.96875 -1.421875 11.734375 6.484375 
Q 5.515625 14.40625 5.515625 27.296875 
Q 5.515625 40.1875 11.734375 48.09375 
Q 17.96875 56 27.875 56 
Q 33.9375 56 38.25 53.625 
Q 42.578125 51.265625 45.40625 46.390625 
z
M 14.796875 27.296875 
Q 14.796875 17.390625 18.875 11.75 
Q 22.953125 6.109375 30.078125 6.109375 
Q 37.203125 6.109375 41.296875 11.75 
Q 45.40625 17.390625 45.40625 27.296875 
Q 45.40625 37.203125 41.296875 42.84375 
Q 37.203125 48.484375 30.078125 48.484375 
Q 22.953125 48.484375 18.875 42.84375 
Q 14.796875 37.203125 14.796875 27.296875 
z
" id="DejaVuSans-100"/>
     <path d="M 53.515625 70.515625 
L 53.515625 60.890625 
Q 47.90625 63.578125 42.921875 64.890625 
Q 37.9375 66.21875 33.296875 66.21875 
Q 25.25 66.21875 20.875 63.09375 
Q 16.5 59.96875 16.5 54.203125 
Q 16.5 49.359375 19.40625 46.890625 
Q 22.3125 44.4375 30.421875 42.921875 
L 36.375 41.703125 
Q 47.40625 39.59375 52.65625 34.296875 
Q 57.90625 29 57.90625 20.125 
Q 57.90625 9.515625 50.796875 4.046875 
Q 43.703125 -1.421875 29.984375 -1.421875 
Q 24.8125 -1.421875 18.96875 -0.25 
Q 13.140625 0.921875 6.890625 3.21875 
L 6.890625 13.375 
Q 12.890625 10.015625 18.65625 8.296875 
Q 24.421875 6.59375 29.984375 6.59375 
Q 38.421875 6.59375 43.015625 9.90625 
Q 47.609375 13.234375 47.609375 19.390625 
Q 47.609375 24.75 44.3125 27.78125 
Q 41.015625 30.8125 33.5 32.328125 
L 27.484375 33.5 
Q 16.453125 35.6875 11.515625 40.375 
Q 6.59375 45.0625 6.59375 53.421875 
Q 6.59375 63.09375 13.40625 68.65625 
Q 20.21875 74.21875 32.171875 74.21875 
Q 37.3125 74.21875 42.625 73.28125 
Q 47.953125 72.359375 53.515625 70.515625 
z
" id="DejaVuSans-83"/>
     <path d="M 11.71875 12.40625 
L 22.015625 12.40625 
L 22.015625 4 
L 14.015625 -11.625 
L 7.71875 -11.625 
L 11.71875 4 
z
" id="DejaVuSans-44"/>
     <path d="M 12.40625 8.296875 
L 28.515625 8.296875 
L 28.515625 63.921875 
L 10.984375 60.40625 
L 10.984375 69.390625 
L 28.421875 72.90625 
L 38.28125 72.90625 
L 38.28125 8.296875 
L 54.390625 8.296875 
L 54.390625 0 
L 12.40625 0 
z
" id="DejaVuSans-49"/>
     <path d="M 8.203125 72.90625 
L 55.078125 72.90625 
L 55.078125 68.703125 
L 28.609375 0 
L 18.3125 0 
L 43.21875 64.59375 
L 8.203125 64.59375 
z
" id="DejaVuSans-55"/>
     <path d="M 10.796875 72.90625 
L 49.515625 72.90625 
L 49.515625 64.59375 
L 19.828125 64.59375 
L 19.828125 46.734375 
Q 21.96875 47.46875 24.109375 47.828125 
Q 26.265625 48.1875 28.421875 48.1875 
Q 40.625 48.1875 47.75 41.5 
Q 54.890625 34.8125 54.890625 23.390625 
Q 54.890625 11.625 47.5625 5.09375 
Q 40.234375 -1.421875 26.90625 -1.421875 
Q 22.3125 -1.421875 17.546875 -0.640625 
Q 12.796875 0.140625 7.71875 1.703125 
L 7.71875 11.625 
Q 12.109375 9.234375 16.796875 8.0625 
Q 21.484375 6.890625 26.703125 6.890625 
Q 35.15625 6.890625 40.078125 11.328125 
Q 45.015625 15.765625 45.015625 23.390625 
Q 45.015625 31 40.078125 35.4375 
Q 35.15625 39.890625 26.703125 39.890625 
Q 22.75 39.890625 18.8125 39.015625 
Q 14.890625 38.140625 10.796875 36.28125 
z
" id="DejaVuSans-53"/>
    </defs>
    <g transform="translate(25.2 23.2)scale(0.14 -0.14)">
     <use xlink:href="#DejaVuSans-84"/>
     <use x="60.865234" xlink:href="#DejaVuSans-114"/>
     <use x="101.978516" xlink:href="#DejaVuSans-97"/>
     <use x="163.257812" xlink:href="#DejaVuSans-115"/>
     <use x="215.357422" xlink:href="#DejaVuSans-104"/>
     <use x="278.736328" xlink:href="#DejaVuSans-32"/>
     <use x="310.523438" xlink:href="#DejaVuSans-98"/>
     <use x="374" xlink:href="#DejaVuSans-121"/>
     <use x="433.179688" xlink:href="#DejaVuSans-32"/>
     <use x="464.966797" xlink:href="#DejaVuSans-115"/>
     <use x="517.066406" xlink:href="#DejaVuSans-111"/>
     <use x="578.248047" xlink:href="#DejaVuSans-117"/>
     <use x="641.626953" xlink:href="#DejaVuSans-114"/>
     <use x="682.708984" xlink:href="#DejaVuSans-99"/>
     <use x="737.689453" xlink:href="#DejaVuSans-101"/>
     <use x="799.212891" xlink:href="#DejaVuSans-32"/>
     <use x="831" xlink:href="#DejaVuSans-80"/>
     <use x="891.302734" xlink:href="#DejaVuSans-108"/>
     <use x="919.085938" xlink:href="#DejaVuSans-97"/>
     <use x="980.365234" xlink:href="#DejaVuSans-103"/>
     <use x="1043.841797" xlink:href="#DejaVuSans-101"/>
     <use x="1105.365234" xlink:href="#DejaVuSans-45"/>
     <use x="1141.449219" xlink:href="#DejaVuSans-100"/>
     <use x="1204.925781" xlink:href="#DejaVuSans-101"/>
     <use x="1266.449219" xlink:href="#DejaVuSans-45"/>
     <use x="1302.533203" xlink:href="#DejaVuSans-83"/>
     <use x="1366.009766" xlink:href="#DejaVuSans-116"/>
     <use x="1405.21875" xlink:href="#DejaVuSans-45"/>
     <use x="1441.302734" xlink:href="#DejaVuSans-83"/>
     <use x="1504.779297" xlink:href="#DejaVuSans-117"/>
     <use x="1568.158203" xlink:href="#DejaVuSans-108"/>
     <use x="1595.941406" xlink:href="#DejaVuSans-112"/>
     <use x="1659.417969" xlink:href="#DejaVuSans-105"/>
     <use x="1687.201172" xlink:href="#DejaVuSans-99"/>
     <use x="1742.181641" xlink:href="#DejaVuSans-101"/>
     <use x="1803.705078" xlink:href="#DejaVuSans-44"/>
     <use x="1835.492188" xlink:href="#DejaVuSans-32"/>
     <use x="1867.279297" xlink:href="#DejaVuSans-50"/>
     <use x="1930.902344" xlink:href="#DejaVuSans-48"/>
     <use x="1994.525391" xlink:href="#DejaVuSans-49"/>
     <use x="2058.148438" xlink:href="#DejaVuSans-55"/>
     <use x="2121.771484" xlink:href="#DejaVuSans-45"/>
     <use x="2157.855469" xlink:href="#DejaVuSans-49"/>
     <use x="2221.478516" xlink:href="#DejaVuSans-48"/>
     <use x="2285.101562" xlink:href="#DejaVuSans-45"/>
     <use x="2321.185547" xlink:href="#DejaVuSans-48"/>
     <use x="2384.808594" xlink:href="#DejaVuSans-53"/>
    </g>
   </g>
   <g id="legend_1">
    <g id="patch_17">
     <path d="M 184.087273 370.23425 
L 503.799773 370.23425 
Q 505.799773 370.23425 505.799773 368.23425 
L 505.799773 43.288 
Q 505.799773 41.288 503.799773 41.288 
L 184.087273 41.288 
Q 182.087273 41.288 182.087273 43.288 
L 182.087273 368.23425 
Q 182.087273 370.23425 184.087273 370.23425 
z
" style="fill:#ffffff;opacity:0.8;stroke:#cccccc;stroke-linejoin:miter;"/>
    </g>
    <g id="patch_18">
     <path d="M 186.087273 52.886437 
L 206.087273 52.886437 
L 206.087273 45.886437 
L 186.087273 45.886437 
z
" style="fill:#8a2be2;"/>
    </g>
    <g id="text_8">
     <!-- Fragmented: Plastic pieces 2.5 &gt; &lt; 50cm -->
     <defs>
      <path d="M 9.8125 72.90625 
L 51.703125 72.90625 
L 51.703125 64.59375 
L 19.671875 64.59375 
L 19.671875 43.109375 
L 48.578125 43.109375 
L 48.578125 34.8125 
L 19.671875 34.8125 
L 19.671875 0 
L 9.8125 0 
z
" id="DejaVuSans-70"/>
      <path d="M 54.890625 33.015625 
L 54.890625 0 
L 45.90625 0 
L 45.90625 32.71875 
Q 45.90625 40.484375 42.875 44.328125 
Q 39.84375 48.1875 33.796875 48.1875 
Q 26.515625 48.1875 22.3125 43.546875 
Q 18.109375 38.921875 18.109375 30.90625 
L 18.109375 0 
L 9.078125 0 
L 9.078125 54.6875 
L 18.109375 54.6875 
L 18.109375 46.1875 
Q 21.34375 51.125 25.703125 53.5625 
Q 30.078125 56 35.796875 56 
Q 45.21875 56 50.046875 50.171875 
Q 54.890625 44.34375 54.890625 33.015625 
z
" id="DejaVuSans-110"/>
      <path d="M 11.71875 12.40625 
L 22.015625 12.40625 
L 22.015625 0 
L 11.71875 0 
z
M 11.71875 51.703125 
L 22.015625 51.703125 
L 22.015625 39.3125 
L 11.71875 39.3125 
z
" id="DejaVuSans-58"/>
      <path d="M 10.6875 12.40625 
L 21 12.40625 
L 21 0 
L 10.6875 0 
z
" id="DejaVuSans-46"/>
      <path d="M 10.59375 49.21875 
L 10.59375 58.109375 
L 73.1875 35.40625 
L 73.1875 27.296875 
L 10.59375 4.59375 
L 10.59375 13.484375 
L 60.890625 31.296875 
z
" id="DejaVuSans-62"/>
      <path d="M 73.1875 49.21875 
L 22.796875 31.296875 
L 73.1875 13.484375 
L 73.1875 4.59375 
L 10.59375 27.296875 
L 10.59375 35.40625 
L 73.1875 58.109375 
z
" id="DejaVuSans-60"/>
     </defs>
     <g transform="translate(214.087273 52.886437)scale(0.1 -0.1)">
      <use xlink:href="#DejaVuSans-70"/>
      <use x="57.410156" xlink:href="#DejaVuSans-114"/>
      <use x="98.523438" xlink:href="#DejaVuSans-97"/>
      <use x="159.802734" xlink:href="#DejaVuSans-103"/>
      <use x="223.279297" xlink:href="#DejaVuSans-109"/>
      <use x="320.691406" xlink:href="#DejaVuSans-101"/>
      <use x="382.214844" xlink:href="#DejaVuSans-110"/>
      <use x="445.59375" xlink:href="#DejaVuSans-116"/>
      <use x="484.802734" xlink:href="#DejaVuSans-101"/>
      <use x="546.326172" xlink:href="#DejaVuSans-100"/>
      <use x="609.802734" xlink:href="#DejaVuSans-58"/>
      <use x="643.494141" xlink:href="#DejaVuSans-32"/>
      <use x="675.28125" xlink:href="#DejaVuSans-80"/>
      <use x="735.583984" xlink:href="#DejaVuSans-108"/>
      <use x="763.367188" xlink:href="#DejaVuSans-97"/>
      <use x="824.646484" xlink:href="#DejaVuSans-115"/>
      <use x="876.746094" xlink:href="#DejaVuSans-116"/>
      <use x="915.955078" xlink:href="#DejaVuSans-105"/>
      <use x="943.738281" xlink:href="#DejaVuSans-99"/>
      <use x="998.71875" xlink:href="#DejaVuSans-32"/>
      <use x="1030.505859" xlink:href="#DejaVuSans-112"/>
      <use x="1093.982422" xlink:href="#DejaVuSans-105"/>
      <use x="1121.765625" xlink:href="#DejaVuSans-101"/>
      <use x="1183.289062" xlink:href="#DejaVuSans-99"/>
      <use x="1238.269531" xlink:href="#DejaVuSans-101"/>
      <use x="1299.792969" xlink:href="#DejaVuSans-115"/>
      <use x="1351.892578" xlink:href="#DejaVuSans-32"/>
      <use x="1383.679688" xlink:href="#DejaVuSans-50"/>
      <use x="1447.302734" xlink:href="#DejaVuSans-46"/>
      <use x="1479.089844" xlink:href="#DejaVuSans-53"/>
      <use x="1542.712891" xlink:href="#DejaVuSans-32"/>
      <use x="1574.5" xlink:href="#DejaVuSans-62"/>
      <use x="1658.289062" xlink:href="#DejaVuSans-32"/>
      <use x="1690.076172" xlink:href="#DejaVuSans-60"/>
      <use x="1773.865234" xlink:href="#DejaVuSans-32"/>
      <use x="1805.652344" xlink:href="#DejaVuSans-53"/>
      <use x="1869.275391" xlink:href="#DejaVuSans-48"/>
      <use x="1932.898438" xlink:href="#DejaVuSans-99"/>
      <use x="1987.878906" xlink:href="#DejaVuSans-109"/>
     </g>
    </g>
    <g id="patch_19">
     <path d="M 186.087273 67.564562 
L 206.087273 67.564562 
L 206.087273 60.564562 
L 186.087273 60.564562 
z
" style="fill:#2e8b57;"/>
    </g>
    <g id="text_9">
     <!-- Water Treament: Biomass holder -->
     <defs>
      <path d="M 3.328125 72.90625 
L 13.28125 72.90625 
L 28.609375 11.28125 
L 43.890625 72.90625 
L 54.984375 72.90625 
L 70.3125 11.28125 
L 85.59375 72.90625 
L 95.609375 72.90625 
L 77.296875 0 
L 64.890625 0 
L 49.515625 63.28125 
L 33.984375 0 
L 21.578125 0 
z
" id="DejaVuSans-87"/>
      <path d="M 19.671875 34.8125 
L 19.671875 8.109375 
L 35.5 8.109375 
Q 43.453125 8.109375 47.28125 11.40625 
Q 51.125 14.703125 51.125 21.484375 
Q 51.125 28.328125 47.28125 31.5625 
Q 43.453125 34.8125 35.5 34.8125 
z
M 19.671875 64.796875 
L 19.671875 42.828125 
L 34.28125 42.828125 
Q 41.5 42.828125 45.03125 45.53125 
Q 48.578125 48.25 48.578125 53.8125 
Q 48.578125 59.328125 45.03125 62.0625 
Q 41.5 64.796875 34.28125 64.796875 
z
M 9.8125 72.90625 
L 35.015625 72.90625 
Q 46.296875 72.90625 52.390625 68.21875 
Q 58.5 63.53125 58.5 54.890625 
Q 58.5 48.1875 55.375 44.234375 
Q 52.25 40.28125 46.1875 39.3125 
Q 53.46875 37.75 57.5 32.78125 
Q 61.53125 27.828125 61.53125 20.40625 
Q 61.53125 10.640625 54.890625 5.3125 
Q 48.25 0 35.984375 0 
L 9.8125 0 
z
" id="DejaVuSans-66"/>
     </defs>
     <g transform="translate(214.087273 67.564562)scale(0.1 -0.1)">
      <use xlink:href="#DejaVuSans-87"/>
      <use x="98.783203" xlink:href="#DejaVuSans-97"/>
      <use x="160.0625" xlink:href="#DejaVuSans-116"/>
      <use x="199.271484" xlink:href="#DejaVuSans-101"/>
      <use x="260.794922" xlink:href="#DejaVuSans-114"/>
      <use x="301.908203" xlink:href="#DejaVuSans-32"/>
      <use x="333.695312" xlink:href="#DejaVuSans-84"/>
      <use x="394.560547" xlink:href="#DejaVuSans-114"/>
      <use x="435.642578" xlink:href="#DejaVuSans-101"/>
      <use x="497.166016" xlink:href="#DejaVuSans-97"/>
      <use x="558.445312" xlink:href="#DejaVuSans-109"/>
      <use x="655.857422" xlink:href="#DejaVuSans-101"/>
      <use x="717.380859" xlink:href="#DejaVuSans-110"/>
      <use x="780.759766" xlink:href="#DejaVuSans-116"/>
      <use x="819.96875" xlink:href="#DejaVuSans-58"/>
      <use x="853.660156" xlink:href="#DejaVuSans-32"/>
      <use x="885.447266" xlink:href="#DejaVuSans-66"/>
      <use x="954.050781" xlink:href="#DejaVuSans-105"/>
      <use x="981.833984" xlink:href="#DejaVuSans-111"/>
      <use x="1043.015625" xlink:href="#DejaVuSans-109"/>
      <use x="1140.427734" xlink:href="#DejaVuSans-97"/>
      <use x="1201.707031" xlink:href="#DejaVuSans-115"/>
      <use x="1253.806641" xlink:href="#DejaVuSans-115"/>
      <use x="1305.90625" xlink:href="#DejaVuSans-32"/>
      <use x="1337.693359" xlink:href="#DejaVuSans-104"/>
      <use x="1401.072266" xlink:href="#DejaVuSans-111"/>
      <use x="1462.253906" xlink:href="#DejaVuSans-108"/>
      <use x="1490.037109" xlink:href="#DejaVuSans-100"/>
      <use x="1553.513672" xlink:href="#DejaVuSans-101"/>
      <use x="1615.037109" xlink:href="#DejaVuSans-114"/>
     </g>
    </g>
    <g id="patch_20">
     <path d="M 186.087273 82.242687 
L 206.087273 82.242687 
L 206.087273 75.242687 
L 186.087273 75.242687 
z
" style="fill:#eee8aa;"/>
    </g>
    <g id="text_10">
     <!-- Other: Paper fragments -->
     <defs>
      <path d="M 39.40625 66.21875 
Q 28.65625 66.21875 22.328125 58.203125 
Q 16.015625 50.203125 16.015625 36.375 
Q 16.015625 22.609375 22.328125 14.59375 
Q 28.65625 6.59375 39.40625 6.59375 
Q 50.140625 6.59375 56.421875 14.59375 
Q 62.703125 22.609375 62.703125 36.375 
Q 62.703125 50.203125 56.421875 58.203125 
Q 50.140625 66.21875 39.40625 66.21875 
z
M 39.40625 74.21875 
Q 54.734375 74.21875 63.90625 63.9375 
Q 73.09375 53.65625 73.09375 36.375 
Q 73.09375 19.140625 63.90625 8.859375 
Q 54.734375 -1.421875 39.40625 -1.421875 
Q 24.03125 -1.421875 14.8125 8.828125 
Q 5.609375 19.09375 5.609375 36.375 
Q 5.609375 53.65625 14.8125 63.9375 
Q 24.03125 74.21875 39.40625 74.21875 
z
" id="DejaVuSans-79"/>
      <path d="M 37.109375 75.984375 
L 37.109375 68.5 
L 28.515625 68.5 
Q 23.6875 68.5 21.796875 66.546875 
Q 19.921875 64.59375 19.921875 59.515625 
L 19.921875 54.6875 
L 34.71875 54.6875 
L 34.71875 47.703125 
L 19.921875 47.703125 
L 19.921875 0 
L 10.890625 0 
L 10.890625 47.703125 
L 2.296875 47.703125 
L 2.296875 54.6875 
L 10.890625 54.6875 
L 10.890625 58.5 
Q 10.890625 67.625 15.140625 71.796875 
Q 19.390625 75.984375 28.609375 75.984375 
z
" id="DejaVuSans-102"/>
     </defs>
     <g transform="translate(214.087273 82.242687)scale(0.1 -0.1)">
      <use xlink:href="#DejaVuSans-79"/>
      <use x="78.710938" xlink:href="#DejaVuSans-116"/>
      <use x="117.919922" xlink:href="#DejaVuSans-104"/>
      <use x="181.298828" xlink:href="#DejaVuSans-101"/>
      <use x="242.822266" xlink:href="#DejaVuSans-114"/>
      <use x="283.919922" xlink:href="#DejaVuSans-58"/>
      <use x="317.611328" xlink:href="#DejaVuSans-32"/>
      <use x="349.398438" xlink:href="#DejaVuSans-80"/>
      <use x="409.638672" xlink:href="#DejaVuSans-97"/>
      <use x="470.917969" xlink:href="#DejaVuSans-112"/>
      <use x="534.394531" xlink:href="#DejaVuSans-101"/>
      <use x="595.917969" xlink:href="#DejaVuSans-114"/>
      <use x="637.03125" xlink:href="#DejaVuSans-32"/>
      <use x="668.818359" xlink:href="#DejaVuSans-102"/>
      <use x="704.023438" xlink:href="#DejaVuSans-114"/>
      <use x="745.136719" xlink:href="#DejaVuSans-97"/>
      <use x="806.416016" xlink:href="#DejaVuSans-103"/>
      <use x="869.892578" xlink:href="#DejaVuSans-109"/>
      <use x="967.304688" xlink:href="#DejaVuSans-101"/>
      <use x="1028.828125" xlink:href="#DejaVuSans-110"/>
      <use x="1092.207031" xlink:href="#DejaVuSans-116"/>
      <use x="1131.416016" xlink:href="#DejaVuSans-115"/>
     </g>
    </g>
    <g id="patch_21">
     <path d="M 186.087273 109.158469 
L 206.087273 109.158469 
L 206.087273 102.158469 
L 186.087273 102.158469 
z
" style="fill:#e9967a;"/>
    </g>
    <g id="text_11">
     <!-- Recreation: Toys and fireworks -->
     <defs>
      <path d="M 44.390625 34.1875 
Q 47.5625 33.109375 50.5625 29.59375 
Q 53.5625 26.078125 56.59375 19.921875 
L 66.609375 0 
L 56 0 
L 46.6875 18.703125 
Q 43.0625 26.03125 39.671875 28.421875 
Q 36.28125 30.8125 30.421875 30.8125 
L 19.671875 30.8125 
L 19.671875 0 
L 9.8125 0 
L 9.8125 72.90625 
L 32.078125 72.90625 
Q 44.578125 72.90625 50.734375 67.671875 
Q 56.890625 62.453125 56.890625 51.90625 
Q 56.890625 45.015625 53.6875 40.46875 
Q 50.484375 35.9375 44.390625 34.1875 
z
M 19.671875 64.796875 
L 19.671875 38.921875 
L 32.078125 38.921875 
Q 39.203125 38.921875 42.84375 42.21875 
Q 46.484375 45.515625 46.484375 51.90625 
Q 46.484375 58.296875 42.84375 61.546875 
Q 39.203125 64.796875 32.078125 64.796875 
z
" id="DejaVuSans-82"/>
      <path d="M 4.203125 54.6875 
L 13.1875 54.6875 
L 24.421875 12.015625 
L 35.59375 54.6875 
L 46.1875 54.6875 
L 57.421875 12.015625 
L 68.609375 54.6875 
L 77.59375 54.6875 
L 63.28125 0 
L 52.6875 0 
L 40.921875 44.828125 
L 29.109375 0 
L 18.5 0 
z
" id="DejaVuSans-119"/>
      <path d="M 9.078125 75.984375 
L 18.109375 75.984375 
L 18.109375 31.109375 
L 44.921875 54.6875 
L 56.390625 54.6875 
L 27.390625 29.109375 
L 57.625 0 
L 45.90625 0 
L 18.109375 26.703125 
L 18.109375 0 
L 9.078125 0 
z
" id="DejaVuSans-107"/>
     </defs>
     <g transform="translate(214.087273 96.920812)scale(0.1 -0.1)">
      <use xlink:href="#DejaVuSans-82"/>
      <use x="69.419922" xlink:href="#DejaVuSans-101"/>
      <use x="130.943359" xlink:href="#DejaVuSans-99"/>
      <use x="185.923828" xlink:href="#DejaVuSans-114"/>
      <use x="227.005859" xlink:href="#DejaVuSans-101"/>
      <use x="288.529297" xlink:href="#DejaVuSans-97"/>
      <use x="349.808594" xlink:href="#DejaVuSans-116"/>
      <use x="389.017578" xlink:href="#DejaVuSans-105"/>
      <use x="416.800781" xlink:href="#DejaVuSans-111"/>
      <use x="477.982422" xlink:href="#DejaVuSans-110"/>
      <use x="541.361328" xlink:href="#DejaVuSans-58"/>
      <use x="575.052734" xlink:href="#DejaVuSans-32"/>
      <use x="606.839844" xlink:href="#DejaVuSans-84"/>
      <use x="667.658203" xlink:href="#DejaVuSans-111"/>
      <use x="728.839844" xlink:href="#DejaVuSans-121"/>
      <use x="788.019531" xlink:href="#DejaVuSans-115"/>
      <use x="840.119141" xlink:href="#DejaVuSans-32"/>
      <use x="871.90625" xlink:href="#DejaVuSans-97"/>
      <use x="933.185547" xlink:href="#DejaVuSans-110"/>
      <use x="996.564453" xlink:href="#DejaVuSans-100"/>
      <use x="1060.041016" xlink:href="#DejaVuSans-32"/>
      <use x="1091.828125" xlink:href="#DejaVuSans-102"/>
      <use x="1127.033203" xlink:href="#DejaVuSans-105"/>
      <use x="1154.816406" xlink:href="#DejaVuSans-114"/>
      <use x="1195.898438" xlink:href="#DejaVuSans-101"/>
      <use x="1257.421875" xlink:href="#DejaVuSans-119"/>
      <use x="1339.208984" xlink:href="#DejaVuSans-111"/>
      <use x="1400.390625" xlink:href="#DejaVuSans-114"/>
      <use x="1441.503906" xlink:href="#DejaVuSans-107"/>
      <use x="1499.414062" xlink:href="#DejaVuSans-115"/>
     </g>
     <!-- Shotgun cartridges, Balloons and balloon sticks -->
     <g transform="translate(214.087273 108.118625)scale(0.1 -0.1)">
      <use xlink:href="#DejaVuSans-83"/>
      <use x="63.476562" xlink:href="#DejaVuSans-104"/>
      <use x="126.855469" xlink:href="#DejaVuSans-111"/>
      <use x="188.037109" xlink:href="#DejaVuSans-116"/>
      <use x="227.246094" xlink:href="#DejaVuSans-103"/>
      <use x="290.722656" xlink:href="#DejaVuSans-117"/>
      <use x="354.101562" xlink:href="#DejaVuSans-110"/>
      <use x="417.480469" xlink:href="#DejaVuSans-32"/>
      <use x="449.267578" xlink:href="#DejaVuSans-99"/>
      <use x="504.248047" xlink:href="#DejaVuSans-97"/>
      <use x="565.527344" xlink:href="#DejaVuSans-114"/>
      <use x="606.640625" xlink:href="#DejaVuSans-116"/>
      <use x="645.849609" xlink:href="#DejaVuSans-114"/>
      <use x="686.962891" xlink:href="#DejaVuSans-105"/>
      <use x="714.746094" xlink:href="#DejaVuSans-100"/>
      <use x="778.222656" xlink:href="#DejaVuSans-103"/>
      <use x="841.699219" xlink:href="#DejaVuSans-101"/>
      <use x="903.222656" xlink:href="#DejaVuSans-115"/>
      <use x="955.322266" xlink:href="#DejaVuSans-44"/>
      <use x="987.109375" xlink:href="#DejaVuSans-32"/>
      <use x="1018.896484" xlink:href="#DejaVuSans-66"/>
      <use x="1087.5" xlink:href="#DejaVuSans-97"/>
      <use x="1148.779297" xlink:href="#DejaVuSans-108"/>
      <use x="1176.5625" xlink:href="#DejaVuSans-108"/>
      <use x="1204.345703" xlink:href="#DejaVuSans-111"/>
      <use x="1265.527344" xlink:href="#DejaVuSans-111"/>
      <use x="1326.708984" xlink:href="#DejaVuSans-110"/>
      <use x="1390.087891" xlink:href="#DejaVuSans-115"/>
      <use x="1442.1875" xlink:href="#DejaVuSans-32"/>
      <use x="1473.974609" xlink:href="#DejaVuSans-97"/>
      <use x="1535.253906" xlink:href="#DejaVuSans-110"/>
      <use x="1598.632812" xlink:href="#DejaVuSans-100"/>
      <use x="1662.109375" xlink:href="#DejaVuSans-32"/>
      <use x="1693.896484" xlink:href="#DejaVuSans-98"/>
      <use x="1757.373047" xlink:href="#DejaVuSans-97"/>
      <use x="1818.652344" xlink:href="#DejaVuSans-108"/>
      <use x="1846.435547" xlink:href="#DejaVuSans-108"/>
      <use x="1874.21875" xlink:href="#DejaVuSans-111"/>
      <use x="1935.400391" xlink:href="#DejaVuSans-111"/>
      <use x="1996.582031" xlink:href="#DejaVuSans-110"/>
      <use x="2059.960938" xlink:href="#DejaVuSans-32"/>
      <use x="2091.748047" xlink:href="#DejaVuSans-115"/>
      <use x="2143.847656" xlink:href="#DejaVuSans-116"/>
      <use x="2183.056641" xlink:href="#DejaVuSans-105"/>
      <use x="2210.839844" xlink:href="#DejaVuSans-99"/>
      <use x="2265.820312" xlink:href="#DejaVuSans-107"/>
      <use x="2323.730469" xlink:href="#DejaVuSans-115"/>
     </g>
     <!-- Balls -->
     <g transform="translate(214.087273 119.316437)scale(0.1 -0.1)">
      <use xlink:href="#DejaVuSans-66"/>
      <use x="68.603516" xlink:href="#DejaVuSans-97"/>
      <use x="129.882812" xlink:href="#DejaVuSans-108"/>
      <use x="157.666016" xlink:href="#DejaVuSans-108"/>
      <use x="185.449219" xlink:href="#DejaVuSans-115"/>
     </g>
    </g>
    <g id="patch_22">
     <path d="M 186.087273 140.633312 
L 206.087273 140.633312 
L 206.087273 133.633312 
L 186.087273 133.633312 
z
" style="fill:#4b0082;"/>
    </g>
    <g id="text_12">
     <!-- Industry: Industrial sheeting -->
     <defs>
      <path d="M 9.8125 72.90625 
L 19.671875 72.90625 
L 19.671875 0 
L 9.8125 0 
z
" id="DejaVuSans-73"/>
     </defs>
     <g transform="translate(214.087273 133.994562)scale(0.1 -0.1)">
      <use xlink:href="#DejaVuSans-73"/>
      <use x="29.492188" xlink:href="#DejaVuSans-110"/>
      <use x="92.871094" xlink:href="#DejaVuSans-100"/>
      <use x="156.347656" xlink:href="#DejaVuSans-117"/>
      <use x="219.726562" xlink:href="#DejaVuSans-115"/>
      <use x="271.826172" xlink:href="#DejaVuSans-116"/>
      <use x="311.035156" xlink:href="#DejaVuSans-114"/>
      <use x="352.148438" xlink:href="#DejaVuSans-121"/>
      <use x="411.21875" xlink:href="#DejaVuSans-58"/>
      <use x="444.910156" xlink:href="#DejaVuSans-32"/>
      <use x="476.697266" xlink:href="#DejaVuSans-73"/>
      <use x="506.189453" xlink:href="#DejaVuSans-110"/>
      <use x="569.568359" xlink:href="#DejaVuSans-100"/>
      <use x="633.044922" xlink:href="#DejaVuSans-117"/>
      <use x="696.423828" xlink:href="#DejaVuSans-115"/>
      <use x="748.523438" xlink:href="#DejaVuSans-116"/>
      <use x="787.732422" xlink:href="#DejaVuSans-114"/>
      <use x="828.845703" xlink:href="#DejaVuSans-105"/>
      <use x="856.628906" xlink:href="#DejaVuSans-97"/>
      <use x="917.908203" xlink:href="#DejaVuSans-108"/>
      <use x="945.691406" xlink:href="#DejaVuSans-32"/>
      <use x="977.478516" xlink:href="#DejaVuSans-115"/>
      <use x="1029.578125" xlink:href="#DejaVuSans-104"/>
      <use x="1092.957031" xlink:href="#DejaVuSans-101"/>
      <use x="1154.480469" xlink:href="#DejaVuSans-101"/>
      <use x="1216.003906" xlink:href="#DejaVuSans-116"/>
      <use x="1255.212891" xlink:href="#DejaVuSans-105"/>
      <use x="1282.996094" xlink:href="#DejaVuSans-110"/>
      <use x="1346.375" xlink:href="#DejaVuSans-103"/>
     </g>
     <!-- Strapping bands, Processed wood -->
     <g transform="translate(214.087273 145.192375)scale(0.1 -0.1)">
      <use xlink:href="#DejaVuSans-83"/>
      <use x="63.476562" xlink:href="#DejaVuSans-116"/>
      <use x="102.685547" xlink:href="#DejaVuSans-114"/>
      <use x="143.798828" xlink:href="#DejaVuSans-97"/>
      <use x="205.078125" xlink:href="#DejaVuSans-112"/>
      <use x="268.554688" xlink:href="#DejaVuSans-112"/>
      <use x="332.03125" xlink:href="#DejaVuSans-105"/>
      <use x="359.814453" xlink:href="#DejaVuSans-110"/>
      <use x="423.193359" xlink:href="#DejaVuSans-103"/>
      <use x="486.669922" xlink:href="#DejaVuSans-32"/>
      <use x="518.457031" xlink:href="#DejaVuSans-98"/>
      <use x="581.933594" xlink:href="#DejaVuSans-97"/>
      <use x="643.212891" xlink:href="#DejaVuSans-110"/>
      <use x="706.591797" xlink:href="#DejaVuSans-100"/>
      <use x="770.068359" xlink:href="#DejaVuSans-115"/>
      <use x="822.167969" xlink:href="#DejaVuSans-44"/>
      <use x="853.955078" xlink:href="#DejaVuSans-32"/>
      <use x="885.742188" xlink:href="#DejaVuSans-80"/>
      <use x="946.029297" xlink:href="#DejaVuSans-114"/>
      <use x="987.111328" xlink:href="#DejaVuSans-111"/>
      <use x="1048.292969" xlink:href="#DejaVuSans-99"/>
      <use x="1103.273438" xlink:href="#DejaVuSans-101"/>
      <use x="1164.796875" xlink:href="#DejaVuSans-115"/>
      <use x="1216.896484" xlink:href="#DejaVuSans-115"/>
      <use x="1268.996094" xlink:href="#DejaVuSans-101"/>
      <use x="1330.519531" xlink:href="#DejaVuSans-100"/>
      <use x="1393.996094" xlink:href="#DejaVuSans-32"/>
      <use x="1425.783203" xlink:href="#DejaVuSans-119"/>
      <use x="1507.570312" xlink:href="#DejaVuSans-111"/>
      <use x="1568.751953" xlink:href="#DejaVuSans-111"/>
      <use x="1629.933594" xlink:href="#DejaVuSans-100"/>
     </g>
    </g>
    <g id="patch_23">
     <path d="M 186.087273 177.707062 
L 206.087273 177.707062 
L 206.087273 170.707062 
L 186.087273 170.707062 
z
" style="fill:#a9a9a9;"/>
    </g>
    <g id="text_13">
     <!-- Household: Lids for chemicals -->
     <defs>
      <path d="M 9.8125 72.90625 
L 19.671875 72.90625 
L 19.671875 43.015625 
L 55.515625 43.015625 
L 55.515625 72.90625 
L 65.375 72.90625 
L 65.375 0 
L 55.515625 0 
L 55.515625 34.71875 
L 19.671875 34.71875 
L 19.671875 0 
L 9.8125 0 
z
" id="DejaVuSans-72"/>
      <path d="M 9.8125 72.90625 
L 19.671875 72.90625 
L 19.671875 8.296875 
L 55.171875 8.296875 
L 55.171875 0 
L 9.8125 0 
z
" id="DejaVuSans-76"/>
     </defs>
     <g transform="translate(214.087273 159.8705)scale(0.1 -0.1)">
      <use xlink:href="#DejaVuSans-72"/>
      <use x="75.195312" xlink:href="#DejaVuSans-111"/>
      <use x="136.376953" xlink:href="#DejaVuSans-117"/>
      <use x="199.755859" xlink:href="#DejaVuSans-115"/>
      <use x="251.855469" xlink:href="#DejaVuSans-101"/>
      <use x="313.378906" xlink:href="#DejaVuSans-104"/>
      <use x="376.757812" xlink:href="#DejaVuSans-111"/>
      <use x="437.939453" xlink:href="#DejaVuSans-108"/>
      <use x="465.722656" xlink:href="#DejaVuSans-100"/>
      <use x="529.199219" xlink:href="#DejaVuSans-58"/>
      <use x="562.890625" xlink:href="#DejaVuSans-32"/>
      <use x="594.677734" xlink:href="#DejaVuSans-76"/>
      <use x="650.390625" xlink:href="#DejaVuSans-105"/>
      <use x="678.173828" xlink:href="#DejaVuSans-100"/>
      <use x="741.650391" xlink:href="#DejaVuSans-115"/>
      <use x="793.75" xlink:href="#DejaVuSans-32"/>
      <use x="825.537109" xlink:href="#DejaVuSans-102"/>
      <use x="860.742188" xlink:href="#DejaVuSans-111"/>
      <use x="921.923828" xlink:href="#DejaVuSans-114"/>
      <use x="963.037109" xlink:href="#DejaVuSans-32"/>
      <use x="994.824219" xlink:href="#DejaVuSans-99"/>
      <use x="1049.804688" xlink:href="#DejaVuSans-104"/>
      <use x="1113.183594" xlink:href="#DejaVuSans-101"/>
      <use x="1174.707031" xlink:href="#DejaVuSans-109"/>
      <use x="1272.119141" xlink:href="#DejaVuSans-105"/>
      <use x="1299.902344" xlink:href="#DejaVuSans-99"/>
      <use x="1354.882812" xlink:href="#DejaVuSans-97"/>
      <use x="1416.162109" xlink:href="#DejaVuSans-108"/>
      <use x="1443.945312" xlink:href="#DejaVuSans-115"/>
     </g>
     <!-- Rubber bands, Lids unidentified -->
     <g transform="translate(214.087273 171.068312)scale(0.1 -0.1)">
      <use xlink:href="#DejaVuSans-82"/>
      <use x="69.419922" xlink:href="#DejaVuSans-117"/>
      <use x="132.798828" xlink:href="#DejaVuSans-98"/>
      <use x="196.275391" xlink:href="#DejaVuSans-98"/>
      <use x="259.751953" xlink:href="#DejaVuSans-101"/>
      <use x="321.275391" xlink:href="#DejaVuSans-114"/>
      <use x="362.388672" xlink:href="#DejaVuSans-32"/>
      <use x="394.175781" xlink:href="#DejaVuSans-98"/>
      <use x="457.652344" xlink:href="#DejaVuSans-97"/>
      <use x="518.931641" xlink:href="#DejaVuSans-110"/>
      <use x="582.310547" xlink:href="#DejaVuSans-100"/>
      <use x="645.787109" xlink:href="#DejaVuSans-115"/>
      <use x="697.886719" xlink:href="#DejaVuSans-44"/>
      <use x="729.673828" xlink:href="#DejaVuSans-32"/>
      <use x="761.460938" xlink:href="#DejaVuSans-76"/>
      <use x="817.173828" xlink:href="#DejaVuSans-105"/>
      <use x="844.957031" xlink:href="#DejaVuSans-100"/>
      <use x="908.433594" xlink:href="#DejaVuSans-115"/>
      <use x="960.533203" xlink:href="#DejaVuSans-32"/>
      <use x="992.320312" xlink:href="#DejaVuSans-117"/>
      <use x="1055.699219" xlink:href="#DejaVuSans-110"/>
      <use x="1119.078125" xlink:href="#DejaVuSans-105"/>
      <use x="1146.861328" xlink:href="#DejaVuSans-100"/>
      <use x="1210.337891" xlink:href="#DejaVuSans-101"/>
      <use x="1271.861328" xlink:href="#DejaVuSans-110"/>
      <use x="1335.240234" xlink:href="#DejaVuSans-116"/>
      <use x="1374.449219" xlink:href="#DejaVuSans-105"/>
      <use x="1402.232422" xlink:href="#DejaVuSans-102"/>
      <use x="1437.4375" xlink:href="#DejaVuSans-105"/>
      <use x="1465.220703" xlink:href="#DejaVuSans-101"/>
      <use x="1526.744141" xlink:href="#DejaVuSans-100"/>
     </g>
     <!-- Pens and lids, String &lt; 1cm -->
     <g transform="translate(214.087273 182.266125)scale(0.1 -0.1)">
      <use xlink:href="#DejaVuSans-80"/>
      <use x="60.255859" xlink:href="#DejaVuSans-101"/>
      <use x="121.779297" xlink:href="#DejaVuSans-110"/>
      <use x="185.158203" xlink:href="#DejaVuSans-115"/>
      <use x="237.257812" xlink:href="#DejaVuSans-32"/>
      <use x="269.044922" xlink:href="#DejaVuSans-97"/>
      <use x="330.324219" xlink:href="#DejaVuSans-110"/>
      <use x="393.703125" xlink:href="#DejaVuSans-100"/>
      <use x="457.179688" xlink:href="#DejaVuSans-32"/>
      <use x="488.966797" xlink:href="#DejaVuSans-108"/>
      <use x="516.75" xlink:href="#DejaVuSans-105"/>
      <use x="544.533203" xlink:href="#DejaVuSans-100"/>
      <use x="608.009766" xlink:href="#DejaVuSans-115"/>
      <use x="660.109375" xlink:href="#DejaVuSans-44"/>
      <use x="691.896484" xlink:href="#DejaVuSans-32"/>
      <use x="723.683594" xlink:href="#DejaVuSans-83"/>
      <use x="787.160156" xlink:href="#DejaVuSans-116"/>
      <use x="826.369141" xlink:href="#DejaVuSans-114"/>
      <use x="867.482422" xlink:href="#DejaVuSans-105"/>
      <use x="895.265625" xlink:href="#DejaVuSans-110"/>
      <use x="958.644531" xlink:href="#DejaVuSans-103"/>
      <use x="1022.121094" xlink:href="#DejaVuSans-32"/>
      <use x="1053.908203" xlink:href="#DejaVuSans-60"/>
      <use x="1137.697266" xlink:href="#DejaVuSans-32"/>
      <use x="1169.484375" xlink:href="#DejaVuSans-49"/>
      <use x="1233.107422" xlink:href="#DejaVuSans-99"/>
      <use x="1288.087891" xlink:href="#DejaVuSans-109"/>
     </g>
     <!-- Cleaner bottles -->
     <defs>
      <path d="M 64.40625 67.28125 
L 64.40625 56.890625 
Q 59.421875 61.53125 53.78125 63.8125 
Q 48.140625 66.109375 41.796875 66.109375 
Q 29.296875 66.109375 22.65625 58.46875 
Q 16.015625 50.828125 16.015625 36.375 
Q 16.015625 21.96875 22.65625 14.328125 
Q 29.296875 6.6875 41.796875 6.6875 
Q 48.140625 6.6875 53.78125 8.984375 
Q 59.421875 11.28125 64.40625 15.921875 
L 64.40625 5.609375 
Q 59.234375 2.09375 53.4375 0.328125 
Q 47.65625 -1.421875 41.21875 -1.421875 
Q 24.65625 -1.421875 15.125 8.703125 
Q 5.609375 18.84375 5.609375 36.375 
Q 5.609375 53.953125 15.125 64.078125 
Q 24.65625 74.21875 41.21875 74.21875 
Q 47.75 74.21875 53.53125 72.484375 
Q 59.328125 70.75 64.40625 67.28125 
z
" id="DejaVuSans-67"/>
     </defs>
     <g transform="translate(214.087273 193.463937)scale(0.1 -0.1)">
      <use xlink:href="#DejaVuSans-67"/>
      <use x="69.824219" xlink:href="#DejaVuSans-108"/>
      <use x="97.607422" xlink:href="#DejaVuSans-101"/>
      <use x="159.130859" xlink:href="#DejaVuSans-97"/>
      <use x="220.410156" xlink:href="#DejaVuSans-110"/>
      <use x="283.789062" xlink:href="#DejaVuSans-101"/>
      <use x="345.3125" xlink:href="#DejaVuSans-114"/>
      <use x="386.425781" xlink:href="#DejaVuSans-32"/>
      <use x="418.212891" xlink:href="#DejaVuSans-98"/>
      <use x="481.689453" xlink:href="#DejaVuSans-111"/>
      <use x="542.871094" xlink:href="#DejaVuSans-116"/>
      <use x="582.080078" xlink:href="#DejaVuSans-116"/>
      <use x="621.289062" xlink:href="#DejaVuSans-108"/>
      <use x="649.072266" xlink:href="#DejaVuSans-101"/>
      <use x="710.595703" xlink:href="#DejaVuSans-115"/>
     </g>
    </g>
    <g id="patch_24">
     <path d="M 186.087273 220.379719 
L 206.087273 220.379719 
L 206.087273 213.379719 
L 186.087273 213.379719 
z
" style="fill:#800000;"/>
    </g>
    <g id="text_14">
     <!-- Medical: Cotton swabs -->
     <defs>
      <path d="M 9.8125 72.90625 
L 24.515625 72.90625 
L 43.109375 23.296875 
L 61.8125 72.90625 
L 76.515625 72.90625 
L 76.515625 0 
L 66.890625 0 
L 66.890625 64.015625 
L 48.09375 14.015625 
L 38.1875 14.015625 
L 19.390625 64.015625 
L 19.390625 0 
L 9.8125 0 
z
" id="DejaVuSans-77"/>
     </defs>
     <g transform="translate(214.087273 208.142062)scale(0.1 -0.1)">
      <use xlink:href="#DejaVuSans-77"/>
      <use x="86.279297" xlink:href="#DejaVuSans-101"/>
      <use x="147.802734" xlink:href="#DejaVuSans-100"/>
      <use x="211.279297" xlink:href="#DejaVuSans-105"/>
      <use x="239.0625" xlink:href="#DejaVuSans-99"/>
      <use x="294.042969" xlink:href="#DejaVuSans-97"/>
      <use x="355.322266" xlink:href="#DejaVuSans-108"/>
      <use x="383.105469" xlink:href="#DejaVuSans-58"/>
      <use x="416.796875" xlink:href="#DejaVuSans-32"/>
      <use x="448.583984" xlink:href="#DejaVuSans-67"/>
      <use x="518.408203" xlink:href="#DejaVuSans-111"/>
      <use x="579.589844" xlink:href="#DejaVuSans-116"/>
      <use x="618.798828" xlink:href="#DejaVuSans-116"/>
      <use x="658.007812" xlink:href="#DejaVuSans-111"/>
      <use x="719.189453" xlink:href="#DejaVuSans-110"/>
      <use x="782.568359" xlink:href="#DejaVuSans-32"/>
      <use x="814.355469" xlink:href="#DejaVuSans-115"/>
      <use x="866.455078" xlink:href="#DejaVuSans-119"/>
      <use x="948.242188" xlink:href="#DejaVuSans-97"/>
      <use x="1009.521484" xlink:href="#DejaVuSans-98"/>
      <use x="1072.998047" xlink:href="#DejaVuSans-115"/>
     </g>
     <!-- Medical containers, Sanitary napkins, tampon applicators -->
     <g transform="translate(214.087273 219.339875)scale(0.1 -0.1)">
      <use xlink:href="#DejaVuSans-77"/>
      <use x="86.279297" xlink:href="#DejaVuSans-101"/>
      <use x="147.802734" xlink:href="#DejaVuSans-100"/>
      <use x="211.279297" xlink:href="#DejaVuSans-105"/>
      <use x="239.0625" xlink:href="#DejaVuSans-99"/>
      <use x="294.042969" xlink:href="#DejaVuSans-97"/>
      <use x="355.322266" xlink:href="#DejaVuSans-108"/>
      <use x="383.105469" xlink:href="#DejaVuSans-32"/>
      <use x="414.892578" xlink:href="#DejaVuSans-99"/>
      <use x="469.873047" xlink:href="#DejaVuSans-111"/>
      <use x="531.054688" xlink:href="#DejaVuSans-110"/>
      <use x="594.433594" xlink:href="#DejaVuSans-116"/>
      <use x="633.642578" xlink:href="#DejaVuSans-97"/>
      <use x="694.921875" xlink:href="#DejaVuSans-105"/>
      <use x="722.705078" xlink:href="#DejaVuSans-110"/>
      <use x="786.083984" xlink:href="#DejaVuSans-101"/>
      <use x="847.607422" xlink:href="#DejaVuSans-114"/>
      <use x="888.720703" xlink:href="#DejaVuSans-115"/>
      <use x="940.820312" xlink:href="#DejaVuSans-44"/>
      <use x="972.607422" xlink:href="#DejaVuSans-32"/>
      <use x="1004.394531" xlink:href="#DejaVuSans-83"/>
      <use x="1067.871094" xlink:href="#DejaVuSans-97"/>
      <use x="1129.150391" xlink:href="#DejaVuSans-110"/>
      <use x="1192.529297" xlink:href="#DejaVuSans-105"/>
      <use x="1220.3125" xlink:href="#DejaVuSans-116"/>
      <use x="1259.521484" xlink:href="#DejaVuSans-97"/>
      <use x="1320.800781" xlink:href="#DejaVuSans-114"/>
      <use x="1361.914062" xlink:href="#DejaVuSans-121"/>
      <use x="1421.09375" xlink:href="#DejaVuSans-32"/>
      <use x="1452.880859" xlink:href="#DejaVuSans-110"/>
      <use x="1516.259766" xlink:href="#DejaVuSans-97"/>
      <use x="1577.539062" xlink:href="#DejaVuSans-112"/>
      <use x="1641.015625" xlink:href="#DejaVuSans-107"/>
      <use x="1698.925781" xlink:href="#DejaVuSans-105"/>
      <use x="1726.708984" xlink:href="#DejaVuSans-110"/>
      <use x="1790.087891" xlink:href="#DejaVuSans-115"/>
      <use x="1842.1875" xlink:href="#DejaVuSans-44"/>
      <use x="1873.974609" xlink:href="#DejaVuSans-32"/>
      <use x="1905.761719" xlink:href="#DejaVuSans-116"/>
      <use x="1944.970703" xlink:href="#DejaVuSans-97"/>
      <use x="2006.25" xlink:href="#DejaVuSans-109"/>
      <use x="2103.662109" xlink:href="#DejaVuSans-112"/>
      <use x="2167.138672" xlink:href="#DejaVuSans-111"/>
      <use x="2228.320312" xlink:href="#DejaVuSans-110"/>
      <use x="2291.699219" xlink:href="#DejaVuSans-32"/>
      <use x="2323.486328" xlink:href="#DejaVuSans-97"/>
      <use x="2384.765625" xlink:href="#DejaVuSans-112"/>
      <use x="2448.242188" xlink:href="#DejaVuSans-112"/>
      <use x="2511.71875" xlink:href="#DejaVuSans-108"/>
      <use x="2539.501953" xlink:href="#DejaVuSans-105"/>
      <use x="2567.285156" xlink:href="#DejaVuSans-99"/>
      <use x="2622.265625" xlink:href="#DejaVuSans-97"/>
      <use x="2683.544922" xlink:href="#DejaVuSans-116"/>
      <use x="2722.753906" xlink:href="#DejaVuSans-111"/>
      <use x="2783.935547" xlink:href="#DejaVuSans-114"/>
      <use x="2825.048828" xlink:href="#DejaVuSans-115"/>
     </g>
     <!-- Syringes - needles -->
     <g transform="translate(214.087273 230.537687)scale(0.1 -0.1)">
      <use xlink:href="#DejaVuSans-83"/>
      <use x="63.476562" xlink:href="#DejaVuSans-121"/>
      <use x="122.65625" xlink:href="#DejaVuSans-114"/>
      <use x="163.769531" xlink:href="#DejaVuSans-105"/>
      <use x="191.552734" xlink:href="#DejaVuSans-110"/>
      <use x="254.931641" xlink:href="#DejaVuSans-103"/>
      <use x="318.408203" xlink:href="#DejaVuSans-101"/>
      <use x="379.931641" xlink:href="#DejaVuSans-115"/>
      <use x="432.03125" xlink:href="#DejaVuSans-32"/>
      <use x="463.818359" xlink:href="#DejaVuSans-45"/>
      <use x="499.902344" xlink:href="#DejaVuSans-32"/>
      <use x="531.689453" xlink:href="#DejaVuSans-110"/>
      <use x="595.068359" xlink:href="#DejaVuSans-101"/>
      <use x="656.591797" xlink:href="#DejaVuSans-101"/>
      <use x="718.115234" xlink:href="#DejaVuSans-100"/>
      <use x="781.591797" xlink:href="#DejaVuSans-108"/>
      <use x="809.375" xlink:href="#DejaVuSans-101"/>
      <use x="870.898438" xlink:href="#DejaVuSans-115"/>
     </g>
    </g>
    <g id="patch_25">
     <path d="M 186.087273 251.854562 
L 206.087273 251.854562 
L 206.087273 244.854562 
L 186.087273 244.854562 
z
" style="fill:#708090;"/>
    </g>
    <g id="text_15">
     <!-- Construction: Masking tape -->
     <g transform="translate(214.087273 245.215812)scale(0.1 -0.1)">
      <use xlink:href="#DejaVuSans-67"/>
      <use x="69.824219" xlink:href="#DejaVuSans-111"/>
      <use x="131.005859" xlink:href="#DejaVuSans-110"/>
      <use x="194.384766" xlink:href="#DejaVuSans-115"/>
      <use x="246.484375" xlink:href="#DejaVuSans-116"/>
      <use x="285.693359" xlink:href="#DejaVuSans-114"/>
      <use x="326.806641" xlink:href="#DejaVuSans-117"/>
      <use x="390.185547" xlink:href="#DejaVuSans-99"/>
      <use x="445.166016" xlink:href="#DejaVuSans-116"/>
      <use x="484.375" xlink:href="#DejaVuSans-105"/>
      <use x="512.158203" xlink:href="#DejaVuSans-111"/>
      <use x="573.339844" xlink:href="#DejaVuSans-110"/>
      <use x="636.71875" xlink:href="#DejaVuSans-58"/>
      <use x="670.410156" xlink:href="#DejaVuSans-32"/>
      <use x="702.197266" xlink:href="#DejaVuSans-77"/>
      <use x="788.476562" xlink:href="#DejaVuSans-97"/>
      <use x="849.755859" xlink:href="#DejaVuSans-115"/>
      <use x="901.855469" xlink:href="#DejaVuSans-107"/>
      <use x="959.765625" xlink:href="#DejaVuSans-105"/>
      <use x="987.548828" xlink:href="#DejaVuSans-110"/>
      <use x="1050.927734" xlink:href="#DejaVuSans-103"/>
      <use x="1114.404297" xlink:href="#DejaVuSans-32"/>
      <use x="1146.191406" xlink:href="#DejaVuSans-116"/>
      <use x="1185.400391" xlink:href="#DejaVuSans-97"/>
      <use x="1246.679688" xlink:href="#DejaVuSans-112"/>
      <use x="1310.15625" xlink:href="#DejaVuSans-101"/>
     </g>
     <!-- Construction material, Plastic construction waste -->
     <g transform="translate(214.087273 256.413625)scale(0.1 -0.1)">
      <use xlink:href="#DejaVuSans-67"/>
      <use x="69.824219" xlink:href="#DejaVuSans-111"/>
      <use x="131.005859" xlink:href="#DejaVuSans-110"/>
      <use x="194.384766" xlink:href="#DejaVuSans-115"/>
      <use x="246.484375" xlink:href="#DejaVuSans-116"/>
      <use x="285.693359" xlink:href="#DejaVuSans-114"/>
      <use x="326.806641" xlink:href="#DejaVuSans-117"/>
      <use x="390.185547" xlink:href="#DejaVuSans-99"/>
      <use x="445.166016" xlink:href="#DejaVuSans-116"/>
      <use x="484.375" xlink:href="#DejaVuSans-105"/>
      <use x="512.158203" xlink:href="#DejaVuSans-111"/>
      <use x="573.339844" xlink:href="#DejaVuSans-110"/>
      <use x="636.71875" xlink:href="#DejaVuSans-32"/>
      <use x="668.505859" xlink:href="#DejaVuSans-109"/>
      <use x="765.917969" xlink:href="#DejaVuSans-97"/>
      <use x="827.197266" xlink:href="#DejaVuSans-116"/>
      <use x="866.40625" xlink:href="#DejaVuSans-101"/>
      <use x="927.929688" xlink:href="#DejaVuSans-114"/>
      <use x="969.042969" xlink:href="#DejaVuSans-105"/>
      <use x="996.826172" xlink:href="#DejaVuSans-97"/>
      <use x="1058.105469" xlink:href="#DejaVuSans-108"/>
      <use x="1085.888672" xlink:href="#DejaVuSans-44"/>
      <use x="1117.675781" xlink:href="#DejaVuSans-32"/>
      <use x="1149.462891" xlink:href="#DejaVuSans-80"/>
      <use x="1209.765625" xlink:href="#DejaVuSans-108"/>
      <use x="1237.548828" xlink:href="#DejaVuSans-97"/>
      <use x="1298.828125" xlink:href="#DejaVuSans-115"/>
      <use x="1350.927734" xlink:href="#DejaVuSans-116"/>
      <use x="1390.136719" xlink:href="#DejaVuSans-105"/>
      <use x="1417.919922" xlink:href="#DejaVuSans-99"/>
      <use x="1472.900391" xlink:href="#DejaVuSans-32"/>
      <use x="1504.6875" xlink:href="#DejaVuSans-99"/>
      <use x="1559.667969" xlink:href="#DejaVuSans-111"/>
      <use x="1620.849609" xlink:href="#DejaVuSans-110"/>
      <use x="1684.228516" xlink:href="#DejaVuSans-115"/>
      <use x="1736.328125" xlink:href="#DejaVuSans-116"/>
      <use x="1775.537109" xlink:href="#DejaVuSans-114"/>
      <use x="1816.650391" xlink:href="#DejaVuSans-117"/>
      <use x="1880.029297" xlink:href="#DejaVuSans-99"/>
      <use x="1935.009766" xlink:href="#DejaVuSans-116"/>
      <use x="1974.21875" xlink:href="#DejaVuSans-105"/>
      <use x="2002.001953" xlink:href="#DejaVuSans-111"/>
      <use x="2063.183594" xlink:href="#DejaVuSans-110"/>
      <use x="2126.5625" xlink:href="#DejaVuSans-32"/>
      <use x="2158.349609" xlink:href="#DejaVuSans-119"/>
      <use x="2240.136719" xlink:href="#DejaVuSans-97"/>
      <use x="2301.416016" xlink:href="#DejaVuSans-115"/>
      <use x="2353.515625" xlink:href="#DejaVuSans-116"/>
      <use x="2392.724609" xlink:href="#DejaVuSans-101"/>
     </g>
    </g>
    <g id="patch_26">
     <path d="M 186.087273 271.09175 
L 206.087273 271.09175 
L 206.087273 264.09175 
L 186.087273 264.09175 
z
" style="fill:#ff00ff;"/>
    </g>
    <g id="text_16">
     <!-- Tobaco: Cigarette butts -->
     <g transform="translate(214.087273 271.09175)scale(0.1 -0.1)">
      <use xlink:href="#DejaVuSans-84"/>
      <use x="60.818359" xlink:href="#DejaVuSans-111"/>
      <use x="122" xlink:href="#DejaVuSans-98"/>
      <use x="185.476562" xlink:href="#DejaVuSans-97"/>
      <use x="246.755859" xlink:href="#DejaVuSans-99"/>
      <use x="301.736328" xlink:href="#DejaVuSans-111"/>
      <use x="362.917969" xlink:href="#DejaVuSans-58"/>
      <use x="396.609375" xlink:href="#DejaVuSans-32"/>
      <use x="428.396484" xlink:href="#DejaVuSans-67"/>
      <use x="498.220703" xlink:href="#DejaVuSans-105"/>
      <use x="526.003906" xlink:href="#DejaVuSans-103"/>
      <use x="589.480469" xlink:href="#DejaVuSans-97"/>
      <use x="650.759766" xlink:href="#DejaVuSans-114"/>
      <use x="691.841797" xlink:href="#DejaVuSans-101"/>
      <use x="753.365234" xlink:href="#DejaVuSans-116"/>
      <use x="792.574219" xlink:href="#DejaVuSans-116"/>
      <use x="831.783203" xlink:href="#DejaVuSans-101"/>
      <use x="893.306641" xlink:href="#DejaVuSans-32"/>
      <use x="925.09375" xlink:href="#DejaVuSans-98"/>
      <use x="988.570312" xlink:href="#DejaVuSans-117"/>
      <use x="1051.949219" xlink:href="#DejaVuSans-116"/>
      <use x="1091.158203" xlink:href="#DejaVuSans-116"/>
      <use x="1130.367188" xlink:href="#DejaVuSans-115"/>
     </g>
    </g>
    <g id="patch_27">
     <path d="M 186.087273 326.002062 
L 206.087273 326.002062 
L 206.087273 319.002062 
L 186.087273 319.002062 
z
" style="fill:#0000ff;"/>
    </g>
    <g id="text_17">
     <!-- Food: Bottles -->
     <g transform="translate(214.087273 285.769875)scale(0.1 -0.1)">
      <use xlink:href="#DejaVuSans-70"/>
      <use x="57.472656" xlink:href="#DejaVuSans-111"/>
      <use x="118.654297" xlink:href="#DejaVuSans-111"/>
      <use x="179.835938" xlink:href="#DejaVuSans-100"/>
      <use x="243.3125" xlink:href="#DejaVuSans-58"/>
      <use x="277.003906" xlink:href="#DejaVuSans-32"/>
      <use x="308.791016" xlink:href="#DejaVuSans-66"/>
      <use x="377.394531" xlink:href="#DejaVuSans-111"/>
      <use x="438.576172" xlink:href="#DejaVuSans-116"/>
      <use x="477.785156" xlink:href="#DejaVuSans-116"/>
      <use x="516.994141" xlink:href="#DejaVuSans-108"/>
      <use x="544.777344" xlink:href="#DejaVuSans-101"/>
      <use x="606.300781" xlink:href="#DejaVuSans-115"/>
     </g>
     <!-- Candy and snack wrappers, Beverage cans -->
     <defs>
      <path d="M 2.984375 54.6875 
L 12.5 54.6875 
L 29.59375 8.796875 
L 46.6875 54.6875 
L 56.203125 54.6875 
L 35.6875 0 
L 23.484375 0 
z
" id="DejaVuSans-118"/>
     </defs>
     <g transform="translate(214.087273 296.967687)scale(0.1 -0.1)">
      <use xlink:href="#DejaVuSans-67"/>
      <use x="69.824219" xlink:href="#DejaVuSans-97"/>
      <use x="131.103516" xlink:href="#DejaVuSans-110"/>
      <use x="194.482422" xlink:href="#DejaVuSans-100"/>
      <use x="257.958984" xlink:href="#DejaVuSans-121"/>
      <use x="317.138672" xlink:href="#DejaVuSans-32"/>
      <use x="348.925781" xlink:href="#DejaVuSans-97"/>
      <use x="410.205078" xlink:href="#DejaVuSans-110"/>
      <use x="473.583984" xlink:href="#DejaVuSans-100"/>
      <use x="537.060547" xlink:href="#DejaVuSans-32"/>
      <use x="568.847656" xlink:href="#DejaVuSans-115"/>
      <use x="620.947266" xlink:href="#DejaVuSans-110"/>
      <use x="684.326172" xlink:href="#DejaVuSans-97"/>
      <use x="745.605469" xlink:href="#DejaVuSans-99"/>
      <use x="800.585938" xlink:href="#DejaVuSans-107"/>
      <use x="858.496094" xlink:href="#DejaVuSans-32"/>
      <use x="890.283203" xlink:href="#DejaVuSans-119"/>
      <use x="972.070312" xlink:href="#DejaVuSans-114"/>
      <use x="1013.183594" xlink:href="#DejaVuSans-97"/>
      <use x="1074.462891" xlink:href="#DejaVuSans-112"/>
      <use x="1137.939453" xlink:href="#DejaVuSans-112"/>
      <use x="1201.416016" xlink:href="#DejaVuSans-101"/>
      <use x="1262.939453" xlink:href="#DejaVuSans-114"/>
      <use x="1304.052734" xlink:href="#DejaVuSans-115"/>
      <use x="1356.152344" xlink:href="#DejaVuSans-44"/>
      <use x="1387.939453" xlink:href="#DejaVuSans-32"/>
      <use x="1419.726562" xlink:href="#DejaVuSans-66"/>
      <use x="1488.330078" xlink:href="#DejaVuSans-101"/>
      <use x="1549.853516" xlink:href="#DejaVuSans-118"/>
      <use x="1609.033203" xlink:href="#DejaVuSans-101"/>
      <use x="1670.556641" xlink:href="#DejaVuSans-114"/>
      <use x="1711.669922" xlink:href="#DejaVuSans-97"/>
      <use x="1772.949219" xlink:href="#DejaVuSans-103"/>
      <use x="1836.425781" xlink:href="#DejaVuSans-101"/>
      <use x="1897.949219" xlink:href="#DejaVuSans-32"/>
      <use x="1929.736328" xlink:href="#DejaVuSans-99"/>
      <use x="1984.716797" xlink:href="#DejaVuSans-97"/>
      <use x="2045.996094" xlink:href="#DejaVuSans-110"/>
      <use x="2109.375" xlink:href="#DejaVuSans-115"/>
     </g>
     <!-- Bottle caps, lids, Food containers -->
     <g transform="translate(214.087273 308.1655)scale(0.1 -0.1)">
      <use xlink:href="#DejaVuSans-66"/>
      <use x="68.603516" xlink:href="#DejaVuSans-111"/>
      <use x="129.785156" xlink:href="#DejaVuSans-116"/>
      <use x="168.994141" xlink:href="#DejaVuSans-116"/>
      <use x="208.203125" xlink:href="#DejaVuSans-108"/>
      <use x="235.986328" xlink:href="#DejaVuSans-101"/>
      <use x="297.509766" xlink:href="#DejaVuSans-32"/>
      <use x="329.296875" xlink:href="#DejaVuSans-99"/>
      <use x="384.277344" xlink:href="#DejaVuSans-97"/>
      <use x="445.556641" xlink:href="#DejaVuSans-112"/>
      <use x="509.033203" xlink:href="#DejaVuSans-115"/>
      <use x="561.132812" xlink:href="#DejaVuSans-44"/>
      <use x="592.919922" xlink:href="#DejaVuSans-32"/>
      <use x="624.707031" xlink:href="#DejaVuSans-108"/>
      <use x="652.490234" xlink:href="#DejaVuSans-105"/>
      <use x="680.273438" xlink:href="#DejaVuSans-100"/>
      <use x="743.75" xlink:href="#DejaVuSans-115"/>
      <use x="795.849609" xlink:href="#DejaVuSans-44"/>
      <use x="827.636719" xlink:href="#DejaVuSans-32"/>
      <use x="859.423828" xlink:href="#DejaVuSans-70"/>
      <use x="916.896484" xlink:href="#DejaVuSans-111"/>
      <use x="978.078125" xlink:href="#DejaVuSans-111"/>
      <use x="1039.259766" xlink:href="#DejaVuSans-100"/>
      <use x="1102.736328" xlink:href="#DejaVuSans-32"/>
      <use x="1134.523438" xlink:href="#DejaVuSans-99"/>
      <use x="1189.503906" xlink:href="#DejaVuSans-111"/>
      <use x="1250.685547" xlink:href="#DejaVuSans-110"/>
      <use x="1314.064453" xlink:href="#DejaVuSans-116"/>
      <use x="1353.273438" xlink:href="#DejaVuSans-97"/>
      <use x="1414.552734" xlink:href="#DejaVuSans-105"/>
      <use x="1442.335938" xlink:href="#DejaVuSans-110"/>
      <use x="1505.714844" xlink:href="#DejaVuSans-101"/>
      <use x="1567.238281" xlink:href="#DejaVuSans-114"/>
      <use x="1608.351562" xlink:href="#DejaVuSans-115"/>
     </g>
     <!-- Lollypop sticks, Foil wrappers -->
     <g transform="translate(214.087273 319.363312)scale(0.1 -0.1)">
      <use xlink:href="#DejaVuSans-76"/>
      <use x="55.697266" xlink:href="#DejaVuSans-111"/>
      <use x="116.878906" xlink:href="#DejaVuSans-108"/>
      <use x="144.662109" xlink:href="#DejaVuSans-108"/>
      <use x="172.445312" xlink:href="#DejaVuSans-121"/>
      <use x="231.625" xlink:href="#DejaVuSans-112"/>
      <use x="295.101562" xlink:href="#DejaVuSans-111"/>
      <use x="356.283203" xlink:href="#DejaVuSans-112"/>
      <use x="419.759766" xlink:href="#DejaVuSans-32"/>
      <use x="451.546875" xlink:href="#DejaVuSans-115"/>
      <use x="503.646484" xlink:href="#DejaVuSans-116"/>
      <use x="542.855469" xlink:href="#DejaVuSans-105"/>
      <use x="570.638672" xlink:href="#DejaVuSans-99"/>
      <use x="625.619141" xlink:href="#DejaVuSans-107"/>
      <use x="683.529297" xlink:href="#DejaVuSans-115"/>
      <use x="735.628906" xlink:href="#DejaVuSans-44"/>
      <use x="767.416016" xlink:href="#DejaVuSans-32"/>
      <use x="799.203125" xlink:href="#DejaVuSans-70"/>
      <use x="856.675781" xlink:href="#DejaVuSans-111"/>
      <use x="917.857422" xlink:href="#DejaVuSans-105"/>
      <use x="945.640625" xlink:href="#DejaVuSans-108"/>
      <use x="973.423828" xlink:href="#DejaVuSans-32"/>
      <use x="1005.210938" xlink:href="#DejaVuSans-119"/>
      <use x="1086.998047" xlink:href="#DejaVuSans-114"/>
      <use x="1128.111328" xlink:href="#DejaVuSans-97"/>
      <use x="1189.390625" xlink:href="#DejaVuSans-112"/>
      <use x="1252.867188" xlink:href="#DejaVuSans-112"/>
      <use x="1316.34375" xlink:href="#DejaVuSans-101"/>
      <use x="1377.867188" xlink:href="#DejaVuSans-114"/>
      <use x="1418.980469" xlink:href="#DejaVuSans-115"/>
     </g>
     <!-- Cups and cup lids, Drink lids -->
     <defs>
      <path d="M 19.671875 64.796875 
L 19.671875 8.109375 
L 31.59375 8.109375 
Q 46.6875 8.109375 53.6875 14.9375 
Q 60.6875 21.78125 60.6875 36.53125 
Q 60.6875 51.171875 53.6875 57.984375 
Q 46.6875 64.796875 31.59375 64.796875 
z
M 9.8125 72.90625 
L 30.078125 72.90625 
Q 51.265625 72.90625 61.171875 64.09375 
Q 71.09375 55.28125 71.09375 36.53125 
Q 71.09375 17.671875 61.125 8.828125 
Q 51.171875 0 30.078125 0 
L 9.8125 0 
z
" id="DejaVuSans-68"/>
     </defs>
     <g transform="translate(214.087273 330.561125)scale(0.1 -0.1)">
      <use xlink:href="#DejaVuSans-67"/>
      <use x="69.824219" xlink:href="#DejaVuSans-117"/>
      <use x="133.203125" xlink:href="#DejaVuSans-112"/>
      <use x="196.679688" xlink:href="#DejaVuSans-115"/>
      <use x="248.779297" xlink:href="#DejaVuSans-32"/>
      <use x="280.566406" xlink:href="#DejaVuSans-97"/>
      <use x="341.845703" xlink:href="#DejaVuSans-110"/>
      <use x="405.224609" xlink:href="#DejaVuSans-100"/>
      <use x="468.701172" xlink:href="#DejaVuSans-32"/>
      <use x="500.488281" xlink:href="#DejaVuSans-99"/>
      <use x="555.46875" xlink:href="#DejaVuSans-117"/>
      <use x="618.847656" xlink:href="#DejaVuSans-112"/>
      <use x="682.324219" xlink:href="#DejaVuSans-32"/>
      <use x="714.111328" xlink:href="#DejaVuSans-108"/>
      <use x="741.894531" xlink:href="#DejaVuSans-105"/>
      <use x="769.677734" xlink:href="#DejaVuSans-100"/>
      <use x="833.154297" xlink:href="#DejaVuSans-115"/>
      <use x="885.253906" xlink:href="#DejaVuSans-44"/>
      <use x="917.041016" xlink:href="#DejaVuSans-32"/>
      <use x="948.828125" xlink:href="#DejaVuSans-68"/>
      <use x="1025.830078" xlink:href="#DejaVuSans-114"/>
      <use x="1066.943359" xlink:href="#DejaVuSans-105"/>
      <use x="1094.726562" xlink:href="#DejaVuSans-110"/>
      <use x="1158.105469" xlink:href="#DejaVuSans-107"/>
      <use x="1216.015625" xlink:href="#DejaVuSans-32"/>
      <use x="1247.802734" xlink:href="#DejaVuSans-108"/>
      <use x="1275.585938" xlink:href="#DejaVuSans-105"/>
      <use x="1303.369141" xlink:href="#DejaVuSans-100"/>
      <use x="1366.845703" xlink:href="#DejaVuSans-115"/>
     </g>
     <!-- Straws and stirrers, Plastic rings from lids -->
     <g transform="translate(214.087273 341.758937)scale(0.1 -0.1)">
      <use xlink:href="#DejaVuSans-83"/>
      <use x="63.476562" xlink:href="#DejaVuSans-116"/>
      <use x="102.685547" xlink:href="#DejaVuSans-114"/>
      <use x="143.798828" xlink:href="#DejaVuSans-97"/>
      <use x="205.078125" xlink:href="#DejaVuSans-119"/>
      <use x="286.865234" xlink:href="#DejaVuSans-115"/>
      <use x="338.964844" xlink:href="#DejaVuSans-32"/>
      <use x="370.751953" xlink:href="#DejaVuSans-97"/>
      <use x="432.03125" xlink:href="#DejaVuSans-110"/>
      <use x="495.410156" xlink:href="#DejaVuSans-100"/>
      <use x="558.886719" xlink:href="#DejaVuSans-32"/>
      <use x="590.673828" xlink:href="#DejaVuSans-115"/>
      <use x="642.773438" xlink:href="#DejaVuSans-116"/>
      <use x="681.982422" xlink:href="#DejaVuSans-105"/>
      <use x="709.765625" xlink:href="#DejaVuSans-114"/>
      <use x="750.863281" xlink:href="#DejaVuSans-114"/>
      <use x="791.945312" xlink:href="#DejaVuSans-101"/>
      <use x="853.46875" xlink:href="#DejaVuSans-114"/>
      <use x="894.582031" xlink:href="#DejaVuSans-115"/>
      <use x="946.681641" xlink:href="#DejaVuSans-44"/>
      <use x="978.46875" xlink:href="#DejaVuSans-32"/>
      <use x="1010.255859" xlink:href="#DejaVuSans-80"/>
      <use x="1070.558594" xlink:href="#DejaVuSans-108"/>
      <use x="1098.341797" xlink:href="#DejaVuSans-97"/>
      <use x="1159.621094" xlink:href="#DejaVuSans-115"/>
      <use x="1211.720703" xlink:href="#DejaVuSans-116"/>
      <use x="1250.929688" xlink:href="#DejaVuSans-105"/>
      <use x="1278.712891" xlink:href="#DejaVuSans-99"/>
      <use x="1333.693359" xlink:href="#DejaVuSans-32"/>
      <use x="1365.480469" xlink:href="#DejaVuSans-114"/>
      <use x="1406.59375" xlink:href="#DejaVuSans-105"/>
      <use x="1434.376953" xlink:href="#DejaVuSans-110"/>
      <use x="1497.755859" xlink:href="#DejaVuSans-103"/>
      <use x="1561.232422" xlink:href="#DejaVuSans-115"/>
      <use x="1613.332031" xlink:href="#DejaVuSans-32"/>
      <use x="1645.119141" xlink:href="#DejaVuSans-102"/>
      <use x="1680.324219" xlink:href="#DejaVuSans-114"/>
      <use x="1721.40625" xlink:href="#DejaVuSans-111"/>
      <use x="1782.587891" xlink:href="#DejaVuSans-109"/>
      <use x="1880" xlink:href="#DejaVuSans-32"/>
      <use x="1911.787109" xlink:href="#DejaVuSans-108"/>
      <use x="1939.570312" xlink:href="#DejaVuSans-105"/>
      <use x="1967.353516" xlink:href="#DejaVuSans-100"/>
      <use x="2030.830078" xlink:href="#DejaVuSans-115"/>
     </g>
     <!-- Ice cream sticks, chopsticks, Drink bottles  &gt; 0.5l -->
     <g transform="translate(214.087273 352.95675)scale(0.1 -0.1)">
      <use xlink:href="#DejaVuSans-73"/>
      <use x="29.492188" xlink:href="#DejaVuSans-99"/>
      <use x="84.472656" xlink:href="#DejaVuSans-101"/>
      <use x="145.996094" xlink:href="#DejaVuSans-32"/>
      <use x="177.783203" xlink:href="#DejaVuSans-99"/>
      <use x="232.763672" xlink:href="#DejaVuSans-114"/>
      <use x="273.845703" xlink:href="#DejaVuSans-101"/>
      <use x="335.369141" xlink:href="#DejaVuSans-97"/>
      <use x="396.648438" xlink:href="#DejaVuSans-109"/>
      <use x="494.060547" xlink:href="#DejaVuSans-32"/>
      <use x="525.847656" xlink:href="#DejaVuSans-115"/>
      <use x="577.947266" xlink:href="#DejaVuSans-116"/>
      <use x="617.15625" xlink:href="#DejaVuSans-105"/>
      <use x="644.939453" xlink:href="#DejaVuSans-99"/>
      <use x="699.919922" xlink:href="#DejaVuSans-107"/>
      <use x="757.830078" xlink:href="#DejaVuSans-115"/>
      <use x="809.929688" xlink:href="#DejaVuSans-44"/>
      <use x="841.716797" xlink:href="#DejaVuSans-32"/>
      <use x="873.503906" xlink:href="#DejaVuSans-99"/>
      <use x="928.484375" xlink:href="#DejaVuSans-104"/>
      <use x="991.863281" xlink:href="#DejaVuSans-111"/>
      <use x="1053.044922" xlink:href="#DejaVuSans-112"/>
      <use x="1116.521484" xlink:href="#DejaVuSans-115"/>
      <use x="1168.621094" xlink:href="#DejaVuSans-116"/>
      <use x="1207.830078" xlink:href="#DejaVuSans-105"/>
      <use x="1235.613281" xlink:href="#DejaVuSans-99"/>
      <use x="1290.59375" xlink:href="#DejaVuSans-107"/>
      <use x="1348.503906" xlink:href="#DejaVuSans-115"/>
      <use x="1400.603516" xlink:href="#DejaVuSans-44"/>
      <use x="1432.390625" xlink:href="#DejaVuSans-32"/>
      <use x="1464.177734" xlink:href="#DejaVuSans-68"/>
      <use x="1541.179688" xlink:href="#DejaVuSans-114"/>
      <use x="1582.292969" xlink:href="#DejaVuSans-105"/>
      <use x="1610.076172" xlink:href="#DejaVuSans-110"/>
      <use x="1673.455078" xlink:href="#DejaVuSans-107"/>
      <use x="1731.365234" xlink:href="#DejaVuSans-32"/>
      <use x="1763.152344" xlink:href="#DejaVuSans-98"/>
      <use x="1826.628906" xlink:href="#DejaVuSans-111"/>
      <use x="1887.810547" xlink:href="#DejaVuSans-116"/>
      <use x="1927.019531" xlink:href="#DejaVuSans-116"/>
      <use x="1966.228516" xlink:href="#DejaVuSans-108"/>
      <use x="1994.011719" xlink:href="#DejaVuSans-101"/>
      <use x="2055.535156" xlink:href="#DejaVuSans-115"/>
      <use x="2107.634766" xlink:href="#DejaVuSans-32"/>
      <use x="2139.421875" xlink:href="#DejaVuSans-32"/>
      <use x="2171.208984" xlink:href="#DejaVuSans-62"/>
      <use x="2254.998047" xlink:href="#DejaVuSans-32"/>
      <use x="2286.785156" xlink:href="#DejaVuSans-48"/>
      <use x="2350.408203" xlink:href="#DejaVuSans-46"/>
      <use x="2382.195312" xlink:href="#DejaVuSans-53"/>
      <use x="2445.818359" xlink:href="#DejaVuSans-108"/>
     </g>
     <!-- Cutlery and trays -->
     <g transform="translate(214.087273 364.154562)scale(0.1 -0.1)">
      <use xlink:href="#DejaVuSans-67"/>
      <use x="69.824219" xlink:href="#DejaVuSans-117"/>
      <use x="133.203125" xlink:href="#DejaVuSans-116"/>
      <use x="172.412109" xlink:href="#DejaVuSans-108"/>
      <use x="200.195312" xlink:href="#DejaVuSans-101"/>
      <use x="261.71875" xlink:href="#DejaVuSans-114"/>
      <use x="302.832031" xlink:href="#DejaVuSans-121"/>
      <use x="362.011719" xlink:href="#DejaVuSans-32"/>
      <use x="393.798828" xlink:href="#DejaVuSans-97"/>
      <use x="455.078125" xlink:href="#DejaVuSans-110"/>
      <use x="518.457031" xlink:href="#DejaVuSans-100"/>
      <use x="581.933594" xlink:href="#DejaVuSans-32"/>
      <use x="613.720703" xlink:href="#DejaVuSans-116"/>
      <use x="652.929688" xlink:href="#DejaVuSans-114"/>
      <use x="694.042969" xlink:href="#DejaVuSans-97"/>
      <use x="755.322266" xlink:href="#DejaVuSans-121"/>
      <use x="814.501953" xlink:href="#DejaVuSans-115"/>
     </g>
    </g>
   </g>
  </g>
 </g>
 <defs>
  <clipPath id="p6d91d1a4be">
   <rect height="345.6" width="148.909091" x="25.2" y="43.2"/>
  </clipPath>
 </defs>
</svg>
